# Blender 5.2.0 LTS
# www.blender.org
o Barrel
v 0.255000 0.000000 0.000000
v 0.229747 0.000000 -0.110640
v 0.158990 0.000000 -0.199367
v 0.056743 0.000000 -0.248607
v -0.056743 0.000000 -0.248607
v -0.158990 0.000000 -0.199367
v -0.229747 0.000000 -0.110640
v -0.255000 0.000000 -0.000000
v -0.229747 0.000000 0.110640
v -0.158990 0.000000 0.199367
v -0.056743 0.000000 0.248607
v 0.056743 0.000000 0.248607
v 0.158990 0.000000 0.199367
v 0.229747 0.000000 0.110640
v 0.300000 0.050000 0.000000
v 0.270291 0.050000 -0.130165
v 0.187047 0.050000 -0.234549
v 0.066756 0.050000 -0.292478
v -0.066756 0.050000 -0.292478
v -0.187047 0.050000 -0.234549
v -0.270291 0.050000 -0.130165
v -0.300000 0.050000 -0.000000
v -0.270291 0.050000 0.130165
v -0.187047 0.050000 0.234549
v -0.066756 0.050000 0.292478
v 0.066756 0.050000 0.292478
v 0.187047 0.050000 0.234549
v 0.270291 0.050000 0.130165
v 0.335000 0.200000 0.000000
v 0.301825 0.200000 -0.145351
v 0.208869 0.200000 -0.261914
v 0.074545 0.200000 -0.326601
v -0.074545 0.200000 -0.326601
v -0.208869 0.200000 -0.261914
v -0.301825 0.200000 -0.145351
v -0.335000 0.200000 -0.000000
v -0.301825 0.200000 0.145351
v -0.208869 0.200000 0.261914
v -0.074545 0.200000 0.326601
v 0.074545 0.200000 0.326601
v 0.208869 0.200000 0.261914
v 0.301825 0.200000 0.145351
v 0.360000 0.240000 0.000000
v 0.324349 0.240000 -0.156198
v 0.224456 0.240000 -0.281459
v 0.080108 0.240000 -0.350974
v -0.080108 0.240000 -0.350974
v -0.224456 0.240000 -0.281459
v -0.324349 0.240000 -0.156198
v -0.360000 0.240000 -0.000000
v -0.324349 0.240000 0.156198
v -0.224456 0.240000 0.281459
v -0.080108 0.240000 0.350974
v 0.080108 0.240000 0.350974
v 0.224456 0.240000 0.281459
v 0.324349 0.240000 0.156198
v 0.335000 0.280000 0.000000
v 0.301825 0.280000 -0.145351
v 0.208869 0.280000 -0.261914
v 0.074545 0.280000 -0.326601
v -0.074545 0.280000 -0.326601
v -0.208869 0.280000 -0.261914
v -0.301825 0.280000 -0.145351
v -0.335000 0.280000 -0.000000
v -0.301825 0.280000 0.145351
v -0.208869 0.280000 0.261914
v -0.074545 0.280000 0.326601
v 0.074545 0.280000 0.326601
v 0.208869 0.280000 0.261914
v 0.301825 0.280000 0.145351
v 0.352000 0.500000 0.000000
v 0.317141 0.500000 -0.152727
v 0.219468 0.500000 -0.275205
v 0.078327 0.500000 -0.343175
v -0.078327 0.500000 -0.343175
v -0.219468 0.500000 -0.275205
v -0.317141 0.500000 -0.152727
v -0.352000 0.500000 -0.000000
v -0.317141 0.500000 0.152727
v -0.219468 0.500000 0.275205
v -0.078327 0.500000 0.343175
v 0.078327 0.500000 0.343175
v 0.219468 0.500000 0.275205
v 0.317141 0.500000 0.152727
v 0.335000 0.720000 0.000000
v 0.301825 0.720000 -0.145351
v 0.208869 0.720000 -0.261914
v 0.074545 0.720000 -0.326601
v -0.074545 0.720000 -0.326601
v -0.208869 0.720000 -0.261914
v -0.301825 0.720000 -0.145351
v -0.335000 0.720000 -0.000000
v -0.301825 0.720000 0.145351
v -0.208869 0.720000 0.261914
v -0.074545 0.720000 0.326601
v 0.074545 0.720000 0.326601
v 0.208869 0.720000 0.261914
v 0.301825 0.720000 0.145351
v 0.360000 0.760000 0.000000
v 0.324349 0.760000 -0.156198
v 0.224456 0.760000 -0.281459
v 0.080108 0.760000 -0.350974
v -0.080108 0.760000 -0.350974
v -0.224456 0.760000 -0.281459
v -0.324349 0.760000 -0.156198
v -0.360000 0.760000 -0.000000
v -0.324349 0.760000 0.156198
v -0.224456 0.760000 0.281459
v -0.080108 0.760000 0.350974
v 0.080108 0.760000 0.350974
v 0.224456 0.760000 0.281459
v 0.324349 0.760000 0.156198
v 0.335000 0.800000 0.000000
v 0.301825 0.800000 -0.145351
v 0.208869 0.800000 -0.261914
v 0.074545 0.800000 -0.326601
v -0.074545 0.800000 -0.326601
v -0.208869 0.800000 -0.261914
v -0.301825 0.800000 -0.145351
v -0.335000 0.800000 -0.000000
v -0.301825 0.800000 0.145351
v -0.208869 0.800000 0.261914
v -0.074545 0.800000 0.326601
v 0.074545 0.800000 0.326601
v 0.208869 0.800000 0.261914
v 0.301825 0.800000 0.145351
v 0.300000 0.950000 0.000000
v 0.270291 0.950000 -0.130165
v 0.187047 0.950000 -0.234549
v 0.066756 0.950000 -0.292478
v -0.066756 0.950000 -0.292478
v -0.187047 0.950000 -0.234549
v -0.270291 0.950000 -0.130165
v -0.300000 0.950000 -0.000000
v -0.270291 0.950000 0.130165
v -0.187047 0.950000 0.234549
v -0.066756 0.950000 0.292478
v 0.066756 0.950000 0.292478
v 0.187047 0.950000 0.234549
v 0.270291 0.950000 0.130165
v 0.255000 1.000000 0.000000
v 0.229747 1.000000 -0.110640
v 0.158990 1.000000 -0.199367
v 0.056743 1.000000 -0.248607
v -0.056743 1.000000 -0.248607
v -0.158990 1.000000 -0.199367
v -0.229747 1.000000 -0.110640
v -0.255000 1.000000 -0.000000
v -0.229747 1.000000 0.110640
v -0.158990 1.000000 0.199367
v -0.056743 1.000000 0.248607
v 0.056743 1.000000 0.248607
v 0.158990 1.000000 0.199367
v 0.229747 1.000000 0.110640
vn 0.6697 -0.6690 -0.3225
vn 0.8936 -0.4488 -0.0000
vn 0.7433 -0.6690 -0.0000
vn 0.4634 -0.6690 -0.5811
vn 0.8052 -0.4488 -0.3877
vn 0.1654 -0.6690 -0.7247
vn 0.5572 -0.4488 -0.6987
vn -0.1989 -0.4488 -0.8712
vn 0.1989 -0.4488 -0.8712
vn -0.4634 -0.6690 -0.5811
vn -0.1654 -0.6690 -0.7247
vn -0.6697 -0.6690 -0.3225
vn -0.5572 -0.4488 -0.6987
vn -0.8936 -0.4488 -0.0000
vn -0.8051 -0.4488 -0.3877
vn -0.6697 -0.6690 0.3225
vn -0.7433 -0.6690 -0.0000
vn -0.4634 -0.6690 0.5811
vn -0.8052 -0.4488 0.3877
vn -0.1654 -0.6690 0.7247
vn -0.5572 -0.4488 0.6987
vn 0.1989 -0.4488 0.8712
vn -0.1989 -0.4488 0.8712
vn 0.4634 -0.6690 0.5811
vn 0.1654 -0.6690 0.7247
vn 0.6697 -0.6690 0.3225
vn 0.5572 -0.4488 0.6987
vn 0.8051 -0.4488 0.3877
vn 0.9198 -0.3923 -0.0000
vn 0.8287 -0.3923 -0.3991
vn 0.2047 -0.3923 -0.8968
vn 0.5735 -0.3923 -0.7192
vn -0.2047 -0.3923 -0.8968
vn -0.5735 -0.3923 -0.7192
vn -0.8287 -0.3923 -0.3991
vn -0.9198 -0.3923 -0.0000
vn -0.8287 -0.3923 0.3991
vn -0.2047 -0.3923 0.8968
vn -0.5735 -0.3923 0.7192
vn 0.2047 -0.3923 0.8968
vn 0.5735 -0.3923 0.7192
vn 0.8287 -0.3923 0.3991
vn 0.7640 -0.5300 -0.3679
vn 0.8480 -0.5300 -0.0000
vn 0.5287 -0.5300 -0.6630
vn 0.1887 -0.5300 -0.8267
vn -0.1887 -0.5300 -0.8267
vn -0.5287 -0.5300 -0.6630
vn -0.7640 -0.5300 -0.3679
vn -0.7640 -0.5300 0.3679
vn -0.8480 -0.5300 -0.0000
vn -0.5287 -0.5300 0.6630
vn -0.1887 -0.5300 0.8267
vn 0.1887 -0.5300 0.8267
vn 0.5287 -0.5300 0.6630
vn 0.7640 -0.5300 0.3679
vn 0.7640 0.5300 -0.3679
vn 0.9684 0.2494 -0.0000
vn 0.8480 0.5300 -0.0000
vn 0.5287 0.5300 -0.6630
vn 0.8725 0.2494 -0.4202
vn 0.1887 0.5300 -0.8267
vn 0.6038 0.2494 -0.7571
vn -0.1887 0.5300 -0.8267
vn 0.2155 0.2494 -0.9441
vn -0.5287 0.5300 -0.6630
vn -0.2155 0.2494 -0.9441
vn -0.7640 0.5300 -0.3679
vn -0.6038 0.2494 -0.7571
vn -0.9684 0.2494 -0.0000
vn -0.8725 0.2494 -0.4202
vn -0.7640 0.5300 0.3679
vn -0.8480 0.5300 -0.0000
vn -0.5287 0.5300 0.6630
vn -0.8725 0.2494 0.4202
vn -0.1887 0.5300 0.8267
vn -0.6038 0.2494 0.7571
vn 0.1887 0.5300 0.8267
vn -0.2155 0.2494 0.9441
vn 0.5287 0.5300 0.6630
vn 0.2155 0.2494 0.9441
vn 0.7640 0.5300 0.3679
vn 0.6038 0.2494 0.7571
vn 0.8725 0.2494 0.4202
vn 1.0000 -0.0000 -0.0000
vn 0.9010 -0.0000 -0.4339
vn 0.6235 -0.0000 -0.7818
vn 0.2225 -0.0000 -0.9749
vn -0.2225 -0.0000 -0.9749
vn -0.6235 -0.0000 -0.7818
vn -0.9010 -0.0000 -0.4339
vn -1.0000 -0.0000 -0.0000
vn -0.9010 -0.0000 0.4339
vn -0.6235 -0.0000 0.7818
vn -0.2225 -0.0000 0.9749
vn 0.2225 -0.0000 0.9749
vn 0.6235 -0.0000 0.7818
vn 0.9010 -0.0000 0.4339
vn 0.9684 -0.2493 -0.0000
vn 0.8725 -0.2494 -0.4202
vn 0.2155 -0.2494 -0.9441
vn 0.6038 -0.2494 -0.7571
vn -0.2155 -0.2493 -0.9441
vn -0.6038 -0.2494 -0.7571
vn -0.9684 -0.2493 -0.0000
vn -0.8725 -0.2494 -0.4202
vn -0.8725 -0.2494 0.4202
vn -0.2155 -0.2494 0.9441
vn -0.6038 -0.2494 0.7571
vn 0.2155 -0.2493 0.9441
vn 0.6038 -0.2494 0.7571
vn 0.8725 -0.2494 0.4202
vn 0.9198 0.3923 -0.0000
vn 0.5735 0.3923 -0.7192
vn 0.8287 0.3923 -0.3991
vn 0.2047 0.3923 -0.8968
vn -0.2047 0.3923 -0.8968
vn -0.5735 0.3923 -0.7192
vn -0.8287 0.3923 -0.3991
vn -0.9198 0.3923 -0.0000
vn -0.5735 0.3923 0.7192
vn -0.8287 0.3923 0.3991
vn -0.2047 0.3923 0.8968
vn 0.2047 0.3923 0.8968
vn 0.5735 0.3923 0.7192
vn 0.8287 0.3923 0.3991
vn 0.8052 0.4488 -0.3877
vn 0.8936 0.4488 -0.0000
vn 0.5572 0.4488 -0.6987
vn 0.1989 0.4488 -0.8712
vn -0.1989 0.4488 -0.8712
vn -0.5572 0.4488 -0.6987
vn -0.8052 0.4488 -0.3877
vn -0.8052 0.4488 0.3877
vn -0.8936 0.4488 -0.0000
vn -0.5572 0.4488 0.6987
vn -0.1989 0.4488 0.8712
vn 0.1989 0.4488 0.8712
vn 0.5572 0.4488 0.6987
vn 0.8052 0.4488 0.3877
vn 0.7433 0.6690 -0.0000
vn 0.6697 0.6690 -0.3225
vn 0.4634 0.6690 -0.5811
vn 0.1654 0.6690 -0.7247
vn -0.1654 0.6690 -0.7247
vn -0.4634 0.6690 -0.5811
vn -0.7433 0.6690 -0.0000
vn -0.6697 0.6690 -0.3225
vn -0.6697 0.6690 0.3225
vn -0.4634 0.6690 0.5811
vn -0.1654 0.6690 0.7247
vn 0.1654 0.6690 0.7247
vn 0.4634 0.6690 0.5811
vn 0.6697 0.6690 0.3225
vn -0.0000 -1.0000 -0.0000
vn -0.0000 1.0000 -0.0000
vt 0.413554 0.495885
vt 0.474245 0.473147
vt 0.469324 0.495885
vt 0.689318 0.757115
vt 0.631028 0.729721
vt 0.649696 0.717867
vt 0.142305 0.993918
vt 0.206340 0.969989
vt 0.192552 0.995885
vt 0.081614 0.967675
vt 0.147226 0.967675
vt 0.036288 0.995885
vt 0.086535 0.993918
vt 0.796344 0.493918
vt 0.860379 0.469989
vt 0.846591 0.495885
vt 0.735653 0.467675
vt 0.801264 0.467675
vt 0.690326 0.495885
vt 0.740573 0.493918
vt 0.821654 0.544272
vt 0.879944 0.571667
vt 0.861276 0.583521
vt 0.768927 0.526102
vt 0.833331 0.525492
vt 0.191395 0.495885
vt 0.130704 0.473147
vt 0.196316 0.473147
vt 0.666457 0.562504
vt 0.706135 0.511770
vt 0.713538 0.532609
vt 0.637009 0.609866
vt 0.650746 0.546941
vt 0.609064 0.667894
vt 0.616102 0.602661
vt 0.408633 0.473147
vt 0.478072 0.401040
vt 0.349519 0.470833
vt 0.404806 0.401040
vt 0.151053 0.892842
vt 0.217064 0.895426
vt 0.022500 0.969989
vt 0.077786 0.892842
vt 0.871103 0.395426
vt 0.805092 0.392842
vt 0.676538 0.469989
vt 0.731825 0.392842
vt 0.635630 0.474159
vt 0.665814 0.395426
vt 0.255430 0.470833
vt 0.200143 0.401040
vt 0.266154 0.398456
vt 0.071590 0.470833
vt 0.126876 0.401040
vt 0.030681 0.466663
vt 0.060866 0.398456
vt 0.544083 0.398456
vt 0.533359 0.470833
vt 0.402072 0.382421
vt 0.480806 0.382421
vt 0.338795 0.398456
vt 0.224724 0.875053
vt 0.153787 0.872276
vt 0.011776 0.895426
vt 0.075053 0.872276
vt 0.878763 0.375053
vt 0.807826 0.372276
vt 0.658154 0.375053
vt 0.729091 0.372276
vt 0.620133 0.400082
vt 0.273814 0.379644
vt 0.202877 0.382421
vt 0.124143 0.382421
vt 0.244933 0.580116
vt 0.232955 0.504116
vt 0.244933 0.506849
vt 0.551743 0.379644
vt 0.478072 0.361856
vt 0.331135 0.379644
vt 0.404806 0.361856
vt 0.217064 0.856242
vt 0.151053 0.853657
vt 0.004116 0.875053
vt 0.077786 0.853657
vt 0.871103 0.356241
vt 0.731825 0.353657
vt 0.805092 0.353657
vt 0.311835 0.354615
vt 0.322904 0.374641
vt 0.266154 0.359272
vt 0.200143 0.361856
vt 0.053206 0.379644
vt 0.126876 0.361856
vt 0.589764 0.354615
vt 0.600833 0.374641
vt 0.544083 0.359272
vt 0.479931 0.254761
vt 0.338795 0.359272
vt 0.402947 0.254761
vt 0.222273 0.747954
vt 0.152912 0.745239
vt 0.011776 0.856242
vt 0.075927 0.745239
vt 0.876311 0.247954
vt 0.806951 0.245239
vt 0.665814 0.356241
vt 0.729966 0.245239
vt 0.620133 0.360898
vt 0.660605 0.247954
vt 0.271363 0.252046
vt 0.202002 0.254761
vt 0.060866 0.359272
vt 0.125017 0.254761
vt 0.597291 0.247153
vt 0.549292 0.252046
vt 0.478072 0.146343
vt 0.333586 0.252046
vt 0.404806 0.146343
vt 0.151053 0.638145
vt 0.217064 0.640729
vt 0.077786 0.638145
vt 0.006567 0.747954
vt 0.871103 0.140729
vt 0.731825 0.138144
vt 0.805092 0.138144
vt 0.311835 0.139102
vt 0.319362 0.247153
vt 0.200143 0.146343
vt 0.266154 0.143759
vt 0.126876 0.146343
vt 0.055657 0.252046
vt 0.589764 0.139102
vt 0.544083 0.143759
vt 0.402072 0.127724
vt 0.480806 0.127724
vt 0.331135 0.124947
vt 0.224724 0.620356
vt 0.153787 0.617579
vt 0.011776 0.640729
vt 0.075053 0.617579
vt 0.878763 0.120356
vt 0.807826 0.117579
vt 0.658154 0.120356
vt 0.729091 0.117579
vt 0.665814 0.140729
vt 0.609064 0.125359
vt 0.273814 0.124947
vt 0.202877 0.127724
vt 0.060866 0.143759
vt 0.124143 0.127724
vt 0.265141 0.580116
vt 0.253164 0.504116
vt 0.265141 0.506849
vt 0.551743 0.124947
vt 0.478072 0.107158
vt 0.338795 0.104574
vt 0.404806 0.107158
vt 0.151053 0.598960
vt 0.217064 0.601544
vt 0.004116 0.620356
vt 0.077786 0.598960
vt 0.871103 0.101544
vt 0.805092 0.098960
vt 0.731825 0.098960
vt 0.322904 0.119944
vt 0.266154 0.104574
vt 0.311835 0.099918
vt 0.200143 0.107159
vt 0.053206 0.124947
vt 0.126876 0.107159
vt 0.004116 0.119944
vt 0.060866 0.104574
vt 0.544083 0.104574
vt 0.408633 0.032325
vt 0.474245 0.032325
vt 0.206340 0.529167
vt 0.147226 0.526853
vt 0.011776 0.601544
vt 0.081614 0.526853
vt 0.860379 0.029167
vt 0.801264 0.026853
vt 0.676538 0.029167
vt 0.735653 0.026853
vt 0.296338 0.025841
vt 0.255430 0.030011
vt 0.196316 0.032325
vt 0.130704 0.032325
vt 0.574268 0.025841
vt 0.589764 0.099918
vt 0.533359 0.030011
vt 0.469324 0.006082
vt 0.349519 0.030011
vt 0.413554 0.006082
vt 0.336991 0.698727
vt 0.387346 0.738884
vt 0.371635 0.754446
vt 0.142305 0.504116
vt 0.351916 0.571667
vt 0.351916 0.636073
vt 0.329953 0.633493
vt 0.398530 0.525492
vt 0.370585 0.583521
vt 0.740573 0.004116
vt 0.796344 0.004116
vt 0.525726 0.511770
vt 0.462934 0.526102
vt 0.460562 0.504116
vt 0.581115 0.546941
vt 0.518323 0.532609
vt 0.241642 0.004116
vt 0.191395 0.006083
vt 0.071590 0.030011
vt 0.135625 0.006083
vt 0.554219 0.775895
vt 0.582165 0.717867
vt 0.600833 0.729721
vt 0.519571 0.004116
vt 0.873963 0.691522
vt 0.357898 0.691522
vt 0.600833 0.665314
vt 0.677641 0.775895
vt 0.771299 0.504116
vt 0.135625 0.495885
vt 0.631028 0.665314
vt 0.015185 0.393799
vt 0.609064 0.380057
vt 0.232955 0.582850
vt 0.612606 0.252847
vt 0.338795 0.143759
vt 0.620133 0.145385
vt 0.253164 0.582850
vt 0.665814 0.101544
vt 0.015185 0.099918
vt 0.022500 0.529167
vt 0.363307 0.004116
vt 0.086535 0.504116
vt 0.410207 0.544273
vt 0.565404 0.562504
vt 0.085378 0.004116
vt 0.542543 0.757115
vt 0.879944 0.636073
vt 0.844515 0.738884
vt 0.797434 0.768778
vt 0.742045 0.775285
vt 0.489816 0.775285
vt 0.434427 0.768778
vt 0.594851 0.609866
s 1
f 2/1/1 15/2/2 1/3/3
f 3/4/4 16/5/5 2/6/1
f 4/7/6 17/8/7 3/9/4
f 4/7/6 19/10/8 18/11/9
f 6/12/10 19/10/8 5/13/11
f 7/14/12 20/15/13 6/16/10
f 7/14/12 22/17/14 21/18/15
f 9/19/16 22/17/14 8/20/17
f 10/21/18 23/22/19 9/23/16
f 11/24/20 24/25/21 10/21/18
f 11/26/20 26/27/22 25/28/23
f 13/29/24 26/30/22 12/31/25
f 14/32/26 27/33/27 13/29/24
f 14/32/26 15/34/2 28/35/28
f 16/36/5 29/37/29 15/2/2
f 17/38/7 30/39/30 16/36/5
f 17/8/7 32/40/31 31/41/32
f 19/10/8 32/40/31 18/11/9
f 20/42/13 33/43/33 19/10/8
f 21/18/15 34/44/34 20/15/13
f 22/17/14 35/45/35 21/18/15
f 23/46/19 36/47/36 22/17/14
f 24/48/21 37/49/37 23/46/19
f 24/50/21 39/51/38 38/52/39
f 26/27/22 39/51/38 25/28/23
f 27/53/27 40/54/40 26/27/22
f 28/55/28 41/56/41 27/53/27
f 15/2/2 42/57/42 28/58/28
f 29/37/29 44/59/43 43/60/44
f 31/61/32 44/59/43 30/39/30
f 32/40/31 45/62/45 31/41/32
f 33/43/33 46/63/46 32/40/31
f 34/64/34 47/65/47 33/43/33
f 35/45/35 48/66/48 34/44/34
f 36/47/36 49/67/49 35/45/35
f 36/47/36 51/68/50 50/69/51
f 38/70/39 51/68/50 37/49/37
f 39/51/38 52/71/52 38/52/39
f 40/54/40 53/72/53 39/51/38
f 41/56/41 54/73/54 40/54/40
f 42/74/42 55/75/55 41/76/41
f 29/37/29 56/77/56 42/57/42
f 44/59/57 57/78/58 43/60/59
f 45/79/60 58/80/61 44/59/57
f 46/63/62 59/81/63 45/62/60
f 47/65/64 60/82/65 46/63/62
f 48/83/66 61/84/67 47/65/64
f 49/67/68 62/85/69 48/66/66
f 49/67/68 64/86/70 63/87/71
f 51/68/72 64/86/70 50/69/73
f 52/71/74 65/88/75 51/89/72
f 53/72/76 66/90/77 52/71/74
f 54/73/78 67/91/79 53/72/76
f 55/92/80 68/93/81 54/73/78
f 56/77/82 69/94/83 55/95/80
f 56/77/82 57/78/58 70/96/84
f 58/80/61 71/97/85 57/78/58
f 59/98/63 72/99/86 58/80/61
f 60/82/65 73/100/87 59/81/63
f 61/84/67 74/101/88 60/82/65
f 62/102/69 75/103/89 61/84/67
f 63/87/71 76/104/90 62/85/69
f 64/86/70 77/105/91 63/87/71
f 65/106/75 78/107/92 64/86/70
f 66/108/77 79/109/93 65/106/75
f 67/91/79 80/110/94 66/90/77
f 68/93/81 81/111/95 67/91/79
f 69/112/83 82/113/96 68/93/81
f 70/96/84 83/114/97 69/94/83
f 57/78/58 84/115/98 70/96/84
f 72/99/86 85/116/99 71/97/85
f 73/117/87 86/118/100 72/99/86
f 73/100/87 88/119/101 87/120/102
f 74/101/88 89/121/103 88/119/101
f 76/122/90 89/121/103 75/103/89
f 77/105/91 90/123/104 76/104/90
f 77/105/91 92/124/105 91/125/106
f 79/109/93 92/124/105 78/107/92
f 80/110/94 93/126/107 79/127/93
f 80/110/94 95/128/108 94/129/109
f 81/111/95 96/130/110 95/128/108
f 83/131/97 96/130/110 82/113/96
f 84/115/98 97/132/111 83/114/97
f 84/115/98 85/116/99 98/133/112
f 85/116/99 100/134/43 99/135/44
f 86/118/100 101/136/45 100/134/43
f 88/119/101 101/137/45 87/120/102
f 89/121/103 102/138/46 88/119/101
f 90/139/104 103/140/47 89/121/103
f 91/125/106 104/141/48 90/123/104
f 92/124/105 105/142/49 91/125/106
f 92/124/105 107/143/50 106/144/51
f 93/145/107 108/146/52 107/143/50
f 95/128/108 108/147/52 94/129/109
f 96/130/110 109/148/53 95/128/108
f 97/149/111 110/150/54 96/130/110
f 98/151/112 111/152/55 97/153/111
f 85/116/99 112/154/56 98/133/112
f 100/134/57 113/155/113 99/135/59
f 100/134/57 115/156/114 114/157/115
f 101/137/60 116/158/116 115/159/114
f 103/140/64 116/158/116 102/138/62
f 104/160/66 117/161/117 103/140/64
f 105/142/68 118/162/118 104/141/66
f 106/144/73 119/163/119 105/142/68
f 107/143/72 120/164/120 106/144/73
f 107/165/72 122/166/121 121/167/122
f 108/147/74 123/168/123 122/166/121
f 110/150/78 123/168/123 109/148/76
f 111/169/80 124/170/124 110/150/78
f 112/171/82 125/172/125 111/169/80
f 99/135/59 126/173/126 112/154/82
f 113/155/113 128/174/127 127/175/128
f 115/156/114 128/174/127 114/157/115
f 116/158/116 129/176/129 115/159/114
f 117/161/117 130/177/130 116/158/116
f 118/178/118 131/179/131 117/161/117
f 119/163/119 132/180/132 118/162/118
f 120/164/120 133/181/133 119/163/119
f 120/164/120 135/182/134 134/183/135
f 122/166/121 135/184/134 121/167/122
f 123/168/123 136/185/136 122/166/121
f 124/170/124 137/186/137 123/168/123
f 125/172/125 138/187/138 124/170/124
f 126/173/126 139/188/139 125/189/125
f 113/155/113 140/190/140 126/173/126
f 128/174/127 141/191/141 127/175/128
f 129/192/129 142/193/142 128/174/127
f 130/194/130 143/195/143 129/196/129
f 131/179/131 144/197/144 130/177/130
f 132/198/132 145/199/145 131/200/131
f 133/201/133 146/202/146 132/198/132
f 133/181/133 148/203/147 147/204/148
f 135/205/134 148/206/147 134/207/135
f 136/208/136 149/209/149 135/205/134
f 137/186/137 150/210/150 136/185/136
f 138/187/138 151/211/151 137/186/137
f 139/212/139 152/213/152 138/187/138
f 140/214/140 153/215/153 139/216/139
f 140/190/140 141/191/141 154/217/154
f 11/24/155 7/218/155 3/4/155
f 144/219/156 148/206/156 152/220/156
f 2/1/1 16/36/5 15/2/2
f 3/4/4 17/221/7 16/5/5
f 4/7/6 18/11/9 17/8/7
f 4/7/6 5/13/11 19/10/8
f 6/12/10 20/42/13 19/10/8
f 7/14/12 21/18/15 20/15/13
f 7/14/12 8/20/17 22/17/14
f 9/19/16 23/46/19 22/17/14
f 10/21/18 24/25/21 23/22/19
f 11/24/20 25/222/23 24/25/21
f 11/26/20 12/223/25 26/27/22
f 13/29/24 27/33/27 26/30/22
f 14/32/26 28/35/28 27/33/27
f 14/32/26 1/224/3 15/34/2
f 16/36/5 30/39/30 29/37/29
f 17/38/7 31/61/32 30/39/30
f 17/8/7 18/11/9 32/40/31
f 19/10/8 33/43/33 32/40/31
f 20/42/13 34/64/34 33/43/33
f 21/18/15 35/45/35 34/44/34
f 22/17/14 36/47/36 35/45/35
f 23/46/19 37/49/37 36/47/36
f 24/48/21 38/70/39 37/49/37
f 24/50/21 25/28/23 39/51/38
f 26/27/22 40/54/40 39/51/38
f 27/53/27 41/56/41 40/54/40
f 28/55/28 42/225/42 41/56/41
f 15/2/2 29/37/29 42/57/42
f 29/37/29 30/39/30 44/59/43
f 31/61/32 45/79/45 44/59/43
f 32/40/31 46/63/46 45/62/45
f 33/43/33 47/65/47 46/63/46
f 34/64/34 48/83/48 47/65/47
f 35/45/35 49/67/49 48/66/48
f 36/47/36 50/69/51 49/67/49
f 36/47/36 37/49/37 51/68/50
f 38/70/39 52/226/52 51/68/50
f 39/51/38 53/72/53 52/71/52
f 40/54/40 54/73/54 53/72/53
f 41/56/41 55/92/55 54/73/54
f 42/74/42 56/227/56 55/75/55
f 29/37/29 43/60/44 56/77/56
f 44/59/57 58/80/61 57/78/58
f 45/79/60 59/98/63 58/80/61
f 46/63/62 60/82/65 59/81/63
f 47/65/64 61/84/67 60/82/65
f 48/83/66 62/102/69 61/84/67
f 49/67/68 63/87/71 62/85/69
f 49/67/68 50/69/73 64/86/70
f 51/68/72 65/106/75 64/86/70
f 52/71/74 66/90/77 65/88/75
f 53/72/76 67/91/79 66/90/77
f 54/73/78 68/93/81 67/91/79
f 55/92/80 69/112/83 68/93/81
f 56/77/82 70/96/84 69/94/83
f 56/77/82 43/60/59 57/78/58
f 58/80/61 72/99/86 71/97/85
f 59/98/63 73/117/87 72/99/86
f 60/82/65 74/101/88 73/100/87
f 61/84/67 75/103/89 74/101/88
f 62/102/69 76/122/90 75/103/89
f 63/87/71 77/105/91 76/104/90
f 64/86/70 78/107/92 77/105/91
f 65/106/75 79/109/93 78/107/92
f 66/108/77 80/228/94 79/109/93
f 67/91/79 81/111/95 80/110/94
f 68/93/81 82/113/96 81/111/95
f 69/112/83 83/131/97 82/113/96
f 70/96/84 84/115/98 83/114/97
f 57/78/58 71/97/85 84/115/98
f 72/99/86 86/118/100 85/116/99
f 73/117/87 87/229/102 86/118/100
f 73/100/87 74/101/88 88/119/101
f 74/101/88 75/103/89 89/121/103
f 76/122/90 90/139/104 89/121/103
f 77/105/91 91/125/106 90/123/104
f 77/105/91 78/107/92 92/124/105
f 79/109/93 93/145/107 92/124/105
f 80/110/94 94/129/109 93/126/107
f 80/110/94 81/111/95 95/128/108
f 81/111/95 82/113/96 96/130/110
f 83/131/97 97/149/111 96/130/110
f 84/115/98 98/133/112 97/132/111
f 84/115/98 71/97/85 85/116/99
f 85/116/99 86/118/100 100/134/43
f 86/118/100 87/229/102 101/136/45
f 88/119/101 102/138/46 101/137/45
f 89/121/103 103/140/47 102/138/46
f 90/139/104 104/160/48 103/140/47
f 91/125/106 105/142/49 104/141/48
f 92/124/105 106/144/51 105/142/49
f 92/124/105 93/145/107 107/143/50
f 93/145/107 94/230/109 108/146/52
f 95/128/108 109/148/53 108/147/52
f 96/130/110 110/150/54 109/148/53
f 97/149/111 111/169/55 110/150/54
f 98/151/112 112/231/56 111/152/55
f 85/116/99 99/135/44 112/154/56
f 100/134/57 114/157/115 113/155/113
f 100/134/57 101/136/60 115/156/114
f 101/137/60 102/138/62 116/158/116
f 103/140/64 117/161/117 116/158/116
f 104/160/66 118/178/118 117/161/117
f 105/142/68 119/163/119 118/162/118
f 106/144/73 120/164/120 119/163/119
f 107/143/72 121/232/122 120/164/120
f 107/165/72 108/147/74 122/166/121
f 108/147/74 109/148/76 123/168/123
f 110/150/78 124/170/124 123/168/123
f 111/169/80 125/172/125 124/170/124
f 112/171/82 126/233/126 125/172/125
f 99/135/59 113/155/113 126/173/126
f 113/155/113 114/157/115 128/174/127
f 115/156/114 129/192/129 128/174/127
f 116/158/116 130/177/130 129/176/129
f 117/161/117 131/179/131 130/177/130
f 118/178/118 132/234/132 131/179/131
f 119/163/119 133/181/133 132/180/132
f 120/164/120 134/183/135 133/181/133
f 120/164/120 121/232/122 135/182/134
f 122/166/121 136/185/136 135/184/134
f 123/168/123 137/186/137 136/185/136
f 124/170/124 138/187/138 137/186/137
f 125/172/125 139/212/139 138/187/138
f 126/173/126 140/190/140 139/188/139
f 113/155/113 127/175/128 140/190/140
f 128/174/127 142/193/142 141/191/141
f 129/192/129 143/235/143 142/193/142
f 130/194/130 144/219/144 143/195/143
f 131/179/131 145/236/145 144/197/144
f 132/198/132 146/202/146 145/199/145
f 133/201/133 147/237/148 146/202/146
f 133/181/133 134/183/135 148/203/147
f 135/205/134 149/209/149 148/206/147
f 136/208/136 150/238/150 149/209/149
f 137/186/137 151/211/151 150/210/150
f 138/187/138 152/213/152 151/211/151
f 139/212/139 153/239/153 152/213/152
f 140/214/140 154/240/154 153/215/153
f 140/190/140 127/175/128 141/191/141
f 1/224/155 14/32/155 13/29/155
f 13/29/155 12/31/155 11/24/155
f 11/24/155 10/21/155 9/23/155
f 9/23/155 8/241/155 7/218/155
f 7/218/155 6/242/155 5/243/155
f 5/243/155 4/244/155 3/4/155
f 3/4/155 2/6/155 1/224/155
f 1/224/155 13/29/155 11/24/155
f 11/24/155 9/23/155 7/218/155
f 7/218/155 5/243/155 3/4/155
f 3/4/155 1/224/155 11/24/155
f 154/240/156 141/245/156 142/246/156
f 142/246/156 143/195/156 144/219/156
f 144/219/156 145/199/156 146/202/156
f 146/202/156 147/237/156 148/206/156
f 148/206/156 149/209/156 150/238/156
f 150/238/156 151/247/156 152/220/156
f 152/220/156 153/215/156 154/240/156
f 154/240/156 142/246/156 144/219/156
f 144/219/156 146/202/156 148/206/156
f 148/206/156 150/238/156 152/220/156
f 152/220/156 154/240/156 144/219/156
