# Blender 5.2.0 LTS
# www.blender.org
o Altar
v -0.636000 0.000000 0.446000
v -0.636000 0.014000 0.460000
v -0.650000 0.014000 0.446000
v -0.636000 0.146000 0.460000
v -0.636000 0.160000 0.446000
v -0.650000 0.146000 0.446000
v -0.636000 0.000000 -0.446000
v -0.650000 0.014000 -0.446000
v -0.636000 0.014000 -0.460000
v -0.636000 0.160000 -0.446000
v -0.636000 0.146000 -0.460000
v -0.650000 0.146000 -0.446000
v 0.636000 0.000000 0.446000
v 0.650000 0.014000 0.446000
v 0.636000 0.014000 0.460000
v 0.636000 0.160000 0.446000
v 0.636000 0.146000 0.460000
v 0.650000 0.146000 0.446000
v 0.636000 0.000000 -0.446000
v 0.636000 0.014000 -0.460000
v 0.650000 0.014000 -0.446000
v 0.636000 0.160000 -0.446000
v 0.650000 0.146000 -0.446000
v 0.636000 0.146000 -0.460000
v -0.546000 0.160000 0.356000
v -0.546000 0.174000 0.370000
v -0.560000 0.174000 0.356000
v -0.546000 0.286000 0.370000
v -0.546000 0.300000 0.356000
v -0.560000 0.286000 0.356000
v -0.546000 0.160000 -0.356000
v -0.560000 0.174000 -0.356000
v -0.546000 0.174000 -0.370000
v -0.546000 0.300000 -0.356000
v -0.546000 0.286000 -0.370000
v -0.560000 0.286000 -0.356000
v 0.546000 0.160000 0.356000
v 0.560000 0.174000 0.356000
v 0.546000 0.174000 0.370000
v 0.546000 0.300000 0.356000
v 0.546000 0.286000 0.370000
v 0.560000 0.286000 0.356000
v 0.546000 0.160000 -0.356000
v 0.546000 0.174000 -0.370000
v 0.560000 0.174000 -0.356000
v 0.546000 0.300000 -0.356000
v 0.560000 0.286000 -0.356000
v 0.546000 0.286000 -0.370000
v -0.446000 0.300000 0.296000
v -0.446000 0.314000 0.310000
v -0.460000 0.314000 0.296000
v -0.446000 0.366000 0.310000
v -0.446000 0.380000 0.296000
v -0.460000 0.366000 0.296000
v -0.446000 0.300000 -0.296000
v -0.460000 0.314000 -0.296000
v -0.446000 0.314000 -0.310000
v -0.446000 0.380000 -0.296000
v -0.446000 0.366000 -0.310000
v -0.460000 0.366000 -0.296000
v 0.446000 0.300000 0.296000
v 0.460000 0.314000 0.296000
v 0.446000 0.314000 0.310000
v 0.446000 0.380000 0.296000
v 0.446000 0.366000 0.310000
v 0.460000 0.366000 0.296000
v 0.446000 0.300000 -0.296000
v 0.446000 0.314000 -0.310000
v 0.460000 0.314000 -0.296000
v 0.446000 0.380000 -0.296000
v 0.460000 0.366000 -0.296000
v 0.446000 0.366000 -0.310000
v -0.386000 0.380000 0.236000
v -0.386000 0.394000 0.250000
v -0.400000 0.394000 0.236000
v -0.386000 0.806000 0.250000
v -0.386000 0.820000 0.236000
v -0.400000 0.806000 0.236000
v -0.386000 0.380000 -0.236000
v -0.400000 0.394000 -0.236000
v -0.386000 0.394000 -0.250000
v -0.386000 0.820000 -0.236000
v -0.386000 0.806000 -0.250000
v -0.400000 0.806000 -0.236000
v 0.386000 0.380000 0.236000
v 0.400000 0.394000 0.236000
v 0.386000 0.394000 0.250000
v 0.386000 0.820000 0.236000
v 0.386000 0.806000 0.250000
v 0.400000 0.806000 0.236000
v 0.386000 0.380000 -0.236000
v 0.386000 0.394000 -0.250000
v 0.400000 0.394000 -0.236000
v 0.386000 0.820000 -0.236000
v 0.400000 0.806000 -0.236000
v 0.386000 0.806000 -0.250000
v -0.466000 0.820000 0.316000
v -0.466000 0.834000 0.330000
v -0.480000 0.834000 0.316000
v -0.466000 0.896000 0.330000
v -0.466000 0.910000 0.316000
v -0.480000 0.896000 0.316000
v -0.466000 0.820000 -0.316000
v -0.480000 0.834000 -0.316000
v -0.466000 0.834000 -0.330000
v -0.466000 0.910000 -0.316000
v -0.466000 0.896000 -0.330000
v -0.480000 0.896000 -0.316000
v 0.466000 0.820000 0.316000
v 0.480000 0.834000 0.316000
v 0.466000 0.834000 0.330000
v 0.466000 0.910000 0.316000
v 0.466000 0.896000 0.330000
v 0.480000 0.896000 0.316000
v 0.466000 0.820000 -0.316000
v 0.466000 0.834000 -0.330000
v 0.480000 0.834000 -0.316000
v 0.466000 0.910000 -0.316000
v 0.480000 0.896000 -0.316000
v 0.466000 0.896000 -0.330000
v -0.556000 0.910000 0.386000
v -0.556000 0.924000 0.400000
v -0.570000 0.924000 0.386000
v -0.556000 1.036000 0.400000
v -0.556000 1.050000 0.386000
v -0.570000 1.036000 0.386000
v -0.556000 0.910000 -0.386000
v -0.570000 0.924000 -0.386000
v -0.556000 0.924000 -0.400000
v -0.556000 1.050000 -0.386000
v -0.556000 1.036000 -0.400000
v -0.570000 1.036000 -0.386000
v 0.556000 0.910000 0.386000
v 0.570000 0.924000 0.386000
v 0.556000 0.924000 0.400000
v 0.556000 1.050000 0.386000
v 0.556000 1.036000 0.400000
v 0.570000 1.036000 0.386000
v 0.556000 0.910000 -0.386000
v 0.556000 0.924000 -0.400000
v 0.570000 0.924000 -0.386000
v 0.556000 1.050000 -0.386000
v 0.570000 1.036000 -0.386000
v 0.556000 1.036000 -0.400000
v -0.556000 1.050000 -0.354000
v -0.556000 1.064000 -0.340000
v -0.570000 1.064000 -0.354000
v -0.556000 1.071000 -0.340000
v -0.556000 1.085000 -0.354000
v -0.570000 1.071000 -0.354000
v -0.556000 1.050000 -0.386000
v -0.570000 1.064000 -0.386000
v -0.556000 1.064000 -0.400000
v -0.556000 1.085000 -0.386000
v -0.556000 1.071000 -0.400000
v -0.570000 1.071000 -0.386000
v 0.556000 1.050000 -0.354000
v 0.570000 1.064000 -0.354000
v 0.556000 1.064000 -0.340000
v 0.556000 1.085000 -0.354000
v 0.556000 1.071000 -0.340000
v 0.570000 1.071000 -0.354000
v 0.556000 1.050000 -0.386000
v 0.556000 1.064000 -0.400000
v 0.570000 1.064000 -0.386000
v 0.556000 1.085000 -0.386000
v 0.570000 1.071000 -0.386000
v 0.556000 1.071000 -0.400000
v -0.556000 1.050000 0.386000
v -0.556000 1.064000 0.400000
v -0.570000 1.064000 0.386000
v -0.556000 1.071000 0.400000
v -0.556000 1.085000 0.386000
v -0.570000 1.071000 0.386000
v -0.556000 1.050000 0.354000
v -0.570000 1.064000 0.354000
v -0.556000 1.064000 0.340000
v -0.556000 1.085000 0.354000
v -0.556000 1.071000 0.340000
v -0.570000 1.071000 0.354000
v 0.556000 1.050000 0.386000
v 0.570000 1.064000 0.386000
v 0.556000 1.064000 0.400000
v 0.556000 1.085000 0.386000
v 0.556000 1.071000 0.400000
v 0.570000 1.071000 0.386000
v 0.556000 1.050000 0.354000
v 0.556000 1.064000 0.340000
v 0.570000 1.064000 0.354000
v 0.556000 1.085000 0.354000
v 0.570000 1.071000 0.354000
v 0.556000 1.071000 0.340000
v 0.524000 1.050000 0.326000
v 0.524000 1.064000 0.340000
v 0.510000 1.064000 0.326000
v 0.524000 1.071000 0.340000
v 0.524000 1.085000 0.326000
v 0.510000 1.071000 0.326000
v 0.524000 1.050000 -0.326000
v 0.510000 1.064000 -0.326000
v 0.524000 1.064000 -0.340000
v 0.524000 1.085000 -0.326000
v 0.524000 1.071000 -0.340000
v 0.510000 1.071000 -0.326000
v 0.556000 1.050000 0.326000
v 0.570000 1.064000 0.326000
v 0.556000 1.064000 0.340000
v 0.556000 1.085000 0.326000
v 0.556000 1.071000 0.340000
v 0.570000 1.071000 0.326000
v 0.556000 1.050000 -0.326000
v 0.556000 1.064000 -0.340000
v 0.570000 1.064000 -0.326000
v 0.556000 1.085000 -0.326000
v 0.570000 1.071000 -0.326000
v 0.556000 1.071000 -0.340000
v -0.556000 1.050000 0.326000
v -0.556000 1.064000 0.340000
v -0.570000 1.064000 0.326000
v -0.556000 1.071000 0.340000
v -0.556000 1.085000 0.326000
v -0.570000 1.071000 0.326000
v -0.556000 1.050000 -0.326000
v -0.570000 1.064000 -0.326000
v -0.556000 1.064000 -0.340000
v -0.556000 1.085000 -0.326000
v -0.556000 1.071000 -0.340000
v -0.570000 1.071000 -0.326000
v -0.524000 1.050000 0.326000
v -0.510000 1.064000 0.326000
v -0.524000 1.064000 0.340000
v -0.524000 1.085000 0.326000
v -0.524000 1.071000 0.340000
v -0.510000 1.071000 0.326000
v -0.524000 1.050000 -0.326000
v -0.524000 1.064000 -0.340000
v -0.510000 1.064000 -0.326000
v -0.524000 1.085000 -0.326000
v -0.510000 1.071000 -0.326000
v -0.524000 1.071000 -0.340000
vn -0.5773 -0.5773 0.5774
vn -0.5774 0.5773 0.5774
vn -0.5773 -0.5773 -0.5774
vn -0.5774 0.5773 -0.5774
vn 0.5773 -0.5773 0.5774
vn 0.5774 0.5773 0.5774
vn 0.5773 -0.5773 -0.5774
vn 0.5774 0.5773 -0.5774
vn -0.5774 -0.5773 0.5773
vn -0.5774 0.5774 0.5774
vn -0.5774 -0.5773 -0.5773
vn -0.5774 0.5774 -0.5774
vn 0.5774 -0.5773 0.5773
vn 0.5774 0.5774 0.5774
vn 0.5774 -0.5773 -0.5773
vn 0.5774 0.5774 -0.5774
vn -0.5773 -0.5774 0.5773
vn -0.5773 0.5774 0.5773
vn -0.5773 -0.5774 -0.5773
vn -0.5773 0.5774 -0.5773
vn 0.5773 -0.5774 0.5773
vn 0.5773 0.5774 0.5773
vn 0.5773 -0.5774 -0.5773
vn 0.5773 0.5774 -0.5773
vn -0.5774 -0.5774 0.5774
vn -0.5774 0.5773 0.5773
vn -0.5774 -0.5774 -0.5774
vn -0.5774 0.5773 -0.5773
vn 0.5774 -0.5774 0.5774
vn 0.5774 0.5773 0.5773
vn 0.5774 -0.5774 -0.5774
vn 0.5774 0.5773 -0.5773
vn -0.5773 -0.5774 0.5774
vn -0.5773 -0.5774 -0.5774
vn 0.5773 -0.5774 0.5774
vn 0.5773 -0.5774 -0.5774
vn -0.5773 0.5774 0.5774
vn -0.5773 0.5774 -0.5774
vn 0.5773 0.5774 0.5774
vn 0.5773 0.5774 -0.5774
vn -0.7071 -0.7071 -0.0000
vn -0.7071 -0.0000 0.7071
vn -0.7071 0.7071 -0.0000
vn -0.7071 -0.0000 -0.7071
vn -0.0000 -0.7071 -0.7071
vn -0.0000 0.7071 -0.7071
vn 0.7071 -0.0000 -0.7071
vn 0.7071 -0.7071 -0.0000
vn 0.7071 0.7071 -0.0000
vn 0.7071 -0.0000 0.7071
vn -0.0000 -0.7071 0.7071
vn -0.0000 0.7071 0.7071
vn -0.0000 -1.0000 -0.0000
vn -1.0000 -0.0000 -0.0000
vn -0.0000 -0.0000 1.0000
vn -0.0000 1.0000 -0.0000
vn -0.0000 -0.0000 -1.0000
vn 1.0000 -0.0000 -0.0000
vt 0.694450 0.797919
vt 0.697630 0.795670
vt 0.697630 0.800168
vt 0.727613 0.795670
vt 0.730793 0.797919
vt 0.727613 0.800168
vt 0.652546 0.272858
vt 0.650297 0.269678
vt 0.654794 0.269678
vt 0.652546 0.236514
vt 0.654794 0.239694
vt 0.650297 0.239694
vt 0.764058 0.468349
vt 0.767238 0.466100
vt 0.767238 0.470597
vt 0.800402 0.468349
vt 0.797221 0.470597
vt 0.797221 0.466100
vt 0.859648 0.215733
vt 0.862828 0.213484
vt 0.862828 0.217982
vt 0.895991 0.215733
vt 0.892811 0.217982
vt 0.892811 0.213484
vt 0.059340 0.802462
vt 0.062520 0.800213
vt 0.062520 0.804711
vt 0.087961 0.800213
vt 0.091141 0.802462
vt 0.087961 0.804711
vt 0.675403 0.268315
vt 0.673154 0.265135
vt 0.677651 0.265135
vt 0.675403 0.236514
vt 0.677651 0.239694
vt 0.673154 0.239694
vt 0.809487 0.125788
vt 0.812667 0.123539
vt 0.812667 0.128036
vt 0.841288 0.125788
vt 0.838108 0.128036
vt 0.838108 0.123539
vt 0.907725 0.500472
vt 0.910905 0.498223
vt 0.910905 0.502720
vt 0.939525 0.500472
vt 0.936345 0.502720
vt 0.936345 0.498223
vt 0.343838 0.825049
vt 0.347018 0.822801
vt 0.347018 0.827298
vt 0.358829 0.822801
vt 0.362009 0.825049
vt 0.358829 0.827298
vt 0.488955 0.300115
vt 0.486706 0.296935
vt 0.491203 0.296935
vt 0.488955 0.281944
vt 0.491203 0.285124
vt 0.486706 0.285124
vt 0.914351 0.106514
vt 0.917531 0.104265
vt 0.917531 0.108762
vt 0.932523 0.106514
vt 0.929343 0.108762
vt 0.929343 0.104265
vt 0.907725 0.666599
vt 0.910905 0.664350
vt 0.910905 0.668848
vt 0.925896 0.666599
vt 0.922716 0.668848
vt 0.922716 0.664350
vt 0.598030 0.895615
vt 0.595782 0.892435
vt 0.600279 0.892435
vt 0.595782 0.798850
vt 0.598030 0.795670
vt 0.600279 0.798850
vt 0.490502 0.922872
vt 0.488253 0.919692
vt 0.492750 0.919692
vt 0.490502 0.822928
vt 0.492750 0.826108
vt 0.488253 0.826108
vt 0.273046 0.678196
vt 0.276226 0.675947
vt 0.276226 0.680445
vt 0.372990 0.678196
vt 0.369810 0.680445
vt 0.369810 0.675947
vt 0.764058 0.819506
vt 0.767238 0.817257
vt 0.767238 0.821755
vt 0.864002 0.819506
vt 0.860822 0.821755
vt 0.860822 0.817257
vt 0.305035 0.825049
vt 0.308215 0.822801
vt 0.308215 0.827298
vt 0.322298 0.822801
vt 0.325478 0.825049
vt 0.322298 0.827298
vt 0.466097 0.302387
vt 0.463849 0.299207
vt 0.468346 0.299207
vt 0.466097 0.281944
vt 0.468346 0.285124
vt 0.463849 0.285124
vt 0.868922 0.426588
vt 0.872102 0.424340
vt 0.872102 0.428837
vt 0.889365 0.426588
vt 0.886185 0.428837
vt 0.886185 0.424340
vt 0.109501 0.952157
vt 0.112681 0.949908
vt 0.112681 0.954405
vt 0.129944 0.952157
vt 0.126764 0.954405
vt 0.126764 0.949908
vt 0.009180 0.802462
vt 0.012360 0.800213
vt 0.012360 0.804711
vt 0.037800 0.800213
vt 0.040980 0.802462
vt 0.037800 0.804711
vt 0.698260 0.268315
vt 0.696011 0.265135
vt 0.700508 0.265135
vt 0.698260 0.236514
vt 0.700508 0.239694
vt 0.696011 0.239694
vt 0.818761 0.449075
vt 0.821941 0.446826
vt 0.821941 0.451323
vt 0.850562 0.449075
vt 0.847382 0.451323
vt 0.847382 0.446826
vt 0.882362 0.874116
vt 0.885542 0.871867
vt 0.885542 0.876364
vt 0.914163 0.874116
vt 0.910983 0.876364
vt 0.910983 0.871867
vt 0.516865 0.290616
vt 0.513055 0.291424
vt 0.514833 0.287293
vt 0.511595 0.290795
vt 0.509563 0.287473
vt 0.513373 0.286665
vt 0.650297 0.297709
vt 0.650297 0.293814
vt 0.653969 0.296411
vt 0.654887 0.291218
vt 0.654887 0.295112
vt 0.651215 0.292516
vt 0.244269 0.807684
vt 0.247410 0.805380
vt 0.247489 0.809877
vt 0.252218 0.807545
vt 0.249078 0.809849
vt 0.248999 0.805352
vt 0.576473 0.804527
vt 0.573254 0.806719
vt 0.573333 0.802223
vt 0.568524 0.804387
vt 0.571743 0.802195
vt 0.571664 0.806691
vt 0.542528 0.290616
vt 0.538718 0.291424
vt 0.540496 0.287293
vt 0.537257 0.290795
vt 0.535225 0.287473
vt 0.539035 0.286664
vt 0.673247 0.297709
vt 0.673247 0.293814
vt 0.676919 0.296411
vt 0.677837 0.291218
vt 0.677837 0.295112
vt 0.674165 0.292516
vt 0.568524 0.603065
vt 0.571664 0.600760
vt 0.571743 0.605257
vt 0.576473 0.602925
vt 0.573333 0.605229
vt 0.573254 0.600732
vt 0.982871 0.190090
vt 0.986011 0.187786
vt 0.986090 0.192283
vt 0.990820 0.189950
vt 0.987680 0.192255
vt 0.987601 0.187758
vt 0.435640 0.825317
vt 0.438752 0.822975
vt 0.438886 0.827471
vt 0.440341 0.822928
vt 0.443587 0.825081
vt 0.440475 0.827423
vt 0.612212 0.288435
vt 0.612212 0.284540
vt 0.615884 0.287137
vt 0.616802 0.281944
vt 0.616802 0.285838
vt 0.613130 0.283242
vt 0.380369 0.929866
vt 0.383481 0.927524
vt 0.383615 0.932019
vt 0.388316 0.929630
vt 0.385204 0.931972
vt 0.385070 0.927476
vt 0.593852 0.285895
vt 0.590042 0.286703
vt 0.591820 0.282572
vt 0.586550 0.282752
vt 0.590360 0.281944
vt 0.588582 0.286074
vt 0.461947 0.825317
vt 0.465058 0.822975
vt 0.465192 0.827470
vt 0.466648 0.822928
vt 0.469893 0.825081
vt 0.466781 0.827423
vt 0.700787 0.297709
vt 0.697115 0.296411
vt 0.700787 0.293814
vt 0.696197 0.291218
vt 0.699869 0.292516
vt 0.696197 0.295112
vt 0.409334 0.929993
vt 0.412446 0.927651
vt 0.412579 0.932146
vt 0.417280 0.929757
vt 0.414168 0.932099
vt 0.414035 0.927604
vt 0.560888 0.290616
vt 0.562920 0.287293
vt 0.564698 0.291424
vt 0.568190 0.287473
vt 0.566158 0.290795
vt 0.564380 0.286665
vt 0.012360 0.012360
vt 0.214974 0.009180
vt 0.214974 0.012360
vt 0.442309 0.301290
vt 0.239694 0.304470
vt 0.239694 0.301290
vt 0.218154 0.301290
vt 0.214974 0.301290
vt 0.442309 0.012360
vt 0.445489 0.301290
vt 0.012360 0.304470
vt 0.012360 0.301290
vt 0.239694 0.012360
vt 0.442309 0.009180
vt 0.009180 0.012360
vt 0.236514 0.012360
vt 0.412514 0.326010
vt 0.574242 0.322830
vt 0.574242 0.326010
vt 0.628757 0.260404
vt 0.467029 0.263584
vt 0.467029 0.260404
vt 0.577422 0.574054
vt 0.574242 0.574054
vt 0.628757 0.012360
vt 0.631937 0.260404
vt 0.412514 0.577234
vt 0.412514 0.574054
vt 0.467029 0.012360
vt 0.628757 0.009180
vt 0.409334 0.326010
vt 0.463849 0.012360
vt 0.653477 0.012360
vt 0.787947 0.009180
vt 0.787947 0.012360
vt 0.546984 0.801388
vt 0.412514 0.804568
vt 0.412514 0.801388
vt 0.791128 0.214974
vt 0.787947 0.214974
vt 0.546984 0.598774
vt 0.550164 0.801388
vt 0.653477 0.218154
vt 0.653477 0.214974
vt 0.412514 0.598773
vt 0.546984 0.595593
vt 0.650297 0.012360
vt 0.409334 0.598773
vt 0.012360 0.603316
vt 0.119573 0.600136
vt 0.119573 0.603316
vt 0.251506 0.778673
vt 0.144293 0.781853
vt 0.144293 0.778673
vt 0.122753 0.778673
vt 0.119573 0.778673
vt 0.251506 0.603316
vt 0.254686 0.778673
vt 0.012360 0.781853
vt 0.012360 0.778673
vt 0.144293 0.603316
vt 0.251506 0.600136
vt 0.009180 0.603316
vt 0.141113 0.603316
vt 0.598962 0.326010
vt 0.742518 0.322830
vt 0.742518 0.326010
vt 0.742518 0.774130
vt 0.598962 0.777310
vt 0.598962 0.774130
vt 0.745698 0.537710
vt 0.742518 0.537710
vt 0.742518 0.562430
vt 0.745698 0.774130
vt 0.598962 0.540890
vt 0.598962 0.537710
vt 0.598962 0.562430
vt 0.742518 0.559250
vt 0.595782 0.326010
vt 0.595782 0.562430
vt 0.012360 0.326010
vt 0.187717 0.322830
vt 0.187717 0.326010
vt 0.387794 0.578597
vt 0.212437 0.581777
vt 0.212437 0.578597
vt 0.190897 0.578597
vt 0.187717 0.578597
vt 0.387794 0.326010
vt 0.390974 0.578597
vt 0.012360 0.581777
vt 0.012360 0.578597
vt 0.212437 0.326010
vt 0.387794 0.322830
vt 0.009180 0.326010
vt 0.209257 0.326010
vt 0.935703 0.696441
vt 0.942971 0.693261
vt 0.942971 0.696441
vt 0.961331 0.264947
vt 0.954063 0.268127
vt 0.954063 0.264947
vt 0.946151 0.949028
vt 0.942971 0.949028
vt 0.961331 0.012360
vt 0.964511 0.264947
vt 0.935703 0.952208
vt 0.935703 0.949028
vt 0.954063 0.012360
vt 0.961331 0.009180
vt 0.932523 0.696441
vt 0.950883 0.012360
vt 0.961065 0.326010
vt 0.968334 0.322830
vt 0.968334 0.326010
vt 0.974960 0.949028
vt 0.967691 0.952208
vt 0.967691 0.949028
vt 0.971514 0.578597
vt 0.968334 0.578597
vt 0.974960 0.696441
vt 0.978140 0.949028
vt 0.961065 0.581777
vt 0.961065 0.578597
vt 0.967691 0.696441
vt 0.974960 0.693261
vt 0.957885 0.326010
vt 0.964511 0.696441
vt 0.158752 0.803393
vt 0.161932 0.951493
vt 0.158752 0.951493
vt 0.183472 0.951493
vt 0.180292 0.803393
vt 0.183472 0.803393
vt 0.151484 0.954673
vt 0.151484 0.951493
vt 0.190741 0.951493
vt 0.183472 0.954673
vt 0.148304 0.803393
vt 0.151484 0.803393
vt 0.190741 0.803393
vt 0.193921 0.951493
vt 0.158752 0.800213
vt 0.190741 0.800213
vt 0.222730 0.803393
vt 0.225910 0.951493
vt 0.222730 0.951493
vt 0.276226 0.974080
vt 0.273046 0.825981
vt 0.276226 0.825981
vt 0.215461 0.954673
vt 0.215461 0.951493
vt 0.283495 0.974080
vt 0.276226 0.977260
vt 0.212281 0.803393
vt 0.215461 0.803393
vt 0.283495 0.825981
vt 0.286675 0.974080
vt 0.222730 0.800213
vt 0.283495 0.822801
vt 0.697630 0.943438
vt 0.767238 0.674902
vt 0.892811 0.009180
vt 0.862828 0.009180
vt 0.797221 0.322830
vt 0.767238 0.322830
vt 0.062520 0.919070
vt 0.812667 0.303430
vt 0.936345 0.322830
vt 0.910905 0.322830
vt 0.838108 0.009180
vt 0.812667 0.009180
vt 0.347018 0.922383
vt 0.917531 0.252032
vt 0.922716 0.521080
vt 0.910905 0.521080
vt 0.929343 0.009180
vt 0.917531 0.009180
vt 0.676090 0.892435
vt 0.276226 0.804441
vt 0.860822 0.693261
vt 0.767238 0.693261
vt 0.369810 0.600136
vt 0.276226 0.600136
vt 0.308215 0.928808
vt 0.872102 0.578532
vt 0.126764 0.800213
vt 0.112681 0.800213
vt 0.886185 0.322830
vt 0.872102 0.322830
vt 0.012360 0.928707
vt 0.821941 0.629929
vt 0.910983 0.693261
vt 0.885542 0.693261
vt 0.847382 0.322830
vt 0.821941 0.322830
vt 0.516865 0.282572
vt 0.250629 0.988455
vt 0.568524 0.985270
vt 0.570114 0.985298
vt 0.248909 0.800213
vt 0.247319 0.800241
vt 0.542528 0.282572
vt 0.574883 0.783835
vt 0.984461 0.009180
vt 0.982871 0.009208
vt 0.573164 0.595594
vt 0.571574 0.595621
vt 0.441997 0.932146
vt 0.383767 0.937156
vt 0.586550 0.290795
vt 0.588010 0.291424
vt 0.381958 0.822801
vt 0.380369 0.822848
vt 0.468304 0.932146
vt 0.412732 0.937284
vt 0.562348 0.281944
vt 0.560888 0.282572
vt 0.410923 0.822928
vt 0.409334 0.822975
vt 0.012360 0.009180
vt 0.442309 0.304470
vt 0.218154 0.012360
vt 0.445489 0.012360
vt 0.214974 0.304470
vt 0.239694 0.009180
vt 0.009180 0.301290
vt 0.236514 0.301290
vt 0.412514 0.322830
vt 0.628757 0.263584
vt 0.577422 0.326010
vt 0.631937 0.012360
vt 0.574242 0.577234
vt 0.467029 0.009180
vt 0.409334 0.574054
vt 0.463849 0.260404
vt 0.653477 0.009180
vt 0.546984 0.804568
vt 0.791128 0.012360
vt 0.550164 0.598774
vt 0.787947 0.218154
vt 0.412514 0.595593
vt 0.650297 0.214974
vt 0.409334 0.801388
vt 0.012360 0.600136
vt 0.251506 0.781853
vt 0.122753 0.603316
vt 0.254686 0.603316
vt 0.119573 0.781853
vt 0.144293 0.600136
vt 0.009180 0.778673
vt 0.141113 0.778673
vt 0.598962 0.322830
vt 0.742518 0.777310
vt 0.745698 0.326010
vt 0.745698 0.562430
vt 0.742518 0.540890
vt 0.598962 0.559250
vt 0.595782 0.537710
vt 0.595782 0.774130
vt 0.012360 0.322830
vt 0.387794 0.581777
vt 0.190897 0.326010
vt 0.390974 0.326010
vt 0.187717 0.581777
vt 0.212437 0.322830
vt 0.009180 0.578597
vt 0.209257 0.578597
vt 0.935703 0.693261
vt 0.961331 0.268127
vt 0.946151 0.696441
vt 0.964511 0.012360
vt 0.942971 0.952208
vt 0.954063 0.009180
vt 0.932523 0.949028
vt 0.950883 0.264947
vt 0.961065 0.322830
vt 0.974960 0.952208
vt 0.971514 0.326010
vt 0.978140 0.696441
vt 0.968334 0.581777
vt 0.967691 0.693261
vt 0.957885 0.578597
vt 0.964511 0.949028
vt 0.161932 0.803393
vt 0.180292 0.951493
vt 0.158752 0.954673
vt 0.190741 0.954673
vt 0.148304 0.951493
vt 0.193921 0.803393
vt 0.151484 0.800213
vt 0.183472 0.800213
vt 0.225910 0.803393
vt 0.273046 0.974080
vt 0.222730 0.954673
vt 0.283495 0.977260
vt 0.212281 0.951493
vt 0.286675 0.825981
vt 0.215461 0.800213
vt 0.276226 0.822801
vt 0.727613 0.943438
vt 0.797221 0.674902
vt 0.087961 0.919070
vt 0.838108 0.303430
vt 0.358829 0.922383
vt 0.929343 0.252032
vt 0.676090 0.798850
vt 0.369810 0.804441
vt 0.322298 0.928808
vt 0.886185 0.578532
vt 0.037800 0.928707
vt 0.847382 0.629929
vt 0.515405 0.281944
vt 0.252218 0.988427
vt 0.541067 0.281944
vt 0.576473 0.783807
vt 0.443587 0.932099
vt 0.385357 0.937109
vt 0.469893 0.932099
vt 0.414321 0.937236
s 1
f 1/1/1 2/2/1 3/3/1
f 4/4/2 5/5/2 6/6/2
f 7/7/3 8/8/3 9/9/3
f 10/10/4 11/11/4 12/12/4
f 13/13/5 14/14/5 15/15/5
f 16/16/6 17/17/6 18/18/6
f 19/19/7 20/20/7 21/21/7
f 22/22/8 23/23/8 24/24/8
f 25/25/9 26/26/9 27/27/9
f 28/28/10 29/29/10 30/30/10
f 31/31/11 32/32/11 33/33/11
f 34/34/12 35/35/12 36/36/12
f 37/37/13 38/38/13 39/39/13
f 40/40/14 41/41/14 42/42/14
f 43/43/15 44/44/15 45/45/15
f 46/46/16 47/47/16 48/48/16
f 49/49/17 50/50/17 51/51/17
f 52/52/18 53/53/18 54/54/18
f 55/55/19 56/56/19 57/57/19
f 58/58/20 59/59/20 60/60/20
f 61/61/21 62/62/21 63/63/21
f 64/64/22 65/65/22 66/66/22
f 67/67/23 68/68/23 69/69/23
f 70/70/24 71/71/24 72/72/24
f 73/73/25 74/74/25 75/75/25
f 76/76/26 77/77/26 78/78/26
f 79/79/27 80/80/27 81/81/27
f 82/82/28 83/83/28 84/84/28
f 85/85/29 86/86/29 87/87/29
f 88/88/30 89/89/30 90/90/30
f 91/91/31 92/92/31 93/93/31
f 94/94/32 95/95/32 96/96/32
f 97/97/33 98/98/33 99/99/33
f 100/100/26 101/101/26 102/102/26
f 103/103/34 104/104/34 105/105/34
f 106/106/28 107/107/28 108/108/28
f 109/109/35 110/110/35 111/111/35
f 112/112/30 113/113/30 114/114/30
f 115/115/36 116/116/36 117/117/36
f 118/118/32 119/119/32 120/120/32
f 121/121/33 122/122/33 123/123/33
f 124/124/37 125/125/37 126/126/37
f 127/127/34 128/128/34 129/129/34
f 130/130/38 131/131/38 132/132/38
f 133/133/35 134/134/35 135/135/35
f 136/136/39 137/137/39 138/138/39
f 139/139/36 140/140/36 141/141/36
f 142/142/40 143/143/40 144/144/40
f 145/145/9 146/146/9 147/147/9
f 148/148/26 149/149/26 150/150/26
f 151/151/11 152/152/11 153/153/11
f 154/154/28 155/155/28 156/156/28
f 157/157/13 158/158/13 159/159/13
f 160/160/30 161/161/30 162/162/30
f 163/163/15 164/164/15 165/165/15
f 166/166/32 167/167/32 168/168/32
f 169/169/9 170/170/9 171/171/9
f 172/172/26 173/173/26 174/174/26
f 175/175/11 176/176/11 177/177/11
f 178/178/28 179/179/28 180/180/28
f 181/181/13 182/182/13 183/183/13
f 184/184/30 185/185/30 186/186/30
f 187/187/15 188/188/15 189/189/15
f 190/190/32 191/191/32 192/192/32
f 193/193/9 194/194/9 195/195/9
f 196/196/26 197/197/26 198/198/26
f 199/199/11 200/200/11 201/201/11
f 202/202/28 203/203/28 204/204/28
f 205/205/13 206/206/13 207/207/13
f 208/208/30 209/209/30 210/210/30
f 211/211/15 212/212/15 213/213/15
f 214/214/32 215/215/32 216/216/32
f 217/217/9 218/218/9 219/219/9
f 220/220/26 221/221/26 222/222/26
f 223/223/11 224/224/11 225/225/11
f 226/226/28 227/227/28 228/228/28
f 229/229/13 230/230/13 231/231/13
f 232/232/30 233/233/30 234/234/30
f 235/235/15 236/236/15 237/237/15
f 238/238/32 239/239/32 240/240/32
f 1/241/41 8/242/41 7/243/41
f 4/4/42 3/3/42 2/2/42
f 10/244/43 6/245/43 5/246/43
f 9/9/44 12/12/44 11/11/44
f 7/243/45 20/247/45 19/248/45
f 22/249/46 11/250/46 10/244/46
f 21/21/47 24/24/47 23/23/47
f 19/248/48 14/251/48 13/252/48
f 16/253/49 23/254/49 22/249/49
f 15/15/50 18/18/50 17/17/50
f 13/252/51 2/255/51 1/241/51
f 5/246/52 17/256/52 16/253/52
f 25/257/41 32/258/41 31/259/41
f 28/28/42 27/27/42 26/26/42
f 34/260/43 30/261/43 29/262/43
f 33/33/44 36/36/44 35/35/44
f 31/259/45 44/263/45 43/264/45
f 46/265/46 35/266/46 34/260/46
f 45/45/47 48/48/47 47/47/47
f 43/264/48 38/267/48 37/268/48
f 40/269/49 47/270/49 46/265/49
f 39/39/50 42/42/50 41/41/50
f 37/268/51 26/271/51 25/257/51
f 29/262/52 41/272/52 40/269/52
f 49/273/41 56/274/41 55/275/41
f 52/52/42 51/51/42 50/50/42
f 58/276/43 54/277/43 53/278/43
f 57/57/44 60/60/44 59/59/44
f 55/275/45 68/279/45 67/280/45
f 70/281/46 59/282/46 58/276/46
f 69/69/47 72/72/47 71/71/47
f 67/280/48 62/283/48 61/284/48
f 64/285/49 71/286/49 70/281/49
f 63/63/50 66/66/50 65/65/50
f 61/284/51 50/287/51 49/273/51
f 53/278/52 65/288/52 64/285/52
f 73/289/41 80/290/41 79/291/41
f 76/76/42 75/75/42 74/74/42
f 82/292/43 78/293/43 77/294/43
f 81/81/44 84/84/44 83/83/44
f 79/291/45 92/295/45 91/296/45
f 94/297/46 83/298/46 82/292/46
f 93/93/47 96/96/47 95/95/47
f 91/296/48 86/299/48 85/300/48
f 88/301/49 95/302/49 94/297/49
f 87/87/50 90/90/50 89/89/50
f 85/300/51 74/303/51 73/289/51
f 77/294/52 89/304/52 88/301/52
f 97/305/41 104/306/41 103/307/41
f 100/100/42 99/99/42 98/98/42
f 106/308/43 102/309/43 101/310/43
f 105/105/44 108/108/44 107/107/44
f 103/307/45 116/311/45 115/312/45
f 118/313/46 107/314/46 106/308/46
f 117/117/47 120/120/47 119/119/47
f 115/312/48 110/315/48 109/316/48
f 112/317/49 119/318/49 118/313/49
f 111/111/50 114/114/50 113/113/50
f 109/316/51 98/319/51 97/305/51
f 101/310/52 113/320/52 112/317/52
f 121/321/41 128/322/41 127/323/41
f 124/124/42 123/123/42 122/122/42
f 130/324/43 126/325/43 125/326/43
f 129/129/44 132/132/44 131/131/44
f 127/323/45 140/327/45 139/328/45
f 142/329/46 131/330/46 130/324/46
f 141/141/47 144/144/47 143/143/47
f 139/328/48 134/331/48 133/332/48
f 136/333/49 143/334/49 142/329/49
f 135/135/50 138/138/50 137/137/50
f 133/332/51 122/335/51 121/321/51
f 125/326/52 137/336/52 136/333/52
f 145/337/41 152/338/41 151/339/41
f 148/148/42 147/147/42 146/146/42
f 154/340/43 150/341/43 149/342/43
f 153/153/44 156/156/44 155/155/44
f 151/339/45 164/343/45 163/344/45
f 166/345/46 155/346/46 154/340/46
f 165/165/47 168/168/47 167/167/47
f 163/344/48 158/347/48 157/348/48
f 160/349/49 167/350/49 166/345/49
f 159/159/50 162/162/50 161/161/50
f 157/348/51 146/351/51 145/337/51
f 149/342/52 161/352/52 160/349/52
f 169/353/41 176/354/41 175/355/41
f 172/172/42 171/171/42 170/170/42
f 178/356/43 174/357/43 173/358/43
f 177/177/44 180/180/44 179/179/44
f 175/355/45 188/359/45 187/360/45
f 190/361/46 179/362/46 178/356/46
f 189/189/47 192/192/47 191/191/47
f 187/360/48 182/363/48 181/364/48
f 184/365/49 191/366/49 190/361/49
f 183/183/50 186/186/50 185/185/50
f 181/364/51 170/367/51 169/353/51
f 173/358/52 185/368/52 184/365/52
f 193/369/41 200/370/41 199/371/41
f 196/196/42 195/195/42 194/194/42
f 202/372/43 198/373/43 197/374/43
f 201/201/44 204/204/44 203/203/44
f 199/371/45 212/375/45 211/376/45
f 214/377/46 203/378/46 202/372/46
f 213/213/47 216/216/47 215/215/47
f 211/376/48 206/379/48 205/380/48
f 208/381/49 215/382/49 214/377/49
f 207/207/50 210/210/50 209/209/50
f 205/380/51 194/383/51 193/369/51
f 197/374/52 209/384/52 208/381/52
f 217/385/41 224/386/41 223/387/41
f 220/220/42 219/219/42 218/218/42
f 226/388/43 222/389/43 221/390/43
f 225/225/44 228/228/44 227/227/44
f 223/387/45 236/391/45 235/392/45
f 238/393/46 227/394/46 226/388/46
f 237/237/47 240/240/47 239/239/47
f 235/392/48 230/395/48 229/396/48
f 232/397/49 239/398/49 238/393/49
f 231/231/50 234/234/50 233/233/50
f 229/396/51 218/399/51 217/385/51
f 221/390/52 233/400/52 232/397/52
f 19/248/53 1/241/53 7/243/53
f 6/6/54 8/401/54 3/3/54
f 17/17/55 2/402/55 15/15/55
f 10/244/56 16/253/56 22/249/56
f 11/403/57 20/20/57 9/404/57
f 23/405/58 14/14/58 21/406/58
f 43/264/53 25/257/53 31/259/53
f 30/30/54 32/407/54 27/27/54
f 41/41/55 26/408/55 39/39/55
f 34/260/56 40/269/56 46/265/56
f 35/409/57 44/44/57 33/410/57
f 47/411/58 38/38/58 45/412/58
f 67/280/53 49/273/53 55/275/53
f 54/54/54 56/413/54 51/51/54
f 65/65/55 50/414/55 63/63/55
f 58/276/56 64/285/56 70/281/56
f 59/415/57 68/68/57 57/416/57
f 71/417/58 62/62/58 69/418/58
f 91/296/53 73/289/53 79/291/53
f 78/78/54 80/419/54 75/75/54
f 89/89/55 74/420/55 87/87/55
f 82/292/56 88/301/56 94/297/56
f 83/421/57 92/92/57 81/422/57
f 95/423/58 86/86/58 93/424/58
f 115/312/53 97/305/53 103/307/53
f 102/102/54 104/425/54 99/99/54
f 113/113/55 98/426/55 111/111/55
f 106/308/56 112/317/56 118/313/56
f 107/427/57 116/116/57 105/428/57
f 119/429/58 110/110/58 117/430/58
f 139/328/53 121/321/53 127/323/53
f 126/126/54 128/431/54 123/123/54
f 137/137/55 122/432/55 135/135/55
f 130/324/56 136/333/56 142/329/56
f 131/433/57 140/140/57 129/434/57
f 143/435/58 134/134/58 141/436/58
f 163/344/53 145/337/53 151/339/53
f 150/150/54 152/437/54 147/147/54
f 161/161/55 146/438/55 159/159/55
f 154/340/56 160/349/56 166/345/56
f 155/439/57 164/164/57 153/440/57
f 167/441/58 158/158/58 165/442/58
f 187/360/53 169/353/53 175/355/53
f 174/174/54 176/443/54 171/171/54
f 185/185/55 170/444/55 183/183/55
f 178/356/56 184/365/56 190/361/56
f 179/445/57 188/188/57 177/446/57
f 191/447/58 182/182/58 189/448/58
f 211/376/53 193/369/53 199/371/53
f 198/198/54 200/449/54 195/195/54
f 209/209/55 194/450/55 207/207/55
f 202/372/56 208/381/56 214/377/56
f 203/451/57 212/212/57 201/452/57
f 215/453/58 206/206/58 213/454/58
f 235/392/53 217/385/53 223/387/53
f 222/222/54 224/455/54 219/219/54
f 233/233/55 218/456/55 231/231/55
f 226/388/56 232/397/56 238/393/56
f 227/457/57 236/236/57 225/458/57
f 239/459/58 230/230/58 237/460/58
f 1/241/41 3/461/41 8/242/41
f 4/4/42 6/6/42 3/3/42
f 10/244/43 12/462/43 6/245/43
f 9/9/44 8/8/44 12/12/44
f 7/243/45 9/463/45 20/247/45
f 22/249/46 24/464/46 11/250/46
f 21/21/47 20/20/47 24/24/47
f 19/248/48 21/465/48 14/251/48
f 16/253/49 18/466/49 23/254/49
f 15/15/50 14/14/50 18/18/50
f 13/252/51 15/467/51 2/255/51
f 5/246/52 4/468/52 17/256/52
f 25/257/41 27/469/41 32/258/41
f 28/28/42 30/30/42 27/27/42
f 34/260/43 36/470/43 30/261/43
f 33/33/44 32/32/44 36/36/44
f 31/259/45 33/471/45 44/263/45
f 46/265/46 48/472/46 35/266/46
f 45/45/47 44/44/47 48/48/47
f 43/264/48 45/473/48 38/267/48
f 40/269/49 42/474/49 47/270/49
f 39/39/50 38/38/50 42/42/50
f 37/268/51 39/475/51 26/271/51
f 29/262/52 28/476/52 41/272/52
f 49/273/41 51/477/41 56/274/41
f 52/52/42 54/54/42 51/51/42
f 58/276/43 60/478/43 54/277/43
f 57/57/44 56/56/44 60/60/44
f 55/275/45 57/479/45 68/279/45
f 70/281/46 72/480/46 59/282/46
f 69/69/47 68/68/47 72/72/47
f 67/280/48 69/481/48 62/283/48
f 64/285/49 66/482/49 71/286/49
f 63/63/50 62/62/50 66/66/50
f 61/284/51 63/483/51 50/287/51
f 53/278/52 52/484/52 65/288/52
f 73/289/41 75/485/41 80/290/41
f 76/76/42 78/78/42 75/75/42
f 82/292/43 84/486/43 78/293/43
f 81/81/44 80/80/44 84/84/44
f 79/291/45 81/487/45 92/295/45
f 94/297/46 96/488/46 83/298/46
f 93/93/47 92/92/47 96/96/47
f 91/296/48 93/489/48 86/299/48
f 88/301/49 90/490/49 95/302/49
f 87/87/50 86/86/50 90/90/50
f 85/300/51 87/491/51 74/303/51
f 77/294/52 76/492/52 89/304/52
f 97/305/41 99/493/41 104/306/41
f 100/100/42 102/102/42 99/99/42
f 106/308/43 108/494/43 102/309/43
f 105/105/44 104/104/44 108/108/44
f 103/307/45 105/495/45 116/311/45
f 118/313/46 120/496/46 107/314/46
f 117/117/47 116/116/47 120/120/47
f 115/312/48 117/497/48 110/315/48
f 112/317/49 114/498/49 119/318/49
f 111/111/50 110/110/50 114/114/50
f 109/316/51 111/499/51 98/319/51
f 101/310/52 100/500/52 113/320/52
f 121/321/41 123/501/41 128/322/41
f 124/124/42 126/126/42 123/123/42
f 130/324/43 132/502/43 126/325/43
f 129/129/44 128/128/44 132/132/44
f 127/323/45 129/503/45 140/327/45
f 142/329/46 144/504/46 131/330/46
f 141/141/47 140/140/47 144/144/47
f 139/328/48 141/505/48 134/331/48
f 136/333/49 138/506/49 143/334/49
f 135/135/50 134/134/50 138/138/50
f 133/332/51 135/507/51 122/335/51
f 125/326/52 124/508/52 137/336/52
f 145/337/41 147/509/41 152/338/41
f 148/148/42 150/150/42 147/147/42
f 154/340/43 156/510/43 150/341/43
f 153/153/44 152/152/44 156/156/44
f 151/339/45 153/511/45 164/343/45
f 166/345/46 168/512/46 155/346/46
f 165/165/47 164/164/47 168/168/47
f 163/344/48 165/513/48 158/347/48
f 160/349/49 162/514/49 167/350/49
f 159/159/50 158/158/50 162/162/50
f 157/348/51 159/515/51 146/351/51
f 149/342/52 148/516/52 161/352/52
f 169/353/41 171/517/41 176/354/41
f 172/172/42 174/174/42 171/171/42
f 178/356/43 180/518/43 174/357/43
f 177/177/44 176/176/44 180/180/44
f 175/355/45 177/519/45 188/359/45
f 190/361/46 192/520/46 179/362/46
f 189/189/47 188/188/47 192/192/47
f 187/360/48 189/521/48 182/363/48
f 184/365/49 186/522/49 191/366/49
f 183/183/50 182/182/50 186/186/50
f 181/364/51 183/523/51 170/367/51
f 173/358/52 172/524/52 185/368/52
f 193/369/41 195/525/41 200/370/41
f 196/196/42 198/198/42 195/195/42
f 202/372/43 204/526/43 198/373/43
f 201/201/44 200/200/44 204/204/44
f 199/371/45 201/527/45 212/375/45
f 214/377/46 216/528/46 203/378/46
f 213/213/47 212/212/47 216/216/47
f 211/376/48 213/529/48 206/379/48
f 208/381/49 210/530/49 215/382/49
f 207/207/50 206/206/50 210/210/50
f 205/380/51 207/531/51 194/383/51
f 197/374/52 196/532/52 209/384/52
f 217/385/41 219/533/41 224/386/41
f 220/220/42 222/222/42 219/219/42
f 226/388/43 228/534/43 222/389/43
f 225/225/44 224/224/44 228/228/44
f 223/387/45 225/535/45 236/391/45
f 238/393/46 240/536/46 227/394/46
f 237/237/47 236/236/47 240/240/47
f 235/392/48 237/537/48 230/395/48
f 232/397/49 234/538/49 239/398/49
f 231/231/50 230/230/50 234/234/50
f 229/396/51 231/539/51 218/399/51
f 221/390/52 220/540/52 233/400/52
f 19/248/53 13/252/53 1/241/53
f 6/6/54 12/541/54 8/401/54
f 17/17/55 4/542/55 2/402/55
f 10/244/56 5/246/56 16/253/56
f 11/403/57 24/24/57 20/20/57
f 23/405/58 18/18/58 14/14/58
f 43/264/53 37/268/53 25/257/53
f 30/30/54 36/543/54 32/407/54
f 41/41/55 28/544/55 26/408/55
f 34/260/56 29/262/56 40/269/56
f 35/409/57 48/48/57 44/44/57
f 47/411/58 42/42/58 38/38/58
f 67/280/53 61/284/53 49/273/53
f 54/54/54 60/545/54 56/413/54
f 65/65/55 52/546/55 50/414/55
f 58/276/56 53/278/56 64/285/56
f 59/415/57 72/72/57 68/68/57
f 71/417/58 66/66/58 62/62/58
f 91/296/53 85/300/53 73/289/53
f 78/78/54 84/547/54 80/419/54
f 89/89/55 76/548/55 74/420/55
f 82/292/56 77/294/56 88/301/56
f 83/421/57 96/96/57 92/92/57
f 95/423/58 90/90/58 86/86/58
f 115/312/53 109/316/53 97/305/53
f 102/102/54 108/549/54 104/425/54
f 113/113/55 100/550/55 98/426/55
f 106/308/56 101/310/56 112/317/56
f 107/427/57 120/120/57 116/116/57
f 119/429/58 114/114/58 110/110/58
f 139/328/53 133/332/53 121/321/53
f 126/126/54 132/551/54 128/431/54
f 137/137/55 124/552/55 122/432/55
f 130/324/56 125/326/56 136/333/56
f 131/433/57 144/144/57 140/140/57
f 143/435/58 138/138/58 134/134/58
f 163/344/53 157/348/53 145/337/53
f 150/150/54 156/553/54 152/437/54
f 161/161/55 148/554/55 146/438/55
f 154/340/56 149/342/56 160/349/56
f 155/439/57 168/168/57 164/164/57
f 167/441/58 162/162/58 158/158/58
f 187/360/53 181/364/53 169/353/53
f 174/174/54 180/555/54 176/443/54
f 185/185/55 172/556/55 170/444/55
f 178/356/56 173/358/56 184/365/56
f 179/445/57 192/192/57 188/188/57
f 191/447/58 186/186/58 182/182/58
f 211/376/53 205/380/53 193/369/53
f 198/198/54 204/557/54 200/449/54
f 209/209/55 196/558/55 194/450/55
f 202/372/56 197/374/56 208/381/56
f 203/451/57 216/216/57 212/212/57
f 215/453/58 210/210/58 206/206/58
f 235/392/53 229/396/53 217/385/53
f 222/222/54 228/559/54 224/455/54
f 233/233/55 220/560/55 218/456/55
f 226/388/56 221/390/56 232/397/56
f 227/457/57 240/240/57 236/236/57
f 239/459/58 234/234/58 230/230/58
