# Blender 5.2.0 LTS
# www.blender.org
o Column
v 0.000000 0.320000 -0.279294
v 0.000000 0.340000 -0.300000
v -0.000000 2.680000 -0.279294
v 0.000000 2.660000 -0.300000
v 0.139647 0.320000 -0.241876
v 0.150000 0.340000 -0.259808
v 0.139647 2.680000 -0.241876
v 0.150000 2.660000 -0.259808
v 0.241876 0.320000 -0.139647
v 0.259808 0.340000 -0.150000
v 0.241876 2.680000 -0.139647
v 0.259808 2.660000 -0.150000
v 0.279294 0.320000 0.000000
v 0.300000 0.340000 0.000000
v 0.279294 2.680000 -0.000000
v 0.300000 2.660000 0.000000
v 0.241876 0.320000 0.139647
v 0.259808 0.340000 0.150000
v 0.241876 2.680000 0.139647
v 0.259808 2.660000 0.150000
v 0.139647 0.320000 0.241876
v 0.150000 0.340000 0.259808
v 0.139647 2.680000 0.241876
v 0.150000 2.660000 0.259808
v -0.000000 0.320000 0.279294
v 0.000000 0.340000 0.300000
v 0.000000 2.680000 0.279294
v 0.000000 2.660000 0.300000
v -0.139647 0.320000 0.241876
v -0.150000 0.340000 0.259808
v -0.139647 2.680000 0.241876
v -0.150000 2.660000 0.259808
v -0.241876 0.320000 0.139647
v -0.259808 0.340000 0.150000
v -0.241876 2.680000 0.139647
v -0.259808 2.660000 0.150000
v -0.279294 0.320000 -0.000000
v -0.300000 0.340000 0.000000
v -0.279294 2.680000 0.000000
v -0.300000 2.660000 0.000000
v -0.241876 0.320000 -0.139647
v -0.259808 0.340000 -0.150000
v -0.241876 2.680000 -0.139647
v -0.259808 2.660000 -0.150000
v -0.139647 0.320000 -0.241876
v -0.150000 0.340000 -0.259808
v -0.139647 2.680000 -0.241876
v -0.150000 2.660000 -0.259808
v -0.370000 0.000000 0.370000
v -0.370000 0.020000 0.390000
v -0.390000 0.020000 0.370000
v -0.370000 0.300000 0.390000
v -0.370000 0.320000 0.370000
v -0.390000 0.300000 0.370000
v -0.370000 0.000000 -0.370000
v -0.390000 0.020000 -0.370000
v -0.370000 0.020000 -0.390000
v -0.370000 0.320000 -0.370000
v -0.370000 0.300000 -0.390000
v -0.390000 0.300000 -0.370000
v 0.370000 0.000000 0.370000
v 0.390000 0.020000 0.370000
v 0.370000 0.020000 0.390000
v 0.370000 0.320000 0.370000
v 0.370000 0.300000 0.390000
v 0.390000 0.300000 0.370000
v 0.370000 0.000000 -0.370000
v 0.370000 0.020000 -0.390000
v 0.390000 0.020000 -0.370000
v 0.370000 0.320000 -0.370000
v 0.390000 0.300000 -0.370000
v 0.370000 0.300000 -0.390000
v -0.370000 2.680000 0.370000
v -0.370000 2.700000 0.390000
v -0.390000 2.700000 0.370000
v -0.370000 2.980000 0.390000
v -0.370000 3.000000 0.370000
v -0.390000 2.980000 0.370000
v -0.370000 2.680000 -0.370000
v -0.390000 2.700000 -0.370000
v -0.370000 2.700000 -0.390000
v -0.370000 3.000000 -0.370000
v -0.370000 2.980000 -0.390000
v -0.390000 2.980000 -0.370000
v 0.370000 2.680000 0.370000
v 0.390000 2.700000 0.370000
v 0.370000 2.700000 0.390000
v 0.370000 3.000000 0.370000
v 0.370000 2.980000 0.390000
v 0.390000 2.980000 0.370000
v 0.370000 2.680000 -0.370000
v 0.370000 2.700000 -0.390000
v 0.390000 2.700000 -0.370000
v 0.370000 3.000000 -0.370000
v 0.390000 2.980000 -0.370000
v 0.370000 2.980000 -0.390000
v 0.000000 0.320000 -0.339294
v 0.000000 0.340000 -0.360000
v 0.000000 0.390000 -0.339294
v 0.000000 0.370000 -0.360000
v 0.169647 0.320000 -0.293838
v 0.180000 0.340000 -0.311769
v 0.169647 0.390000 -0.293838
v 0.180000 0.370000 -0.311769
v 0.293838 0.320000 -0.169647
v 0.311769 0.340000 -0.180000
v 0.293838 0.390000 -0.169647
v 0.311769 0.370000 -0.180000
v 0.339294 0.320000 0.000000
v 0.360000 0.340000 0.000000
v 0.339294 0.390000 0.000000
v 0.360000 0.370000 0.000000
v 0.293838 0.320000 0.169647
v 0.311769 0.340000 0.180000
v 0.293838 0.390000 0.169647
v 0.311769 0.370000 0.180000
v 0.169647 0.320000 0.293838
v 0.180000 0.340000 0.311769
v 0.169647 0.390000 0.293838
v 0.180000 0.370000 0.311769
v 0.000000 0.320000 0.339294
v 0.000000 0.340000 0.360000
v 0.000000 0.390000 0.339294
v 0.000000 0.370000 0.360000
v -0.169647 0.320000 0.293838
v -0.180000 0.340000 0.311769
v -0.169647 0.390000 0.293838
v -0.180000 0.370000 0.311769
v -0.293838 0.320000 0.169647
v -0.311769 0.340000 0.180000
v -0.293838 0.390000 0.169647
v -0.311769 0.370000 0.180000
v -0.339294 0.320000 0.000000
v -0.360000 0.340000 0.000000
v -0.339294 0.390000 0.000000
v -0.360000 0.370000 0.000000
v -0.293838 0.320000 -0.169647
v -0.311769 0.340000 -0.180000
v -0.293838 0.390000 -0.169647
v -0.311769 0.370000 -0.180000
v -0.169647 0.320000 -0.293838
v -0.180000 0.340000 -0.311769
v -0.169647 0.390000 -0.293838
v -0.180000 0.370000 -0.311769
v 0.000000 2.610000 -0.339294
v 0.000000 2.630000 -0.360000
v 0.000000 2.680000 -0.339294
v 0.000000 2.660000 -0.360000
v 0.169647 2.610000 -0.293838
v 0.180000 2.630000 -0.311769
v 0.169647 2.680000 -0.293838
v 0.180000 2.660000 -0.311769
v 0.293838 2.610000 -0.169647
v 0.311769 2.630000 -0.180000
v 0.293838 2.680000 -0.169647
v 0.311769 2.660000 -0.180000
v 0.339294 2.610000 0.000000
v 0.360000 2.630000 0.000000
v 0.339294 2.680000 0.000000
v 0.360000 2.660000 0.000000
v 0.293838 2.610000 0.169647
v 0.311769 2.630000 0.180000
v 0.293838 2.680000 0.169647
v 0.311769 2.660000 0.180000
v 0.169647 2.610000 0.293838
v 0.180000 2.630000 0.311769
v 0.169647 2.680000 0.293838
v 0.180000 2.660000 0.311769
v 0.000000 2.610000 0.339294
v 0.000000 2.630000 0.360000
v 0.000000 2.680000 0.339294
v 0.000000 2.660000 0.360000
v -0.169647 2.610000 0.293838
v -0.180000 2.630000 0.311769
v -0.169647 2.680000 0.293838
v -0.180000 2.660000 0.311769
v -0.293838 2.610000 0.169647
v -0.311769 2.630000 0.180000
v -0.293838 2.680000 0.169647
v -0.311769 2.660000 0.180000
v -0.339294 2.610000 0.000000
v -0.360000 2.630000 0.000000
v -0.339294 2.680000 0.000000
v -0.360000 2.660000 0.000000
v -0.293838 2.610000 -0.169647
v -0.311769 2.630000 -0.180000
v -0.293838 2.680000 -0.169647
v -0.311769 2.660000 -0.180000
v -0.169647 2.610000 -0.293838
v -0.180000 2.630000 -0.311769
v -0.169647 2.680000 -0.293838
v -0.180000 2.660000 -0.311769
vn -0.5773 -0.5774 0.5774
vn -0.5774 0.5774 0.5774
vn -0.5773 -0.5774 -0.5774
vn -0.5774 0.5774 -0.5774
vn 0.5773 -0.5774 0.5774
vn 0.5774 0.5774 0.5774
vn 0.5773 -0.5774 -0.5774
vn 0.5774 0.5774 -0.5774
vn -0.5773 0.5774 0.5774
vn -0.5773 0.5774 -0.5774
vn 0.5773 0.5774 0.5774
vn 0.5773 0.5774 -0.5774
vn 0.3474 -0.7193 -0.6017
vn -0.0000 -0.7193 -0.6947
vn -0.0000 0.7193 -0.6947
vn 0.3474 0.7193 -0.6017
vn 0.6017 -0.7193 -0.3474
vn 0.6017 0.7193 -0.3474
vn 0.6947 -0.7193 -0.0000
vn 0.6947 0.7193 -0.0000
vn 0.6017 -0.7193 0.3474
vn 0.6017 0.7193 0.3474
vn 0.3474 -0.7193 0.6017
vn 0.3474 0.7193 0.6017
vn -0.0000 -0.7193 0.6947
vn -0.0000 0.7193 0.6947
vn -0.3474 -0.7193 0.6017
vn -0.3474 0.7193 0.6017
vn -0.6017 -0.7193 0.3474
vn -0.6017 0.7193 0.3474
vn -0.6947 -0.7193 -0.0000
vn -0.6947 0.7193 -0.0000
vn -0.6017 -0.7193 -0.3474
vn -0.6017 0.7193 -0.3474
vn -0.3474 -0.7193 -0.6017
vn -0.3474 0.7193 -0.6017
vn -0.7071 -0.7071 -0.0000
vn -0.7071 -0.0000 0.7071
vn -0.7071 0.7071 -0.0000
vn -0.7071 -0.0000 -0.7071
vn -0.0000 -0.7071 -0.7071
vn -0.0000 0.7071 -0.7071
vn 0.7071 -0.0000 -0.7071
vn 0.7071 -0.7071 -0.0000
vn 0.7071 0.7071 -0.0000
vn 0.7071 -0.0000 0.7071
vn -0.0000 -0.7071 0.7071
vn -0.0000 0.7071 0.7071
vn -0.0000 -1.0000 -0.0000
vn -0.0000 -0.0000 -1.0000
vn 0.5000 -0.0000 -0.8660
vn -0.5000 -0.0000 -0.8660
vn -0.0000 1.0000 -0.0000
vn 0.8660 -0.0000 -0.5000
vn 1.0000 -0.0000 -0.0000
vn 0.8660 -0.0000 0.5000
vn 0.5000 -0.0000 0.8660
vn -0.0000 -0.0000 1.0000
vn -0.5000 -0.0000 0.8660
vn -0.8660 -0.0000 0.5000
vn -1.0000 -0.0000 -0.0000
vn -0.8660 -0.0000 -0.5000
vt 0.481754 0.012717
vt 0.476788 0.012717
vt 0.481754 0.007751
vt 0.012717 0.599322
vt 0.012717 0.604289
vt 0.007751 0.604289
vt 0.665500 0.012717
vt 0.665500 0.007751
vt 0.670466 0.012717
vt 0.012717 0.788035
vt 0.012717 0.793001
vt 0.007751 0.788035
vt 0.481754 0.196463
vt 0.481754 0.201430
vt 0.476787 0.196463
vt 0.845376 0.200907
vt 0.850343 0.195941
vt 0.850343 0.200907
vt 0.665500 0.196463
vt 0.670466 0.196463
vt 0.665500 0.201430
vt 0.845376 0.384654
vt 0.850343 0.384654
vt 0.850343 0.389620
vt 0.481754 0.221897
vt 0.476787 0.221897
vt 0.481754 0.216931
vt 0.476788 0.614824
vt 0.481754 0.614824
vt 0.481754 0.619790
vt 0.665500 0.221897
vt 0.665500 0.216931
vt 0.670466 0.221897
vt 0.665500 0.614824
vt 0.670466 0.614824
vt 0.665500 0.619790
vt 0.481754 0.405644
vt 0.481754 0.410610
vt 0.476787 0.405644
vt 0.481754 0.431077
vt 0.476788 0.431077
vt 0.481754 0.426111
vt 0.665500 0.405644
vt 0.670466 0.405644
vt 0.665500 0.410610
vt 0.665500 0.431077
vt 0.665500 0.426111
vt 0.670466 0.431077
vt 0.685968 0.248615
vt 0.690934 0.285844
vt 0.685968 0.287174
vt 0.685968 0.446583
vt 0.708883 0.476341
vt 0.705248 0.479977
vt 0.705248 0.215221
vt 0.690934 0.249945
vt 0.739972 0.494291
vt 0.738642 0.499257
vt 0.738642 0.195941
vt 0.708883 0.218856
vt 0.775871 0.494291
vt 0.777201 0.499257
vt 0.777201 0.195941
vt 0.739972 0.200907
vt 0.806960 0.476341
vt 0.810595 0.479977
vt 0.810595 0.215221
vt 0.775871 0.200907
vt 0.824909 0.445252
vt 0.829875 0.446583
vt 0.829875 0.248615
vt 0.806960 0.218856
vt 0.824909 0.409354
vt 0.829875 0.408023
vt 0.829875 0.287174
vt 0.824909 0.249945
vt 0.806960 0.378265
vt 0.810595 0.374629
vt 0.810595 0.320568
vt 0.824909 0.285844
vt 0.775871 0.360316
vt 0.777201 0.355350
vt 0.777201 0.339848
vt 0.806960 0.316933
vt 0.739972 0.360316
vt 0.738642 0.355350
vt 0.738642 0.339848
vt 0.775871 0.334882
vt 0.708883 0.378265
vt 0.705248 0.374629
vt 0.705248 0.320568
vt 0.739972 0.334882
vt 0.690934 0.409354
vt 0.685968 0.408023
vt 0.708883 0.316933
vt 0.690934 0.445252
vt 0.296992 0.792479
vt 0.366518 0.787513
vt 0.366518 0.792479
vt 0.451545 0.971259
vt 0.382019 0.976225
vt 0.382019 0.971259
vt 0.196463 0.788035
vt 0.919868 0.384654
vt 0.919868 0.195941
vt 0.196463 0.599322
vt 0.196463 0.604289
vt 0.853168 0.640258
vt 0.922693 0.635292
vt 0.922693 0.640258
vt 0.281491 0.971259
vt 0.211965 0.976225
vt 0.211965 0.971259
vt 0.914902 0.593834
vt 0.845376 0.598800
vt 0.845376 0.593834
vt 0.914902 0.405121
vt 0.845376 0.410087
vt 0.845376 0.405121
vt 0.211965 0.708803
vt 0.216931 0.663862
vt 0.216931 0.707472
vt 0.476787 0.744772
vt 0.503559 0.781209
vt 0.499923 0.784844
vt 0.235101 0.622458
vt 0.211965 0.662531
vt 0.541327 0.803014
vt 0.539996 0.807980
vt 0.275173 0.599322
vt 0.238736 0.626094
vt 0.586268 0.807980
vt 0.584937 0.803014
vt 0.320114 0.604289
vt 0.276504 0.604289
vt 0.622705 0.781209
vt 0.626340 0.784844
vt 0.361518 0.622458
vt 0.321445 0.599322
vt 0.644510 0.743441
vt 0.649476 0.744772
vt 0.384654 0.662531
vt 0.357882 0.626094
vt 0.649476 0.698500
vt 0.644510 0.699831
vt 0.379687 0.707472
vt 0.379687 0.663862
vt 0.622705 0.662063
vt 0.626340 0.658427
vt 0.361518 0.748875
vt 0.384654 0.708803
vt 0.584937 0.640258
vt 0.586268 0.635292
vt 0.321445 0.772011
vt 0.357882 0.745240
vt 0.539996 0.635292
vt 0.541327 0.640258
vt 0.276504 0.767045
vt 0.320114 0.767045
vt 0.503559 0.662063
vt 0.499923 0.658427
vt 0.235101 0.748875
vt 0.275173 0.772011
vt 0.481754 0.699831
vt 0.476787 0.698500
vt 0.238736 0.745240
vt 0.481754 0.743441
vt 0.664978 0.698500
vt 0.669944 0.743441
vt 0.664978 0.744772
vt 0.709104 0.157304
vt 0.690934 0.115900
vt 0.712739 0.153668
vt 0.688113 0.658427
vt 0.669944 0.699831
vt 0.750507 0.175473
vt 0.749176 0.180439
vt 0.728186 0.635291
vt 0.691749 0.662063
vt 0.794117 0.175473
vt 0.795448 0.180439
vt 0.774458 0.635291
vt 0.729517 0.640258
vt 0.835521 0.157304
vt 0.831885 0.153668
vt 0.814530 0.658427
vt 0.773127 0.640258
vt 0.853690 0.115900
vt 0.858656 0.117231
vt 0.837666 0.698500
vt 0.810895 0.662063
vt 0.853690 0.072290
vt 0.858656 0.070959
vt 0.837666 0.744772
vt 0.832700 0.699831
vt 0.835521 0.030887
vt 0.831885 0.034522
vt 0.814530 0.784844
vt 0.832700 0.743441
vt 0.794117 0.012717
vt 0.795448 0.007751
vt 0.774458 0.807980
vt 0.810895 0.781209
vt 0.750507 0.012717
vt 0.749176 0.007751
vt 0.728186 0.807980
vt 0.773127 0.803014
vt 0.709104 0.030887
vt 0.712739 0.034522
vt 0.688113 0.784844
vt 0.729517 0.803014
vt 0.690934 0.072290
vt 0.685968 0.070959
vt 0.691749 0.781209
vt 0.685968 0.117231
vt 0.216788 0.007751
vt 0.254034 0.583821
vt 0.216788 0.583821
vt 0.179542 0.007751
vt 0.179542 0.583821
vt 0.007751 0.007751
vt 0.035017 0.583821
vt 0.007751 0.583821
vt 0.035017 0.007751
vt 0.072263 0.583821
vt 0.072263 0.007751
vt 0.109508 0.583821
vt 0.109508 0.007751
vt 0.136774 0.583821
vt 0.269535 0.007751
vt 0.306781 0.583821
vt 0.269535 0.583821
vt 0.306781 0.007751
vt 0.344027 0.583821
vt 0.344027 0.007751
vt 0.371293 0.583821
vt 0.386794 0.007751
vt 0.424040 0.583821
vt 0.386794 0.583821
vt 0.424040 0.007751
vt 0.461286 0.583821
vt 0.152276 0.007751
vt 0.152276 0.583821
vt 0.092778 0.992249
vt 0.162304 0.808503
vt 0.162304 0.992249
vt 0.296992 0.976225
vt 0.366518 0.976225
vt 0.451545 0.787513
vt 0.919868 0.200907
vt 0.007751 0.992249
vt 0.077276 0.808503
vt 0.077276 0.992249
vt 0.853168 0.824004
vt 0.922693 0.824004
vt 0.281491 0.787513
vt 0.914902 0.410087
vt 0.446056 0.644018
vt 0.453505 0.599322
vt 0.453505 0.644018
vt 0.446056 0.688713
vt 0.453505 0.688713
vt 0.400155 0.754151
vt 0.407604 0.721432
vt 0.407604 0.754151
vt 0.400155 0.721432
vt 0.407604 0.676737
vt 0.400155 0.676737
vt 0.407604 0.632042
vt 0.400155 0.632042
vt 0.407604 0.599322
vt 0.874158 0.129860
vt 0.881607 0.085165
vt 0.881607 0.129860
vt 0.874158 0.085165
vt 0.881607 0.040470
vt 0.874158 0.040470
vt 0.881607 0.007751
vt 0.685968 0.604148
vt 0.693417 0.559453
vt 0.693417 0.604148
vt 0.685968 0.559453
vt 0.693417 0.514758
vt 0.446056 0.721432
vt 0.453505 0.721432
vt 0.920059 0.052446
vt 0.927508 0.007751
vt 0.927508 0.052446
vt 0.920059 0.097141
vt 0.927508 0.097141
vt 0.423106 0.754151
vt 0.430555 0.721432
vt 0.430555 0.754151
vt 0.423106 0.721432
vt 0.430555 0.676737
vt 0.423106 0.676737
vt 0.430555 0.632042
vt 0.423106 0.632042
vt 0.430555 0.599322
vt 0.897108 0.129860
vt 0.904558 0.085165
vt 0.904558 0.129860
vt 0.897108 0.085165
vt 0.904558 0.040470
vt 0.897108 0.040470
vt 0.904558 0.007751
vt 0.708918 0.604148
vt 0.716367 0.559453
vt 0.716367 0.604148
vt 0.708918 0.559453
vt 0.716367 0.514758
vt 0.920059 0.129860
vt 0.927508 0.129860
vt 0.296992 0.787513
vt 0.451545 0.976225
vt 0.196463 0.793001
vt 0.919868 0.389620
vt 0.853168 0.635292
vt 0.281491 0.976225
vt 0.914902 0.598800
vt 0.254034 0.007751
vt 0.136774 0.007751
vt 0.371293 0.007751
vt 0.461286 0.007751
vt 0.092778 0.808503
vt 0.382019 0.787513
vt 0.007751 0.808503
vt 0.211965 0.787513
vt 0.446056 0.599322
vt 0.400155 0.599322
vt 0.874158 0.007751
vt 0.685968 0.514758
vt 0.920059 0.007751
vt 0.423106 0.599322
vt 0.897108 0.007751
vt 0.708918 0.514758
s 1
f 49/1/1 50/2/1 51/3/1
f 52/4/2 53/5/2 54/6/2
f 55/7/3 56/8/3 57/9/3
f 58/10/4 59/11/4 60/12/4
f 61/13/5 62/14/5 63/15/5
f 64/16/6 65/17/6 66/18/6
f 67/19/7 68/20/7 69/21/7
f 70/22/8 71/23/8 72/24/8
f 73/25/1 74/26/1 75/27/1
f 76/28/9 77/29/9 78/30/9
f 79/31/3 80/32/3 81/33/3
f 82/34/10 83/35/10 84/36/10
f 85/37/5 86/38/5 87/39/5
f 88/40/11 89/41/11 90/42/11
f 91/43/7 92/44/7 93/45/7
f 94/46/12 95/47/12 96/48/12
f 6/49/13 1/50/14 2/51/14
f 4/52/15 7/53/16 8/54/16
f 10/55/17 5/56/13 6/49/13
f 8/54/16 11/57/18 12/58/18
f 14/59/19 9/60/17 10/55/17
f 12/58/18 15/61/20 16/62/20
f 18/63/21 13/64/19 14/59/19
f 16/62/20 19/65/22 20/66/22
f 22/67/23 17/68/21 18/63/21
f 20/66/22 23/69/24 24/70/24
f 26/71/25 21/72/23 22/67/23
f 24/70/24 27/73/26 28/74/26
f 30/75/27 25/76/25 26/71/25
f 28/74/26 31/77/28 32/78/28
f 34/79/29 29/80/27 30/75/27
f 32/78/28 35/81/30 36/82/30
f 38/83/31 33/84/29 34/79/29
f 36/82/30 39/85/32 40/86/32
f 42/87/33 37/88/31 38/83/31
f 40/86/32 43/89/34 44/90/34
f 46/91/35 41/92/33 42/87/33
f 44/90/34 47/93/36 48/94/36
f 2/51/14 45/95/35 46/91/35
f 48/94/36 3/96/15 4/52/15
f 49/1/37 56/8/37 55/7/37
f 52/97/38 51/98/38 50/99/38
f 58/10/39 54/6/39 53/5/39
f 57/100/40 60/101/40 59/102/40
f 55/7/41 68/20/41 67/19/41
f 70/103/42 59/11/42 58/10/42
f 69/104/43 72/24/43 71/23/43
f 67/19/44 62/14/44 61/13/44
f 64/16/45 71/23/45 70/22/45
f 63/105/46 66/18/46 65/17/46
f 61/13/47 50/2/47 49/1/47
f 53/5/48 65/106/48 64/107/48
f 73/25/37 80/32/37 79/31/37
f 76/108/38 75/109/38 74/110/38
f 82/34/39 78/30/39 77/29/39
f 81/111/40 84/112/40 83/113/40
f 79/31/41 92/44/41 91/43/41
f 94/46/42 83/35/42 82/34/42
f 93/114/43 96/115/43 95/116/43
f 91/43/44 86/38/44 85/37/44
f 88/40/45 95/47/45 94/46/45
f 87/117/46 90/118/46 89/119/46
f 85/37/47 74/26/47 73/25/47
f 77/29/48 89/41/48 88/40/48
f 98/120/14 101/121/13 97/122/14
f 100/123/15 103/124/16 104/125/16
f 106/126/17 101/121/13 102/127/13
f 104/125/16 107/128/18 108/129/18
f 110/130/19 105/131/17 106/126/17
f 112/132/20 107/128/18 111/133/20
f 110/130/19 113/134/21 109/135/19
f 112/132/20 115/136/22 116/137/22
f 118/138/23 113/134/21 114/139/21
f 116/137/22 119/140/24 120/141/24
f 122/142/25 117/143/23 118/138/23
f 124/144/26 119/140/24 123/145/26
f 122/142/25 125/146/27 121/147/25
f 124/144/26 127/148/28 128/149/28
f 130/150/29 125/146/27 126/151/27
f 128/149/28 131/152/30 132/153/30
f 134/154/31 129/155/29 130/150/29
f 136/156/32 131/152/30 135/157/32
f 134/154/31 137/158/33 133/159/31
f 136/156/32 139/160/34 140/161/34
f 142/162/35 137/158/33 138/163/33
f 140/161/34 143/164/36 144/165/36
f 98/120/14 141/166/35 142/162/35
f 100/123/15 143/164/36 99/167/15
f 150/168/13 145/169/14 146/170/14
f 152/171/16 147/172/15 151/173/16
f 154/174/17 149/175/13 150/168/13
f 152/171/16 155/176/18 156/177/18
f 158/178/19 153/179/17 154/174/17
f 156/177/18 159/180/20 160/181/20
f 162/182/21 157/183/19 158/178/19
f 164/184/22 159/180/20 163/185/22
f 166/186/23 161/187/21 162/182/21
f 164/184/22 167/188/24 168/189/24
f 170/190/25 165/191/23 166/186/23
f 168/189/24 171/192/26 172/193/26
f 174/194/27 169/195/25 170/190/25
f 176/196/28 171/192/26 175/197/28
f 178/198/29 173/199/27 174/194/27
f 176/196/28 179/200/30 180/201/30
f 182/202/31 177/203/29 178/198/29
f 180/201/30 183/204/32 184/205/32
f 186/206/33 181/207/31 182/202/31
f 188/208/34 183/204/32 187/209/34
f 190/210/35 185/211/33 186/206/33
f 188/208/34 191/212/36 192/213/36
f 146/170/14 189/214/35 190/210/35
f 192/213/36 147/172/15 148/215/15
f 13/64/49 29/80/49 45/95/49
f 4/216/50 6/217/51 2/218/50
f 48/219/52 2/218/50 46/220/52
f 43/89/53 27/73/53 11/57/53
f 8/221/51 10/222/54 6/223/51
f 12/224/54 14/225/55 10/222/54
f 16/226/55 18/227/56 14/225/55
f 20/228/56 22/229/57 18/227/56
f 24/230/57 26/231/58 22/232/57
f 28/233/58 30/234/59 26/231/58
f 32/235/59 34/236/60 30/234/59
f 36/237/60 38/238/61 34/239/60
f 40/240/61 42/241/62 38/238/61
f 44/242/62 46/220/52 42/243/62
f 67/19/49 49/1/49 55/7/49
f 54/244/61 56/245/61 51/246/61
f 65/247/58 50/99/58 63/248/58
f 58/10/53 64/107/53 70/103/53
f 59/102/50 68/249/50 57/100/50
f 71/23/55 62/250/55 69/104/55
f 91/43/49 73/25/49 79/31/49
f 78/251/61 80/252/61 75/253/61
f 89/254/58 74/110/58 87/255/58
f 82/34/53 88/40/53 94/46/53
f 83/113/50 92/256/50 81/111/50
f 95/116/55 86/257/55 93/114/55
f 109/135/49 125/146/49 141/166/49
f 100/258/50 102/259/51 98/260/50
f 144/261/52 98/260/50 142/262/52
f 139/160/53 123/145/53 107/128/53
f 104/263/51 106/264/54 102/265/51
f 108/266/54 110/267/55 106/264/54
f 112/268/55 114/269/56 110/267/55
f 116/270/56 118/271/57 114/269/56
f 120/272/57 122/273/58 118/274/57
f 124/275/58 126/276/59 122/273/58
f 128/277/59 130/278/60 126/276/59
f 132/279/60 134/280/61 130/281/60
f 136/282/61 138/283/62 134/280/61
f 140/284/62 142/262/52 138/285/62
f 157/183/49 173/199/49 189/214/49
f 148/286/50 150/287/51 146/288/50
f 192/289/52 146/288/50 190/290/52
f 187/209/53 171/192/53 155/176/53
f 152/291/51 154/292/54 150/293/51
f 156/294/54 158/295/55 154/292/54
f 160/296/55 162/297/56 158/295/55
f 164/298/56 166/299/57 162/297/56
f 168/300/57 170/301/58 166/302/57
f 172/303/58 174/304/59 170/301/58
f 176/305/59 178/306/60 174/304/59
f 180/307/60 182/308/61 178/309/60
f 184/310/61 186/311/62 182/308/61
f 188/312/62 190/290/52 186/313/62
f 6/49/13 5/56/13 1/50/14
f 4/52/15 3/96/15 7/53/16
f 10/55/17 9/60/17 5/56/13
f 8/54/16 7/53/16 11/57/18
f 14/59/19 13/64/19 9/60/17
f 12/58/18 11/57/18 15/61/20
f 18/63/21 17/68/21 13/64/19
f 16/62/20 15/61/20 19/65/22
f 22/67/23 21/72/23 17/68/21
f 20/66/22 19/65/22 23/69/24
f 26/71/25 25/76/25 21/72/23
f 24/70/24 23/69/24 27/73/26
f 30/75/27 29/80/27 25/76/25
f 28/74/26 27/73/26 31/77/28
f 34/79/29 33/84/29 29/80/27
f 32/78/28 31/77/28 35/81/30
f 38/83/31 37/88/31 33/84/29
f 36/82/30 35/81/30 39/85/32
f 42/87/33 41/92/33 37/88/31
f 40/86/32 39/85/32 43/89/34
f 46/91/35 45/95/35 41/92/33
f 44/90/34 43/89/34 47/93/36
f 2/51/14 1/50/14 45/95/35
f 48/94/36 47/93/36 3/96/15
f 49/1/37 51/3/37 56/8/37
f 52/97/38 54/314/38 51/98/38
f 58/10/39 60/12/39 54/6/39
f 57/100/40 56/315/40 60/101/40
f 55/7/41 57/9/41 68/20/41
f 70/103/42 72/316/42 59/11/42
f 69/104/43 68/317/43 72/24/43
f 67/19/44 69/21/44 62/14/44
f 64/16/45 66/18/45 71/23/45
f 63/105/46 62/250/46 66/18/46
f 61/13/47 63/15/47 50/2/47
f 53/5/48 52/4/48 65/106/48
f 73/25/37 75/27/37 80/32/37
f 76/108/38 78/318/38 75/109/38
f 82/34/39 84/36/39 78/30/39
f 81/111/40 80/319/40 84/112/40
f 79/31/41 81/33/41 92/44/41
f 94/46/42 96/48/42 83/35/42
f 93/114/43 92/320/43 96/115/43
f 91/43/44 93/45/44 86/38/44
f 88/40/45 90/42/45 95/47/45
f 87/117/46 86/257/46 90/118/46
f 85/37/47 87/39/47 74/26/47
f 77/29/48 76/28/48 89/41/48
f 98/120/14 102/127/13 101/121/13
f 100/123/15 99/167/15 103/124/16
f 106/126/17 105/131/17 101/121/13
f 104/125/16 103/124/16 107/128/18
f 110/130/19 109/135/19 105/131/17
f 112/132/20 108/129/18 107/128/18
f 110/130/19 114/139/21 113/134/21
f 112/132/20 111/133/20 115/136/22
f 118/138/23 117/143/23 113/134/21
f 116/137/22 115/136/22 119/140/24
f 122/142/25 121/147/25 117/143/23
f 124/144/26 120/141/24 119/140/24
f 122/142/25 126/151/27 125/146/27
f 124/144/26 123/145/26 127/148/28
f 130/150/29 129/155/29 125/146/27
f 128/149/28 127/148/28 131/152/30
f 134/154/31 133/159/31 129/155/29
f 136/156/32 132/153/30 131/152/30
f 134/154/31 138/163/33 137/158/33
f 136/156/32 135/157/32 139/160/34
f 142/162/35 141/166/35 137/158/33
f 140/161/34 139/160/34 143/164/36
f 98/120/14 97/122/14 141/166/35
f 100/123/15 144/165/36 143/164/36
f 150/168/13 149/175/13 145/169/14
f 152/171/16 148/215/15 147/172/15
f 154/174/17 153/179/17 149/175/13
f 152/171/16 151/173/16 155/176/18
f 158/178/19 157/183/19 153/179/17
f 156/177/18 155/176/18 159/180/20
f 162/182/21 161/187/21 157/183/19
f 164/184/22 160/181/20 159/180/20
f 166/186/23 165/191/23 161/187/21
f 164/184/22 163/185/22 167/188/24
f 170/190/25 169/195/25 165/191/23
f 168/189/24 167/188/24 171/192/26
f 174/194/27 173/199/27 169/195/25
f 176/196/28 172/193/26 171/192/26
f 178/198/29 177/203/29 173/199/27
f 176/196/28 175/197/28 179/200/30
f 182/202/31 181/207/31 177/203/29
f 180/201/30 179/200/30 183/204/32
f 186/206/33 185/211/33 181/207/31
f 188/208/34 184/205/32 183/204/32
f 190/210/35 189/214/35 185/211/33
f 188/208/34 187/209/34 191/212/36
f 146/170/14 145/169/14 189/214/35
f 192/213/36 191/212/36 147/172/15
f 45/95/49 1/50/49 5/56/49
f 5/56/49 9/60/49 13/64/49
f 13/64/49 17/68/49 21/72/49
f 21/72/49 25/76/49 29/80/49
f 29/80/49 33/84/49 37/88/49
f 37/88/49 41/92/49 45/95/49
f 45/95/49 5/56/49 13/64/49
f 13/64/49 21/72/49 29/80/49
f 29/80/49 37/88/49 45/95/49
f 4/216/50 8/321/51 6/217/51
f 48/219/52 4/216/50 2/218/50
f 11/57/53 7/53/53 3/96/53
f 3/96/53 47/93/53 43/89/53
f 43/89/53 39/85/53 35/81/53
f 35/81/53 31/77/53 27/73/53
f 27/73/53 23/69/53 19/65/53
f 19/65/53 15/61/53 11/57/53
f 11/57/53 3/96/53 43/89/53
f 43/89/53 35/81/53 27/73/53
f 27/73/53 19/65/53 11/57/53
f 8/221/51 12/224/54 10/222/54
f 12/224/54 16/226/55 14/225/55
f 16/226/55 20/228/56 18/227/56
f 20/228/56 24/322/57 22/229/57
f 24/230/57 28/233/58 26/231/58
f 28/233/58 32/235/59 30/234/59
f 32/235/59 36/323/60 34/236/60
f 36/237/60 40/240/61 38/238/61
f 40/240/61 44/324/62 42/241/62
f 44/242/62 48/219/52 46/220/52
f 67/19/49 61/13/49 49/1/49
f 54/244/61 60/325/61 56/245/61
f 65/247/58 52/97/58 50/99/58
f 58/10/53 53/5/53 64/107/53
f 59/102/50 72/326/50 68/249/50
f 71/23/55 66/18/55 62/250/55
f 91/43/49 85/37/49 73/25/49
f 78/251/61 84/327/61 80/252/61
f 89/254/58 76/108/58 74/110/58
f 82/34/53 77/29/53 88/40/53
f 83/113/50 96/328/50 92/256/50
f 95/116/55 90/118/55 86/257/55
f 141/166/49 97/122/49 101/121/49
f 101/121/49 105/131/49 109/135/49
f 109/135/49 113/134/49 117/143/49
f 117/143/49 121/147/49 125/146/49
f 125/146/49 129/155/49 133/159/49
f 133/159/49 137/158/49 141/166/49
f 141/166/49 101/121/49 109/135/49
f 109/135/49 117/143/49 125/146/49
f 125/146/49 133/159/49 141/166/49
f 100/258/50 104/329/51 102/259/51
f 144/261/52 100/258/50 98/260/50
f 107/128/53 103/124/53 99/167/53
f 99/167/53 143/164/53 139/160/53
f 139/160/53 135/157/53 131/152/53
f 131/152/53 127/148/53 123/145/53
f 123/145/53 119/140/53 115/136/53
f 115/136/53 111/133/53 107/128/53
f 107/128/53 99/167/53 139/160/53
f 139/160/53 131/152/53 123/145/53
f 123/145/53 115/136/53 107/128/53
f 104/263/51 108/266/54 106/264/54
f 108/266/54 112/268/55 110/267/55
f 112/268/55 116/270/56 114/269/56
f 116/270/56 120/330/57 118/271/57
f 120/272/57 124/275/58 122/273/58
f 124/275/58 128/277/59 126/276/59
f 128/277/59 132/331/60 130/278/60
f 132/279/60 136/282/61 134/280/61
f 136/282/61 140/332/62 138/283/62
f 140/284/62 144/261/52 142/262/52
f 189/214/49 145/169/49 149/175/49
f 149/175/49 153/179/49 157/183/49
f 157/183/49 161/187/49 165/191/49
f 165/191/49 169/195/49 173/199/49
f 173/199/49 177/203/49 181/207/49
f 181/207/49 185/211/49 189/214/49
f 189/214/49 149/175/49 157/183/49
f 157/183/49 165/191/49 173/199/49
f 173/199/49 181/207/49 189/214/49
f 148/286/50 152/333/51 150/287/51
f 192/289/52 148/286/50 146/288/50
f 155/176/53 151/173/53 147/172/53
f 147/172/53 191/212/53 187/209/53
f 187/209/53 183/204/53 179/200/53
f 179/200/53 175/197/53 171/192/53
f 171/192/53 167/188/53 163/185/53
f 163/185/53 159/180/53 155/176/53
f 155/176/53 147/172/53 187/209/53
f 187/209/53 179/200/53 171/192/53
f 171/192/53 163/185/53 155/176/53
f 152/291/51 156/294/54 154/292/54
f 156/294/54 160/296/55 158/295/55
f 160/296/55 164/298/56 162/297/56
f 164/298/56 168/334/57 166/299/57
f 168/300/57 172/303/58 170/301/58
f 172/303/58 176/305/59 174/304/59
f 176/305/59 180/335/60 178/306/60
f 180/307/60 184/310/61 182/308/61
f 184/310/61 188/336/62 186/311/62
f 188/312/62 192/289/52 190/290/52
