# Blender 5.2.0 LTS
# www.blender.org
o Torch
v -0.000399 0.519646 -0.000533
v 0.000000 0.519286 0.000000
v 0.000399 0.519646 -0.000533
v 0.090000 0.439467 -0.000533
v 0.089601 0.440354 -0.000533
v 0.089467 0.439760 0.000000
v 0.089601 0.159646 -0.000533
v 0.090000 0.160533 -0.000533
v 0.089467 0.160240 0.000000
v -0.000399 0.080354 -0.000533
v 0.000399 0.080354 -0.000533
v 0.000000 0.080714 0.000000
v -0.090000 0.160533 -0.000533
v -0.089601 0.159646 -0.000533
v -0.089467 0.160240 0.000000
v -0.089601 0.440354 -0.000533
v -0.090000 0.439467 -0.000533
v -0.089467 0.439760 0.000000
v -0.000399 0.519646 -0.039467
v 0.000399 0.519646 -0.039467
v -0.000000 0.519286 -0.040000
v 0.089601 0.440354 -0.039467
v 0.090000 0.439467 -0.039467
v 0.089467 0.439760 -0.040000
v 0.090000 0.160533 -0.039467
v 0.089601 0.159646 -0.039467
v 0.089467 0.160240 -0.040000
v 0.000399 0.080354 -0.039467
v -0.000399 0.080354 -0.039467
v 0.000000 0.080714 -0.040000
v -0.089601 0.159646 -0.039467
v -0.090000 0.160533 -0.039467
v -0.089467 0.160240 -0.040000
v -0.089601 0.440354 -0.039467
v -0.089467 0.439760 -0.040000
v -0.090000 0.439467 -0.039467
v 0.000000 0.299845 -0.009243
v 0.000493 0.300466 -0.009412
v -0.000493 0.300466 -0.009412
v -0.000000 0.605761 -0.382083
v -0.000493 0.605705 -0.381427
v 0.000493 0.605705 -0.381427
v -0.027876 0.291104 -0.016787
v -0.027782 0.291909 -0.016797
v -0.028479 0.291381 -0.017252
v -0.019391 0.599680 -0.387331
v -0.020012 0.599275 -0.386976
v -0.019316 0.599802 -0.386521
v -0.039423 0.270000 -0.035000
v -0.039783 0.270721 -0.035082
v -0.039783 0.269975 -0.035726
v -0.027423 0.585000 -0.400000
v -0.027809 0.584279 -0.399918
v -0.027809 0.585025 -0.399274
v -0.027876 0.248896 -0.053213
v -0.028479 0.249316 -0.053555
v -0.027782 0.248788 -0.054010
v -0.019391 0.570320 -0.412669
v -0.019316 0.569501 -0.412671
v -0.020013 0.570029 -0.412216
v 0.000000 0.240155 -0.060757
v -0.000493 0.240231 -0.061396
v 0.000493 0.240231 -0.061396
v -0.000000 0.564240 -0.417917
v 0.000493 0.563599 -0.417765
v -0.000493 0.563599 -0.417765
v 0.027876 0.248896 -0.053213
v 0.027782 0.248788 -0.054010
v 0.028479 0.249316 -0.053555
v 0.019391 0.570320 -0.412669
v 0.020012 0.570029 -0.412216
v 0.019316 0.569501 -0.412671
v 0.039423 0.270000 -0.035000
v 0.039783 0.269975 -0.035726
v 0.039783 0.270721 -0.035082
v 0.027423 0.585000 -0.400000
v 0.027809 0.585025 -0.399274
v 0.027809 0.584279 -0.399918
v 0.027876 0.291104 -0.016787
v 0.028479 0.291381 -0.017252
v 0.027782 0.291909 -0.016797
v 0.019391 0.599680 -0.387331
v 0.019316 0.599802 -0.386521
v 0.020012 0.599275 -0.386976
v -0.000000 0.207529 -0.098443
v 0.000494 0.207094 -0.098863
v -0.000494 0.207094 -0.098863
v 0.000000 0.030876 -0.118309
v -0.000494 0.031502 -0.118610
v 0.000494 0.031502 -0.118610
v -0.020805 0.205324 -0.090112
v -0.020664 0.204956 -0.090786
v -0.021362 0.204777 -0.090112
v -0.002420 0.030619 -0.117340
v -0.003088 0.031122 -0.117175
v -0.002390 0.031301 -0.117850
v -0.029423 0.200000 -0.070000
v -0.029717 0.199615 -0.070612
v -0.029717 0.199363 -0.069658
v -0.003423 0.030000 -0.115000
v -0.003874 0.030385 -0.114388
v -0.003874 0.030637 -0.115342
v -0.020805 0.194676 -0.049888
v -0.021362 0.194201 -0.050159
v -0.020664 0.194023 -0.049484
v -0.002420 0.029381 -0.112660
v -0.002390 0.029721 -0.111880
v -0.003088 0.029899 -0.112554
v -0.000000 0.192471 -0.041557
v -0.000494 0.191885 -0.041407
v 0.000494 0.191885 -0.041407
v 0.000000 0.029124 -0.111691
v 0.000494 0.029520 -0.111120
v -0.000494 0.029520 -0.111120
v 0.020805 0.194676 -0.049888
v 0.020664 0.194023 -0.049484
v 0.021362 0.194201 -0.050159
v 0.002420 0.029381 -0.112660
v 0.003088 0.029899 -0.112554
v 0.002390 0.029721 -0.111879
v 0.029423 0.200000 -0.070000
v 0.029717 0.199363 -0.069658
v 0.029717 0.199615 -0.070612
v 0.003423 0.030000 -0.115000
v 0.003874 0.030637 -0.115342
v 0.003874 0.030385 -0.114388
v 0.020805 0.205324 -0.090112
v 0.021362 0.204777 -0.090112
v 0.020664 0.204956 -0.090786
v 0.002420 0.030619 -0.117340
v 0.002390 0.031301 -0.117850
v 0.003088 0.031122 -0.117175
v 0.000000 0.585000 -0.350552
v 0.000000 0.585499 -0.349805
v 0.000000 0.700000 -0.305552
v 0.000000 0.699501 -0.305195
v -0.024724 0.585000 -0.357177
v -0.025098 0.585499 -0.356530
v -0.047224 0.700000 -0.318206
v -0.047402 0.699501 -0.317897
v -0.042823 0.585000 -0.375276
v -0.043470 0.585499 -0.374902
v -0.081794 0.700000 -0.352776
v -0.082103 0.699501 -0.352598
v -0.049448 0.585000 -0.400000
v -0.050195 0.585499 -0.400000
v -0.094448 0.700000 -0.400000
v -0.094805 0.699501 -0.400000
v -0.042823 0.585000 -0.424724
v -0.043470 0.585499 -0.425098
v -0.081794 0.700000 -0.447224
v -0.082103 0.699501 -0.447402
v -0.024724 0.585000 -0.442823
v -0.025098 0.585499 -0.443470
v -0.047224 0.700000 -0.481794
v -0.047402 0.699501 -0.482103
v -0.000000 0.585000 -0.449448
v -0.000000 0.585499 -0.450195
v -0.000000 0.700000 -0.494448
v -0.000000 0.699501 -0.494805
v 0.024724 0.585000 -0.442823
v 0.025098 0.585499 -0.443470
v 0.047224 0.700000 -0.481794
v 0.047402 0.699501 -0.482103
v 0.042823 0.585000 -0.424724
v 0.043470 0.585499 -0.425098
v 0.081794 0.700000 -0.447224
v 0.082103 0.699501 -0.447402
v 0.049448 0.585000 -0.400000
v 0.050195 0.585499 -0.400000
v 0.094448 0.700000 -0.400000
v 0.094805 0.699501 -0.400000
v 0.042823 0.585000 -0.375276
v 0.043470 0.585499 -0.374902
v 0.081794 0.700000 -0.352776
v 0.082103 0.699501 -0.352598
v 0.024724 0.585000 -0.357177
v 0.025098 0.585499 -0.356530
v 0.047224 0.700000 -0.318206
v 0.047402 0.699501 -0.317897
v 0.000000 0.600000 -0.355552
v 0.000000 0.600533 -0.355000
v 0.000000 0.715000 -0.355552
v 0.000000 0.714467 -0.355000
v -0.022224 0.600000 -0.361507
v -0.022500 0.600533 -0.361029
v -0.022224 0.715000 -0.361507
v -0.022500 0.714467 -0.361029
v -0.038493 0.600000 -0.377776
v -0.038971 0.600533 -0.377500
v -0.038493 0.715000 -0.377776
v -0.038971 0.714467 -0.377500
v -0.044448 0.600000 -0.400000
v -0.045000 0.600533 -0.400000
v -0.044448 0.715000 -0.400000
v -0.045000 0.714467 -0.400000
v -0.038493 0.600000 -0.422224
v -0.038971 0.600533 -0.422500
v -0.038493 0.715000 -0.422224
v -0.038971 0.714467 -0.422500
v -0.022224 0.600000 -0.438493
v -0.022500 0.600533 -0.438971
v -0.022224 0.715000 -0.438493
v -0.022500 0.714467 -0.438971
v -0.000000 0.600000 -0.444448
v -0.000000 0.600533 -0.445000
v -0.000000 0.715000 -0.444448
v -0.000000 0.714467 -0.445000
v 0.022224 0.600000 -0.438493
v 0.022500 0.600533 -0.438971
v 0.022224 0.715000 -0.438493
v 0.022500 0.714467 -0.438971
v 0.038493 0.600000 -0.422224
v 0.038971 0.600533 -0.422500
v 0.038493 0.715000 -0.422224
v 0.038971 0.714467 -0.422500
v 0.044448 0.600000 -0.400000
v 0.045000 0.600533 -0.400000
v 0.044448 0.715000 -0.400000
v 0.045000 0.714467 -0.400000
v 0.038493 0.600000 -0.377776
v 0.038971 0.600533 -0.377500
v 0.038493 0.715000 -0.377776
v 0.038971 0.714467 -0.377500
v 0.022224 0.600000 -0.361507
v 0.022500 0.600533 -0.361029
v 0.022224 0.715000 -0.361507
v 0.022500 0.714467 -0.361029
v 0.072015 0.703597 -0.400000
v 0.071859 0.704175 -0.399537
v 0.071859 0.704175 -0.400463
v 0.114625 0.820084 -0.400000
v 0.114102 0.819659 -0.400463
v 0.114101 0.819659 -0.399537
v 0.080008 0.701798 -0.414189
v 0.079597 0.702434 -0.414200
v 0.080379 0.702258 -0.414663
v 0.114813 0.820042 -0.400333
v 0.114884 0.819483 -0.400926
v 0.114102 0.819659 -0.400463
v 0.095992 0.698202 -0.414189
v 0.095854 0.698776 -0.414663
v 0.096636 0.698600 -0.414200
v 0.115187 0.819958 -0.400333
v 0.115666 0.819307 -0.400463
v 0.114884 0.819483 -0.400926
v 0.103985 0.696403 -0.400000
v 0.104374 0.696859 -0.400463
v 0.104374 0.696859 -0.399537
v 0.115375 0.819916 -0.400000
v 0.115666 0.819307 -0.399537
v 0.115666 0.819307 -0.400463
v 0.095992 0.698202 -0.385811
v 0.096636 0.698600 -0.385800
v 0.095854 0.698776 -0.385337
v 0.115187 0.819958 -0.399667
v 0.114884 0.819483 -0.399074
v 0.115666 0.819307 -0.399537
v 0.080008 0.701798 -0.385811
v 0.080379 0.702258 -0.385337
v 0.079597 0.702434 -0.385800
v 0.114813 0.820042 -0.399667
v 0.114102 0.819659 -0.399537
v 0.114884 0.819483 -0.399074
v 0.036008 0.703597 -0.462367
v 0.036330 0.704175 -0.462000
v 0.035529 0.704175 -0.462463
v 0.057313 0.820084 -0.499268
v 0.056650 0.819659 -0.499046
v 0.057452 0.819659 -0.498583
v 0.027716 0.701798 -0.476383
v 0.027501 0.702434 -0.476033
v 0.027491 0.702258 -0.476941
v 0.057118 0.820042 -0.499597
v 0.056640 0.819483 -0.499955
v 0.056650 0.819659 -0.499046
v 0.035708 0.698202 -0.490226
v 0.035229 0.698776 -0.490343
v 0.036021 0.698600 -0.490789
v 0.057306 0.819958 -0.499922
v 0.057432 0.819307 -0.500401
v 0.056640 0.819483 -0.499955
v 0.051992 0.696403 -0.490053
v 0.051786 0.696859 -0.490622
v 0.052588 0.696859 -0.490159
v 0.057687 0.819916 -0.499917
v 0.058234 0.819307 -0.499938
v 0.057432 0.819307 -0.500401
v 0.060284 0.698202 -0.476037
v 0.060615 0.698600 -0.476589
v 0.060625 0.698776 -0.475681
v 0.057882 0.819958 -0.499589
v 0.058244 0.819483 -0.499029
v 0.058234 0.819307 -0.499938
v 0.052292 0.701798 -0.462194
v 0.052888 0.702258 -0.462279
v 0.052096 0.702434 -0.461833
v 0.057694 0.820042 -0.499264
v 0.057452 0.819659 -0.498583
v 0.058244 0.819483 -0.499029
v -0.036008 0.703597 -0.462367
v -0.035529 0.704175 -0.462463
v -0.036330 0.704175 -0.462000
v -0.057313 0.820084 -0.499268
v -0.057452 0.819659 -0.498583
v -0.056650 0.819659 -0.499046
v -0.052292 0.701798 -0.462194
v -0.052096 0.702434 -0.461833
v -0.052888 0.702258 -0.462279
v -0.057694 0.820042 -0.499264
v -0.058244 0.819483 -0.499029
v -0.057452 0.819659 -0.498583
v -0.060284 0.698202 -0.476037
v -0.060625 0.698776 -0.475681
v -0.060615 0.698600 -0.476589
v -0.057882 0.819958 -0.499589
v -0.058234 0.819307 -0.499938
v -0.058244 0.819483 -0.499029
v -0.051992 0.696403 -0.490053
v -0.052588 0.696859 -0.490159
v -0.051786 0.696859 -0.490622
v -0.057687 0.819916 -0.499917
v -0.057432 0.819307 -0.500401
v -0.058234 0.819307 -0.499938
v -0.035708 0.698202 -0.490226
v -0.036021 0.698600 -0.490789
v -0.035229 0.698776 -0.490343
v -0.057306 0.819958 -0.499922
v -0.056640 0.819483 -0.499955
v -0.057432 0.819307 -0.500401
v -0.027716 0.701798 -0.476383
v -0.027491 0.702258 -0.476941
v -0.027501 0.702434 -0.476033
v -0.057118 0.820042 -0.499597
v -0.056650 0.819659 -0.499046
v -0.056640 0.819483 -0.499955
v -0.072015 0.703597 -0.400000
v -0.071859 0.704175 -0.400463
v -0.071859 0.704175 -0.399537
v -0.114625 0.820084 -0.400000
v -0.114102 0.819659 -0.399537
v -0.114101 0.819659 -0.400463
v -0.080008 0.701798 -0.385811
v -0.079597 0.702434 -0.385800
v -0.080379 0.702258 -0.385337
v -0.114813 0.820042 -0.399667
v -0.114884 0.819483 -0.399074
v -0.114102 0.819659 -0.399537
v -0.095992 0.698202 -0.385811
v -0.095854 0.698776 -0.385337
v -0.096636 0.698600 -0.385800
v -0.115187 0.819958 -0.399667
v -0.115666 0.819307 -0.399537
v -0.114884 0.819483 -0.399074
v -0.103985 0.696403 -0.400000
v -0.104374 0.696859 -0.399537
v -0.104374 0.696859 -0.400463
v -0.115375 0.819916 -0.400000
v -0.115666 0.819307 -0.400463
v -0.115666 0.819307 -0.399537
v -0.095992 0.698202 -0.414189
v -0.096636 0.698600 -0.414200
v -0.095854 0.698776 -0.414663
v -0.115187 0.819958 -0.400333
v -0.114884 0.819483 -0.400926
v -0.115666 0.819307 -0.400463
v -0.080008 0.701798 -0.414189
v -0.080379 0.702258 -0.414663
v -0.079597 0.702434 -0.414200
v -0.114813 0.820042 -0.400333
v -0.114102 0.819659 -0.400463
v -0.114884 0.819483 -0.400926
v -0.036008 0.703597 -0.337633
v -0.036330 0.704175 -0.338000
v -0.035529 0.704175 -0.337537
v -0.057313 0.820084 -0.300732
v -0.056650 0.819659 -0.300954
v -0.057452 0.819659 -0.301417
v -0.027716 0.701798 -0.323617
v -0.027501 0.702434 -0.323967
v -0.027491 0.702258 -0.323059
v -0.057118 0.820042 -0.300403
v -0.056640 0.819483 -0.300045
v -0.056650 0.819659 -0.300954
v -0.035708 0.698202 -0.309774
v -0.035229 0.698776 -0.309657
v -0.036021 0.698600 -0.309211
v -0.057306 0.819958 -0.300078
v -0.057432 0.819307 -0.299599
v -0.056640 0.819483 -0.300045
v -0.051992 0.696403 -0.309947
v -0.051786 0.696859 -0.309378
v -0.052588 0.696859 -0.309841
v -0.057687 0.819916 -0.300083
v -0.058234 0.819307 -0.300062
v -0.057432 0.819307 -0.299599
v -0.060284 0.698202 -0.323963
v -0.060616 0.698600 -0.323411
v -0.060625 0.698776 -0.324319
v -0.057882 0.819958 -0.300411
v -0.058244 0.819483 -0.300971
v -0.058234 0.819307 -0.300062
v -0.052292 0.701798 -0.337806
v -0.052888 0.702258 -0.337721
v -0.052096 0.702434 -0.338167
v -0.057694 0.820042 -0.300736
v -0.057452 0.819659 -0.301417
v -0.058244 0.819483 -0.300971
v 0.036008 0.703597 -0.337633
v 0.035529 0.704175 -0.337537
v 0.036330 0.704175 -0.338000
v 0.057313 0.820084 -0.300732
v 0.057452 0.819659 -0.301417
v 0.056650 0.819659 -0.300954
v 0.052292 0.701798 -0.337806
v 0.052096 0.702434 -0.338167
v 0.052888 0.702258 -0.337721
v 0.057694 0.820042 -0.300736
v 0.058244 0.819483 -0.300971
v 0.057452 0.819659 -0.301417
v 0.060284 0.698202 -0.323963
v 0.060625 0.698776 -0.324319
v 0.060616 0.698600 -0.323411
v 0.057882 0.819958 -0.300411
v 0.058234 0.819307 -0.300062
v 0.058244 0.819483 -0.300971
v 0.051992 0.696403 -0.309947
v 0.052588 0.696859 -0.309841
v 0.051786 0.696859 -0.309378
v 0.057687 0.819916 -0.300083
v 0.057432 0.819307 -0.299599
v 0.058234 0.819307 -0.300062
v 0.035708 0.698202 -0.309774
v 0.036021 0.698600 -0.309211
v 0.035229 0.698776 -0.309657
v 0.057306 0.819958 -0.300078
v 0.056640 0.819483 -0.300045
v 0.057432 0.819307 -0.299599
v 0.027716 0.701798 -0.323617
v 0.027491 0.702258 -0.323059
v 0.027501 0.702434 -0.323967
v 0.057118 0.820042 -0.300403
v 0.056650 0.819659 -0.300954
v 0.056640 0.819483 -0.300045
vn -0.2042 0.8658 0.4569
vn -0.0000 0.6750 0.7378
vn 0.2042 0.8658 0.4569
vn 0.9224 0.1738 0.3450
vn 0.7427 0.5739 0.3450
vn 0.6682 0.3001 0.6808
vn 0.7427 -0.5739 0.3450
vn 0.9224 -0.1738 0.3450
vn 0.6682 -0.3001 0.6808
vn -0.2042 -0.8658 0.4569
vn 0.2042 -0.8658 0.4569
vn -0.0000 -0.6750 0.7378
vn -0.9224 -0.1738 0.3450
vn -0.7427 -0.5739 0.3450
vn -0.6682 -0.3001 0.6808
vn -0.7427 0.5739 0.3450
vn -0.9224 0.1739 0.3450
vn -0.6682 0.3001 0.6808
vn -0.2042 0.8658 -0.4569
vn 0.2042 0.8658 -0.4569
vn -0.0000 0.6750 -0.7378
vn 0.7427 0.5739 -0.3450
vn 0.9224 0.1739 -0.3450
vn 0.6682 0.3001 -0.6808
vn 0.9224 -0.1738 -0.3450
vn 0.7427 -0.5739 -0.3450
vn 0.6682 -0.3001 -0.6808
vn 0.2042 -0.8658 -0.4569
vn -0.2042 -0.8658 -0.4569
vn -0.0000 -0.6750 -0.7378
vn -0.7427 -0.5739 -0.3450
vn -0.9224 -0.1738 -0.3450
vn -0.6682 -0.3001 -0.6808
vn -0.7427 0.5739 -0.3450
vn -0.6682 0.3001 -0.6808
vn -0.9224 0.1738 -0.3450
vn -0.0000 0.1257 0.9921
vn 0.1894 0.1144 0.9752
vn -0.1894 0.1144 0.9752
vn -0.0000 0.9988 -0.0493
vn -0.2032 0.9259 0.3186
vn 0.2032 0.9259 0.3186
vn -0.5256 -0.0391 0.8498
vn -0.3778 0.0553 0.9242
vn -0.6457 -0.1475 0.7492
vn -0.5119 0.8382 -0.1878
vn -0.7865 0.6155 0.0508
vn -0.4992 0.8330 0.2385
vn -0.7433 -0.4370 0.5064
vn -0.7237 -0.2902 0.6261
vn -0.7238 -0.5769 0.3786
vn -0.7240 0.4507 -0.5222
vn -0.9091 0.0838 -0.4081
vn -0.9091 0.3914 -0.1426
vn -0.5256 -0.8350 0.1630
vn -0.6457 -0.7196 0.2555
vn -0.3779 -0.9224 0.0805
vn -0.5119 0.0631 -0.8567
vn -0.4992 -0.3578 -0.7892
vn -0.7865 -0.1403 -0.6015
vn -0.0000 -0.9998 0.0208
vn -0.1894 -0.9815 0.0295
vn 0.1894 -0.9815 0.0295
vn -0.0000 -0.0974 -0.9952
vn 0.2032 -0.4506 -0.8693
vn -0.2032 -0.4506 -0.8693
vn 0.5256 -0.8350 0.1630
vn 0.3779 -0.9224 0.0805
vn 0.6457 -0.7196 0.2555
vn 0.5119 0.0631 -0.8567
vn 0.7865 -0.1403 -0.6014
vn 0.4992 -0.3578 -0.7892
vn 0.7433 -0.4370 0.5064
vn 0.7238 -0.5769 0.3786
vn 0.7238 -0.2902 0.6261
vn 0.7240 0.4507 -0.5222
vn 0.9091 0.3914 -0.1426
vn 0.9091 0.0838 -0.4081
vn 0.5256 -0.0391 0.8498
vn 0.6457 -0.1475 0.7492
vn 0.3779 0.0553 0.9242
vn 0.5119 0.8382 -0.1878
vn 0.4991 0.8330 0.2385
vn 0.7865 0.6155 0.0508
vn -0.0000 0.7950 -0.6067
vn 0.2037 0.7895 -0.5790
vn -0.2037 0.7895 -0.5790
vn -0.0000 -0.5398 -0.8418
vn -0.1947 -0.2063 -0.9589
vn 0.1947 -0.2063 -0.9589
vn -0.5585 0.7358 -0.3830
vn -0.3946 0.7693 -0.5025
vn -0.6826 0.6956 -0.2241
vn -0.4778 -0.5904 -0.6505
vn -0.7558 -0.3070 -0.5783
vn -0.4805 -0.2366 -0.8445
vn -0.7899 0.5928 0.1569
vn -0.7617 0.6467 -0.0395
vn -0.7617 0.5425 0.3543
vn -0.6757 -0.7127 -0.1886
vn -0.8742 -0.4798 0.0744
vn -0.8742 -0.3802 -0.3020
vn -0.5585 0.4499 0.6969
vn -0.6826 0.4936 0.5388
vn -0.3946 0.4199 0.8173
vn -0.4778 -0.8349 0.2732
vn -0.4805 -0.6234 0.6168
vn -0.7558 -0.5530 0.3507
vn -0.0000 0.3907 0.9205
vn -0.2037 0.3997 0.8937
vn 0.2037 0.3997 0.8937
vn -0.0000 -0.8856 0.4645
vn 0.1947 -0.6537 0.7313
vn -0.1947 -0.6537 0.7313
vn 0.5585 0.4499 0.6969
vn 0.3946 0.4199 0.8173
vn 0.6826 0.4936 0.5388
vn 0.4778 -0.8349 0.2732
vn 0.7558 -0.5530 0.3507
vn 0.4805 -0.6234 0.6168
vn 0.7899 0.5928 0.1569
vn 0.7617 0.5425 0.3543
vn 0.7617 0.6467 -0.0395
vn 0.6757 -0.7127 -0.1886
vn 0.8742 -0.3802 -0.3020
vn 0.8742 -0.4798 0.0744
vn 0.5585 0.7358 -0.3830
vn 0.6826 0.6956 -0.2241
vn 0.3946 0.7693 -0.5025
vn 0.4778 -0.5904 -0.6505
vn 0.4805 -0.2366 -0.8445
vn 0.7558 -0.3070 -0.5783
vn -0.8942 -0.4476 -0.0000
vn -0.8595 -0.4403 0.2596
vn -0.8595 -0.4403 -0.2595
vn -0.4937 0.8696 -0.0000
vn -0.4258 0.9048 -0.0000
vn -0.5844 0.6073 0.5382
vn -0.5166 -0.5325 -0.6705
vn -0.7170 -0.4722 -0.5128
vn -0.2783 -0.5710 -0.7723
vn -0.1657 0.7958 -0.5824
vn -0.6338 0.6231 0.4583
vn -0.2366 0.8751 -0.4222
vn 0.2387 -0.7025 -0.6704
vn 0.0069 -0.6352 -0.7723
vn 0.4456 -0.7339 -0.5127
vn 0.4906 0.6482 -0.5824
vn 0.2849 0.5185 -0.8062
vn 0.7301 0.4533 0.5113
vn 0.6163 -0.7875 -0.0000
vn 0.5881 -0.7660 -0.2596
vn 0.5881 -0.7660 0.2596
vn 0.8186 0.5744 -0.0000
vn 0.5811 0.8138 -0.0000
vn 0.8208 0.3437 -0.4562
vn 0.2387 -0.7025 0.6704
vn 0.4456 -0.7339 0.5127
vn 0.0069 -0.6352 0.7723
vn 0.4906 0.6481 0.5824
vn 0.2983 0.8373 0.4582
vn 0.3627 0.8112 0.4587
vn -0.5167 -0.5325 0.6704
vn -0.2784 -0.5710 0.7723
vn -0.7170 -0.4723 0.5127
vn -0.1657 0.7958 0.5824
vn -0.2383 0.7143 0.6580
vn -0.1671 0.8674 0.4688
vn -0.4471 -0.4477 0.7744
vn -0.2050 -0.4403 0.8741
vn -0.6545 -0.4403 0.6146
vn -0.2469 0.8696 0.4276
vn -0.4387 0.6243 0.6464
vn -0.1973 0.5390 0.8188
vn -0.8389 -0.5326 0.1121
vn -0.8026 -0.4723 0.3645
vn -0.8080 -0.5710 -0.1451
vn -0.5872 0.7959 -0.1478
vn -0.8963 0.2536 -0.3639
vn -0.7720 0.5745 0.2719
vn -0.4613 -0.7025 -0.5419
vn -0.6654 -0.6351 -0.3922
vn -0.2213 -0.7339 -0.6421
vn -0.2591 0.6481 -0.7161
vn -0.1974 0.3162 -0.9279
vn -0.7166 0.0938 -0.6911
vn 0.3082 -0.7875 -0.5338
vn 0.0693 -0.7660 -0.6391
vn 0.5188 -0.7660 -0.3796
vn 0.4093 0.5744 -0.7089
vn -0.7774 0.1307 -0.6153
vn 0.2324 0.2888 -0.9287
vn 0.6999 -0.7026 0.1285
vn 0.6667 -0.7340 -0.1294
vn 0.6723 -0.6352 0.3801
vn 0.7497 0.6482 -0.1336
vn 0.5031 0.8638 -0.0269
vn -0.2187 0.8964 0.3856
vn 0.3224 -0.5325 0.7826
vn 0.5298 -0.5710 0.6272
vn 0.0856 -0.4723 0.8773
vn 0.4215 0.7959 0.4347
vn 0.2515 0.5260 0.8125
vn 0.3473 0.8441 0.4084
vn 0.4471 -0.4476 0.7744
vn 0.6545 -0.4403 0.6146
vn 0.2050 -0.4403 0.8742
vn 0.2468 0.8696 0.4276
vn 0.3640 0.6556 0.6616
vn 0.6376 0.6330 0.4390
vn -0.3224 -0.5325 0.7826
vn -0.0856 -0.4723 0.8773
vn -0.5297 -0.5710 0.6272
vn -0.4215 0.7959 0.4347
vn -0.7009 0.6656 0.2562
vn 0.0231 0.5743 0.8183
vn -0.6999 -0.7025 0.1285
vn -0.6723 -0.6352 0.3801
vn -0.6668 -0.7339 -0.1294
vn -0.7497 0.6481 -0.1336
vn 0.2719 0.9415 -0.1990
vn -0.7018 0.6178 -0.3547
vn -0.3081 -0.7875 -0.5338
vn -0.5188 -0.7660 -0.3796
vn -0.0693 -0.7659 -0.6392
vn -0.4094 0.5743 -0.7089
vn -0.2242 0.0979 -0.9696
vn 0.6406 0.2003 -0.7413
vn 0.4613 -0.7025 -0.5419
vn 0.2213 -0.7339 -0.6421
vn 0.6654 -0.6352 -0.3922
vn 0.2591 0.6482 -0.7161
vn 0.2626 0.6103 -0.7474
vn 0.1892 0.0921 -0.9776
vn 0.8389 -0.5325 0.1121
vn 0.8080 -0.5710 -0.1451
vn 0.8026 -0.4723 0.3645
vn 0.5872 0.7958 -0.1478
vn 0.7852 0.6193 0.0020
vn 0.6363 0.5467 -0.5442
vn 0.8942 -0.4476 -0.0000
vn 0.8595 -0.4402 -0.2596
vn 0.8596 -0.4402 0.2595
vn 0.4937 0.8696 -0.0000
vn 0.4258 0.9048 -0.0000
vn 0.4748 0.8800 -0.0139
vn 0.5166 -0.5326 0.6705
vn 0.7169 -0.4723 0.5128
vn 0.2783 -0.5710 0.7723
vn 0.1657 0.7958 0.5824
vn 0.2018 0.8828 0.4243
vn 0.2366 0.8751 0.4223
vn -0.2387 -0.7025 0.6704
vn -0.0069 -0.6352 0.7723
vn -0.4456 -0.7339 0.5127
vn -0.4906 0.6482 0.5824
vn -0.2153 0.0567 0.9749
vn -0.2824 0.8194 0.4988
vn -0.6163 -0.7875 -0.0000
vn -0.5881 -0.7660 0.2596
vn -0.5881 -0.7660 -0.2596
vn -0.8186 0.5743 -0.0000
vn -0.5811 0.8138 -0.0000
vn -0.7432 0.1020 0.6613
vn -0.2387 -0.7025 -0.6704
vn -0.4456 -0.7339 -0.5128
vn -0.0069 -0.6352 -0.7723
vn -0.4906 0.6482 -0.5824
vn -0.7835 -0.6118 0.1082
vn -0.3627 0.8112 -0.4587
vn 0.5167 -0.5325 -0.6704
vn 0.2784 -0.5710 -0.7723
vn 0.7170 -0.4723 -0.5128
vn 0.1657 0.7958 -0.5824
vn 0.2058 0.8978 -0.3894
vn 0.7469 -0.6374 -0.1892
vn 0.4471 -0.4476 -0.7744
vn 0.2050 -0.4402 -0.8742
vn 0.6545 -0.4403 -0.6146
vn 0.2468 0.8696 -0.4276
vn 0.4009 0.6776 -0.6165
vn 0.1854 0.5581 -0.8088
vn 0.8389 -0.5325 -0.1121
vn 0.8026 -0.4723 -0.3645
vn 0.8080 -0.5710 0.1451
vn 0.5872 0.7959 0.1478
vn 0.8114 0.5804 -0.0695
vn 0.7165 0.6479 -0.2585
vn 0.4613 -0.7025 0.5419
vn 0.6654 -0.6352 0.3922
vn 0.2213 -0.7339 0.6422
vn 0.2591 0.6482 0.7161
vn 0.1929 0.1936 0.9619
vn 0.2344 0.4747 0.8483
vn -0.3081 -0.7875 0.5337
vn -0.0693 -0.7660 0.6391
vn -0.5188 -0.7660 0.3796
vn -0.4093 0.5744 0.7089
vn -0.2610 0.5430 0.7981
vn -0.2278 0.1820 0.9565
vn -0.6999 -0.7025 -0.1285
vn -0.6668 -0.7339 0.1294
vn -0.6723 -0.6352 -0.3801
vn -0.7497 0.6482 0.1336
vn -0.7080 -0.3026 0.6381
vn -0.7455 0.4255 0.5131
vn -0.3224 -0.5325 -0.7826
vn -0.5297 -0.5710 -0.6272
vn -0.0856 -0.4723 -0.8773
vn -0.4215 0.7959 -0.4347
vn -0.2393 0.5411 -0.8062
vn -0.8840 -0.1015 -0.4563
vn -0.4471 -0.4476 -0.7744
vn -0.6546 -0.4402 -0.6146
vn -0.2050 -0.4402 -0.8742
vn -0.2468 0.8696 -0.4276
vn -0.3495 0.6077 -0.7131
vn -0.5625 0.6638 -0.4929
vn 0.3224 -0.5325 -0.7826
vn 0.0856 -0.4723 -0.8773
vn 0.5297 -0.5710 -0.6272
vn 0.4215 0.7959 -0.4347
vn 0.5826 0.8000 -0.1434
vn -0.0364 0.5204 -0.8532
vn 0.6999 -0.7025 -0.1285
vn 0.6723 -0.6352 -0.3801
vn 0.6668 -0.7339 0.1294
vn 0.7497 0.6482 0.1336
vn 0.6468 0.0589 0.7604
vn 0.6345 0.6857 0.3566
vn 0.3081 -0.7875 0.5338
vn 0.5188 -0.7660 0.3796
vn 0.0693 -0.7660 0.6391
vn 0.4093 0.5744 0.7089
vn 0.2260 0.2127 0.9506
vn 0.2662 0.0399 0.9631
vn -0.4613 -0.7025 0.5419
vn -0.2213 -0.7339 0.6422
vn -0.6654 -0.6352 0.3921
vn -0.2591 0.6482 0.7161
vn -0.6384 0.7692 -0.0273
vn -0.1910 0.2288 0.9546
vn -0.8389 -0.5326 -0.1121
vn -0.8080 -0.5710 0.1451
vn -0.8026 -0.4723 -0.3645
vn -0.5872 0.7958 0.1478
vn -0.7411 0.6665 -0.0811
vn -0.5520 0.4352 -0.7113
vn 0.1944 0.7583 0.6222
vn -0.1945 0.7583 0.6222
vn -0.8309 0.4368 0.3447
vn -0.9806 -0.1313 -0.1455
vn -0.5559 -0.6131 -0.5613
vn 0.1944 -0.7264 -0.6592
vn 0.8309 -0.4049 -0.3817
vn 0.9806 0.1632 0.1086
vn 0.5559 0.6450 0.5244
vn -0.1897 0.1097 -0.9757
vn 0.1897 0.1097 -0.9757
vn -0.5526 0.0713 -0.8304
vn -0.9713 -0.0903 -0.2201
vn -0.5527 -0.3489 0.7569
vn 0.1897 -0.3874 0.9022
vn 0.8209 -0.2802 0.4975
vn 0.9713 -0.0903 -0.2201
vn 0.5526 0.0713 -0.8304
vn -0.0000 -0.6037 0.7972
vn -0.1665 -0.9429 0.2884
vn -0.0000 -0.9429 0.3330
vn -0.0000 0.5818 0.8133
vn -0.4066 0.5819 0.7043
vn -0.3986 -0.6037 0.6904
vn -0.2884 -0.9429 0.1665
vn -0.7043 0.5819 0.4066
vn -0.7972 -0.6037 -0.0000
vn -0.6904 -0.6037 0.3986
vn -0.8133 0.5819 -0.0000
vn -0.6904 -0.6037 -0.3986
vn -0.3330 -0.9429 -0.0000
vn -0.7043 0.5819 -0.4067
vn -0.3986 -0.6037 -0.6904
vn -0.2884 -0.9429 -0.1665
vn -0.4066 0.5819 -0.7043
vn -0.0000 -0.6037 -0.7972
vn -0.1665 -0.9429 -0.2884
vn -0.0000 0.5818 -0.8133
vn 0.1665 -0.9429 -0.2884
vn -0.0000 -0.9429 -0.3330
vn 0.4066 0.5819 -0.7043
vn 0.6904 -0.6037 -0.3986
vn 0.3986 -0.6037 -0.6904
vn 0.7043 0.5819 -0.4066
vn 0.7972 -0.6037 -0.0000
vn 0.2884 -0.9429 -0.1665
vn 0.8133 0.5819 -0.0000
vn 0.6904 -0.6037 0.3986
vn 0.3330 -0.9429 -0.0000
vn 0.7043 0.5819 0.4066
vn 0.7043 0.5819 0.4067
vn 0.3986 -0.6037 0.6904
vn 0.2884 -0.9429 0.1665
vn 0.4066 0.5819 0.7043
vn 0.1665 -0.9429 0.2884
vn -0.0000 -0.7192 0.6948
vn -0.3474 -0.7193 0.6016
vn -0.0000 0.7192 0.6948
vn -0.3474 0.7193 0.6016
vn -0.6017 -0.7193 0.3474
vn -0.6017 0.7192 0.3474
vn -0.6947 -0.7193 -0.0000
vn -0.6947 0.7193 -0.0000
vn -0.6017 -0.7193 -0.3474
vn -0.6016 0.7193 -0.3474
vn -0.3474 -0.7193 -0.6016
vn -0.3474 0.7193 -0.6016
vn -0.0000 -0.7193 -0.6947
vn -0.0000 0.7193 -0.6947
vn 0.3474 -0.7193 -0.6017
vn 0.3474 0.7193 -0.6017
vn 0.6016 -0.7193 -0.3474
vn 0.6017 0.7192 -0.3474
vn 0.6948 -0.7192 -0.0000
vn 0.6947 0.7193 -0.0000
vn 0.6016 -0.7193 0.3474
vn 0.6016 0.7193 0.3474
vn 0.3474 -0.7193 0.6017
vn 0.3474 0.7193 0.6017
vn -0.9089 0.3325 -0.2517
vn -0.9089 0.3325 0.2517
vn -0.2281 0.1793 -0.9570
vn 0.7082 -0.0314 -0.7054
vn 0.9637 -0.0889 -0.2517
vn 0.7082 -0.0314 0.7053
vn -0.6534 0.2750 0.7053
vn -0.6724 0.3325 0.6613
vn -0.2365 0.3325 0.9130
vn -0.9375 0.2750 0.2132
vn -0.6873 0.0643 -0.7235
vn 0.6998 -0.0889 -0.7088
vn 0.9702 0.0643 0.2335
vn 0.2841 0.2750 0.9185
vn 0.2365 0.3325 0.9130
vn 0.6724 0.3325 0.6613
vn -0.2840 0.2750 0.9185
vn -0.9649 -0.0314 -0.2607
vn -0.2639 -0.0889 -0.9604
vn 0.2567 -0.0314 -0.9660
vn 0.9375 0.2750 0.2132
vn 0.9089 0.3325 0.2517
vn 0.9089 0.3325 -0.2517
vn 0.2281 0.1793 0.9570
vn -0.2829 0.0643 0.9570
vn -0.9637 -0.0889 0.2517
vn -0.7082 -0.0314 -0.7053
vn 0.6534 0.2750 -0.7053
vn 0.6724 0.3325 -0.6613
vn 0.2365 0.3325 -0.9130
vn 0.9428 0.1793 0.2809
vn 0.6873 0.0643 0.7235
vn -0.6998 -0.0889 0.7088
vn -0.9702 0.0643 -0.2335
vn -0.7147 0.1793 -0.6760
vn -0.2365 0.3325 -0.9130
vn -0.6724 0.3325 -0.6613
vn 0.2840 0.2750 -0.9185
vn 0.9702 0.0643 -0.2335
vn 0.2639 -0.0889 0.9604
vn -0.6873 0.0643 0.7235
vn -0.9428 0.1793 0.2809
vn -0.6644 0.7474 -0.0000
vn -0.0000 -0.0000 1.0000
vn 0.6644 0.7474 -0.0000
vn 0.6644 -0.7474 -0.0000
vn -0.6644 -0.7474 -0.0000
vn -0.0000 -0.0000 -1.0000
vn -0.0000 -0.6533 0.7571
vn -0.5559 0.6450 0.5244
vn -0.0000 0.6533 -0.7571
vn -0.0000 0.6534 -0.7571
vn -0.9806 0.1632 0.1086
vn -0.8309 -0.4049 -0.3817
vn -0.1944 -0.7264 -0.6592
vn 0.5559 -0.6131 -0.5613
vn 0.9806 -0.1313 -0.1455
vn 0.8309 0.4368 0.3447
vn -0.0000 0.9667 0.2559
vn -0.0000 -0.9667 -0.2559
vn -0.8209 0.0026 -0.5710
vn -0.9713 -0.1874 0.1467
vn -0.8210 -0.2802 0.4975
vn -0.1897 -0.3874 0.9022
vn 0.5526 -0.3489 0.7569
vn 0.9713 -0.1874 0.1467
vn 0.8209 0.0026 -0.5710
vn -0.0000 -0.3644 0.9312
vn 0.4656 -0.3644 0.8065
vn -0.0000 1.0000 -0.0000
vn -0.4656 -0.3644 0.8065
vn -0.8065 -0.3644 0.4656
vn -0.9312 -0.3644 -0.0000
vn -0.4656 -0.3644 -0.8065
vn -0.0000 -0.3644 -0.9312
vn 0.4656 -0.3644 -0.8065
vn 0.8065 -0.3644 -0.4656
vn 0.8065 -0.3644 0.4656
vn -0.0000 -1.0000 -0.0000
vn -0.5000 -0.0000 0.8660
vn 0.5000 -0.0000 0.8660
vn -0.8660 -0.0000 0.5000
vn -1.0000 -0.0000 -0.0000
vn -0.8660 -0.0000 -0.5000
vn -0.5000 -0.0000 -0.8660
vn 0.5000 -0.0000 -0.8660
vn 0.8660 -0.0000 -0.5000
vn 1.0000 -0.0000 -0.0000
vn 0.8660 -0.0000 0.5000
vn -0.2195 -0.9756 -0.0000
vn -0.6534 0.2750 -0.7053
vn 0.2198 0.9756 -0.0000
vn 0.2194 0.9756 -0.0001
vn 0.2194 0.9756 0.0001
vn 0.2829 0.0643 -0.9570
vn 0.9637 -0.0889 0.2517
vn 0.2829 0.0643 0.9570
vn -0.2281 0.1793 0.9570
vn -0.1098 -0.9756 0.1901
vn 0.1098 0.9756 -0.1902
vn 0.1096 0.9756 -0.1901
vn 0.1098 0.9756 -0.1900
vn -0.9428 0.1793 -0.2810
vn 0.2639 -0.0889 -0.9604
vn -0.2567 -0.0314 -0.9660
vn 0.9649 -0.0314 -0.2607
vn 0.7147 0.1793 0.6760
vn 0.1098 -0.9756 0.1901
vn -0.1098 0.9756 -0.1902
vn -0.1098 0.9756 -0.1900
vn -0.1096 0.9756 -0.1901
vn -0.7147 0.1793 0.6760
vn -0.9702 0.0643 0.2335
vn -0.6998 -0.0889 -0.7088
vn 0.6873 0.0643 -0.7235
vn 0.9428 0.1793 -0.2809
vn 0.2195 -0.9756 -0.0000
vn 0.6534 0.2750 0.7053
vn -0.2197 0.9756 -0.0000
vn -0.2194 0.9756 0.0001
vn -0.2194 0.9756 -0.0001
vn -0.7082 -0.0314 0.7053
vn -0.9637 -0.0889 -0.2517
vn -0.2829 0.0643 -0.9570
vn 0.2281 0.1793 -0.9570
vn 0.1098 -0.9756 -0.1901
vn 0.9375 0.2750 -0.2132
vn -0.2841 0.2750 -0.9185
vn -0.1098 0.9756 0.1902
vn -0.1096 0.9756 0.1901
vn -0.1098 0.9756 0.1900
vn -0.2639 -0.0889 0.9604
vn 0.2567 -0.0314 0.9660
vn -0.9649 -0.0314 0.2607
vn -0.1098 -0.9756 -0.1901
vn -0.9375 0.2750 -0.2132
vn 0.1098 0.9756 0.1902
vn 0.1098 0.9756 0.1900
vn 0.1096 0.9756 0.1901
vn 0.7147 0.1793 -0.6760
vn 0.9649 -0.0314 0.2608
vn 0.6998 -0.0889 0.7088
vn -0.2567 -0.0314 0.9660
vn -0.0000 -0.6534 0.7571
vn -0.8065 -0.3644 -0.4656
vn 0.9312 -0.3644 -0.0000
vn 0.2199 0.9755 0.0004
vn 0.2200 0.9755 -0.0004
vn 0.2187 0.9758 -0.0000
vn 0.1102 0.9756 -0.1901
vn 0.1093 0.9756 -0.1905
vn 0.1094 0.9757 -0.1897
vn -0.1094 0.9756 -0.1905
vn -0.1102 0.9756 -0.1901
vn -0.1093 0.9757 -0.1897
vn -0.2200 0.9755 -0.0004
vn -0.2199 0.9755 0.0004
vn -0.2187 0.9758 -0.0000
vn -0.1102 0.9756 0.1901
vn -0.1093 0.9756 0.1904
vn -0.1095 0.9757 0.1897
vn 0.1094 0.9756 0.1905
vn 0.1102 0.9756 0.1901
vn 0.1093 0.9757 0.1898
vt 0.297158 0.010179
vt 0.296732 0.010613
vt 0.296373 0.010171
vt 0.915700 0.300026
vt 0.915746 0.299166
vt 0.916211 0.299435
vt 0.785304 0.668351
vt 0.785286 0.667413
vt 0.785859 0.667935
vt 0.817808 0.299522
vt 0.817775 0.300111
vt 0.817249 0.299581
vt 0.817768 0.180876
vt 0.817793 0.181752
vt 0.817235 0.181463
vt 0.406210 0.553746
vt 0.406181 0.554670
vt 0.405740 0.554073
vt 0.877961 0.180885
vt 0.878015 0.181492
vt 0.877436 0.181414
vt 0.877550 0.299174
vt 0.877504 0.300034
vt 0.876969 0.299444
vt 0.747126 0.669051
vt 0.747144 0.669989
vt 0.746653 0.669618
vt 0.099374 0.442393
vt 0.098587 0.442393
vt 0.098980 0.442005
vt 0.856135 0.181752
vt 0.856110 0.180876
vt 0.856627 0.181463
vt 0.444025 0.556638
vt 0.444591 0.557044
vt 0.443996 0.557561
vt 0.438772 0.369011
vt 0.438204 0.368455
vt 0.439165 0.368316
vt 0.710471 0.010171
vt 0.711079 0.010508
vt 0.710475 0.010959
vt 0.467521 0.372155
vt 0.467309 0.371394
vt 0.468084 0.371723
vt 0.762237 0.018405
vt 0.762558 0.019135
vt 0.761640 0.018945
vt 0.596223 0.410126
vt 0.595613 0.409707
vt 0.596368 0.409367
vt 0.782910 0.018189
vt 0.783501 0.018716
vt 0.782625 0.018925
vt 0.624762 0.405169
vt 0.624307 0.404515
vt 0.625274 0.404555
vt 0.678914 0.461087
vt 0.678929 0.461896
vt 0.678279 0.461357
vt 0.650931 0.412397
vt 0.650892 0.411631
vt 0.651504 0.412027
vt 0.697583 0.468121
vt 0.698021 0.468796
vt 0.697051 0.468724
vt 0.525154 0.425067
vt 0.524564 0.424536
vt 0.525476 0.424361
vt 0.717079 0.463893
vt 0.717668 0.464253
vt 0.716946 0.464691
vt 0.554899 0.425067
vt 0.554595 0.424361
vt 0.555478 0.424536
vt 0.672457 0.013148
vt 0.672608 0.013924
vt 0.671846 0.013580
vt 0.413181 0.380037
vt 0.412569 0.379775
vt 0.413153 0.379249
vt 0.692369 0.016241
vt 0.692903 0.016851
vt 0.691937 0.016927
vt 0.334419 0.659386
vt 0.334946 0.659734
vt 0.333977 0.659837
vt 0.352712 0.831064
vt 0.352161 0.830483
vt 0.353129 0.830379
vt 0.851716 0.724110
vt 0.852278 0.724584
vt 0.851377 0.724798
vt 0.350371 0.831630
vt 0.349664 0.831218
vt 0.350326 0.830927
vt 0.829495 0.724110
vt 0.829833 0.724798
vt 0.828935 0.724584
vt 0.174457 0.781859
vt 0.174177 0.781068
vt 0.175082 0.781331
vt 0.858743 0.010171
vt 0.859313 0.010587
vt 0.858587 0.010874
vt 0.171873 0.781859
vt 0.171257 0.781331
vt 0.172151 0.781068
vt 0.837773 0.013710
vt 0.838256 0.014305
vt 0.837284 0.014305
vt 0.170072 0.783150
vt 0.169485 0.782978
vt 0.169845 0.782343
vt 0.817762 0.010171
vt 0.817883 0.010874
vt 0.817235 0.010587
vt 0.184990 0.620887
vt 0.184711 0.620129
vt 0.185591 0.620315
vt 0.814443 0.911676
vt 0.814020 0.912225
vt 0.813753 0.911336
vt 0.182412 0.620939
vt 0.181775 0.620392
vt 0.182691 0.620170
vt 0.814443 0.889469
vt 0.813753 0.889805
vt 0.814020 0.888897
vt 0.355120 0.831124
vt 0.355016 0.830427
vt 0.355724 0.830572
vt 0.222167 0.896054
vt 0.221676 0.895575
vt 0.222587 0.895547
vt 0.905930 0.010311
vt 0.906234 0.011033
vt 0.905348 0.010868
vt 0.949116 0.692375
vt 0.948583 0.691853
vt 0.949368 0.691823
vt 0.906291 0.010289
vt 0.906854 0.010777
vt 0.965282 0.692375
vt 0.965018 0.691823
vt 0.965816 0.691853
vt 0.477184 0.486495
vt 0.476949 0.487246
vt 0.476539 0.486489
vt 0.023504 0.906026
vt 0.023091 0.905404
vt 0.023997 0.905472
vt 0.477498 0.486701
vt 0.477852 0.487348
vt 0.037934 0.910386
vt 0.037967 0.909693
vt 0.038473 0.910052
vt 0.935108 0.010171
vt 0.935248 0.010777
vt 0.934504 0.010707
vt 0.943826 0.132211
vt 0.943517 0.131765
vt 0.944348 0.131695
vt 0.935485 0.010171
vt 0.936079 0.010707
vt 0.953159 0.300034
vt 0.952900 0.299483
vt 0.953719 0.299541
vt 0.953159 0.178920
vt 0.953719 0.179471
vt 0.952900 0.179413
vt 0.282910 0.909469
vt 0.283463 0.909070
vt 0.283407 0.909978
vt 0.086126 0.802669
vt 0.086471 0.803396
vt 0.085570 0.803254
vt 0.911540 0.694744
vt 0.911007 0.694226
vt 0.911799 0.694284
vt 0.919439 0.572614
vt 0.919631 0.573207
vt 0.918838 0.573149
vt 0.927707 0.694744
vt 0.927452 0.694284
vt 0.928241 0.694226
vt 0.919819 0.572614
vt 0.920420 0.573149
vt 0.172931 0.902662
vt 0.172474 0.902072
vt 0.173388 0.902072
vt 0.476907 0.508324
vt 0.477445 0.508894
vt 0.476539 0.509003
vt 0.937055 0.299145
vt 0.936553 0.298594
vt 0.937310 0.298622
vt 0.477219 0.508126
vt 0.477839 0.508178
vt 0.936387 0.836239
vt 0.935854 0.835716
vt 0.936619 0.835709
vt 0.914959 0.715197
vt 0.915512 0.715535
vt 0.914949 0.716001
vt 0.952531 0.836239
vt 0.952249 0.835709
vt 0.953064 0.835716
vt 0.914772 0.832511
vt 0.914503 0.833273
vt 0.914172 0.832622
vt 0.481956 0.451273
vt 0.482530 0.450828
vt 0.482530 0.451739
vt 0.915066 0.832706
vt 0.915402 0.833435
vt 0.368133 0.579611
vt 0.367599 0.579094
vt 0.368389 0.579151
vt 0.376022 0.457482
vt 0.376209 0.458074
vt 0.375420 0.458017
vt 0.384300 0.579611
vt 0.384041 0.579151
vt 0.384833 0.579094
vt 0.376401 0.457482
vt 0.377002 0.458017
vt 0.503753 0.921394
vt 0.503190 0.921862
vt 0.503176 0.920949
vt 0.914609 0.715271
vt 0.914050 0.715847
vt 0.474773 0.906785
vt 0.475112 0.906174
vt 0.475465 0.907010
vt 0.869348 0.320628
vt 0.869925 0.321191
vt 0.869035 0.321371
vt 0.474772 0.922513
vt 0.475465 0.922238
vt 0.475112 0.922940
vt 0.924315 0.320453
vt 0.924493 0.321072
vt 0.923713 0.320990
vt 0.932780 0.442315
vt 0.932509 0.441884
vt 0.933311 0.441802
vt 0.924694 0.320453
vt 0.925295 0.320990
vt 0.686400 0.918782
vt 0.685939 0.918197
vt 0.686850 0.918197
vt 0.911534 0.465259
vt 0.911895 0.465975
vt 0.911007 0.465822
vt 0.630831 0.953549
vt 0.630297 0.953026
vt 0.631095 0.952997
vt 0.911897 0.465169
vt 0.912522 0.465444
vt 0.646997 0.953549
vt 0.646746 0.952997
vt 0.647530 0.953026
vt 0.868989 0.320582
vt 0.868428 0.320997
vt 0.981391 0.123737
vt 0.981139 0.123112
vt 0.981922 0.123228
vt 0.988617 0.715195
vt 0.988651 0.715994
vt 0.987982 0.715564
vt 0.829375 0.401428
vt 0.828945 0.400867
vt 0.829834 0.400840
vt 0.988986 0.715261
vt 0.989523 0.715841
vt 0.988651 0.715994
vt 0.844542 0.406319
vt 0.844517 0.405574
vt 0.845112 0.406080
vt 0.961073 0.320453
vt 0.961251 0.321151
vt 0.960474 0.320987
vt 0.314256 0.934297
vt 0.313802 0.933894
vt 0.314511 0.933597
vt 0.961452 0.320453
vt 0.962056 0.320987
vt 0.961251 0.321151
vt 0.330101 0.934377
vt 0.329850 0.933674
vt 0.330693 0.933979
vt 0.988879 0.857025
vt 0.989072 0.857807
vt 0.988254 0.857495
vt 0.965226 0.123737
vt 0.964690 0.123228
vt 0.965489 0.123112
vt 0.989256 0.857026
vt 0.989829 0.857501
vt 0.936385 0.970147
vt 0.935854 0.969638
vt 0.936637 0.969522
vt 0.132360 0.802672
vt 0.132933 0.803176
vt 0.132227 0.803424
vt 0.952550 0.970147
vt 0.952287 0.969522
vt 0.953086 0.969638
vt 0.949690 0.465201
vt 0.949882 0.465983
vt 0.949105 0.465618
vt 0.758922 0.903954
vt 0.758479 0.903362
vt 0.759372 0.903364
vt 0.950068 0.465201
vt 0.950686 0.465618
vt 0.774087 0.907880
vt 0.774054 0.907165
vt 0.774645 0.907547
vt 0.366447 0.851972
vt 0.366603 0.852666
vt 0.365854 0.852507
vt 0.423477 0.897161
vt 0.423488 0.896574
vt 0.424202 0.897015
vt 0.366825 0.851972
vt 0.367429 0.852507
vt 0.432167 0.910687
vt 0.432616 0.910111
vt 0.432752 0.910993
vt 0.131987 0.802678
vt 0.132227 0.803424
vt 0.131375 0.803203
vt 0.385006 0.088231
vt 0.385398 0.360370
vt 0.384840 0.088896
vt 0.385398 0.089098
vt 0.793412 0.783340
vt 0.792834 0.783416
vt 0.208132 0.087205
vt 0.208624 0.358857
vt 0.208132 0.358477
vt 0.208524 0.086346
vt 0.208624 0.087014
vt 0.456197 0.440688
vt 0.187790 0.363446
vt 0.187264 0.088475
vt 0.187790 0.088799
vt 0.187397 0.364320
vt 0.187264 0.363701
vt 0.010564 0.364320
vt 0.010171 0.088799
vt 0.010697 0.363701
vt 0.010171 0.363446
vt 0.916158 0.180876
vt 0.856149 0.299522
vt 0.746653 0.011459
vt 0.406701 0.010171
vt 0.747571 0.425452
vt 0.482589 0.387628
vt 0.777540 0.424938
vt 0.796706 0.010171
vt 0.796893 0.010933
vt 0.614883 0.010171
vt 0.615851 0.010211
vt 0.672979 0.809412
vt 0.503176 0.434197
vt 0.503306 0.434936
vt 0.518907 0.010345
vt 0.519819 0.010171
vt 0.726311 0.451620
vt 0.725983 0.450879
vt 0.539903 0.010171
vt 0.540787 0.010345
vt 0.575271 0.434197
vt 0.700835 0.409251
vt 0.867483 0.715086
vt 0.867565 0.715835
vt 0.314464 0.664561
vt 0.176534 0.782343
vt 0.186952 0.642582
vt 0.813754 0.715835
vt 0.163613 0.642582
vt 0.844149 0.160535
vt 0.843177 0.160535
vt 0.186727 0.621851
vt 0.186072 0.462735
vt 0.825687 0.926984
vt 0.824921 0.927067
vt 0.163669 0.463393
vt 0.180279 0.621206
vt 0.180503 0.621977
vt 0.355016 0.660240
vt 0.824921 0.873290
vt 0.515928 0.587755
vt 0.527571 0.571779
vt 0.516609 0.588223
vt 0.549095 0.656153
vt 0.596384 0.653490
vt 0.596546 0.654027
vt 0.527056 0.571063
vt 0.548394 0.562286
vt 0.647040 0.653490
vt 0.625540 0.683274
vt 0.624968 0.683113
vt 0.573677 0.561425
vt 0.548193 0.561425
vt 0.617492 0.727751
vt 0.616888 0.727759
vt 0.596677 0.571063
vt 0.573498 0.562286
vt 0.625540 0.775276
vt 0.624968 0.775464
vt 0.611032 0.587755
vt 0.596156 0.571779
vt 0.647040 0.813446
vt 0.647530 0.813116
vt 0.612895 0.607030
vt 0.610297 0.588223
vt 0.126947 0.543752
vt 0.126594 0.497153
vt 0.127415 0.543752
vt 0.011800 0.543752
vt 0.010831 0.568149
vt 0.011261 0.543752
vt 0.126594 0.590351
vt 0.126122 0.590528
vt 0.045450 0.768440
vt 0.031587 0.782171
vt 0.030864 0.781662
vt 0.226764 0.479733
vt 0.208708 0.520756
vt 0.208132 0.520674
vt 0.068596 0.760806
vt 0.045956 0.769146
vt 0.208708 0.568913
vt 0.208132 0.569013
vt 0.094099 0.760806
vt 0.068757 0.761626
vt 0.227270 0.611537
vt 0.226764 0.611799
vt 0.115127 0.768440
vt 0.093881 0.761626
vt 0.259036 0.637566
vt 0.259421 0.637207
vt 0.126043 0.781662
vt 0.114595 0.769146
vt 0.503365 0.653490
vt 0.549111 0.655608
vt 0.429345 0.876232
vt 0.415017 0.865889
vt 0.429798 0.875742
vt 0.850735 0.449955
vt 0.873025 0.448585
vt 0.873268 0.449186
vt 0.414380 0.866256
vt 0.406483 0.847171
vt 0.503176 0.780390
vt 0.515676 0.792416
vt 0.515290 0.793067
vt 0.405740 0.824460
vt 0.405740 0.847306
vt 0.535681 0.799646
vt 0.535543 0.800387
vt 0.415017 0.804239
vt 0.406483 0.824606
vt 0.558366 0.799646
vt 0.558510 0.800387
vt 0.429345 0.790971
vt 0.414380 0.803840
vt 0.578035 0.793067
vt 0.577651 0.792416
vt 0.852209 0.693283
vt 0.830279 0.694231
vt 0.830007 0.693674
vt 0.588887 0.780390
vt 0.588370 0.779894
vt 0.874139 0.694231
vt 0.852209 0.693844
vt 0.232294 0.789253
vt 0.217608 0.800343
vt 0.216976 0.799968
vt 0.208132 0.768405
vt 0.221592 0.757204
vt 0.208676 0.768911
vt 0.208873 0.819537
vt 0.208132 0.819400
vt 0.221209 0.756551
vt 0.242088 0.750444
vt 0.208873 0.842200
vt 0.208132 0.842345
vt 0.264823 0.749708
vt 0.241959 0.749708
vt 0.217608 0.862259
vt 0.216976 0.862653
vt 0.283673 0.756551
vt 0.264671 0.750444
vt 0.232294 0.874884
vt 0.232739 0.874340
vt 0.293460 0.768405
vt 0.283291 0.757204
vt 0.829253 0.448117
vt 0.850769 0.449344
vt 0.236111 0.902699
vt 0.891949 0.124320
vt 0.891062 0.124155
vt 0.956715 0.572644
vt 0.957500 0.572615
vt 0.477203 0.486157
vt 0.958297 0.572644
vt 0.010183 0.907618
vt 0.010171 0.908313
vt 0.038473 0.802580
vt 0.037568 0.802513
vt 0.477832 0.486568
vt 0.927196 0.131695
vt 0.927736 0.132211
vt 0.927939 0.131765
vt 0.208178 0.903580
vt 0.208132 0.902861
vt 0.905348 0.010868
vt 0.277888 0.895592
vt 0.277151 0.895547
vt 0.085825 0.802513
vt 0.071224 0.910187
vt 0.276175 0.923457
vt 0.086473 0.802615
vt 0.158939 0.906790
vt 0.158928 0.906068
vt 0.476568 0.508205
vt 0.172575 0.806608
vt 0.173488 0.806608
vt 0.186952 0.906068
vt 0.952143 0.179384
vt 0.952900 0.179413
vt 0.477190 0.507809
vt 0.477839 0.508178
vt 0.945256 0.715600
vt 0.945099 0.715086
vt 0.945477 0.715086
vt 0.944491 0.715607
vt 0.946071 0.715607
vt 0.477285 0.437733
vt 0.476539 0.437747
vt 0.900973 0.925512
vt 0.477285 0.465682
vt 0.915402 0.833435
vt 0.915417 0.832628
vt 0.509507 0.935402
vt 0.508760 0.935423
vt 0.901046 0.811819
vt 0.508345 0.907405
vt 0.869629 0.320453
vt 0.884130 0.424986
vt 0.883240 0.425165
vt 0.916861 0.441884
vt 0.916617 0.442315
vt 0.672009 0.922774
vt 0.672012 0.923511
vt 0.911259 0.465059
vt 0.681600 0.829754
vt 0.680688 0.829754
vt 0.699977 0.922774
vt 0.638613 0.833788
vt 0.637816 0.833817
vt 0.912522 0.465444
vt 0.911985 0.464877
vt 0.639398 0.833817
vt 0.464618 0.896574
vt 0.463933 0.896869
vt 0.817235 0.406412
vt 0.817280 0.407156
vt 0.972539 0.010171
vt 0.989523 0.816161
vt 0.989244 0.715086
vt 0.953653 0.438155
vt 0.847613 0.416937
vt 0.970878 0.438155
vt 0.988668 0.856802
vt 0.974245 0.955560
vt 0.340348 0.942940
vt 0.972539 0.010171
vt 0.971740 0.010287
vt 0.989423 0.856805
vt 0.949105 0.465618
vt 0.944454 0.856697
vt 0.946036 0.856697
vt 0.945237 0.856581
vt 0.746653 0.907089
vt 0.746707 0.907804
vt 0.774645 0.805398
vt 0.773752 0.805396
vt 0.950267 0.464939
vt 0.361438 0.970228
vt 0.410263 0.897161
vt 0.410695 0.896574
vt 0.377853 0.970069
vt 0.131748 0.802513
vt 0.116674 0.913552
vt 0.427644 0.924213
vt 0.455596 0.440625
vt 0.384840 0.360739
vt 0.916211 0.181484
vt 0.755251 0.447432
vt 0.793412 0.445794
vt 0.456197 0.769536
vt 0.418382 0.766644
vt 0.010697 0.088475
vt 0.475148 0.406365
vt 0.420808 0.414247
vt 0.726311 0.400707
vt 0.672009 0.446910
vt 0.776664 0.425147
vt 0.700418 0.803461
vt 0.671846 0.404973
vt 0.699869 0.409326
vt 0.852831 0.910328
vt 0.171962 0.786267
vt 0.840093 0.852472
vt 0.186047 0.642319
vt 0.164507 0.642319
vt 0.846061 0.160212
vt 0.164585 0.463171
vt 0.147757 0.472041
vt 0.601170 0.623655
vt 0.518444 0.607211
vt 0.578095 0.758426
vt 0.552971 0.759552
vt 0.503176 0.654027
vt 0.528659 0.758427
vt 0.259420 0.457482
vt 0.347257 0.575771
vt 0.503176 0.473481
vt 0.543099 0.455279
vt 0.591229 0.455279
vt 0.010171 0.500857
vt 0.126122 0.496977
vt 0.011364 0.518987
vt 0.011364 0.568518
vt 0.010171 0.586648
vt 0.010171 0.659529
vt 0.102056 0.645111
vt 0.461647 0.799732
vt 0.446866 0.874093
vt 0.873268 0.559990
vt 0.850735 0.560758
vt 0.828951 0.448713
vt 0.828951 0.559517
vt 0.232739 0.789760
vt 0.274075 0.845428
vt 0.890512 0.557418
vt 0.532600 0.887064
vt 0.512347 0.879744
vt 0.555567 0.887064
vt 0.813754 0.582561
vt 0.813754 0.694744
vt 0.830007 0.581492
vt 0.852209 0.581100
vt 0.874412 0.693674
vt 0.874412 0.581492
vt 0.890665 0.694744
vt 0.214322 0.666230
vt 0.235073 0.659386
vt 0.813754 0.445794
vt 0.813754 0.556598
vt 0.222075 0.924395
vt 0.906854 0.123418
vt 0.879655 0.118367
vt 0.477537 0.486024
vt 0.262211 0.923391
vt 0.263923 0.895547
vt 0.085570 0.803254
vt 0.058815 0.903730
vt 0.476539 0.507887
vt 0.086473 0.908077
vt 0.072126 0.910329
vt 0.520184 0.907423
vt 0.520599 0.935420
vt 0.915512 0.808733
vt 0.914828 0.832239
vt 0.915474 0.832355
vt 0.887907 0.917313
vt 0.900075 0.925350
vt 0.915474 0.922291
vt 0.887906 0.804001
vt 0.900146 0.811665
vt 0.453094 0.918411
vt 0.895739 0.417737
vt 0.868428 0.423250
vt 0.911709 0.464677
vt 0.911007 0.552273
vt 0.925998 0.548532
vt 0.820351 0.417774
vt 0.988651 0.816313
vt 0.973405 0.813566
vt 0.988835 0.856581
vt 0.848086 0.320453
vt 0.970073 0.438319
vt 0.954429 0.438319
vt 0.340348 0.851972
vt 0.989829 0.955617
vt 0.414431 0.924213
vt 0.945237 0.856581
vt 0.117526 0.913773
vt 0.132933 0.913514
vt 0.949510 0.464939
vt 0.950087 0.464677
vt 0.946340 0.549138
vt 0.961973 0.549138
vt 0.377026 0.970228
vt 0.106815 0.906728
vt 0.856116 0.300111
vt 0.746798 0.010694
vt 0.405740 0.010310
vt 0.746653 0.425262
vt 0.482834 0.386869
vt 0.672009 0.809341
vt 0.575117 0.434936
vt 0.313802 0.664852
vt 0.176311 0.783150
vt 0.813837 0.715086
vt 0.186952 0.621070
vt 0.186952 0.462921
vt 0.355724 0.660385
vt 0.825687 0.873372
vt 0.647530 0.653762
vt 0.612132 0.607211
vt 0.227270 0.479969
vt 0.125349 0.782171
vt 0.503711 0.779894
vt 0.429798 0.791528
vt 0.292957 0.768911
vt 0.236086 0.901979
vt 0.905654 0.010171
vt 0.275440 0.923391
vt 0.476539 0.509003
vt 0.186942 0.906790
vt 0.476539 0.465675
vt 0.914312 0.715086
vt 0.509091 0.907405
vt 0.916081 0.441802
vt 0.699959 0.923511
vt 0.973322 0.010287
vt 0.848086 0.416360
vt 0.973427 0.955249
vt 0.340074 0.943633
vt 0.360689 0.970069
vt 0.428373 0.924089
vt 0.417781 0.437733
vt 0.296732 0.437140
vt 0.754674 0.785054
vt 0.098980 0.010171
vt 0.449557 0.417391
vt 0.405740 0.398774
vt 0.426113 0.012294
vt 0.680913 0.433896
vt 0.700410 0.429668
vt 0.719079 0.436702
vt 0.595613 0.013518
vt 0.633520 0.015092
vt 0.841588 0.872814
vt 0.852831 0.888122
vt 0.841588 0.926426
vt 0.176348 0.784976
vt 0.174546 0.786267
vt 0.170108 0.784976
vt 0.842118 0.852472
vt 0.841353 0.160212
vt 0.580347 0.633149
vt 0.555244 0.633149
vt 0.532586 0.623655
vt 0.328695 0.616557
vt 0.296545 0.639044
vt 0.296545 0.459319
vt 0.328695 0.484989
vt 0.347257 0.527613
vt 0.634671 0.473481
vt 0.123869 0.462735
vt 0.123869 0.624770
vt 0.053887 0.645111
vt 0.141770 0.659529
vt 0.446866 0.789878
vt 0.470181 0.818449
vt 0.470181 0.841014
vt 0.461647 0.861381
vt 0.265340 0.864622
vt 0.250209 0.875205
vt 0.250209 0.790625
vt 0.265340 0.802705
vt 0.274075 0.822765
vt 0.890512 0.446614
vt 0.890665 0.582561
vt 0.257936 0.659386
vt 0.236065 0.916869
vt 0.208132 0.917750
vt 0.477852 0.486230
vt 0.256453 0.909469
vt 0.476851 0.507690
vt 0.525938 0.921431
vt 0.915179 0.832161
vt 0.463933 0.928326
vt 0.453094 0.902682
vt 0.911346 0.464767
vt 0.835518 0.422665
vt 0.989212 0.856582
vt 0.848086 0.320453
vt 0.405740 0.910687
vt 0.949709 0.464677
s 1
f 1/1/1 2/2/2 3/3/3
f 4/4/4 5/5/5 6/6/6
f 7/7/7 8/8/8 9/9/9
f 10/10/10 11/11/11 12/12/12
f 13/13/13 14/14/14 15/15/15
f 16/16/16 17/17/17 18/18/18
f 19/19/19 20/20/20 21/21/21
f 22/22/22 23/23/23 24/24/24
f 25/25/25 26/26/26 27/27/27
f 28/28/28 29/29/29 30/30/30
f 31/31/31 32/32/32 33/33/33
f 34/34/34 35/35/35 36/36/36
f 37/37/37 38/38/38 39/39/39
f 40/40/40 41/41/41 42/42/42
f 43/43/43 44/44/44 45/45/45
f 46/46/46 47/47/47 48/48/48
f 49/49/49 50/50/50 51/51/51
f 52/52/52 53/53/53 54/54/54
f 55/55/55 56/56/56 57/57/57
f 58/58/58 59/59/59 60/60/60
f 61/61/61 62/62/62 63/63/63
f 64/64/64 65/65/65 66/66/66
f 67/67/67 68/68/68 69/69/69
f 70/70/70 71/71/71 72/72/72
f 73/73/73 74/74/74 75/75/75
f 76/76/76 77/77/77 78/78/78
f 79/79/79 80/80/80 81/81/81
f 82/82/82 83/83/83 84/84/84
f 85/85/85 86/86/86 87/87/87
f 88/88/88 89/89/89 90/90/90
f 91/91/91 92/92/92 93/93/93
f 94/94/94 95/95/95 96/96/96
f 97/97/97 98/98/98 99/99/99
f 100/100/100 101/101/101 102/102/102
f 103/103/103 104/104/104 105/105/105
f 106/106/106 107/107/107 108/108/108
f 109/109/109 110/110/110 111/111/111
f 112/112/112 113/113/113 114/114/114
f 115/115/115 116/116/116 117/117/117
f 118/118/118 119/119/119 120/120/120
f 121/121/121 122/122/122 123/123/123
f 124/124/124 125/125/125 126/126/126
f 127/127/127 128/128/128 129/129/129
f 130/130/130 131/131/131 132/132/132
f 229/133/133 230/134/134 231/135/135
f 232/136/136 233/137/137 234/138/138
f 235/139/139 236/140/140 237/141/141
f 238/142/142 239/143/143 240/137/144
f 241/144/145 242/145/146 243/146/147
f 244/147/148 245/148/149 246/149/150
f 247/150/151 248/151/152 249/152/153
f 250/153/154 251/154/155 252/148/156
f 253/155/157 254/156/158 255/157/159
f 256/158/160 257/159/161 258/160/162
f 259/161/163 260/162/164 261/163/165
f 262/164/166 263/165/167 264/159/168
f 265/166/169 266/167/170 267/168/171
f 268/169/172 269/170/173 270/171/174
f 271/172/175 272/173/176 273/174/177
f 274/175/178 275/176/179 276/177/180
f 277/178/181 278/179/182 279/180/183
f 280/181/184 281/182/185 282/183/186
f 283/184/187 284/185/188 285/186/189
f 286/187/190 287/188/191 288/182/192
f 289/189/193 290/190/194 291/191/195
f 292/192/196 293/193/197 294/194/198
f 295/195/199 296/196/200 297/197/201
f 298/198/202 299/199/203 300/193/204
f 301/200/205 302/201/206 303/202/207
f 304/203/208 305/204/209 306/205/210
f 307/206/211 308/207/212 309/208/213
f 310/209/214 311/210/215 312/211/216
f 313/212/217 314/213/218 315/214/219
f 316/215/220 317/216/221 318/210/222
f 319/217/223 320/218/224 321/219/225
f 322/220/226 323/221/227 324/222/228
f 325/223/229 326/224/230 327/225/231
f 328/226/232 329/227/233 330/221/234
f 331/228/235 332/229/236 333/230/237
f 334/231/238 335/205/239 336/232/240
f 337/233/241 338/234/242 339/235/243
f 340/236/244 341/237/245 342/238/246
f 343/239/247 344/240/248 345/241/249
f 346/242/250 347/243/251 348/244/252
f 349/245/253 350/246/254 351/247/255
f 352/248/256 353/249/257 354/243/258
f 355/250/259 356/251/260 357/252/261
f 358/253/262 359/254/263 360/255/264
f 361/256/265 362/257/266 363/258/267
f 364/259/268 365/260/269 366/254/270
f 367/261/271 368/262/272 369/263/273
f 370/264/274 371/238/275 372/265/276
f 373/266/277 374/267/278 375/268/279
f 376/269/280 377/270/281 378/271/282
f 379/272/283 380/273/284 381/274/285
f 382/275/286 383/276/287 384/277/288
f 385/278/289 386/279/290 387/280/291
f 388/281/292 389/282/293 390/283/294
f 391/284/295 392/285/296 393/286/297
f 394/287/298 395/288/299 396/289/300
f 397/290/301 398/291/302 399/292/303
f 400/293/304 401/294/305 402/295/306
f 403/296/307 404/297/308 405/298/309
f 406/299/310 407/300/311 408/294/312
f 409/301/313 410/302/314 411/303/315
f 412/304/316 413/305/317 414/306/318
f 415/307/319 416/308/320 417/309/321
f 418/310/322 419/311/323 420/312/324
f 421/313/325 422/314/326 423/315/327
f 424/316/328 425/317/329 426/311/330
f 427/318/331 428/319/332 429/320/333
f 430/321/334 431/322/335 432/323/336
f 433/324/337 434/325/338 435/326/339
f 436/327/340 437/328/341 438/322/342
f 439/329/343 440/330/344 441/331/345
f 442/332/346 443/333/347 444/334/348
f 16/335/16 2/2/2 1/1/1
f 13/336/13 18/337/18 17/338/17
f 14/14/14 12/12/12 15/15/15
f 7/7/7 12/339/12 11/340/11
f 4/341/4 9/342/9 8/343/8
f 5/344/5 2/2/2 6/345/6
f 34/34/34 21/346/21 35/35/35
f 22/22/22 21/21/21 20/20/20
f 25/347/25 24/348/24 23/349/23
f 26/350/26 30/30/30 27/351/27
f 31/352/31 30/30/30 29/29/29
f 36/353/36 33/354/33 32/355/32
f 1/356/1 20/20/20 19/19/19
f 23/23/23 5/5/5 4/4/4
f 26/26/26 8/8/8 7/7/7
f 29/357/29 11/11/11 10/10/10
f 32/32/32 14/14/14 13/13/13
f 34/34/34 17/17/17 16/16/16
f 44/44/44 37/37/37 39/39/39
f 41/358/41 46/46/46 48/48/48
f 38/38/349 41/359/41 39/39/350
f 45/360/351 48/48/48 47/47/47
f 45/45/45 49/361/49 43/43/43
f 54/54/54 46/46/46 52/52/52
f 51/362/352 54/54/54 53/53/53
f 56/56/56 49/49/49 51/51/51
f 53/53/53 58/363/58 60/364/60
f 57/57/353 60/365/60 59/366/59
f 62/62/62 55/55/55 57/57/57
f 59/59/59 64/64/64 66/66/66
f 63/367/354 66/66/66 65/65/65
f 63/368/63 67/67/67 61/369/61
f 72/72/72 64/64/64 70/70/70
f 69/69/355 72/370/72 71/371/71
f 69/69/69 73/73/73 67/67/67
f 78/372/78 70/70/70 76/373/76
f 75/75/356 78/374/78 77/375/77
f 80/376/80 73/73/73 75/75/75
f 77/77/77 82/82/82 84/84/84
f 81/377/357 84/84/84 83/83/83
f 38/38/38 79/79/79 81/81/81
f 83/83/83 40/40/40 42/42/42
f 92/92/92 85/378/85 87/379/87
f 96/96/96 88/88/88 94/94/94
f 90/90/90 87/87/358 86/86/359
f 95/95/95 92/380/360 96/96/96
f 93/93/93 97/97/97 91/91/91
f 95/381/95 100/100/100 102/102/102
f 101/101/101 98/382/361 102/102/102
f 104/383/104 97/97/97 99/99/99
f 108/108/108 100/100/100 106/106/106
f 105/384/362 108/108/108 107/107/107
f 110/110/110 103/103/103 105/105/105
f 107/107/107 112/112/112 114/114/114
f 111/111/363 114/385/114 113/386/113
f 111/111/111 115/115/115 109/109/109
f 120/120/120 112/387/112 118/118/118
f 117/388/364 120/120/120 119/119/119
f 122/122/122 115/389/115 117/390/117
f 126/126/126 118/118/118 124/124/124
f 123/391/365 126/126/126 125/125/125
f 128/128/128 121/121/121 123/123/123
f 132/392/132 124/124/124 130/393/130
f 129/394/366 132/132/132 131/131/131
f 86/395/86 127/127/127 129/129/129
f 131/131/131 88/88/88 90/90/90
f 134/396/367 137/397/368 133/398/369
f 136/399/370 139/400/371 140/401/371
f 138/402/372 141/403/373 137/397/368
f 140/404/371 143/405/374 144/406/374
f 146/407/375 141/403/373 142/408/376
f 144/406/374 147/409/377 148/410/377
f 150/411/378 145/412/379 146/407/375
f 148/410/377 151/413/380 152/414/380
f 154/415/381 149/416/382 150/411/378
f 156/417/383 151/413/380 155/418/383
f 158/419/384 153/420/385 154/415/381
f 160/421/386 155/422/383 159/423/386
f 158/424/384 161/425/387 157/426/388
f 160/421/386 163/427/389 164/428/389
f 166/429/390 161/430/387 162/431/391
f 164/432/389 167/433/392 168/434/392
f 170/435/393 165/436/394 166/429/390
f 168/434/392 171/437/395 172/438/395
f 174/439/396 169/440/397 170/435/393
f 172/438/395 175/441/398 176/442/399
f 178/443/400 173/444/401 174/439/396
f 180/445/402 175/441/398 179/446/402
f 134/447/367 177/448/403 178/443/400
f 136/399/370 179/449/402 135/450/370
f 182/451/404 185/452/405 181/453/404
f 184/454/406 187/455/407 188/456/407
f 186/457/405 189/458/408 185/452/405
f 188/459/407 191/460/409 192/461/409
f 194/462/410 189/458/408 190/463/408
f 192/461/409 195/464/411 196/465/411
f 194/462/410 197/466/412 193/467/410
f 196/465/411 199/468/413 200/469/413
f 202/470/414 197/466/412 198/471/412
f 204/472/415 199/468/413 203/473/415
f 206/474/416 201/475/414 202/476/414
f 208/477/417 203/473/415 207/478/417
f 206/474/416 209/479/418 205/480/416
f 208/481/417 211/482/419 212/483/419
f 210/484/418 213/485/420 209/486/418
f 212/483/419 215/487/421 216/488/421
f 214/489/420 217/490/422 213/485/420
f 216/488/421 219/491/423 220/492/423
f 222/493/424 217/490/422 218/494/422
f 220/492/423 223/495/425 224/496/425
f 226/497/426 221/498/424 222/493/424
f 228/499/427 223/495/425 227/500/427
f 182/501/404 225/502/426 226/497/426
f 184/454/406 227/503/427 183/504/406
f 231/135/135 235/505/139 229/133/133
f 240/137/144 232/136/136 238/142/142
f 234/138/138 231/506/428 230/507/429
f 237/141/430 240/508/144 239/509/143
f 242/145/146 235/139/139 237/141/141
f 246/149/150 238/510/142 244/147/148
f 243/146/431 246/509/150 245/511/149
f 243/512/147 247/150/151 241/513/145
f 252/148/156 244/147/148 250/153/154
f 251/514/155 248/151/432 252/515/156
f 254/156/158 247/150/151 249/152/153
f 258/154/162 250/153/154 256/516/160
f 257/159/161 254/517/433 258/160/162
f 260/162/164 253/518/157 255/519/159
f 264/159/168 256/158/160 262/164/166
f 261/163/434 264/159/168 263/165/167
f 230/134/134 259/520/163 261/521/165
f 263/522/167 232/136/136 234/138/138
f 267/523/171 271/172/175 265/524/169
f 276/177/180 268/525/172 274/175/178
f 270/171/174 267/168/435 266/167/436
f 275/176/179 272/526/437 276/177/180
f 278/527/182 271/172/175 273/174/177
f 275/176/179 280/528/184 282/176/186
f 281/182/185 278/179/438 282/183/186
f 279/180/183 283/184/187 277/178/181
f 288/182/192 280/181/184 286/187/190
f 285/186/439 288/182/192 287/188/191
f 290/190/194 283/529/187 285/530/189
f 294/194/198 286/531/190 292/192/196
f 291/191/440 294/532/198 293/533/197
f 296/534/200 289/189/193 291/191/195
f 300/193/204 292/192/196 298/198/202
f 297/197/441 300/535/204 299/536/203
f 266/167/170 295/195/199 297/197/201
f 299/199/203 268/537/172 270/538/174
f 308/207/212 301/200/205 303/202/207
f 312/539/216 304/540/208 310/541/214
f 306/542/210 303/202/442 302/201/443
f 311/543/215 308/207/444 312/539/216
f 309/544/213 313/212/217 307/545/211
f 318/210/222 310/209/214 316/215/220
f 315/546/445 318/210/222 317/216/221
f 320/547/224 313/212/217 315/214/219
f 324/548/228 316/215/220 322/549/226
f 321/219/446 324/222/228 323/221/227
f 326/224/230 319/217/223 321/219/225
f 323/221/227 328/226/232 330/221/234
f 329/227/233 326/224/447 330/221/234
f 332/229/236 325/550/229 327/551/231
f 329/232/233 334/231/238 336/232/240
f 333/552/448 336/232/240 335/205/239
f 302/553/206 331/228/235 333/230/237
f 335/205/239 304/203/208 306/205/210
f 344/240/248 337/233/241 339/235/243
f 348/237/252 340/236/244 346/554/250
f 342/238/246 339/555/449 338/556/450
f 345/557/451 348/244/252 347/243/251
f 345/557/249 349/245/253 343/558/247
f 354/243/258 346/242/250 352/248/256
f 353/249/257 350/246/452 354/243/258
f 351/559/255 355/250/259 349/560/253
f 360/255/264 352/561/256 358/253/262
f 359/562/263 356/251/453 360/563/264
f 362/564/266 355/250/259 357/252/261
f 366/254/270 358/253/262 364/259/268
f 365/565/269 362/257/454 366/566/270
f 363/258/267 367/261/271 361/256/265
f 372/567/276 364/259/268 370/568/274
f 369/263/455 372/565/276 371/569/275
f 369/570/273 337/233/241 367/571/271
f 371/238/275 340/236/244 342/238/246
f 375/572/279 379/272/283 373/573/277
f 384/277/288 376/269/280 382/275/286
f 378/574/282 375/268/456 374/267/457
f 381/575/458 384/277/288 383/276/287
f 386/279/290 379/272/283 381/274/285
f 390/276/294 382/275/286 388/576/292
f 389/282/293 386/577/459 390/283/294
f 387/280/291 391/578/295 385/278/289
f 396/289/300 388/281/292 394/287/298
f 393/579/460 396/289/300 395/288/299
f 393/286/297 397/290/301 391/284/295
f 402/295/306 394/580/298 400/293/304
f 399/581/461 402/295/306 401/294/305
f 404/582/308 397/290/301 399/292/303
f 408/294/312 400/293/304 406/299/310
f 407/583/311 404/297/462 408/584/312
f 374/267/278 403/296/307 405/298/309
f 407/300/311 376/585/280 378/300/282
f 411/303/315 415/307/319 409/301/313
f 413/586/317 418/310/322 420/312/324
f 414/587/318 411/303/463 410/302/464
f 419/588/323 416/308/465 420/589/324
f 417/590/321 421/313/325 415/591/319
f 426/311/330 418/310/322 424/316/328
f 425/592/329 422/314/466 426/593/330
f 428/319/332 421/313/325 423/315/327
f 432/317/336 424/316/328 430/594/334
f 429/595/467 432/323/336 431/322/335
f 434/325/338 427/596/331 429/597/333
f 431/322/335 436/327/340 438/322/342
f 435/598/468 438/322/342 437/328/341
f 435/326/339 439/329/343 433/324/337
f 444/334/348 436/599/340 442/332/346
f 443/333/347 440/600/469 444/334/348
f 441/331/345 409/601/313 439/329/343
f 443/333/347 412/304/316 414/306/318
f 16/16/16 19/602/470 34/34/34
f 15/603/471 9/342/471 2/2/471
f 3/604/472 22/22/22 20/20/472
f 8/8/8 23/605/23 4/606/4
f 11/340/473 26/26/26 7/7/7
f 14/14/14 29/357/474 10/10/474
f 17/17/17 32/607/32 13/608/13
f 24/348/475 30/30/475 35/609/475
f 55/610/476 67/611/476 79/79/476
f 41/359/41 44/44/477 39/39/350
f 81/377/357 42/42/42 38/612/349
f 76/373/478 64/64/479 52/613/478
f 47/47/47 50/614/480 45/360/351
f 51/51/352 60/365/60 56/56/481
f 59/366/59 62/62/482 57/57/353
f 63/367/354 72/72/72 68/615/483
f 71/371/71 74/74/484 69/69/355
f 75/616/356 84/84/84 80/617/485
f 103/618/486 115/389/486 127/127/486
f 87/87/358 96/96/96 92/380/360
f 129/394/366 90/90/90 86/86/359
f 124/619/487 112/112/487 100/100/487
f 93/93/488 102/620/102 98/98/361
f 99/621/489 108/108/108 104/622/490
f 107/623/107 110/110/491 105/105/362
f 113/386/113 116/116/492 111/111/363
f 117/388/364 126/126/126 122/624/493
f 125/125/125 128/625/494 123/391/365
f 145/412/379 161/626/387 177/627/403
f 136/399/495 138/628/372 134/629/367
f 180/630/496 134/629/367 178/631/400
f 175/441/497 159/632/497 143/633/497
f 140/634/498 142/408/376 138/402/372
f 144/635/499 146/407/375 142/408/376
f 148/636/500 150/411/378 146/407/375
f 150/637/378 156/638/501 154/639/381
f 154/639/381 160/421/502 158/424/384
f 160/421/502 162/640/391 158/424/384
f 164/428/503 166/641/390 162/640/391
f 168/642/504 170/435/393 166/429/390
f 170/435/393 176/643/505 174/439/396
f 176/643/505 178/443/400 174/439/396
f 193/467/506 209/644/506 225/645/506
f 184/454/471 186/646/507 182/647/471
f 228/648/508 182/647/471 226/649/508
f 223/495/497 207/650/497 191/651/497
f 188/456/507 190/652/509 186/646/507
f 192/461/509 194/653/510 190/654/509
f 196/465/510 198/655/511 194/653/510
f 200/656/511 202/476/512 198/657/511
f 204/658/512 206/474/475 202/476/512
f 208/659/475 210/660/513 206/474/475
f 212/661/513 214/662/514 210/660/513
f 216/663/514 218/494/515 214/489/514
f 220/664/515 222/493/516 218/494/515
f 224/665/516 226/649/508 222/666/516
f 235/505/517 247/667/517 259/520/517
f 231/506/428 240/137/144 236/668/518
f 263/522/167 230/507/429 261/669/434
f 232/670/519 256/516/520 244/147/521
f 237/141/430 246/509/150 242/145/522
f 243/512/431 252/515/156 248/151/432
f 249/152/523 258/514/162 254/156/433
f 255/519/524 264/159/168 260/162/525
f 271/172/526 283/671/526 295/672/526
f 269/673/173 272/526/437 267/674/435
f 299/536/203 266/167/436 297/197/441
f 268/537/527 292/192/528 280/675/529
f 275/176/179 278/676/438 273/677/530
f 281/182/185 284/185/531 279/180/532
f 285/530/439 294/532/198 290/190/533
f 291/191/440 300/533/204 296/534/534
f 307/678/535 319/679/535 331/228/535
f 305/539/209 308/207/444 303/202/442
f 333/552/448 306/205/210 302/680/443
f 304/681/536 328/682/537 316/215/538
f 309/683/539 318/210/222 314/684/540
f 315/546/445 324/548/228 320/685/541
f 323/221/227 326/224/447 321/219/446
f 327/686/542 336/232/240 332/687/543
f 343/239/544 355/688/544 367/571/544
f 339/555/449 348/237/252 344/689/545
f 369/690/455 342/238/246 338/556/450
f 340/691/546 364/259/547 352/561/548
f 345/557/451 354/243/258 350/246/452
f 351/559/549 360/563/264 356/251/453
f 357/692/550 366/254/270 362/693/454
f 363/258/551 372/565/276 368/262/552
f 379/272/553 391/578/553 403/694/553
f 377/270/281 380/695/554 375/696/456
f 405/298/555 378/574/282 374/267/457
f 376/585/556 400/293/557 388/697/558
f 381/274/458 390/698/294 386/279/459
f 389/282/293 392/699/559 387/700/560
f 393/286/460 402/701/306 398/291/561
f 399/581/461 408/294/312 404/702/462
f 415/703/562 427/596/562 439/329/562
f 413/704/317 416/308/465 411/303/463
f 441/705/563 414/306/318 410/706/464
f 412/707/564 436/708/565 424/316/566
f 417/709/567 426/311/330 422/710/466
f 423/315/568 432/592/336 428/319/569
f 431/322/335 434/711/570 429/595/467
f 435/712/468 444/334/348 440/600/469
f 16/335/16 18/337/18 2/2/2
f 13/336/13 15/603/15 18/337/18
f 14/14/14 10/10/10 12/12/12
f 7/7/7 9/9/9 12/339/12
f 4/341/4 6/345/6 9/342/9
f 5/344/5 3/3/3 2/2/2
f 34/34/34 19/602/19 21/346/21
f 22/22/22 24/24/24 21/21/21
f 25/347/25 27/351/27 24/348/24
f 26/350/26 28/28/28 30/30/30
f 31/352/31 33/354/33 30/30/30
f 36/353/36 35/609/35 33/354/33
f 1/356/1 3/604/3 20/20/20
f 23/23/23 22/22/22 5/5/5
f 26/26/26 25/25/25 8/8/8
f 29/357/29 28/713/28 11/11/11
f 32/32/32 31/31/31 14/14/14
f 34/34/34 36/36/36 17/17/17
f 44/44/44 43/43/43 37/37/37
f 41/358/41 40/714/40 46/46/46
f 38/38/349 42/715/42 41/359/41
f 45/360/351 44/716/477 48/48/48
f 45/45/45 50/717/50 49/361/49
f 54/54/54 47/47/47 46/46/46
f 51/362/352 50/614/480 54/54/54
f 56/56/56 55/55/55 49/49/49
f 53/53/53 52/52/52 58/363/58
f 57/57/353 56/56/481 60/365/60
f 62/62/62 61/61/61 55/55/55
f 59/59/59 58/58/58 64/64/64
f 63/367/354 62/718/482 66/66/66
f 63/368/63 68/68/68 67/67/67
f 72/72/72 65/65/65 64/64/64
f 69/69/355 68/68/483 72/370/72
f 69/69/69 74/74/74 73/73/73
f 78/372/78 71/71/71 70/70/70
f 75/75/356 74/74/484 78/374/78
f 80/376/80 79/719/79 73/73/73
f 77/77/77 76/76/76 82/82/82
f 81/377/357 80/617/485 84/84/84
f 38/38/38 37/37/37 79/79/79
f 83/83/83 82/82/82 40/40/40
f 92/92/92 91/91/91 85/378/85
f 96/96/96 89/89/89 88/88/88
f 90/90/90 89/89/89 87/87/358
f 95/95/95 93/720/488 92/380/360
f 93/93/93 98/98/98 97/97/97
f 95/381/95 94/721/94 100/100/100
f 101/101/101 99/621/489 98/382/361
f 104/383/104 103/722/103 97/97/97
f 108/108/108 101/101/101 100/100/100
f 105/384/362 104/622/490 108/108/108
f 110/110/110 109/109/109 103/103/103
f 107/107/107 106/106/106 112/112/112
f 111/111/363 110/110/491 114/385/114
f 111/111/111 116/116/116 115/115/115
f 120/120/120 113/723/113 112/387/112
f 117/388/364 116/724/492 120/120/120
f 122/122/122 121/121/121 115/389/115
f 126/126/126 119/119/119 118/118/118
f 123/391/365 122/624/493 126/126/126
f 128/128/128 127/127/127 121/121/121
f 132/392/132 125/125/125 124/124/124
f 129/394/366 128/725/494 132/132/132
f 86/395/86 85/726/85 127/127/127
f 131/131/131 130/130/130 88/88/88
f 134/396/367 138/402/372 137/397/368
f 136/399/370 135/450/370 139/400/371
f 138/402/372 142/408/376 141/403/373
f 140/404/371 139/727/371 143/405/374
f 146/407/375 145/412/379 141/403/373
f 144/406/374 143/405/374 147/409/377
f 150/411/378 149/416/382 145/412/379
f 148/410/377 147/409/377 151/413/380
f 154/415/381 153/420/385 149/416/382
f 156/417/383 152/414/380 151/413/380
f 158/419/384 157/728/388 153/420/385
f 160/421/386 156/638/383 155/422/383
f 158/424/384 162/640/391 161/425/387
f 160/421/386 159/423/386 163/427/389
f 166/429/390 165/436/394 161/430/387
f 164/432/389 163/729/389 167/433/392
f 170/435/393 169/440/397 165/436/394
f 168/434/392 167/433/392 171/437/395
f 174/439/396 173/444/401 169/440/397
f 172/438/395 171/437/395 175/441/398
f 178/443/400 177/448/403 173/444/401
f 180/445/402 176/442/399 175/441/398
f 134/447/367 133/730/369 177/448/403
f 136/399/370 180/630/402 179/449/402
f 182/451/404 186/457/405 185/452/405
f 184/454/406 183/504/406 187/455/407
f 186/457/405 190/463/408 189/458/408
f 188/459/407 187/731/407 191/460/409
f 194/462/410 193/467/410 189/458/408
f 192/461/409 191/460/409 195/464/411
f 194/462/410 198/471/412 197/466/412
f 196/465/411 195/464/411 199/468/413
f 202/470/414 201/732/414 197/466/412
f 204/472/415 200/469/413 199/468/413
f 206/474/416 205/480/416 201/475/414
f 208/477/417 204/472/415 203/473/415
f 206/474/416 210/660/418 209/479/418
f 208/481/417 207/650/417 211/482/419
f 210/484/418 214/489/420 213/485/420
f 212/483/419 211/482/419 215/487/421
f 214/489/420 218/494/422 217/490/422
f 216/488/421 215/487/421 219/491/423
f 222/493/424 221/498/424 217/490/422
f 220/492/423 219/491/423 223/495/425
f 226/497/426 225/502/426 221/498/424
f 228/499/427 224/496/425 223/495/425
f 182/501/404 181/733/404 225/502/426
f 184/454/406 228/648/427 227/503/427
f 231/135/135 236/734/140 235/505/139
f 240/137/144 233/137/137 232/136/136
f 234/138/138 233/137/137 231/506/428
f 237/141/430 236/140/518 240/508/144
f 242/145/146 241/144/145 235/139/139
f 246/149/150 239/149/143 238/510/142
f 243/146/431 242/145/522 246/509/150
f 243/512/147 248/151/152 247/150/151
f 252/148/156 245/148/149 244/147/148
f 251/514/155 249/152/523 248/151/432
f 254/156/158 253/155/157 247/150/151
f 258/154/162 251/154/155 250/153/154
f 257/159/161 255/519/524 254/517/433
f 260/162/164 259/161/163 253/518/157
f 264/159/168 257/159/161 256/158/160
f 261/163/434 260/162/525 264/159/168
f 230/134/134 229/133/133 259/520/163
f 263/522/167 262/735/166 232/136/136
f 267/523/171 272/173/176 271/172/175
f 276/177/180 269/673/173 268/525/172
f 270/171/174 269/170/173 267/168/435
f 275/176/179 273/677/530 272/526/437
f 278/527/182 277/736/181 271/172/175
f 275/176/179 274/175/178 280/528/184
f 281/182/185 279/180/532 278/179/438
f 279/180/183 284/185/188 283/184/187
f 288/182/192 281/182/185 280/181/184
f 285/186/439 284/185/531 288/182/192
f 290/190/194 289/189/193 283/529/187
f 294/194/198 287/737/191 286/531/190
f 291/191/440 290/190/533 294/532/198
f 296/534/200 295/738/199 289/189/193
f 300/193/204 293/193/197 292/192/196
f 297/197/441 296/196/534 300/535/204
f 266/167/170 265/166/169 295/195/199
f 299/199/203 298/198/202 268/537/172
f 308/207/212 307/206/211 301/200/205
f 312/539/216 305/539/209 304/540/208
f 306/542/210 305/539/209 303/202/442
f 311/543/215 309/208/539 308/207/444
f 309/544/213 314/213/218 313/212/217
f 318/210/222 311/210/215 310/209/214
f 315/546/445 314/684/540 318/210/222
f 320/547/224 319/739/223 313/212/217
f 324/548/228 317/216/221 316/215/220
f 321/219/446 320/218/541 324/222/228
f 326/224/230 325/223/229 319/217/223
f 323/221/227 322/220/226 328/226/232
f 329/227/233 327/225/542 326/224/447
f 332/229/236 331/228/235 325/550/229
f 329/232/233 328/740/232 334/231/238
f 333/552/448 332/687/543 336/232/240
f 302/553/206 301/741/205 331/228/235
f 335/205/239 334/231/238 304/203/208
f 344/240/248 343/239/247 337/233/241
f 348/237/252 341/237/245 340/236/244
f 342/238/246 341/237/245 339/555/449
f 345/557/451 344/742/545 348/244/252
f 345/557/249 350/246/254 349/245/253
f 354/243/258 347/243/251 346/242/250
f 353/249/257 351/247/549 350/246/452
f 351/559/255 356/251/260 355/250/259
f 360/255/264 353/255/257 352/561/256
f 359/562/263 357/252/550 356/251/453
f 362/564/266 361/743/265 355/250/259
f 366/254/270 359/254/263 358/253/262
f 365/565/269 363/258/551 362/257/454
f 363/258/267 368/262/272 367/261/271
f 372/567/276 365/260/269 364/259/268
f 369/263/455 368/262/552 372/565/276
f 369/570/273 338/234/242 337/233/241
f 371/238/275 370/264/274 340/236/244
f 375/572/279 380/273/284 379/272/283
f 384/277/288 377/270/281 376/269/280
f 378/574/282 377/744/281 375/268/456
f 381/575/458 380/695/554 384/277/288
f 386/279/290 385/278/289 379/272/283
f 390/276/294 383/276/287 382/275/286
f 389/282/293 387/700/560 386/577/459
f 387/280/291 392/745/296 391/578/295
f 396/289/300 389/282/293 388/281/292
f 393/579/460 392/699/559 396/289/300
f 393/286/297 398/291/302 397/290/301
f 402/295/306 395/295/299 394/580/298
f 399/581/461 398/746/561 402/295/306
f 404/582/308 403/747/307 397/290/301
f 408/294/312 401/294/305 400/293/304
f 407/583/311 405/298/555 404/297/462
f 374/267/278 373/266/277 403/296/307
f 407/300/311 406/299/310 376/585/280
f 411/303/315 416/308/320 415/307/319
f 413/586/317 412/707/316 418/310/322
f 414/587/318 413/704/317 411/303/463
f 419/588/323 417/309/567 416/308/465
f 417/590/321 422/314/326 421/313/325
f 426/311/330 419/311/323 418/310/322
f 425/592/329 423/315/568 422/314/466
f 428/319/332 427/318/331 421/313/325
f 432/317/336 425/317/329 424/316/328
f 429/595/467 428/748/569 432/323/336
f 434/325/338 433/324/337 427/596/331
f 431/322/335 430/321/334 436/327/340
f 435/598/468 434/711/570 438/322/342
f 435/326/339 440/330/344 439/329/343
f 444/334/348 437/334/341 436/599/340
f 443/333/347 441/705/563 440/600/469
f 441/331/345 410/749/314 409/601/313
f 443/333/347 442/332/346 412/304/316
f 16/16/16 1/750/470 19/602/470
f 2/2/471 18/337/471 15/603/471
f 15/603/471 12/751/471 9/342/471
f 9/342/471 6/345/471 2/2/471
f 3/604/472 5/5/5 22/22/22
f 8/8/8 25/25/25 23/605/23
f 11/340/473 28/752/473 26/26/26
f 14/14/14 31/31/31 29/357/474
f 17/17/17 36/36/36 32/607/32
f 35/609/475 21/753/475 24/348/475
f 24/348/475 27/351/475 30/30/475
f 30/30/475 33/354/475 35/609/475
f 79/79/476 37/37/571 43/43/476
f 43/43/476 49/361/476 55/610/476
f 55/610/476 61/754/476 67/611/476
f 67/611/476 73/755/476 79/79/476
f 79/79/476 43/43/476 55/610/476
f 41/359/41 48/756/48 44/44/477
f 81/377/357 83/83/83 42/42/42
f 52/613/478 46/757/478 40/758/478
f 40/758/478 82/759/478 76/373/478
f 76/373/478 70/70/478 64/64/479
f 64/64/479 58/58/478 52/613/478
f 52/613/478 40/758/478 76/373/478
f 47/47/47 54/54/54 50/614/480
f 51/51/352 53/760/53 60/365/60
f 59/366/59 66/761/66 62/62/482
f 63/367/354 65/65/65 72/72/72
f 71/371/71 78/374/78 74/74/484
f 75/616/356 77/77/77 84/84/84
f 127/127/486 85/726/486 91/762/486
f 91/762/486 97/763/486 103/618/486
f 103/618/486 109/764/486 115/389/486
f 115/389/486 121/121/486 127/127/486
f 127/127/486 91/762/486 103/618/486
f 87/87/358 89/89/89 96/96/96
f 129/394/366 131/131/131 90/90/90
f 100/100/487 94/721/487 88/765/487
f 88/765/487 130/766/487 124/619/487
f 124/619/487 118/767/487 112/112/487
f 112/112/487 106/106/487 100/100/487
f 100/100/487 88/765/487 124/619/487
f 93/93/488 95/768/95 102/620/102
f 99/621/489 101/101/101 108/108/108
f 107/623/107 114/385/114 110/110/491
f 113/386/113 120/769/120 116/116/492
f 117/388/364 119/119/119 126/126/126
f 125/125/125 132/392/132 128/625/494
f 177/627/403 133/398/369 137/397/368
f 137/397/368 141/403/373 145/412/379
f 145/412/379 149/416/382 153/420/385
f 153/420/385 157/728/388 161/626/387
f 161/626/387 165/770/394 169/771/397
f 169/771/397 173/772/401 177/627/403
f 177/627/403 137/397/368 145/412/379
f 145/412/379 153/420/385 161/626/387
f 161/626/387 169/771/397 177/627/403
f 136/399/495 140/401/498 138/628/372
f 180/630/496 136/399/495 134/629/367
f 143/633/497 139/773/497 135/774/497
f 135/774/497 179/446/497 175/441/497
f 175/441/497 171/437/497 167/433/497
f 167/433/497 163/729/497 159/632/497
f 159/632/497 155/775/497 151/776/497
f 151/776/497 147/777/497 143/633/497
f 143/633/497 135/774/497 175/441/497
f 175/441/497 167/433/497 159/632/497
f 159/632/497 151/776/497 143/633/497
f 140/634/498 144/635/499 142/408/376
f 144/635/499 148/636/500 146/407/375
f 148/636/500 152/778/572 150/411/378
f 150/637/378 152/779/572 156/638/501
f 154/639/381 156/638/501 160/421/502
f 160/421/502 164/428/503 162/640/391
f 164/428/503 168/780/504 166/641/390
f 168/642/504 172/781/573 170/435/393
f 170/435/393 172/781/573 176/643/505
f 176/643/505 180/782/496 178/443/400
f 225/645/506 181/453/506 185/452/506
f 185/452/506 189/458/506 193/467/506
f 193/467/506 197/466/506 201/732/506
f 201/732/506 205/783/506 209/644/506
f 209/644/506 213/784/506 217/785/506
f 217/785/506 221/786/506 225/645/506
f 225/645/506 185/452/506 193/467/506
f 193/467/506 201/732/506 209/644/506
f 209/644/506 217/785/506 225/645/506
f 184/454/471 188/456/507 186/646/507
f 228/648/508 184/454/471 182/647/471
f 191/651/497 187/787/497 183/788/497
f 183/788/497 227/500/497 223/495/497
f 223/495/497 219/491/497 215/487/497
f 215/487/497 211/482/497 207/650/497
f 207/650/497 203/789/497 199/790/497
f 199/790/497 195/791/497 191/651/497
f 191/651/497 183/788/497 223/495/497
f 223/495/497 215/487/497 207/650/497
f 207/650/497 199/790/497 191/651/497
f 188/456/507 192/792/509 190/652/509
f 192/461/509 196/465/510 194/653/510
f 196/465/510 200/469/511 198/655/511
f 200/656/511 204/658/512 202/476/512
f 204/658/512 208/659/475 206/474/475
f 208/659/475 212/661/513 210/660/513
f 212/661/513 216/793/514 214/662/514
f 216/663/514 220/664/515 218/494/515
f 220/664/515 224/794/516 222/493/516
f 224/665/516 228/648/508 226/649/508
f 259/520/517 229/133/517 235/505/517
f 235/505/517 241/795/517 247/667/517
f 247/667/517 253/796/517 259/520/517
f 231/506/428 233/137/137 240/137/144
f 263/522/167 234/138/138 230/507/429
f 244/147/521 238/510/574 232/670/519
f 232/670/519 262/797/575 256/516/520
f 256/516/520 250/153/576 244/147/521
f 237/141/430 239/509/143 246/509/150
f 243/512/431 245/515/149 252/515/156
f 249/152/523 251/514/155 258/514/162
f 255/519/524 257/159/161 264/159/168
f 295/672/526 265/524/526 271/172/526
f 271/172/526 277/736/526 283/671/526
f 283/671/526 289/798/526 295/672/526
f 269/673/173 276/177/180 272/526/437
f 299/536/203 270/171/174 266/167/436
f 280/675/529 274/799/577 268/537/527
f 268/537/527 298/198/578 292/192/528
f 292/192/528 286/531/579 280/675/529
f 275/176/179 282/176/186 278/676/438
f 281/182/185 288/182/192 284/185/531
f 285/530/439 287/532/191 294/532/198
f 291/191/440 293/533/197 300/533/204
f 331/228/535 301/741/535 307/678/535
f 307/678/535 313/800/535 319/679/535
f 319/679/535 325/550/535 331/228/535
f 305/539/209 312/539/216 308/207/444
f 333/552/448 335/205/239 306/205/210
f 316/215/538 310/209/580 304/681/536
f 304/681/536 334/801/581 328/682/537
f 328/682/537 322/549/582 316/215/538
f 309/683/539 311/210/215 318/210/222
f 315/546/445 317/216/221 324/548/228
f 323/221/227 330/221/234 326/224/447
f 327/686/542 329/232/233 336/232/240
f 367/571/544 337/233/544 343/239/544
f 343/239/544 349/802/544 355/688/544
f 355/688/544 361/803/544 367/571/544
f 339/555/449 341/237/245 348/237/252
f 369/690/455 371/238/275 342/238/246
f 352/561/548 346/804/583 340/691/546
f 340/691/546 370/568/584 364/259/547
f 364/259/547 358/253/585 352/561/548
f 345/557/451 347/243/251 354/243/258
f 351/559/549 353/563/257 360/563/264
f 357/692/550 359/254/263 366/254/270
f 363/258/551 365/565/269 372/565/276
f 403/694/553 373/573/553 379/272/553
f 379/272/553 385/278/553 391/578/553
f 391/578/553 397/805/553 403/694/553
f 377/270/281 384/277/288 380/695/554
f 405/298/555 407/583/311 378/574/282
f 388/697/558 382/806/586 376/585/556
f 376/585/556 406/299/587 400/293/557
f 400/293/557 394/580/588 388/697/558
f 381/274/458 383/807/287 390/698/294
f 389/282/293 396/289/300 392/699/559
f 393/286/460 395/701/299 402/701/306
f 399/581/461 401/294/305 408/294/312
f 439/329/562 409/601/562 415/703/562
f 415/703/562 421/808/562 427/596/562
f 427/596/562 433/324/562 439/329/562
f 413/704/317 420/589/324 416/308/465
f 441/705/563 443/333/347 414/306/318
f 424/316/566 418/310/589 412/707/564
f 412/707/564 442/809/590 436/708/565
f 436/708/565 430/594/591 424/316/566
f 417/709/567 419/311/323 426/311/330
f 423/315/568 425/592/329 432/592/336
f 431/322/335 438/322/342 434/711/570
f 435/712/468 437/334/341 444/334/348
