# Blender 5.2.0 LTS
# www.blender.org
o Rubble
v 0.227437 0.238921 0.327605
v 0.255972 0.151905 0.207118
v 0.305266 0.282889 0.195814
v 0.227754 0.375014 0.281848
v 0.137448 0.240125 0.306477
v 0.104184 0.140199 0.266463
v 0.212018 0.239935 0.155423
v 0.222610 0.329331 0.174345
v 0.102098 0.378240 0.224346
v 0.049672 0.248621 0.224055
v 0.145146 0.162798 0.170234
v 0.126770 0.317308 0.124697
v -0.116123 0.384116 -0.072982
v 0.026712 0.401145 -0.205570
v -0.092437 0.232382 -0.172477
v -0.195381 0.154972 0.030856
v -0.119718 0.346896 0.083091
v 0.012249 0.451524 -0.035227
v 0.047150 0.239607 -0.114760
v -0.104989 0.150328 -0.042397
v -0.049872 0.197794 0.090517
v 0.037820 0.365500 0.029743
v 0.103532 0.375402 -0.120832
v 0.002315 0.204414 -0.032972
v 0.189546 0.266443 -0.143230
v 0.211888 0.162926 -0.053849
v 0.257390 0.376792 0.000767
v 0.389268 0.370663 -0.138604
v 0.341993 0.261162 -0.214750
v 0.255456 0.107701 -0.175511
v 0.277896 0.179915 0.061446
v 0.403965 0.291452 0.045011
v 0.469346 0.193554 -0.168032
v 0.352454 0.118600 -0.187952
v 0.216897 0.090330 -0.031546
v 0.406378 0.179977 -0.013022
v -0.200905 0.326864 0.113865
v -0.077784 0.249705 0.134265
v -0.249702 0.223697 0.097780
v -0.312090 0.292413 0.197713
v -0.229458 0.332585 0.232965
v -0.085703 0.296719 0.175093
v -0.202917 0.161522 0.203892
v -0.259929 0.228346 0.211713
v -0.275120 0.278479 0.282340
v -0.122411 0.318479 0.279621
v -0.086690 0.223238 0.247073
v -0.153367 0.210917 0.291482
v -0.483654 0.126005 -0.419266
v -0.708895 0.408727 -0.359321
v -0.495039 0.386688 -0.696128
v -0.281068 0.116986 -0.535143
v -0.323813 0.000000 -0.316919
v -0.476835 0.140920 -0.217852
v -0.479345 0.501201 -0.396302
v -0.228813 0.307056 -0.598442
v -0.196510 0.083130 -0.337751
v -0.283723 0.096927 -0.124209
v -0.514216 0.392365 -0.275609
v -0.324750 0.328304 -0.259184
v 0.222892 0.249202 -0.441927
v 0.332925 0.159533 -0.476257
v 0.140114 0.103083 -0.382420
v 0.032493 0.236037 -0.348532
v 0.192571 0.355801 -0.374963
v 0.317653 0.360146 -0.428619
v 0.315354 0.117795 -0.349295
v 0.125069 0.116723 -0.276823
v 0.105311 0.259378 -0.223230
v 0.257562 0.350687 -0.277579
v 0.380063 0.227274 -0.360624
v 0.255759 0.251664 -0.266947
v -0.295202 0.254799 -0.059252
v -0.355271 0.175536 -0.183050
v -0.398796 0.300515 -0.165776
v -0.365824 0.357253 -0.028574
v -0.292072 0.183361 0.112763
v -0.298304 0.138422 -0.013430
v -0.502317 0.286678 -0.220361
v -0.451106 0.344759 -0.050366
v -0.421639 0.286684 0.099523
v -0.397364 0.081654 0.103440
v -0.444423 0.058681 -0.127571
v -0.492563 0.170863 -0.021364
v -0.241680 0.228530 0.358825
v -0.278726 0.173656 0.353899
v -0.296934 0.220513 0.300815
v -0.261430 0.324181 0.378305
v -0.250675 0.261018 0.422324
v -0.239985 0.135535 0.381743
v -0.332176 0.168321 0.340743
v -0.338269 0.302824 0.349081
v -0.307180 0.284188 0.414162
v -0.256846 0.182628 0.441426
v -0.313634 0.114012 0.373956
v -0.329918 0.215424 0.396691
v -0.151414 0.259075 0.275140
v -0.083537 0.130574 0.390705
v -0.097439 0.314364 0.442921
v -0.097380 0.353438 0.293337
v -0.114102 0.291964 0.133100
v -0.087564 0.112997 0.212641
v 0.021249 0.166084 0.415522
v 0.007066 0.329121 0.327107
v 0.014732 0.323588 0.192941
v -0.021839 0.213628 0.171716
v 0.027539 0.138129 0.314093
v 0.047836 0.258777 0.310870
v 0.310243 0.321461 -0.156958
v 0.344258 0.352369 -0.235694
v 0.214213 0.418423 -0.308132
v 0.164448 0.302554 -0.203843
v 0.252790 0.255090 -0.160961
v 0.344838 0.287705 -0.162146
v 0.268495 0.354940 -0.359861
v 0.193836 0.278521 -0.343178
v 0.218939 0.159712 -0.252557
v 0.326131 0.160842 -0.251094
v 0.373736 0.244644 -0.289773
v 0.262394 0.175442 -0.336767
vn 0.8634 -0.2892 0.4134
vn 0.2934 -0.7407 0.6044
vn 0.8192 0.1811 0.5442
vn -0.2132 0.3118 0.9259
vn -0.2220 -0.2979 0.9284
vn -0.0171 -0.9717 -0.2355
vn 0.4804 -0.2533 -0.8397
vn 0.5263 0.7732 -0.3538
vn -0.3724 0.4021 0.8364
vn -0.6864 -0.0617 0.7246
vn 0.2557 -0.3914 -0.8840
vn 0.3304 0.1578 -0.9306
vn 0.2021 0.8978 -0.3912
vn -0.6474 0.2603 0.7163
vn -0.7252 -0.5344 -0.4342
vn 0.0998 -0.2704 -0.9576
vn 0.4423 0.1353 -0.8866
vn 0.1458 0.8597 -0.4896
vn -0.8421 0.3415 -0.4173
vn -0.6520 -0.2847 -0.7027
vn -0.6620 0.3360 -0.6700
vn -0.3759 0.8794 -0.2920
vn -0.9036 0.1272 -0.4091
vn -0.9342 0.3513 0.0623
vn -0.4997 0.8451 0.1900
vn 0.5065 0.8376 -0.2047
vn 0.3652 -0.4207 -0.8305
vn -0.4489 -0.7356 -0.5073
vn -0.3473 -0.1163 0.9305
vn 0.1826 0.6265 0.7577
vn 0.6580 -0.3040 -0.6889
vn 0.2494 -0.8297 -0.4993
vn 0.1690 -0.9483 0.2686
vn 0.2955 0.1851 0.9372
vn 0.7749 0.5111 0.3718
vn 0.8768 -0.3493 0.3304
vn 0.4554 -0.8809 -0.1294
vn 0.4363 -0.8894 0.1367
vn 0.8757 -0.3302 0.3524
vn 0.8724 -0.3320 0.3589
vn -0.9285 0.1067 0.3557
vn -0.9217 -0.3476 -0.1723
vn -0.4111 0.8067 -0.4245
vn -0.3120 0.6295 -0.7116
vn -0.4245 0.0079 -0.9054
vn -0.9505 -0.1493 -0.2726
vn -0.8701 0.0602 0.4893
vn 0.3957 0.8543 0.3369
vn 0.4810 0.3510 -0.8034
vn -0.1037 -0.1911 -0.9761
vn -0.8700 0.0890 0.4850
vn -0.1240 0.2804 0.9518
vn 0.9128 0.3964 0.0980
vn 0.2643 -0.1594 -0.9512
vn 0.0994 -0.9907 -0.0929
vn 0.3151 -0.7783 0.5431
vn 0.4592 -0.4024 0.7920
vn 0.9185 -0.1668 0.3585
vn 0.5181 -0.8443 0.1365
vn 0.4048 -0.8946 0.1891
vn 0.1988 0.0585 -0.9783
vn 0.4890 0.6174 -0.6161
vn -0.6276 0.4009 -0.6674
vn -0.3855 0.9126 -0.1363
vn 0.2468 0.9690 0.0126
vn 0.9918 0.0823 0.0976
vn 0.2396 -0.7879 -0.5673
vn -0.7701 -0.6364 -0.0432
vn -0.5272 0.7710 0.3573
vn 0.1877 0.9727 -0.1366
vn 0.5083 -0.8465 -0.1585
vn -0.7625 -0.6456 -0.0421
vn -0.7774 -0.5796 0.2442
vn -0.1830 0.7425 0.6444
vn 0.9277 0.2547 0.2728
vn 0.3602 -0.8849 0.2953
vn -0.5568 -0.5481 0.6241
vn -0.4596 -0.7679 0.4462
vn -0.0119 0.1130 0.9935
vn 0.5620 -0.0709 0.8241
vn -0.7453 -0.5004 -0.4405
vn -0.7725 -0.6309 0.0729
vn -0.3869 -0.6792 -0.6236
vn -0.3194 -0.8077 -0.4956
vn -0.6475 -0.7580 0.0781
vn -0.3795 0.1532 0.9124
vn -0.3978 0.8638 -0.3091
vn 0.2235 -0.3627 -0.9047
vn 0.4739 -0.8114 -0.3422
vn -0.4084 -0.7785 0.4765
vn -0.2041 0.7556 0.6224
vn 0.3833 0.8560 -0.3470
vn 0.8303 -0.3677 -0.4188
vn 0.5567 -0.7828 0.2779
vn -0.4042 0.1473 0.9027
vn 0.1786 0.7045 0.6869
vn 0.6770 0.7213 0.1463
vn 0.8909 0.3932 0.2273
vn 0.8748 0.3503 0.3346
vn 0.1001 0.5145 0.8516
vn -0.3990 -0.1428 -0.9058
vn -0.1222 0.2205 -0.9677
vn -0.4305 -0.1204 -0.8945
vn -0.4270 0.3908 -0.8154
vn -0.3706 0.4162 -0.8303
vn 0.8716 0.1751 -0.4579
vn 0.1348 -0.9467 -0.2926
vn -0.7807 -0.6242 -0.0306
vn -0.5697 0.8015 0.1817
vn -0.0095 0.9982 0.0587
vn 0.8575 -0.5120 -0.0496
vn 0.0573 -0.9891 0.1359
vn -0.7973 -0.3059 0.5203
vn -0.4032 0.8594 0.3142
vn 0.7718 0.5369 0.3407
vn 0.5526 -0.2442 0.7969
vn 0.3306 -0.3833 0.8624
vn 0.2506 -0.3098 0.9172
vn 0.2823 0.0973 0.9544
vn 0.6094 0.0737 0.7894
vn 0.7430 0.3386 -0.5773
vn 0.9245 -0.1607 -0.3457
vn 0.6877 0.5975 -0.4124
vn 0.8337 0.5152 0.1988
vn 0.9986 -0.0404 -0.0349
vn 0.6490 -0.6680 -0.3641
vn 0.4214 0.2666 -0.8668
vn -0.0403 0.9267 -0.3735
vn 0.4738 0.6677 0.5743
vn 0.6675 -0.7112 0.2203
vn -0.0613 -0.3896 -0.9190
vn 0.0520 0.9401 -0.3369
vn -0.2304 0.8913 0.3906
vn -0.0956 0.0077 0.9954
vn 0.4863 -0.8737 -0.0122
vn -0.9488 -0.2909 -0.1228
vn -0.9458 0.2583 0.1967
vn -0.9208 0.2670 0.2844
vn -0.8209 -0.0864 0.5644
vn -0.8044 -0.5523 0.2188
vn 0.6879 -0.4107 -0.5985
vn 0.4267 -0.2091 -0.8799
vn 0.6759 0.2785 -0.6823
vn 0.9801 0.1944 0.0394
vn 0.9921 0.0468 0.1166
vn 0.2166 -0.4227 -0.8800
vn 0.2377 -0.6863 -0.6874
vn 0.1556 0.5567 -0.8160
vn 0.1222 0.5814 0.8044
vn 0.9606 -0.0080 0.2777
vn 0.2558 -0.4393 -0.8612
vn -0.7540 0.0066 -0.6569
vn -0.3878 0.8204 0.4202
vn -0.0418 0.2397 0.9700
vn 0.1529 -0.7543 0.6384
vn -0.9576 -0.2002 0.2072
vn -0.9953 -0.0502 0.0824
vn -0.8695 0.1696 0.4639
vn -0.5341 -0.0380 0.8446
vn -0.5873 -0.2657 0.7645
vn -0.9205 -0.1696 0.3520
vn -0.9045 -0.4219 0.0621
vn -0.8712 0.4750 0.1237
vn -0.8539 0.5095 -0.1063
vn -0.9140 -0.2700 -0.3026
vn 0.1322 -0.9867 0.0944
vn -0.1303 -0.2801 0.9511
vn 0.1421 0.9577 0.2502
vn -0.0660 0.9339 -0.3514
vn 0.0431 -0.4004 -0.9153
vn 0.2506 -0.9292 0.2716
vn 0.6529 0.4042 0.6406
vn 0.2348 0.9717 -0.0266
vn 0.4132 0.0382 -0.9098
vn 0.5970 -0.6044 -0.5275
vn 0.9811 -0.1622 0.1056
vn 0.7923 0.3427 0.5048
vn 0.8677 0.4962 0.0291
vn 0.8984 -0.2261 -0.3765
vn 0.9024 -0.1625 -0.3991
vn 0.2047 0.8778 0.4330
vn 0.6407 0.5791 0.5041
vn -0.2981 0.7061 0.6423
vn -0.3246 0.2256 0.9185
vn 0.0491 -0.1024 0.9935
vn 0.9698 0.1868 0.1566
vn 0.5672 0.7543 -0.3305
vn -0.9518 0.1975 -0.2348
vn -0.5742 -0.4519 0.6827
vn 0.2162 -0.5817 0.7842
vn 0.7698 0.4419 -0.4606
vn -0.4718 0.2783 -0.8366
vn -0.9399 -0.3091 -0.1449
vn -0.0026 -0.6922 0.7217
vn 0.8799 -0.3529 0.3183
vn 0.4525 -0.1289 -0.8824
vn -0.0939 -0.1239 -0.9878
vn -0.7222 -0.5094 -0.4678
vn 0.0128 -0.9841 -0.1772
vn 0.5964 -0.5900 -0.5443
vt 0.780662 0.909453
vt 0.717243 0.925130
vt 0.717243 0.878031
vt 0.889329 0.147425
vt 0.944220 0.120945
vt 0.944220 0.196806
vt 0.777989 0.846881
vt 0.011015 0.714662
vt 0.059503 0.684254
vt 0.037442 0.748145
vt 0.011016 0.792755
vt 0.895753 0.195195
vt 0.876459 0.797058
vt 0.813495 0.782232
vt 0.854479 0.751409
vt 0.731489 0.843881
vt 0.096803 0.734783
vt 0.065503 0.788071
vt 0.813495 0.728507
vt 0.892710 0.757151
vt 0.137525 0.544856
vt 0.184599 0.570351
vt 0.139489 0.603605
vt 0.881926 0.488141
vt 0.877135 0.429023
vt 0.926954 0.468860
vt 0.885183 0.707778
vt 0.189346 0.618423
vt 0.137525 0.646439
vt 0.926954 0.397421
vt 0.516868 0.317864
vt 0.537553 0.405702
vt 0.474351 0.363649
vt 0.582865 0.337194
vt 0.358282 0.771046
vt 0.432118 0.771046
vt 0.386075 0.868688
vt 0.474351 0.260789
vt 0.547185 0.258834
vt 0.554407 0.427732
vt 0.573596 0.501942
vt 0.525444 0.454991
vt 0.011015 0.909705
vt 0.023443 0.814786
vt 0.075273 0.882494
vt 0.427344 0.841958
vt 0.853325 0.253805
vt 0.853325 0.351909
vt 0.796301 0.303144
vt 0.555368 0.577051
vt 0.531239 0.530542
vt 0.074870 0.814786
vt 0.725922 0.715190
vt 0.791464 0.707778
vt 0.734739 0.772401
vt 0.717243 0.821850
vt 0.791464 0.813175
vt 0.794435 0.228261
vt 0.481498 0.471730
vt 0.474351 0.515400
vt 0.786003 0.751518
vt 0.479359 0.577051
vt 0.236315 0.737711
vt 0.287626 0.775804
vt 0.215796 0.786659
vt 0.312641 0.717757
vt 0.105354 0.522825
vt 0.105354 0.436137
vt 0.189346 0.463919
vt 0.181645 0.520423
vt 0.268880 0.683158
vt 0.318930 0.786659
vt 0.452320 0.494830
vt 0.452320 0.598814
vt 0.415259 0.571390
vt 0.615000 0.588165
vt 0.695212 0.564350
vt 0.695212 0.631393
vt 0.720661 0.464197
vt 0.720661 0.410123
vt 0.787076 0.446675
vt 0.747311 0.542319
vt 0.769680 0.508950
vt 0.439779 0.627285
vt 0.374360 0.513352
vt 0.595627 0.676211
vt 0.670099 0.112452
vt 0.630235 0.131785
vt 0.670099 0.044007
vt 0.617769 0.011015
vt 0.574964 0.062201
vt 0.365503 0.568784
vt 0.672968 0.675308
vt 0.567080 0.139056
vt 0.474351 0.865348
vt 0.537544 0.865348
vt 0.475479 0.917315
vt 0.563047 0.754264
vt 0.552627 0.796566
vt 0.540308 0.747348
vt 0.563047 0.834641
vt 0.506642 0.843318
vt 0.496540 0.799085
vt 0.963244 0.305328
vt 0.948632 0.283768
vt 0.988626 0.258698
vt 0.528392 0.931765
vt 0.945723 0.573689
vt 0.955894 0.635353
vt 0.918701 0.600558
vt 0.474351 0.823368
vt 0.488468 0.751957
vt 0.358282 0.890719
vt 0.401187 0.917958
vt 0.358282 0.965051
vt 0.898084 0.635353
vt 0.910457 0.564350
vt 0.948632 0.231974
vt 0.408363 0.954586
vt 0.632207 0.930393
vt 0.595627 0.912860
vt 0.617886 0.875300
vt 0.661016 0.923020
vt 0.661016 0.853689
vt 0.988984 0.228261
vt 0.096691 0.156510
vt 0.011015 0.011016
vt 0.193765 0.011016
vt 0.014135 0.181245
vt 0.185341 0.181423
vt 0.093489 0.251376
vt 0.325099 0.258834
vt 0.314354 0.423375
vt 0.257269 0.327842
vt 0.347130 0.443240
vt 0.347130 0.258834
vt 0.439038 0.327601
vt 0.011016 0.448539
vt 0.011016 0.273407
vt 0.083324 0.386860
vt 0.666949 0.304952
vt 0.663050 0.405701
vt 0.604896 0.334729
vt 0.325099 0.518297
vt 0.254020 0.501083
vt 0.434040 0.274653
vt 0.452320 0.472799
vt 0.040412 0.523580
vt 0.604896 0.228261
vt 0.387214 0.013230
vt 0.398326 0.086886
vt 0.337276 0.118344
vt 0.215796 0.011016
vt 0.215796 0.170261
vt 0.299132 0.236803
vt 0.215796 0.410264
vt 0.770649 0.647479
vt 0.717242 0.685747
vt 0.721755 0.611997
vt 0.532431 0.230243
vt 0.514018 0.184234
vt 0.577700 0.161687
vt 0.791950 0.572859
vt 0.192490 0.316516
vt 0.192490 0.414106
vt 0.154581 0.335559
vt 0.152248 0.273407
vt 0.577700 0.236335
vt 0.611780 0.813679
vt 0.595627 0.712628
vt 0.645303 0.742017
vt 0.717242 0.564350
vt 0.126310 0.410086
vt 0.105354 0.330703
vt 0.658012 0.698242
vt 0.658012 0.831659
vt 0.335511 0.540327
vt 0.322011 0.608966
vt 0.284968 0.549614
vt 0.420357 0.161687
vt 0.491987 0.184213
vt 0.420357 0.236071
vt 0.264824 0.661127
vt 0.215796 0.637945
vt 0.239889 0.593863
vt 0.215796 0.557530
vt 0.486114 0.225343
vt 0.114517 0.605885
vt 0.060785 0.611651
vt 0.063552 0.558737
vt 0.102400 0.662223
vt 0.645709 0.519537
vt 0.595627 0.542319
vt 0.595627 0.488103
vt 0.697463 0.451874
vt 0.698630 0.505873
vt 0.120662 0.821519
vt 0.118834 0.745187
vt 0.181084 0.814386
vt 0.011015 0.545611
vt 0.855104 0.439113
vt 0.849646 0.508952
vt 0.819046 0.456692
vt 0.631301 0.427732
vt 0.122503 0.684254
vt 0.181084 0.705775
vt 0.014235 0.662223
vt 0.809107 0.542319
vt 0.809107 0.397421
vt 0.104463 0.847353
vt 0.181084 0.843550
vt 0.116993 0.911439
vt 0.545049 0.011015
vt 0.511988 0.121540
vt 0.459547 0.073971
vt 0.480803 0.011559
vt 0.420357 0.052205
vt 0.181084 0.920555
vt 0.420357 0.139656
vt 0.940389 0.858227
vt 0.921030 0.881841
vt 0.906426 0.853847
vt 0.940389 0.902306
vt 0.940254 0.819089
vt 0.948985 0.438400
vt 0.963330 0.397421
vt 0.978472 0.429848
vt 0.955941 0.479299
vt 0.906691 0.911077
vt 0.895787 0.882627
vt 0.311419 0.914444
vt 0.311419 0.968197
vt 0.288057 0.945593
vt 0.985584 0.409160
vt 0.985584 0.462913
vt 0.260634 0.927694
vt 0.252261 0.954942
vt 0.215796 0.914444
vt 0.282665 0.917759
vt 0.914741 0.729453
vt 0.938754 0.714234
vt 0.920760 0.762286
vt 0.011016 0.952882
vt 0.032965 0.931736
vt 0.032965 0.980742
vt 0.260634 0.984363
vt 0.225259 0.958406
vt 0.959407 0.707778
vt 0.956047 0.743904
vt 0.959407 0.792304
vt 0.698366 0.080188
vt 0.767078 0.129849
vt 0.692130 0.142783
vt 0.770262 0.053678
vt 0.688980 0.293009
vt 0.744377 0.228261
vt 0.729209 0.289438
vt 0.688980 0.357837
vt 0.692130 0.011015
vt 0.926601 0.242209
vt 0.926601 0.324684
vt 0.875356 0.276460
vt 0.889329 0.011016
vt 0.939206 0.083742
vt 0.889329 0.098915
vt 0.772403 0.294722
vt 0.755139 0.353197
vt 0.366030 0.740127
vt 0.358282 0.649316
vt 0.396400 0.692344
vt 0.876257 0.228261
vt 0.562032 0.725317
vt 0.479791 0.694346
vt 0.556137 0.658238
vt 0.425264 0.649316
vt 0.433296 0.749015
vt 0.474351 0.649580
vt 0.520377 0.644684
vt 0.562032 0.599082
vt 0.452320 0.696981
vt 0.867298 0.096510
vt 0.841958 0.063883
vt 0.867298 0.011016
vt 0.849134 0.108442
vt 0.828366 0.144407
vt 0.844642 0.203450
vt 0.792293 0.203450
vt 0.296358 0.821228
vt 0.296358 0.892413
vt 0.271167 0.850938
vt 0.277974 0.808690
vt 0.792293 0.085226
vt 0.822811 0.019776
vt 0.813981 0.595247
vt 0.876053 0.564350
vt 0.876053 0.614189
vt 0.224115 0.883164
vt 0.215796 0.835794
vt 0.666280 0.167712
vt 0.701443 0.167712
vt 0.681178 0.206230
vt 0.828340 0.665081
vt 0.795973 0.122376
vt 0.873756 0.819089
vt 0.873756 0.896333
vt 0.813495 0.875431
vt 0.825210 0.824604
vt 0.871629 0.671172
vt 0.604896 0.161559
vt 0.644249 0.186495
vt 0.604896 0.206230
vt 0.832264 0.916406
s 0
f 1/1/1 2/2/1 3/3/1
f 2/4/2 1/5/2 6/6/2
f 1/1/3 3/3/3 4/7/3
f 1/8/4 4/9/4 5/10/4
f 1/8/5 5/10/5 6/11/5
f 2/4/6 6/6/6 11/12/6
f 3/13/7 2/14/7 7/15/7
f 4/7/8 3/3/8 8/16/8
f 5/10/9 4/9/9 9/17/9
f 6/11/10 5/10/10 10/18/10
f 2/14/11 11/19/11 7/15/11
f 3/13/12 7/15/12 8/20/12
f 4/21/13 8/22/13 9/23/13
f 5/10/14 9/17/14 10/18/14
f 6/24/15 10/25/15 11/26/15
f 7/15/16 11/19/16 12/27/16
f 8/20/17 7/15/17 12/27/17
f 9/23/18 8/22/18 12/28/18
f 10/29/19 9/23/19 12/28/19
f 11/26/20 10/25/20 12/30/20
f 13/31/21 14/32/21 15/33/21
f 14/32/22 13/31/22 18/34/22
f 13/35/23 15/36/23 16/37/23
f 13/31/24 16/38/24 17/39/24
f 13/31/25 17/39/25 18/34/25
f 14/40/26 18/41/26 23/42/26
f 15/43/27 14/44/27 19/45/27
f 16/37/28 15/36/28 20/46/28
f 17/47/29 16/48/29 21/49/29
f 18/41/30 17/50/30 22/51/30
f 14/44/31 23/52/31 19/45/31
f 15/53/32 19/54/32 20/55/32
f 16/56/33 20/55/33 21/57/33
f 17/47/34 21/49/34 22/58/34
f 18/41/35 22/51/35 23/42/35
f 19/59/36 23/42/36 24/60/36
f 20/55/37 19/54/37 24/61/37
f 21/57/38 20/55/38 24/61/38
f 22/51/39 21/62/39 24/60/39
f 23/42/40 22/51/40 24/60/40
f 25/63/41 26/64/41 27/65/41
f 26/64/42 25/63/42 30/66/42
f 25/67/43 27/68/43 28/69/43
f 25/67/44 28/69/44 29/70/44
f 25/63/45 29/71/45 30/66/45
f 26/64/46 30/66/46 35/72/46
f 27/73/47 26/74/47 31/75/47
f 28/76/48 27/77/48 32/78/48
f 29/79/49 28/80/49 33/81/49
f 30/82/50 29/79/50 34/83/50
f 26/74/51 35/84/51 31/75/51
f 27/73/52 31/75/52 32/85/52
f 28/76/53 32/78/53 33/86/53
f 29/79/54 33/81/54 34/83/54
f 30/87/55 34/88/55 35/89/55
f 31/90/56 35/89/56 36/91/56
f 32/85/57 31/75/57 36/92/57
f 33/86/58 32/78/58 36/93/58
f 34/88/59 33/94/59 36/91/59
f 35/89/60 34/88/60 36/91/60
f 37/95/61 38/96/61 39/97/61
f 38/98/62 37/99/62 42/100/62
f 37/99/63 39/101/63 40/102/63
f 37/99/64 40/102/64 41/103/64
f 37/99/65 41/103/65 42/100/65
f 38/104/66 42/105/66 47/106/66
f 39/97/67 38/96/67 43/107/67
f 40/108/68 39/109/68 44/110/68
f 41/103/69 40/102/69 45/111/69
f 42/100/70 41/103/70 46/112/70
f 38/113/71 47/114/71 43/115/71
f 39/109/72 43/116/72 44/110/72
f 40/108/73 44/110/73 45/117/73
f 41/103/74 45/111/74 46/112/74
f 42/105/75 46/118/75 47/106/75
f 43/115/76 47/114/76 48/119/76
f 44/120/77 43/121/77 48/122/77
f 45/123/78 44/120/78 48/122/78
f 46/124/79 45/123/79 48/122/79
f 47/106/80 46/118/80 48/125/80
f 49/126/81 50/127/81 51/128/81
f 50/127/82 49/126/82 54/129/82
f 49/126/83 51/128/83 52/130/83
f 49/126/84 52/130/84 53/131/84
f 49/126/85 53/131/85 54/129/85
f 50/132/86 54/133/86 59/134/86
f 51/135/87 50/136/87 55/137/87
f 52/138/88 51/139/88 56/140/88
f 53/141/89 52/142/89 57/143/89
f 54/133/90 53/144/90 58/145/90
f 50/136/91 59/146/91 55/137/91
f 51/135/92 55/137/92 56/147/92
f 52/138/93 56/140/93 57/148/93
f 53/141/94 57/143/94 58/149/94
f 54/133/95 58/145/95 59/134/95
f 55/150/96 59/151/96 60/152/96
f 56/153/97 55/150/97 60/152/97
f 57/154/98 56/153/98 60/152/98
f 58/155/99 57/154/99 60/152/99
f 59/134/100 58/145/100 60/156/100
f 61/157/101 62/158/101 63/159/101
f 62/160/102 61/161/102 66/162/102
f 61/157/103 63/159/103 64/163/103
f 61/164/104 64/165/104 65/166/104
f 61/164/105 65/166/105 66/167/105
f 62/160/106 66/162/106 71/168/106
f 63/169/107 62/170/107 67/171/107
f 64/163/108 63/159/108 68/172/108
f 65/166/109 64/165/109 69/173/109
f 66/167/110 65/166/110 70/174/110
f 62/170/111 71/175/111 67/171/111
f 63/169/112 67/171/112 68/176/112
f 64/177/113 68/178/113 69/179/113
f 65/166/114 69/173/114 70/174/114
f 66/180/115 70/181/115 71/182/115
f 67/183/116 71/184/116 72/185/116
f 68/178/117 67/183/117 72/185/117
f 69/179/118 68/178/118 72/185/118
f 70/186/119 69/179/119 72/185/119
f 71/182/120 70/181/120 72/187/120
f 73/188/121 74/189/121 75/190/121
f 74/189/122 73/188/122 78/191/122
f 73/192/123 75/193/123 76/194/123
f 73/192/124 76/194/124 77/195/124
f 73/192/125 77/195/125 78/196/125
f 74/197/126 78/198/126 83/199/126
f 75/190/127 74/189/127 79/200/127
f 76/201/128 75/202/128 80/203/128
f 77/195/129 76/194/129 81/204/129
f 78/198/130 77/205/130 82/206/130
f 74/189/131 83/207/131 79/200/131
f 75/202/132 79/208/132 80/203/132
f 76/201/133 80/203/133 81/209/133
f 77/210/134 81/211/134 82/212/134
f 78/198/135 82/206/135 83/199/135
f 79/213/136 83/214/136 84/215/136
f 80/216/137 79/213/137 84/215/137
f 81/217/138 80/216/138 84/215/138
f 82/212/139 81/211/139 84/218/139
f 83/214/140 82/219/140 84/215/140
f 85/220/141 86/221/141 87/222/141
f 86/221/142 85/220/142 90/223/142
f 85/220/143 87/222/143 88/224/143
f 85/225/144 88/226/144 89/227/144
f 85/225/145 89/227/145 90/228/145
f 86/221/146 90/223/146 95/229/146
f 87/222/147 86/221/147 91/230/147
f 88/231/148 87/232/148 92/233/148
f 89/227/149 88/226/149 93/234/149
f 90/228/150 89/227/150 94/235/150
f 86/221/151 95/229/151 91/230/151
f 87/236/152 91/237/152 92/238/152
f 88/231/153 92/233/153 93/239/153
f 89/240/154 93/241/154 94/242/154
f 90/243/155 94/244/155 95/245/155
f 91/237/156 95/246/156 96/247/156
f 92/238/157 91/237/157 96/247/157
f 93/241/158 92/248/158 96/249/158
f 94/242/159 93/241/159 96/249/159
f 95/250/160 94/242/160 96/249/160
f 97/251/161 98/252/161 99/253/161
f 98/252/162 97/251/162 102/254/162
f 97/255/163 99/256/163 100/257/163
f 97/255/164 100/257/164 101/258/164
f 97/251/165 101/259/165 102/254/165
f 98/260/166 102/261/166 107/262/166
f 99/263/167 98/264/167 103/265/167
f 100/257/168 99/256/168 104/266/168
f 101/258/169 100/257/169 105/267/169
f 102/268/170 101/269/170 106/270/170
f 98/260/171 107/262/171 103/271/171
f 99/272/172 103/273/172 104/274/172
f 100/257/173 104/266/173 105/267/173
f 101/269/174 105/275/174 106/270/174
f 102/268/175 106/270/175 107/276/175
f 103/273/176 107/277/176 108/278/176
f 104/274/177 103/273/177 108/278/177
f 105/279/178 104/274/178 108/278/178
f 106/270/179 105/275/179 108/280/179
f 107/276/180 106/270/180 108/280/180
f 109/281/181 110/282/181 111/283/181
f 110/282/182 109/281/182 114/284/182
f 109/285/183 111/286/183 112/287/183
f 109/288/184 112/289/184 113/290/184
f 109/288/185 113/290/185 114/291/185
f 110/282/186 114/284/186 119/292/186
f 111/283/187 110/282/187 115/293/187
f 112/294/188 111/295/188 116/296/188
f 113/290/189 112/289/189 117/297/189
f 114/291/190 113/290/190 118/298/190
f 110/282/191 119/292/191 115/293/191
f 111/299/192 115/300/192 116/301/192
f 112/294/193 116/296/193 117/302/193
f 113/290/194 117/297/194 118/298/194
f 114/284/195 118/303/195 119/292/195
f 115/304/196 119/305/196 120/306/196
f 116/307/197 115/304/197 120/306/197
f 117/302/198 116/296/198 120/308/198
f 118/309/199 117/310/199 120/311/199
f 119/305/200 118/312/200 120/306/200
