# Blender 5.2.0 LTS
# www.blender.org
o Brazier
v 0.000000 0.605000 0.000000
v 0.120000 0.615000 0.000000
v 0.110866 0.615000 -0.045922
v 0.084853 0.615000 -0.084853
v 0.045922 0.615000 -0.110866
v 0.000000 0.615000 -0.120000
v -0.045922 0.615000 -0.110866
v -0.084853 0.615000 -0.084853
v -0.110866 0.615000 -0.045922
v -0.120000 0.615000 -0.000000
v -0.110866 0.615000 0.045922
v -0.084853 0.615000 0.084853
v -0.045922 0.615000 0.110866
v -0.000000 0.615000 0.120000
v 0.045922 0.615000 0.110866
v 0.084853 0.615000 0.084853
v 0.110866 0.615000 0.045922
v 0.220000 0.645000 0.000000
v 0.203253 0.645000 -0.084190
v 0.155563 0.645000 -0.155563
v 0.084190 0.645000 -0.203253
v 0.000000 0.645000 -0.220000
v -0.084190 0.645000 -0.203253
v -0.155563 0.645000 -0.155563
v -0.203253 0.645000 -0.084190
v -0.220000 0.645000 -0.000000
v -0.203253 0.645000 0.084190
v -0.155563 0.645000 0.155563
v -0.084190 0.645000 0.203253
v -0.000000 0.645000 0.220000
v 0.084190 0.645000 0.203253
v 0.155563 0.645000 0.155563
v 0.203253 0.645000 0.084190
v 0.310000 0.695000 0.000000
v 0.286403 0.695000 -0.118632
v 0.219203 0.695000 -0.219203
v 0.118632 0.695000 -0.286403
v 0.000000 0.695000 -0.310000
v -0.118632 0.695000 -0.286403
v -0.219203 0.695000 -0.219203
v -0.286403 0.695000 -0.118632
v -0.310000 0.695000 -0.000000
v -0.286403 0.695000 0.118632
v -0.219203 0.695000 0.219203
v -0.118632 0.695000 0.286403
v -0.000000 0.695000 0.310000
v 0.118632 0.695000 0.286403
v 0.219203 0.695000 0.219203
v 0.286403 0.695000 0.118632
v 0.365000 0.745000 0.000000
v 0.337216 0.745000 -0.139679
v 0.258094 0.745000 -0.258094
v 0.139679 0.745000 -0.337216
v 0.000000 0.745000 -0.365000
v -0.139679 0.745000 -0.337216
v -0.258094 0.745000 -0.258094
v -0.337216 0.745000 -0.139679
v -0.365000 0.745000 -0.000000
v -0.337216 0.745000 0.139679
v -0.258094 0.745000 0.258094
v -0.139679 0.745000 0.337216
v -0.000000 0.745000 0.365000
v 0.139679 0.745000 0.337216
v 0.258094 0.745000 0.258094
v 0.337216 0.745000 0.139679
v 0.350000 0.715000 0.000000
v 0.323358 0.715000 -0.133939
v 0.247487 0.715000 -0.247487
v 0.133939 0.715000 -0.323358
v 0.000000 0.715000 -0.350000
v -0.133939 0.715000 -0.323358
v -0.247487 0.715000 -0.247487
v -0.323358 0.715000 -0.133939
v -0.350000 0.715000 -0.000000
v -0.323358 0.715000 0.133939
v -0.247487 0.715000 0.247487
v -0.133939 0.715000 0.323358
v -0.000000 0.715000 0.350000
v 0.133939 0.715000 0.323358
v 0.247487 0.715000 0.247487
v 0.323358 0.715000 0.133939
v 0.310000 0.660000 0.000000
v 0.286403 0.660000 -0.118632
v 0.219203 0.660000 -0.219203
v 0.118632 0.660000 -0.286403
v 0.000000 0.660000 -0.310000
v -0.118632 0.660000 -0.286403
v -0.219203 0.660000 -0.219203
v -0.286403 0.660000 -0.118632
v -0.310000 0.660000 -0.000000
v -0.286403 0.660000 0.118632
v -0.219203 0.660000 0.219203
v -0.118632 0.660000 0.286403
v -0.000000 0.660000 0.310000
v 0.118632 0.660000 0.286403
v 0.219203 0.660000 0.219203
v 0.286403 0.660000 0.118632
v 0.220000 0.600000 0.000000
v 0.203253 0.600000 -0.084190
v 0.155563 0.600000 -0.155563
v 0.084190 0.600000 -0.203253
v 0.000000 0.600000 -0.220000
v -0.084190 0.600000 -0.203253
v -0.155563 0.600000 -0.155563
v -0.203253 0.600000 -0.084190
v -0.220000 0.600000 -0.000000
v -0.203253 0.600000 0.084190
v -0.155563 0.600000 0.155563
v -0.084190 0.600000 0.203253
v -0.000000 0.600000 0.220000
v 0.084190 0.600000 0.203253
v 0.155563 0.600000 0.155563
v 0.203253 0.600000 0.084190
v 0.130000 0.555000 0.000000
v 0.120104 0.555000 -0.049749
v 0.091924 0.555000 -0.091924
v 0.049749 0.555000 -0.120104
v 0.000000 0.555000 -0.130000
v -0.049749 0.555000 -0.120104
v -0.091924 0.555000 -0.091924
v -0.120104 0.555000 -0.049749
v -0.130000 0.555000 -0.000000
v -0.120104 0.555000 0.049749
v -0.091924 0.555000 0.091924
v -0.049749 0.555000 0.120104
v -0.000000 0.555000 0.130000
v 0.049749 0.555000 0.120104
v 0.091924 0.555000 0.091924
v 0.120104 0.555000 0.049749
v 0.000000 0.550000 0.000000
v -0.027500 -0.006338 -0.208240
v -0.027500 0.563662 -0.073240
v -0.027500 0.006338 -0.261760
v -0.027500 0.576338 -0.126760
v 0.027500 -0.006338 -0.208240
v 0.027500 0.563662 -0.073240
v 0.027500 0.006338 -0.261760
v 0.027500 0.576338 -0.126760
v -0.166591 -0.006338 0.127936
v -0.049678 0.563662 0.060436
v -0.212941 0.006338 0.154696
v -0.096027 0.576338 0.087196
v -0.194091 -0.006338 0.080304
v -0.077178 0.563662 0.012804
v -0.240441 0.006338 0.107064
v -0.123527 0.576338 0.039564
v 0.194091 -0.006338 0.080304
v 0.077178 0.563662 0.012804
v 0.240441 0.006338 0.107064
v 0.123527 0.576338 0.039564
v 0.166591 -0.006338 0.127936
v 0.049678 0.563662 0.060436
v 0.212941 0.006338 0.154696
v 0.096027 0.576338 0.087196
v 0.000000 0.499200 0.000000
v 0.173666 0.554920 0.126174
v -0.066333 0.554920 0.204156
v -0.214662 0.554921 0.000000
v -0.066333 0.554920 -0.204156
v 0.173666 0.554920 -0.126174
v 0.066333 0.645080 0.204156
v -0.173666 0.645080 0.126174
v -0.173666 0.645080 -0.126174
v 0.066333 0.645080 -0.204156
v 0.214662 0.645079 0.000000
v 0.000000 0.700800 0.000000
v -0.038989 0.514254 0.119999
v 0.102077 0.514254 0.074163
v 0.063089 0.547006 0.194163
v 0.204155 0.547006 0.000000
v 0.102077 0.514254 -0.074163
v -0.126175 0.514254 0.000000
v -0.165165 0.547006 0.119999
v -0.038989 0.514254 -0.119999
v -0.165165 0.547006 -0.119999
v 0.063089 0.547006 -0.194163
v 0.228254 0.600000 0.074163
v 0.228254 0.600000 -0.074163
v 0.000000 0.600000 0.240000
v 0.141069 0.600000 0.194164
v -0.228254 0.600000 0.074163
v -0.141069 0.600000 0.194164
v -0.141069 0.600000 -0.194164
v -0.228254 0.600000 -0.074163
v 0.141069 0.600000 -0.194164
v 0.000000 0.600000 -0.240000
v 0.165165 0.652994 0.119999
v -0.063089 0.652994 0.194163
v -0.204155 0.652994 0.000000
v -0.063089 0.652994 -0.194163
v 0.165165 0.652994 -0.119999
v 0.038989 0.685746 0.119999
v 0.126175 0.685746 0.000000
v -0.102077 0.685746 0.074163
v -0.102077 0.685746 -0.074163
v 0.038989 0.685746 -0.119999
vn -0.0000 1.0000 -0.0000
vn -0.1987 0.9801 -0.0000
vn -0.1836 0.9801 0.0760
vn -0.1405 0.9801 0.1405
vn -0.0760 0.9801 0.1836
vn -0.0000 0.9801 0.1987
vn 0.0760 0.9801 0.1836
vn 0.1405 0.9801 0.1405
vn 0.1836 0.9801 0.0760
vn 0.1987 0.9801 -0.0000
vn 0.1836 0.9801 -0.0760
vn 0.1405 0.9801 -0.1405
vn 0.0760 0.9801 -0.1836
vn -0.0000 0.9801 -0.1987
vn -0.0760 0.9801 -0.1836
vn -0.1405 0.9801 -0.1405
vn -0.1836 0.9801 -0.0760
vn -0.3696 0.9165 0.1531
vn -0.2829 0.9165 0.2829
vn -0.1531 0.9165 0.3696
vn 0.1531 0.9165 0.3696
vn 0.2829 0.9165 0.2829
vn 0.3696 0.9165 0.1531
vn 0.3696 0.9165 -0.1531
vn 0.2829 0.9165 -0.2829
vn 0.1531 0.9165 -0.3696
vn -0.1531 0.9165 -0.3696
vn -0.2829 0.9165 -0.2829
vn -0.3696 0.9165 -0.1531
vn -0.4000 0.9165 -0.0000
vn -0.5473 0.8057 0.2267
vn -0.2267 0.8057 0.5473
vn -0.0000 0.9165 0.4000
vn 0.2267 0.8057 0.5473
vn 0.5473 0.8057 0.2267
vn 0.4000 0.9165 -0.0000
vn 0.5473 0.8057 -0.2267
vn 0.2267 0.8057 -0.5473
vn -0.0000 0.9165 -0.4000
vn -0.2267 0.8057 -0.5473
vn -0.5473 0.8057 -0.2267
vn -0.6727 0.7399 -0.0000
vn -0.5924 0.8057 -0.0000
vn -0.4757 0.7399 0.4757
vn -0.4189 0.8057 0.4189
vn -0.2574 0.7399 0.6215
vn -0.0000 0.8057 0.5924
vn -0.0000 0.7399 0.6727
vn 0.4757 0.7399 0.4757
vn 0.4189 0.8057 0.4189
vn 0.6215 0.7399 0.2574
vn 0.5924 0.8057 -0.0000
vn 0.6727 0.7399 -0.0000
vn 0.4757 0.7399 -0.4757
vn 0.4189 0.8057 -0.4189
vn 0.2574 0.7399 -0.6215
vn -0.0000 0.8057 -0.5924
vn -0.0000 0.7399 -0.6727
vn -0.4757 0.7399 -0.4757
vn -0.4189 0.8057 -0.4189
vn -0.6215 0.7399 -0.2574
vn 0.8572 -0.5150 -0.0000
vn 0.8263 -0.4472 -0.3423
vn 0.8944 -0.4472 -0.0000
vn 0.7920 -0.5150 -0.3280
vn 0.6325 -0.4472 -0.6325
vn 0.3280 -0.5150 -0.7920
vn 0.3423 -0.4472 -0.8263
vn -0.0000 -0.4472 -0.8944
vn -0.0000 -0.5150 -0.8572
vn -0.3423 -0.4472 -0.8263
vn -0.3280 -0.5150 -0.7920
vn -0.6325 -0.4472 -0.6325
vn -0.7920 -0.5150 -0.3280
vn -0.8263 -0.4472 -0.3423
vn -0.8944 -0.4472 -0.0000
vn -0.8572 -0.5150 -0.0000
vn -0.8263 -0.4472 0.3423
vn -0.7920 -0.5150 0.3280
vn -0.6325 -0.4472 0.6325
vn -0.3280 -0.5150 0.7920
vn -0.3423 -0.4472 0.8263
vn -0.0000 -0.4472 0.8944
vn -0.0000 -0.5150 0.8572
vn 0.3423 -0.4472 0.8263
vn 0.3280 -0.5150 0.7920
vn 0.6325 -0.4472 0.6325
vn 0.7920 -0.5150 0.3280
vn 0.8263 -0.4472 0.3423
vn 0.7036 -0.7106 -0.0000
vn 0.6501 -0.7106 -0.2693
vn 0.6061 -0.5150 -0.6061
vn 0.4975 -0.7106 -0.4975
vn 0.2693 -0.7106 -0.6501
vn -0.0000 -0.7106 -0.7036
vn -0.2693 -0.7106 -0.6501
vn -0.6061 -0.5150 -0.6061
vn -0.4975 -0.7106 -0.4975
vn -0.6501 -0.7106 -0.2693
vn -0.7036 -0.7106 -0.0000
vn -0.6501 -0.7106 0.2693
vn -0.6061 -0.5150 0.6061
vn -0.4975 -0.7106 0.4975
vn -0.2693 -0.7106 0.6501
vn -0.0000 -0.7106 0.7036
vn 0.2693 -0.7106 0.6501
vn 0.6061 -0.5150 0.6061
vn 0.4975 -0.7106 0.4975
vn 0.6501 -0.7106 0.2693
vn 0.5077 -0.8615 -0.0000
vn 0.4690 -0.8615 -0.1943
vn 0.3590 -0.8615 -0.3590
vn -0.0000 -0.8615 -0.5077
vn -0.1943 -0.8615 -0.4690
vn -0.3590 -0.8615 -0.3590
vn -0.5077 -0.8615 -0.0000
vn -0.4690 -0.8615 0.1943
vn -0.3590 -0.8615 0.3590
vn -0.0000 -0.8615 0.5077
vn 0.1943 -0.8615 0.4690
vn 0.3590 -0.8615 0.3590
vn 0.2728 -0.9621 -0.0000
vn 0.2521 -0.9621 -0.1044
vn 0.1929 -0.9621 -0.1929
vn 0.1943 -0.8615 -0.4690
vn 0.1044 -0.9621 -0.2521
vn -0.0000 -0.9621 -0.2728
vn -0.1044 -0.9621 -0.2521
vn -0.1929 -0.9621 -0.1929
vn -0.4690 -0.8615 -0.1943
vn -0.2521 -0.9621 -0.1044
vn -0.2728 -0.9621 -0.0000
vn -0.2521 -0.9621 0.1044
vn -0.1929 -0.9621 0.1929
vn -0.1943 -0.8615 0.4690
vn -0.1044 -0.9621 0.2521
vn -0.0000 -0.9621 0.2728
vn 0.1044 -0.9621 0.2521
vn 0.1929 -0.9621 0.1929
vn 0.4690 -0.8615 0.1943
vn 0.2521 -0.9621 0.1044
vn -0.0000 -1.0000 -0.0000
vn -1.0000 -0.0000 -0.0000
vn -0.0000 0.2305 -0.9731
vn 1.0000 -0.0000 -0.0000
vn -0.0000 -0.2305 0.9731
vn -0.0000 -0.9731 -0.2305
vn -0.0000 0.9731 0.2305
vn 0.5000 -0.0000 0.8660
vn -0.8427 0.2305 0.4865
vn -0.5000 -0.0000 -0.8660
vn 0.8427 -0.2305 -0.4865
vn -0.1996 -0.9731 0.1152
vn 0.1996 0.9731 -0.1152
vn 0.5000 -0.0000 -0.8660
vn 0.8427 0.2305 0.4865
vn -0.5000 -0.0000 0.8660
vn -0.8427 -0.2305 -0.4865
vn 0.1996 -0.9731 0.1152
vn -0.1996 0.9731 -0.1152
vn 0.2237 -0.9610 0.1625
vn -0.0854 -0.9610 0.2630
vn 0.5948 -0.6779 0.4321
vn 0.6604 -0.7509 -0.0000
vn -0.2765 -0.9610 -0.0000
vn -0.0854 -0.9610 -0.2630
vn 0.2237 -0.9610 -0.1625
vn 0.8104 -0.5329 0.2434
vn -0.2272 -0.6779 0.6992
vn 0.2041 -0.7509 0.6281
vn 0.0190 -0.5329 0.8460
vn -0.7352 -0.6779 -0.0000
vn -0.5343 -0.7509 0.3882
vn -0.7987 -0.5329 0.2795
vn -0.2272 -0.6779 -0.6992
vn -0.5343 -0.7509 -0.3882
vn -0.5126 -0.5329 -0.6732
vn 0.5948 -0.6779 -0.4321
vn 0.2041 -0.7509 -0.6281
vn 0.4819 -0.5329 -0.6955
vn 0.4819 -0.5329 0.6955
vn -0.5126 -0.5329 0.6732
vn -0.7987 -0.5329 -0.2795
vn 0.0190 -0.5329 -0.8460
vn 0.8104 -0.5329 -0.2434
vn 0.2272 0.6779 0.6992
vn 0.5343 0.7509 0.3882
vn 0.0854 0.9610 0.2630
vn -0.5948 0.6779 0.4321
vn -0.2041 0.7509 0.6281
vn -0.2237 0.9610 0.1625
vn -0.5948 0.6779 -0.4321
vn -0.6604 0.7509 -0.0000
vn -0.2237 0.9610 -0.1625
vn 0.2272 0.6779 -0.6992
vn -0.2041 0.7509 -0.6281
vn 0.0854 0.9610 -0.2630
vn 0.7352 0.6779 -0.0000
vn 0.5343 0.7509 -0.3882
vn 0.2765 0.9610 -0.0000
vn 0.7987 0.5329 -0.2795
vn 0.5126 0.5329 -0.6732
vn -0.0190 0.5329 -0.8460
vn -0.4819 0.5329 -0.6955
vn -0.8104 0.5329 -0.2434
vn -0.8104 0.5329 0.2434
vn -0.4819 0.5329 0.6955
vn -0.0190 0.5329 0.8460
vn 0.5126 0.5329 0.6732
vn 0.7987 0.5329 0.2795
vn -0.6215 0.7399 0.2574
vn 0.2574 0.7399 0.6215
vn 0.6215 0.7399 -0.2574
vn -0.2574 0.7399 -0.6215
vt 0.212126 0.210752
vt 0.198697 0.277204
vt 0.174260 0.267076
vt 0.155561 0.248362
vt 0.145447 0.223912
vt 0.145458 0.197447
vt 0.155591 0.172996
vt 0.174305 0.154283
vt 0.198750 0.144155
vt 0.225204 0.144155
vt 0.249641 0.154283
vt 0.268340 0.172996
vt 0.278454 0.197447
vt 0.278443 0.223912
vt 0.268310 0.248362
vt 0.249596 0.267076
vt 0.225151 0.277204
vt 0.142325 0.313855
vt 0.108044 0.279547
vt 0.089501 0.234721
vt 0.108099 0.141375
vt 0.142407 0.107067
vt 0.187223 0.088500
vt 0.280523 0.107067
vt 0.314804 0.141375
vt 0.333347 0.186201
vt 0.314749 0.279547
vt 0.280441 0.313855
vt 0.235625 0.332423
vt 0.187125 0.332423
vt 0.113179 0.355789
vt 0.038747 0.244281
vt 0.089521 0.186201
vt 0.064952 0.112749
vt 0.176445 0.038242
vt 0.235723 0.088500
vt 0.307914 0.064406
vt 0.382346 0.175913
vt 0.333327 0.234721
vt 0.660674 0.517312
vt 0.716974 0.569168
vt 0.665239 0.565546
vt 0.659301 0.611926
vt 0.244648 0.381952
vt 0.169355 0.412079
vt 0.176307 0.381952
vt 0.038152 0.324353
vt 0.064874 0.307445
vt 0.007388 0.249983
vt 0.038774 0.175913
vt 0.007421 0.169485
vt 0.095164 0.038194
vt 0.113296 0.064406
vt 0.169517 0.007388
vt 0.244786 0.038242
vt 0.249983 0.007388
vt 0.381186 0.095114
vt 0.356219 0.112749
vt 0.689828 0.368901
vt 0.690290 0.440972
vt 0.659301 0.397647
vt 0.726315 0.419913
vt 0.710542 0.501202
vt 0.750160 0.490830
vt 0.747882 0.647804
vt 0.708606 0.634523
vt 0.686714 0.687316
vt 0.249821 0.412079
vt 0.763955 0.153480
vt 0.777089 0.074073
vt 0.782028 0.152915
vt 0.759219 0.077878
vt 0.767962 0.007388
vt 0.462618 0.015948
vt 0.436669 0.083043
vt 0.420122 0.077332
vt 0.397123 0.153749
vt 0.414615 0.156319
vt 0.397123 0.233564
vt 0.414615 0.232854
vt 0.420122 0.304626
vt 0.783132 0.368901
vt 0.793927 0.439358
vt 0.776240 0.435694
vt 0.772510 0.514586
vt 0.790351 0.515007
vt 0.772510 0.593566
vt 0.790351 0.590741
vt 0.776240 0.660609
vt 0.152019 0.734680
vt 0.150670 0.664523
vt 0.169339 0.667768
vt 0.175421 0.588819
vt 0.156502 0.588818
vt 0.169339 0.509852
vt 0.150670 0.513097
vt 0.152019 0.442891
vt 0.777089 0.299036
vt 0.763955 0.229230
vt 0.782028 0.231911
vt 0.729712 0.154552
vt 0.725517 0.087590
vt 0.750468 0.013935
vt 0.507482 0.044760
vt 0.477418 0.024181
vt 0.471390 0.096895
vt 0.451857 0.161797
vt 0.451857 0.229585
vt 0.436669 0.300997
vt 0.832918 0.392068
vt 0.800536 0.375310
vt 0.827065 0.448796
vt 0.823897 0.515800
vt 0.823897 0.582879
vt 0.793927 0.655030
vt 0.099206 0.712695
vt 0.134062 0.728685
vt 0.113916 0.655865
vt 0.119081 0.588813
vt 0.113916 0.521745
vt 0.134062 0.448887
vt 0.725517 0.278654
vt 0.759219 0.293596
vt 0.729712 0.221645
vt 0.620839 0.061028
vt 0.554639 0.013330
vt 0.605682 0.007388
vt 0.584616 0.065244
vt 0.551149 0.087550
vt 0.511673 0.170608
vt 0.511673 0.218716
vt 0.471390 0.289939
vt 0.525535 0.261548
vt 0.507482 0.333672
vt 0.584616 0.307098
vt 0.554639 0.354124
vt 0.863605 0.516738
vt 0.038381 0.703645
vt 0.077190 0.750650
vt 0.054004 0.676709
vt 0.068110 0.588793
vt 0.064444 0.541196
vt 0.099206 0.464874
vt 0.054004 0.500836
vt 0.077190 0.426856
vt 0.688234 0.155850
vt 0.630355 0.113840
vt 0.608950 0.116332
vt 0.589175 0.129512
vt 0.525535 0.124548
vt 0.574039 0.151375
vt 0.565848 0.178592
vt 0.565848 0.207019
vt 0.574039 0.232329
vt 0.551149 0.292584
vt 0.589175 0.250669
vt 0.608950 0.259246
vt 0.620839 0.302882
vt 0.007389 0.656638
vt 0.016621 0.640721
vt 0.064444 0.636378
vt 0.022790 0.616889
vt 0.024956 0.588770
vt 0.022790 0.560645
vt 0.016621 0.536796
vt 0.038381 0.473855
vt 0.650131 0.122417
vt 0.654305 0.075542
vt 0.621533 0.186819
vt 0.630355 0.256754
vt 0.650131 0.243574
vt 0.665266 0.221711
vt 0.673457 0.194494
vt 0.673457 0.166066
vt 0.665266 0.140756
vt 0.873688 0.336292
vt 0.904767 0.007487
vt 0.904767 0.336391
vt 0.596650 0.634012
vt 0.626899 0.941348
vt 0.596650 0.943881
vt 0.878382 0.369076
vt 0.909452 0.696121
vt 0.878382 0.696295
vt 0.919544 0.007388
vt 0.950634 0.334012
vt 0.919544 0.334009
vt 0.034598 0.796527
vt 0.007388 0.765427
vt 0.034598 0.765436
vt 0.688234 0.313812
vt 0.718707 0.344943
vt 0.688234 0.344902
vt 0.231394 0.682869
vt 0.259754 0.966664
vt 0.231394 0.972817
vt 0.966033 0.688404
vt 0.992535 0.368901
vt 0.992535 0.683303
vt 0.317651 0.676716
vt 0.348582 0.946514
vt 0.317651 0.944667
vt 0.924229 0.368901
vt 0.951256 0.700379
vt 0.924229 0.699702
vt 0.771304 0.351169
vt 0.794339 0.313812
vt 0.794339 0.340787
vt 0.689475 0.724740
vt 0.659301 0.756053
vt 0.659301 0.724978
vt 0.878382 0.723731
vt 0.903156 0.955725
vt 0.878382 0.968383
vt 0.190198 0.986872
vt 0.216617 0.682456
vt 0.216617 0.992611
vt 0.274531 0.676716
vt 0.302874 0.972794
vt 0.274531 0.966620
vt 0.965411 0.008668
vt 0.992369 0.337379
vt 0.965411 0.338659
vt 0.733484 0.340769
vt 0.756527 0.324213
vt 0.756527 0.351169
vt 0.704252 0.724740
vt 0.734339 0.756018
vt 0.704252 0.755820
vt 0.328133 0.543528
vt 0.359438 0.488870
vt 0.370012 0.570211
vt 0.370012 0.449326
vt 0.322354 0.426856
vt 0.314846 0.613840
vt 0.270179 0.559462
vt 0.297739 0.482226
vt 0.826503 0.713820
vt 0.828210 0.785143
vt 0.796483 0.743220
vt 0.453107 0.684070
vt 0.450238 0.757447
vt 0.417331 0.717356
vt 0.804570 0.117145
vt 0.796805 0.049312
vt 0.830785 0.075222
vt 0.218154 0.569425
vt 0.250202 0.629063
vt 0.200771 0.610065
vt 0.265042 0.438024
vt 0.233095 0.497448
vt 0.217757 0.451486
vt 0.804237 0.675386
vt 0.437238 0.639504
vt 0.830785 0.159068
vt 0.190198 0.528723
vt 0.826503 0.856467
vt 0.804237 0.894900
vt 0.796483 0.827066
vt 0.523001 0.604963
vt 0.457519 0.571711
vt 0.526824 0.554348
vt 0.644524 0.530295
vt 0.592783 0.582153
vt 0.598253 0.510460
vt 0.611029 0.391716
vt 0.644524 0.456810
vt 0.578566 0.429005
vt 0.468806 0.380735
vt 0.541240 0.368901
vt 0.494969 0.422551
vt 0.414401 0.512530
vt 0.425664 0.439914
vt 0.462990 0.500017
vt 0.532309 0.482990
vt 0.397123 0.474462
vt 0.772510 0.852976
vt 0.532529 0.850790
vt 0.543559 0.811128
vt 0.581874 0.851655
vt 0.505258 0.781257
vt 0.537748 0.739147
vt 0.505258 0.697488
vt 0.543559 0.668612
vt 0.532530 0.631479
vt 0.581874 0.632344
vt 0.858911 0.117145
vt 0.852422 0.045822
vt 0.635672 0.572813
vt 0.404332 0.679799
vt 0.564242 0.616702
vt 0.480645 0.610248
vt 0.772510 0.717310
vt 0.416811 0.555916
vt 0.824931 0.226902
vt 0.796805 0.184978
vt 0.824931 0.007388
vt 0.482448 0.631479
vt 0.417331 0.797742
vt 0.397123 0.752624
vt 0.453107 0.820830
vt 0.772527 0.785143
vt 0.294147 0.661940
vt 0.350035 0.639812
vt 0.490481 0.704372
vt 0.490481 0.784757
vt 0.382319 0.244282
vt 0.307797 0.355789
vt 0.095027 0.381274
vt 0.038243 0.095114
vt 0.324311 0.038194
vt 0.757733 0.570854
vt 0.722105 0.709963
vt 0.717766 0.030954
vt 0.827065 0.639820
vt 0.863605 0.564342
vt 0.688234 0.203464
vt 0.007388 0.520853
vt 0.873688 0.007388
vt 0.626899 0.631479
vt 0.909452 0.368901
vt 0.950634 0.007392
vt 0.007388 0.796518
vt 0.718707 0.313853
vt 0.259754 0.676716
vt 0.966033 0.374001
vt 0.348582 0.678563
vt 0.951256 0.369578
vt 0.771304 0.324195
vt 0.689475 0.755814
vt 0.903156 0.711072
vt 0.190198 0.676716
vt 0.302874 0.682891
vt 0.992369 0.007388
vt 0.733484 0.313812
vt 0.734339 0.724938
s 1
f 1/1/1 2/2/2 3/3/3
f 1/1/1 3/3/3 4/4/4
f 1/1/1 4/4/4 5/5/5
f 1/1/1 5/5/5 6/6/6
f 1/1/1 6/6/6 7/7/7
f 1/1/1 7/7/7 8/8/8
f 1/1/1 8/8/8 9/9/9
f 1/1/1 9/9/9 10/10/10
f 1/1/1 10/10/10 11/11/11
f 1/1/1 11/11/11 12/12/12
f 1/1/1 12/12/12 13/13/13
f 1/1/1 13/13/13 14/14/14
f 1/1/1 14/14/14 15/15/15
f 1/1/1 15/15/15 16/16/16
f 1/1/1 16/16/16 17/17/17
f 1/1/1 17/17/17 2/2/2
f 2/2/2 19/18/18 3/3/3
f 19/18/18 4/4/4 3/3/3
f 20/19/19 5/5/5 4/4/4
f 21/20/20 6/6/6 5/5/5
f 6/6/6 23/21/21 7/7/7
f 23/21/21 8/8/8 7/7/7
f 24/22/22 9/9/9 8/8/8
f 25/23/23 10/10/10 9/9/9
f 10/10/10 27/24/24 11/11/11
f 27/24/24 12/12/12 11/11/11
f 28/25/25 13/13/13 12/12/12
f 29/26/26 14/14/14 13/13/13
f 14/14/14 31/27/27 15/15/15
f 31/27/27 16/16/16 15/15/15
f 32/28/28 17/17/17 16/16/16
f 33/29/29 2/2/2 17/17/17
f 18/30/30 35/31/31 19/18/18
f 35/31/31 20/19/19 19/18/18
f 20/19/19 37/32/32 21/20/20
f 37/32/32 22/33/33 21/20/20
f 22/33/33 39/34/34 23/21/21
f 39/34/34 24/22/22 23/21/21
f 24/22/22 41/35/35 25/23/23
f 41/35/35 26/36/36 25/23/23
f 26/36/36 43/37/37 27/24/24
f 43/37/37 28/25/25 27/24/24
f 28/25/25 45/38/38 29/26/26
f 45/38/38 30/39/39 29/26/26
f 30/40/39 47/41/40 31/42/27
f 47/41/40 32/43/28 31/42/27
f 32/28/28 49/44/41 33/29/29
f 49/44/41 18/30/30 33/29/29
f 50/45/42 35/31/31 34/46/43
f 35/31/31 52/47/44 36/48/45
f 52/47/44 37/32/32 36/48/45
f 53/49/46 38/50/47 37/32/32
f 54/51/48 39/34/34 38/50/47
f 39/34/34 56/52/49 40/53/50
f 56/52/49 41/35/35 40/53/50
f 57/54/51 42/55/52 41/35/35
f 58/56/53 43/37/37 42/55/52
f 43/37/37 60/57/54 44/58/55
f 60/59/54 45/60/38 44/61/55
f 61/62/56 46/63/57 45/60/38
f 62/64/58 47/41/40 46/63/57
f 47/41/40 64/65/59 48/66/60
f 64/65/59 49/67/41 48/66/60
f 65/68/61 34/46/43 49/44/41
f 66/69/62 51/70/63 50/71/64
f 67/72/65 52/73/66 51/70/63
f 52/74/66 69/75/67 53/76/68
f 69/75/67 54/77/69 53/76/68
f 70/78/70 55/79/71 54/77/69
f 71/80/72 56/81/73 55/79/71
f 56/82/73 73/83/74 57/84/75
f 73/83/74 58/85/76 57/84/75
f 74/86/77 59/87/78 58/85/76
f 75/88/79 60/89/80 59/87/78
f 60/90/80 77/91/81 61/92/82
f 77/91/81 62/93/83 61/92/82
f 78/94/84 63/95/85 62/93/83
f 79/96/86 64/97/87 63/95/85
f 64/98/87 81/99/88 65/100/89
f 81/99/88 50/71/64 65/100/89
f 82/101/90 67/72/65 66/69/62
f 83/102/91 68/103/92 67/72/65
f 84/104/93 69/75/67 68/105/92
f 85/106/94 70/78/70 69/75/67
f 86/107/95 71/80/72 70/78/70
f 87/108/96 72/109/97 71/80/72
f 88/110/98 73/83/74 72/111/97
f 89/112/99 74/86/77 73/83/74
f 90/113/100 75/88/79 74/86/77
f 91/114/101 76/115/102 75/88/79
f 92/116/103 77/91/81 76/117/102
f 93/118/104 78/94/84 77/91/81
f 94/119/105 79/96/86 78/94/84
f 95/120/106 80/121/107 79/96/86
f 96/122/108 81/99/88 80/123/107
f 97/124/109 66/69/62 81/99/88
f 98/125/110 83/126/91 82/127/90
f 99/128/111 84/104/93 83/126/91
f 100/129/112 85/106/94 84/104/93
f 85/106/94 102/130/113 86/107/95
f 102/130/113 87/108/96 86/107/95
f 103/131/114 88/132/98 87/108/96
f 104/133/115 89/134/99 88/132/98
f 89/134/99 106/135/116 90/136/100
f 106/137/116 91/114/101 90/113/100
f 107/138/117 92/116/103 91/139/101
f 108/140/118 93/118/104 92/116/103
f 93/118/104 110/141/119 94/119/105
f 110/141/119 95/120/106 94/119/105
f 111/142/120 96/143/108 95/120/106
f 112/144/121 97/145/109 96/143/108
f 97/124/109 98/146/110 82/101/90
f 114/147/122 99/128/111 98/125/110
f 115/148/123 100/129/112 99/128/111
f 116/149/124 101/150/125 100/129/112
f 117/151/126 102/130/113 101/150/125
f 118/152/127 103/131/114 102/130/113
f 119/153/128 104/133/115 103/131/114
f 120/154/129 105/155/130 104/133/115
f 121/156/131 106/135/116 105/155/130
f 122/157/132 107/158/117 106/135/116
f 123/159/133 108/140/118 107/138/117
f 124/160/134 109/161/135 108/140/118
f 125/162/136 110/141/119 109/161/135
f 126/163/137 111/142/120 110/141/119
f 127/164/138 112/144/121 111/142/120
f 128/165/139 113/166/140 112/144/121
f 129/167/141 98/125/110 113/168/140
f 114/147/122 130/169/142 115/148/123
f 115/148/123 130/169/142 116/149/124
f 116/149/124 130/169/142 117/151/126
f 117/151/126 130/169/142 118/152/127
f 118/152/127 130/169/142 119/153/128
f 119/153/128 130/169/142 120/154/129
f 120/154/129 130/169/142 121/156/131
f 121/156/131 130/169/142 122/157/132
f 122/157/132 130/169/142 123/170/133
f 123/170/133 130/169/142 124/171/134
f 124/171/134 130/169/142 125/172/136
f 125/172/136 130/169/142 126/173/137
f 126/173/137 130/169/142 127/174/138
f 127/174/138 130/169/142 128/175/139
f 128/175/139 130/169/142 129/167/141
f 129/167/141 130/169/142 114/147/122
f 131/176/143 134/177/143 133/178/143
f 134/179/144 137/180/144 133/181/144
f 138/182/145 135/183/145 137/184/145
f 136/185/146 131/186/146 135/187/146
f 137/188/147 131/189/147 133/190/147
f 134/191/148 136/192/148 138/193/148
f 140/194/149 141/195/149 139/196/149
f 141/197/150 146/198/150 145/199/150
f 146/200/151 143/201/151 145/202/151
f 144/203/152 139/204/152 143/205/152
f 145/206/153 139/207/153 141/208/153
f 146/209/154 140/210/154 144/211/154
f 148/212/155 149/213/155 147/214/155
f 149/215/156 154/216/156 153/217/156
f 154/218/157 151/219/157 153/220/157
f 152/221/158 147/222/158 151/223/158
f 153/224/159 147/225/159 149/226/159
f 150/227/160 152/228/160 154/229/160
f 155/230/142 168/231/161 167/232/162
f 156/233/163 168/231/161 170/234/164
f 155/230/142 167/232/162 172/235/165
f 155/230/142 172/235/165 174/236/166
f 155/230/142 174/236/166 171/237/167
f 156/238/163 170/239/164 177/240/168
f 157/241/169 169/242/170 179/243/171
f 158/244/172 173/245/173 181/246/174
f 159/247/175 175/248/176 183/249/177
f 160/250/178 176/251/179 185/252/180
f 156/238/163 177/240/168 180/253/181
f 157/241/169 179/243/171 182/254/182
f 158/244/172 181/246/174 184/255/183
f 159/247/175 183/249/177 186/256/184
f 160/257/178 185/258/180 178/259/185
f 161/260/186 187/261/187 192/262/188
f 162/263/189 188/264/190 194/265/191
f 163/266/192 189/267/193 195/268/194
f 164/269/195 190/270/196 196/271/197
f 165/272/198 191/273/199 193/274/200
f 193/274/200 196/271/197 166/275/1
f 193/274/200 191/273/199 196/271/197
f 191/273/199 164/269/195 196/271/197
f 196/271/197 195/268/194 166/275/1
f 196/271/197 190/270/196 195/268/194
f 190/270/196 163/266/192 195/268/194
f 195/268/194 194/265/191 166/275/1
f 195/268/194 189/267/193 194/265/191
f 189/267/193 162/263/189 194/265/191
f 194/265/191 192/262/188 166/275/1
f 194/265/191 188/264/190 192/262/188
f 188/264/190 161/260/186 192/262/188
f 192/262/188 193/274/200 166/275/1
f 192/262/188 187/261/187 193/274/200
f 187/261/187 165/272/198 193/274/200
f 178/276/201 191/273/199 165/272/198
f 178/259/201 185/258/202 191/277/199
f 185/278/202 164/279/195 191/280/199
f 186/281/203 190/282/196 164/279/195
f 186/281/203 183/283/204 190/282/196
f 183/283/204 163/284/192 190/282/196
f 184/285/205 189/286/193 163/284/192
f 184/255/205 181/246/206 189/287/193
f 181/246/206 162/288/189 189/287/193
f 182/289/207 188/264/190 162/263/189
f 182/254/207 179/243/208 188/290/190
f 179/291/208 161/260/186 188/264/190
f 180/292/209 187/261/187 161/260/186
f 180/253/209 177/240/210 187/293/187
f 177/294/210 165/272/198 187/261/187
f 185/278/202 186/281/203 164/279/195
f 185/252/180 176/251/179 186/256/184
f 176/251/179 159/247/175 186/256/184
f 183/283/204 184/285/205 163/284/192
f 183/295/177 175/296/176 184/255/183
f 175/296/176 158/244/172 184/255/183
f 181/246/206 182/297/207 162/288/189
f 181/246/174 173/245/173 182/297/182
f 173/298/173 157/241/169 182/254/182
f 179/243/208 180/299/209 161/300/186
f 179/243/171 169/242/170 180/299/181
f 169/242/170 156/301/163 180/299/181
f 177/240/210 178/259/201 165/302/198
f 177/240/168 170/239/164 178/259/185
f 170/239/164 160/257/178 178/259/185
f 171/237/167 176/251/179 160/250/178
f 171/237/167 174/236/166 176/251/179
f 174/236/166 159/247/175 176/251/179
f 174/236/166 175/248/176 159/247/175
f 174/236/166 172/235/165 175/248/176
f 172/235/165 158/303/172 175/248/176
f 172/235/165 173/304/173 158/303/172
f 172/235/165 167/232/162 173/304/173
f 167/305/162 157/241/169 173/298/173
f 170/234/164 171/237/167 160/250/178
f 170/234/164 168/231/161 171/237/167
f 168/231/161 155/230/142 171/237/167
f 167/305/162 169/242/170 157/241/169
f 167/305/162 168/306/161 169/242/170
f 168/306/161 156/301/163 169/242/170
f 2/2/2 18/30/30 19/18/18
f 19/18/18 20/19/19 4/4/4
f 20/19/19 21/20/20 5/5/5
f 21/20/20 22/33/33 6/6/6
f 6/6/6 22/33/33 23/21/21
f 23/21/21 24/22/22 8/8/8
f 24/22/22 25/23/23 9/9/9
f 25/23/23 26/36/36 10/10/10
f 10/10/10 26/36/36 27/24/24
f 27/24/24 28/25/25 12/12/12
f 28/25/25 29/26/26 13/13/13
f 29/26/26 30/39/39 14/14/14
f 14/14/14 30/39/39 31/27/27
f 31/27/27 32/28/28 16/16/16
f 32/28/28 33/29/29 17/17/17
f 33/29/29 18/30/30 2/2/2
f 18/30/30 34/46/43 35/31/31
f 35/31/31 36/48/45 20/19/19
f 20/19/19 36/48/45 37/32/32
f 37/32/32 38/50/47 22/33/33
f 22/33/33 38/50/47 39/34/34
f 39/34/34 40/53/50 24/22/22
f 24/22/22 40/53/50 41/35/35
f 41/35/35 42/55/52 26/36/36
f 26/36/36 42/55/52 43/37/37
f 43/37/37 44/58/55 28/25/25
f 28/25/25 44/58/55 45/38/38
f 45/38/38 46/307/57 30/39/39
f 30/40/39 46/63/57 47/41/40
f 47/41/40 48/66/60 32/43/28
f 32/28/28 48/308/60 49/44/41
f 49/44/41 34/46/43 18/30/30
f 50/45/42 51/309/211 35/31/31
f 35/31/31 51/309/211 52/47/44
f 52/47/44 53/49/46 37/32/32
f 53/49/46 54/51/48 38/50/47
f 54/51/48 55/310/212 39/34/34
f 39/34/34 55/310/212 56/52/49
f 56/52/49 57/54/51 41/35/35
f 57/54/51 58/56/53 42/55/52
f 58/56/53 59/311/213 43/37/37
f 43/37/37 59/311/213 60/57/54
f 60/59/54 61/62/56 45/60/38
f 61/62/56 62/64/58 46/63/57
f 62/64/58 63/312/214 47/41/40
f 47/41/40 63/312/214 64/65/59
f 64/65/59 65/313/61 49/67/41
f 65/68/61 50/45/42 34/46/43
f 66/69/62 67/72/65 51/70/63
f 67/72/65 68/103/92 52/73/66
f 52/74/66 68/105/92 69/75/67
f 69/75/67 70/78/70 54/77/69
f 70/78/70 71/80/72 55/79/71
f 71/80/72 72/109/97 56/81/73
f 56/82/73 72/111/97 73/83/74
f 73/83/74 74/86/77 58/85/76
f 74/86/77 75/88/79 59/87/78
f 75/88/79 76/115/102 60/89/80
f 60/90/80 76/117/102 77/91/81
f 77/91/81 78/94/84 62/93/83
f 78/94/84 79/96/86 63/95/85
f 79/96/86 80/121/107 64/97/87
f 64/98/87 80/123/107 81/99/88
f 81/99/88 66/69/62 50/71/64
f 82/101/90 83/102/91 67/72/65
f 83/102/91 84/314/93 68/103/92
f 84/104/93 85/106/94 69/75/67
f 85/106/94 86/107/95 70/78/70
f 86/107/95 87/108/96 71/80/72
f 87/108/96 88/132/98 72/109/97
f 88/110/98 89/112/99 73/83/74
f 89/112/99 90/113/100 74/86/77
f 90/113/100 91/114/101 75/88/79
f 91/114/101 92/315/103 76/115/102
f 92/116/103 93/118/104 77/91/81
f 93/118/104 94/119/105 78/94/84
f 94/119/105 95/120/106 79/96/86
f 95/120/106 96/143/108 80/121/107
f 96/122/108 97/124/109 81/99/88
f 97/124/109 82/101/90 66/69/62
f 98/125/110 99/128/111 83/126/91
f 99/128/111 100/129/112 84/104/93
f 100/129/112 101/150/125 85/106/94
f 85/106/94 101/150/125 102/130/113
f 102/130/113 103/131/114 87/108/96
f 103/131/114 104/133/115 88/132/98
f 104/133/115 105/155/130 89/134/99
f 89/134/99 105/155/130 106/135/116
f 106/137/116 107/316/117 91/114/101
f 107/138/117 108/140/118 92/116/103
f 108/140/118 109/161/135 93/118/104
f 93/118/104 109/161/135 110/141/119
f 110/141/119 111/142/120 95/120/106
f 111/142/120 112/144/121 96/143/108
f 112/144/121 113/166/140 97/145/109
f 97/124/109 113/317/140 98/146/110
f 114/147/122 115/148/123 99/128/111
f 115/148/123 116/149/124 100/129/112
f 116/149/124 117/151/126 101/150/125
f 117/151/126 118/152/127 102/130/113
f 118/152/127 119/153/128 103/131/114
f 119/153/128 120/154/129 104/133/115
f 120/154/129 121/156/131 105/155/130
f 121/156/131 122/157/132 106/135/116
f 122/157/132 123/170/133 107/158/117
f 123/159/133 124/160/134 108/140/118
f 124/160/134 125/162/136 109/161/135
f 125/162/136 126/163/137 110/141/119
f 126/163/137 127/164/138 111/142/120
f 127/164/138 128/165/139 112/144/121
f 128/165/139 129/318/141 113/166/140
f 129/167/141 114/147/122 98/125/110
f 131/176/143 132/319/143 134/177/143
f 134/179/144 138/320/144 137/180/144
f 138/182/145 136/321/145 135/183/145
f 136/185/146 132/322/146 131/186/146
f 137/188/147 135/323/147 131/189/147
f 134/191/148 132/324/148 136/192/148
f 140/194/149 142/325/149 141/195/149
f 141/197/150 142/326/150 146/198/150
f 146/200/151 144/327/151 143/201/151
f 144/203/152 140/328/152 139/204/152
f 145/206/153 143/329/153 139/207/153
f 146/209/154 142/330/154 140/210/154
f 148/212/155 150/331/155 149/213/155
f 149/215/156 150/332/156 154/216/156
f 154/218/157 152/333/157 151/219/157
f 152/221/158 148/334/158 147/222/158
f 153/224/159 151/335/159 147/225/159
f 150/227/160 148/336/160 152/228/160
