# Blender 5.2.0 LTS
# www.blender.org
o Crate
v -0.398000 0.000000 0.398000
v -0.398000 0.012000 0.410000
v -0.410000 0.012000 0.398000
v -0.398000 0.788000 0.410000
v -0.398000 0.800000 0.398000
v -0.410000 0.788000 0.398000
v -0.398000 0.000000 -0.398000
v -0.410000 0.012000 -0.398000
v -0.398000 0.012000 -0.410000
v -0.398000 0.800000 -0.398000
v -0.398000 0.788000 -0.410000
v -0.410000 0.788000 -0.398000
v 0.398000 0.000000 0.398000
v 0.410000 0.012000 0.398000
v 0.398000 0.012000 0.410000
v 0.398000 0.800000 0.398000
v 0.398000 0.788000 0.410000
v 0.410000 0.788000 0.398000
v 0.398000 0.000000 -0.398000
v 0.398000 0.012000 -0.410000
v 0.410000 0.012000 -0.398000
v 0.398000 0.800000 -0.398000
v 0.410000 0.788000 -0.398000
v 0.398000 0.788000 -0.410000
v -0.438000 0.000000 0.438000
v -0.438000 0.012000 0.450000
v -0.450000 0.012000 0.438000
v -0.438000 0.838000 0.450000
v -0.438000 0.850000 0.438000
v -0.450000 0.838000 0.438000
v -0.438000 0.000000 0.372000
v -0.450000 0.012000 0.372000
v -0.438000 0.012000 0.360000
v -0.438000 0.850000 0.372000
v -0.438000 0.838000 0.360000
v -0.450000 0.838000 0.372000
v -0.372000 0.000000 0.438000
v -0.360000 0.012000 0.438000
v -0.372000 0.012000 0.450000
v -0.372000 0.850000 0.438000
v -0.372000 0.838000 0.450000
v -0.360000 0.838000 0.438000
v -0.372000 0.000000 0.372000
v -0.372000 0.012000 0.360000
v -0.360000 0.012000 0.372000
v -0.372000 0.850000 0.372000
v -0.360000 0.838000 0.372000
v -0.372000 0.838000 0.360000
v -0.438000 0.000000 -0.372000
v -0.438000 0.012000 -0.360000
v -0.450000 0.012000 -0.372000
v -0.438000 0.838000 -0.360000
v -0.438000 0.850000 -0.372000
v -0.450000 0.838000 -0.372000
v -0.438000 0.000000 -0.438000
v -0.450000 0.012000 -0.438000
v -0.438000 0.012000 -0.450000
v -0.438000 0.850000 -0.438000
v -0.438000 0.838000 -0.450000
v -0.450000 0.838000 -0.438000
v -0.372000 0.000000 -0.372000
v -0.360000 0.012000 -0.372000
v -0.372000 0.012000 -0.360000
v -0.372000 0.850000 -0.372000
v -0.372000 0.838000 -0.360000
v -0.360000 0.838000 -0.372000
v -0.372000 0.000000 -0.438000
v -0.372000 0.012000 -0.450000
v -0.360000 0.012000 -0.438000
v -0.372000 0.850000 -0.438000
v -0.360000 0.838000 -0.438000
v -0.372000 0.838000 -0.450000
v 0.372000 0.000000 0.438000
v 0.372000 0.012000 0.450000
v 0.360000 0.012000 0.438000
v 0.372000 0.838000 0.450000
v 0.372000 0.850000 0.438000
v 0.360000 0.838000 0.438000
v 0.372000 0.000000 0.372000
v 0.360000 0.012000 0.372000
v 0.372000 0.012000 0.360000
v 0.372000 0.850000 0.372000
v 0.372000 0.838000 0.360000
v 0.360000 0.838000 0.372000
v 0.438000 0.000000 0.438000
v 0.450000 0.012000 0.438000
v 0.438000 0.012000 0.450000
v 0.438000 0.850000 0.438000
v 0.438000 0.838000 0.450000
v 0.450000 0.838000 0.438000
v 0.438000 0.000000 0.372000
v 0.438000 0.012000 0.360000
v 0.450000 0.012000 0.372000
v 0.438000 0.850000 0.372000
v 0.450000 0.838000 0.372000
v 0.438000 0.838000 0.360000
v 0.372000 0.000000 -0.372000
v 0.372000 0.012000 -0.360000
v 0.360000 0.012000 -0.372000
v 0.372000 0.838000 -0.360000
v 0.372000 0.850000 -0.372000
v 0.360000 0.838000 -0.372000
v 0.372000 0.000000 -0.438000
v 0.360000 0.012000 -0.438000
v 0.372000 0.012000 -0.450000
v 0.372000 0.850000 -0.438000
v 0.372000 0.838000 -0.450000
v 0.360000 0.838000 -0.438000
v 0.438000 0.000000 -0.372000
v 0.450000 0.012000 -0.372000
v 0.438000 0.012000 -0.360000
v 0.438000 0.850000 -0.372000
v 0.438000 0.838000 -0.360000
v 0.450000 0.838000 -0.372000
v 0.438000 0.000000 -0.438000
v 0.438000 0.012000 -0.450000
v 0.450000 0.012000 -0.438000
v 0.438000 0.850000 -0.438000
v 0.450000 0.838000 -0.438000
v 0.438000 0.838000 -0.450000
v -0.348000 -0.000000 0.438000
v -0.348000 0.012000 0.450000
v -0.360000 0.012000 0.438000
v -0.348000 0.078000 0.450000
v -0.348000 0.090000 0.438000
v -0.360000 0.078000 0.438000
v -0.348000 -0.000000 0.372000
v -0.360000 0.012000 0.372000
v -0.348000 0.012000 0.360000
v -0.348000 0.090000 0.372000
v -0.348000 0.078000 0.360000
v -0.360000 0.078000 0.372000
v 0.348000 -0.000000 0.438000
v 0.360000 0.012000 0.438000
v 0.348000 0.012000 0.450000
v 0.348000 0.090000 0.438000
v 0.348000 0.078000 0.450000
v 0.360000 0.078000 0.438000
v 0.348000 -0.000000 0.372000
v 0.348000 0.012000 0.360000
v 0.360000 0.012000 0.372000
v 0.348000 0.090000 0.372000
v 0.360000 0.078000 0.372000
v 0.348000 0.078000 0.360000
v -0.348000 -0.000000 -0.372000
v -0.348000 0.012000 -0.360000
v -0.360000 0.012000 -0.372000
v -0.348000 0.078000 -0.360000
v -0.348000 0.090000 -0.372000
v -0.360000 0.078000 -0.372000
v -0.348000 -0.000000 -0.438000
v -0.360000 0.012000 -0.438000
v -0.348000 0.012000 -0.450000
v -0.348000 0.090000 -0.438000
v -0.348000 0.078000 -0.450000
v -0.360000 0.078000 -0.438000
v 0.348000 -0.000000 -0.372000
v 0.360000 0.012000 -0.372000
v 0.348000 0.012000 -0.360000
v 0.348000 0.090000 -0.372000
v 0.348000 0.078000 -0.360000
v 0.360000 0.078000 -0.372000
v 0.348000 -0.000000 -0.438000
v 0.348000 0.012000 -0.450000
v 0.360000 0.012000 -0.438000
v 0.348000 0.090000 -0.438000
v 0.360000 0.078000 -0.438000
v 0.348000 0.078000 -0.450000
v -0.438000 -0.000000 0.348000
v -0.438000 0.012000 0.360000
v -0.450000 0.012000 0.348000
v -0.438000 0.078000 0.360000
v -0.438000 0.090000 0.348000
v -0.450000 0.078000 0.348000
v -0.438000 -0.000000 -0.348000
v -0.450000 0.012000 -0.348000
v -0.438000 0.012000 -0.360000
v -0.438000 0.090000 -0.348000
v -0.438000 0.078000 -0.360000
v -0.450000 0.078000 -0.348000
v -0.372000 -0.000000 0.348000
v -0.360000 0.012000 0.348000
v -0.372000 0.012000 0.360000
v -0.372000 0.090000 0.348000
v -0.372000 0.078000 0.360000
v -0.360000 0.078000 0.348000
v -0.372000 -0.000000 -0.348000
v -0.372000 0.012000 -0.360000
v -0.360000 0.012000 -0.348000
v -0.372000 0.090000 -0.348000
v -0.360000 0.078000 -0.348000
v -0.372000 0.078000 -0.360000
v 0.372000 -0.000000 0.348000
v 0.372000 0.012000 0.360000
v 0.360000 0.012000 0.348000
v 0.372000 0.078000 0.360000
v 0.372000 0.090000 0.348000
v 0.360000 0.078000 0.348000
v 0.372000 -0.000000 -0.348000
v 0.360000 0.012000 -0.348000
v 0.372000 0.012000 -0.360000
v 0.372000 0.090000 -0.348000
v 0.372000 0.078000 -0.360000
v 0.360000 0.078000 -0.348000
v 0.438000 -0.000000 0.348000
v 0.450000 0.012000 0.348000
v 0.438000 0.012000 0.360000
v 0.438000 0.090000 0.348000
v 0.438000 0.078000 0.360000
v 0.450000 0.078000 0.348000
v 0.438000 -0.000000 -0.348000
v 0.438000 0.012000 -0.360000
v 0.450000 0.012000 -0.348000
v 0.438000 0.090000 -0.348000
v 0.450000 0.078000 -0.348000
v 0.438000 0.078000 -0.360000
v -0.348000 0.760000 0.438000
v -0.348000 0.772000 0.450000
v -0.360000 0.772000 0.438000
v -0.348000 0.838000 0.450000
v -0.348000 0.850000 0.438000
v -0.360000 0.838000 0.438000
v -0.348000 0.760000 0.372000
v -0.360000 0.772000 0.372000
v -0.348000 0.772000 0.360000
v -0.348000 0.850000 0.372000
v -0.348000 0.838000 0.360000
v -0.360000 0.838000 0.372000
v 0.348000 0.760000 0.438000
v 0.360000 0.772000 0.438000
v 0.348000 0.772000 0.450000
v 0.348000 0.850000 0.438000
v 0.348000 0.838000 0.450000
v 0.360000 0.838000 0.438000
v 0.348000 0.760000 0.372000
v 0.348000 0.772000 0.360000
v 0.360000 0.772000 0.372000
v 0.348000 0.850000 0.372000
v 0.360000 0.838000 0.372000
v 0.348000 0.838000 0.360000
v -0.348000 0.760000 -0.372000
v -0.348000 0.772000 -0.360000
v -0.360000 0.772000 -0.372000
v -0.348000 0.838000 -0.360000
v -0.348000 0.850000 -0.372000
v -0.360000 0.838000 -0.372000
v -0.348000 0.760000 -0.438000
v -0.360000 0.772000 -0.438000
v -0.348000 0.772000 -0.450000
v -0.348000 0.850000 -0.438000
v -0.348000 0.838000 -0.450000
v -0.360000 0.838000 -0.438000
v 0.348000 0.760000 -0.372000
v 0.360000 0.772000 -0.372000
v 0.348000 0.772000 -0.360000
v 0.348000 0.850000 -0.372000
v 0.348000 0.838000 -0.360000
v 0.360000 0.838000 -0.372000
v 0.348000 0.760000 -0.438000
v 0.348000 0.772000 -0.450000
v 0.360000 0.772000 -0.438000
v 0.348000 0.850000 -0.438000
v 0.360000 0.838000 -0.438000
v 0.348000 0.838000 -0.450000
v -0.438000 0.760000 0.348000
v -0.438000 0.772000 0.360000
v -0.450000 0.772000 0.348000
v -0.438000 0.838000 0.360000
v -0.438000 0.850000 0.348000
v -0.450000 0.838000 0.348000
v -0.438000 0.760000 -0.348000
v -0.450000 0.772000 -0.348000
v -0.438000 0.772000 -0.360000
v -0.438000 0.850000 -0.348000
v -0.438000 0.838000 -0.360000
v -0.450000 0.838000 -0.348000
v -0.372000 0.760000 0.348000
v -0.360000 0.772000 0.348000
v -0.372000 0.772000 0.360000
v -0.372000 0.850000 0.348000
v -0.372000 0.838000 0.360000
v -0.360000 0.838000 0.348000
v -0.372000 0.760000 -0.348000
v -0.372000 0.772000 -0.360000
v -0.360000 0.772000 -0.348000
v -0.372000 0.850000 -0.348000
v -0.360000 0.838000 -0.348000
v -0.372000 0.838000 -0.360000
v 0.372000 0.760000 0.348000
v 0.372000 0.772000 0.360000
v 0.360000 0.772000 0.348000
v 0.372000 0.838000 0.360000
v 0.372000 0.850000 0.348000
v 0.360000 0.838000 0.348000
v 0.372000 0.760000 -0.348000
v 0.360000 0.772000 -0.348000
v 0.372000 0.772000 -0.360000
v 0.372000 0.850000 -0.348000
v 0.372000 0.838000 -0.360000
v 0.360000 0.838000 -0.348000
v 0.438000 0.760000 0.348000
v 0.450000 0.772000 0.348000
v 0.438000 0.772000 0.360000
v 0.438000 0.850000 0.348000
v 0.438000 0.838000 0.360000
v 0.450000 0.838000 0.348000
v 0.438000 0.760000 -0.348000
v 0.438000 0.772000 -0.360000
v 0.450000 0.772000 -0.348000
v 0.438000 0.850000 -0.348000
v 0.450000 0.838000 -0.348000
v 0.438000 0.838000 -0.360000
vn -0.5774 -0.5774 0.5773
vn -0.5774 0.5774 0.5773
vn -0.5774 -0.5774 -0.5773
vn -0.5774 0.5774 -0.5773
vn 0.5774 -0.5774 0.5773
vn 0.5774 0.5774 0.5773
vn 0.5774 -0.5774 -0.5773
vn 0.5774 0.5774 -0.5773
vn -0.5773 -0.5774 0.5774
vn -0.5773 0.5774 0.5774
vn -0.5773 -0.5774 -0.5774
vn -0.5773 0.5774 -0.5774
vn 0.5773 -0.5773 0.5774
vn 0.5773 0.5774 0.5774
vn 0.5773 0.5774 -0.5774
vn -0.5773 -0.5773 -0.5774
vn 0.5773 -0.5774 0.5774
vn 0.5773 -0.5774 -0.5774
vn -0.5773 -0.5773 0.5774
vn 0.5773 -0.5773 -0.5774
vn -0.7071 -0.7071 -0.0000
vn -0.7071 -0.0000 0.7071
vn -0.7071 0.7071 -0.0000
vn -0.7071 -0.0000 -0.7071
vn -0.0000 -0.7071 -0.7071
vn -0.0000 0.7071 -0.7071
vn 0.7071 -0.0000 -0.7071
vn 0.7071 -0.7071 -0.0000
vn 0.7071 0.7071 -0.0000
vn 0.7071 -0.0000 0.7071
vn -0.0000 -0.7071 0.7071
vn -0.0000 0.7071 0.7071
vn -0.0000 -1.0000 -0.0000
vn -1.0000 -0.0000 -0.0000
vn -0.0000 -0.0000 1.0000
vn -0.0000 1.0000 -0.0000
vn -0.0000 -0.0000 -1.0000
vn 1.0000 -0.0000 -0.0000
vt 0.013092 0.634160
vt 0.010459 0.630437
vt 0.015724 0.630437
vt 0.010459 0.389656
vt 0.013092 0.385933
vt 0.015724 0.389656
vt 0.953786 0.258686
vt 0.951154 0.254962
vt 0.956419 0.254962
vt 0.953786 0.010459
vt 0.956419 0.014182
vt 0.951154 0.014182
vt 0.010459 0.187737
vt 0.014182 0.185104
vt 0.014182 0.190370
vt 0.258686 0.187737
vt 0.254962 0.190370
vt 0.254962 0.185104
vt 0.732232 0.258686
vt 0.729599 0.254962
vt 0.734865 0.254962
vt 0.732232 0.010459
vt 0.734865 0.014182
vt 0.729599 0.014182
vt 0.910212 0.543345
vt 0.907579 0.539621
vt 0.912845 0.539621
vt 0.907579 0.283327
vt 0.910212 0.279603
vt 0.912845 0.283327
vt 0.526451 0.824901
vt 0.523818 0.821177
vt 0.529083 0.821177
vt 0.526451 0.561159
vt 0.529083 0.564883
vt 0.523818 0.564883
vt 0.572067 0.543345
vt 0.569434 0.539621
vt 0.574700 0.539621
vt 0.572067 0.279603
vt 0.574700 0.283327
vt 0.569434 0.283327
vt 0.027572 0.918819
vt 0.024939 0.915095
vt 0.030205 0.915095
vt 0.027572 0.655077
vt 0.030205 0.658801
vt 0.024939 0.658801
vt 0.094419 0.918819
vt 0.091786 0.915095
vt 0.097052 0.915095
vt 0.091786 0.658801
vt 0.094419 0.655077
vt 0.097052 0.658801
vt 0.977058 0.930082
vt 0.974426 0.926359
vt 0.979691 0.926359
vt 0.977058 0.666341
vt 0.979691 0.670064
vt 0.974426 0.670064
vt 0.627211 0.543345
vt 0.624578 0.539621
vt 0.629844 0.539621
vt 0.627211 0.279603
vt 0.629844 0.283327
vt 0.624578 0.283327
vt 0.149563 0.918819
vt 0.146930 0.915095
vt 0.152196 0.915095
vt 0.149563 0.655077
vt 0.152196 0.658801
vt 0.146930 0.658801
vt 0.869548 0.543345
vt 0.866915 0.539621
vt 0.872181 0.539621
vt 0.866915 0.283327
vt 0.869548 0.279603
vt 0.872181 0.283327
vt 0.175746 0.918819
vt 0.173113 0.915095
vt 0.178379 0.915095
vt 0.175746 0.655077
vt 0.178379 0.658801
vt 0.173113 0.658801
vt 0.682356 0.543345
vt 0.679723 0.539621
vt 0.684988 0.539621
vt 0.682356 0.279603
vt 0.684988 0.283327
vt 0.679723 0.283327
vt 0.884029 0.828003
vt 0.881396 0.824280
vt 0.886661 0.824280
vt 0.884029 0.564262
vt 0.886661 0.567985
vt 0.881396 0.567985
vt 0.053755 0.918819
vt 0.051122 0.915095
vt 0.056388 0.915095
vt 0.051122 0.658801
vt 0.053755 0.655077
vt 0.056388 0.658801
vt 0.950875 0.930082
vt 0.948242 0.926359
vt 0.953508 0.926359
vt 0.950875 0.666341
vt 0.953508 0.670064
vt 0.948242 0.670064
vt 0.228401 0.649674
vt 0.225768 0.645951
vt 0.231034 0.645951
vt 0.228401 0.385933
vt 0.231034 0.389656
vt 0.225768 0.389656
vt 0.924692 0.828003
vt 0.922059 0.824280
vt 0.927325 0.824280
vt 0.924692 0.564262
vt 0.927325 0.567985
vt 0.922059 0.567985
vt 0.110777 0.967662
vt 0.108144 0.963938
vt 0.113410 0.963938
vt 0.108144 0.943460
vt 0.110777 0.939736
vt 0.113410 0.943460
vt 0.526450 0.971429
vt 0.523818 0.967706
vt 0.529083 0.967706
vt 0.526450 0.943504
vt 0.529083 0.947227
vt 0.523818 0.947227
vt 0.720386 0.785361
vt 0.724110 0.782728
vt 0.724110 0.787993
vt 0.748312 0.785361
vt 0.744589 0.787993
vt 0.744589 0.782728
vt 0.279603 0.960819
vt 0.283327 0.958186
vt 0.283327 0.963452
vt 0.307529 0.960819
vt 0.303805 0.963452
vt 0.303805 0.958186
vt 0.151441 0.967662
vt 0.148808 0.963938
vt 0.154074 0.963938
vt 0.148808 0.943460
vt 0.151441 0.939736
vt 0.154074 0.943460
vt 0.526450 0.873744
vt 0.523818 0.870020
vt 0.529083 0.870020
vt 0.526450 0.845818
vt 0.529083 0.849541
vt 0.523818 0.849541
vt 0.769229 0.785360
vt 0.772953 0.782728
vt 0.772953 0.787993
vt 0.797155 0.785360
vt 0.793432 0.787993
vt 0.793432 0.782728
vt 0.426132 0.960819
vt 0.429855 0.958186
vt 0.429855 0.963452
vt 0.454057 0.960819
vt 0.450334 0.963452
vt 0.450334 0.958186
vt 0.474975 0.808114
vt 0.478698 0.805481
vt 0.478698 0.810747
vt 0.499177 0.805481
vt 0.502900 0.808114
vt 0.499177 0.810747
vt 0.918391 0.876846
vt 0.915758 0.873123
vt 0.921024 0.873123
vt 0.918391 0.848921
vt 0.921024 0.852644
vt 0.915758 0.852644
vt 0.211287 0.825930
vt 0.215011 0.823297
vt 0.215011 0.828562
vt 0.239213 0.825930
vt 0.235489 0.828562
vt 0.235489 0.823297
vt 0.884029 0.974532
vt 0.881396 0.970809
vt 0.886662 0.970809
vt 0.884029 0.946607
vt 0.886662 0.950330
vt 0.881396 0.950330
vt 0.554953 0.811217
vt 0.558677 0.808584
vt 0.558677 0.813850
vt 0.579156 0.808584
vt 0.582879 0.811217
vt 0.579156 0.813850
vt 0.979969 0.038384
vt 0.977337 0.034661
vt 0.982602 0.034661
vt 0.979969 0.010459
vt 0.982602 0.014182
vt 0.977337 0.014182
vt 0.948242 0.628310
vt 0.951966 0.625677
vt 0.951966 0.630943
vt 0.976168 0.628310
vt 0.972445 0.630943
vt 0.972445 0.625677
vt 0.924692 0.974532
vt 0.922059 0.970809
vt 0.927325 0.970809
vt 0.924692 0.946607
vt 0.927325 0.950330
vt 0.922059 0.950330
vt 0.950875 0.978925
vt 0.948242 0.975202
vt 0.953508 0.975202
vt 0.948242 0.954723
vt 0.950875 0.951000
vt 0.953508 0.954723
vt 0.979969 0.087227
vt 0.977337 0.083504
vt 0.982602 0.083504
vt 0.979969 0.059302
vt 0.982602 0.063025
vt 0.977337 0.063025
vt 0.818072 0.785360
vt 0.821796 0.782728
vt 0.821796 0.787993
vt 0.845998 0.785360
vt 0.842274 0.787993
vt 0.842274 0.782728
vt 0.328446 0.960819
vt 0.332170 0.958186
vt 0.332170 0.963452
vt 0.356372 0.960819
vt 0.352648 0.963452
vt 0.352648 0.958186
vt 0.723019 0.989541
vt 0.720386 0.985818
vt 0.725652 0.985818
vt 0.720386 0.965339
vt 0.723019 0.961616
vt 0.725652 0.965339
vt 0.526450 0.922586
vt 0.523818 0.918863
vt 0.529083 0.918863
vt 0.526450 0.894661
vt 0.529083 0.898384
vt 0.523818 0.898384
vt 0.853468 0.027572
vt 0.857191 0.024939
vt 0.857191 0.030205
vt 0.881393 0.027572
vt 0.877670 0.030205
vt 0.877670 0.024939
vt 0.603796 0.963922
vt 0.607520 0.961289
vt 0.607520 0.966555
vt 0.631722 0.963922
vt 0.627998 0.966555
vt 0.627998 0.961289
vt 0.652639 0.811217
vt 0.656363 0.808584
vt 0.656363 0.813850
vt 0.676841 0.808584
vt 0.680565 0.811217
vt 0.676841 0.813850
vt 0.918391 0.925689
vt 0.915758 0.921966
vt 0.921024 0.921966
vt 0.918391 0.897764
vt 0.921024 0.901487
vt 0.915758 0.901487
vt 0.902311 0.165797
vt 0.906034 0.163164
vt 0.906034 0.168430
vt 0.930236 0.165797
vt 0.926513 0.168430
vt 0.926513 0.163164
vt 0.786343 0.989541
vt 0.783710 0.985818
vt 0.788976 0.985818
vt 0.786343 0.961616
vt 0.788976 0.965339
vt 0.783710 0.965339
vt 0.377289 0.808114
vt 0.381012 0.805481
vt 0.381012 0.810747
vt 0.401491 0.805481
vt 0.405215 0.808114
vt 0.401491 0.810747
vt 0.979969 0.136070
vt 0.977337 0.132347
vt 0.982602 0.132347
vt 0.979969 0.108144
vt 0.982602 0.111868
vt 0.977337 0.111868
vt 0.948242 0.434941
vt 0.951966 0.432308
vt 0.951966 0.437574
vt 0.976168 0.434941
vt 0.972445 0.437574
vt 0.972445 0.432308
vt 0.827006 0.989541
vt 0.824374 0.985818
vt 0.829639 0.985818
vt 0.827006 0.961616
vt 0.829639 0.965339
vt 0.824374 0.965339
vt 0.283327 0.014182
vt 0.530313 0.010459
vt 0.530313 0.014182
vt 0.530313 0.536518
vt 0.283327 0.540242
vt 0.283327 0.536518
vt 0.534036 0.261168
vt 0.530313 0.261168
vt 0.530313 0.289532
vt 0.534036 0.536518
vt 0.283327 0.264892
vt 0.283327 0.261168
vt 0.283327 0.289532
vt 0.530313 0.285809
vt 0.279603 0.014182
vt 0.279603 0.289532
vt 0.857191 0.207551
vt 0.877670 0.203828
vt 0.877670 0.207551
vt 0.235489 0.888163
vt 0.215011 0.891886
vt 0.215011 0.888163
vt 0.881393 0.228030
vt 0.877670 0.228030
vt 0.235489 0.867684
vt 0.239213 0.888163
vt 0.857191 0.231753
vt 0.857191 0.228030
vt 0.215011 0.867684
vt 0.235489 0.863960
vt 0.853468 0.207551
vt 0.211287 0.867684
vt 0.870639 0.852644
vt 0.891117 0.848921
vt 0.891117 0.852644
vt 0.891117 0.921966
vt 0.870639 0.925689
vt 0.870639 0.921966
vt 0.894841 0.873123
vt 0.891117 0.873123
vt 0.891117 0.901487
vt 0.894841 0.921966
vt 0.870639 0.876846
vt 0.870639 0.873123
vt 0.870639 0.901487
vt 0.891117 0.897764
vt 0.866915 0.852644
vt 0.866915 0.901487
vt 0.906034 0.207551
vt 0.926513 0.203828
vt 0.926513 0.207551
vt 0.235489 0.937005
vt 0.215011 0.940729
vt 0.215011 0.937005
vt 0.930236 0.228030
vt 0.926513 0.228030
vt 0.235489 0.916527
vt 0.239213 0.937005
vt 0.906034 0.231753
vt 0.906034 0.228030
vt 0.215011 0.916527
vt 0.235489 0.912803
vt 0.902311 0.207551
vt 0.211287 0.916527
vt 0.014182 0.943460
vt 0.034661 0.939736
vt 0.034661 0.943460
vt 0.083504 0.963938
vt 0.063025 0.967662
vt 0.063025 0.963938
vt 0.038384 0.963938
vt 0.034661 0.963938
vt 0.083504 0.943460
vt 0.087227 0.963938
vt 0.014182 0.967662
vt 0.014182 0.963938
vt 0.063025 0.943460
vt 0.083504 0.939736
vt 0.010459 0.943460
vt 0.059302 0.943460
vt 0.724110 0.283327
vt 0.744589 0.279603
vt 0.744589 0.283327
vt 0.744589 0.743606
vt 0.724110 0.747330
vt 0.724110 0.743606
vt 0.748312 0.499284
vt 0.744589 0.499284
vt 0.744589 0.527648
vt 0.748312 0.743606
vt 0.724110 0.503008
vt 0.724110 0.499284
vt 0.724110 0.527648
vt 0.744589 0.523925
vt 0.720386 0.283327
vt 0.720387 0.527648
vt 0.759505 0.014182
vt 0.779984 0.010459
vt 0.779984 0.014182
vt 0.303805 0.780840
vt 0.283327 0.784564
vt 0.283327 0.780840
vt 0.783708 0.230140
vt 0.779984 0.230140
vt 0.303805 0.564883
vt 0.307529 0.780840
vt 0.759505 0.233863
vt 0.759505 0.230140
vt 0.283327 0.564883
vt 0.303805 0.561159
vt 0.755782 0.014182
vt 0.279603 0.564883
vt 0.579156 0.567985
vt 0.582879 0.783943
vt 0.579156 0.783943
vt 0.607520 0.783943
vt 0.603796 0.567985
vt 0.607520 0.567985
vt 0.558677 0.787666
vt 0.558677 0.783943
vt 0.627998 0.783943
vt 0.607520 0.787666
vt 0.554953 0.567985
vt 0.558677 0.567985
vt 0.627998 0.567985
vt 0.631722 0.783943
vt 0.579156 0.564262
vt 0.627998 0.564262
vt 0.676841 0.567985
vt 0.680565 0.783943
vt 0.676841 0.783943
vt 0.772953 0.499284
vt 0.769229 0.283327
vt 0.772953 0.283327
vt 0.656363 0.787666
vt 0.656363 0.783943
vt 0.793432 0.499284
vt 0.772953 0.503008
vt 0.652639 0.567985
vt 0.656363 0.567985
vt 0.793432 0.283327
vt 0.797155 0.499284
vt 0.676841 0.564262
vt 0.793432 0.279603
vt 0.332170 0.564883
vt 0.352648 0.561159
vt 0.352648 0.564883
vt 0.401491 0.780840
vt 0.381012 0.784564
vt 0.381012 0.780840
vt 0.356372 0.780840
vt 0.352648 0.780840
vt 0.401491 0.564883
vt 0.405215 0.780840
vt 0.332169 0.784564
vt 0.332169 0.780840
vt 0.381012 0.564883
vt 0.401491 0.561159
vt 0.328446 0.564883
vt 0.377289 0.564883
vt 0.429855 0.564883
vt 0.450334 0.561159
vt 0.450334 0.564883
vt 0.499177 0.780840
vt 0.478698 0.784564
vt 0.478698 0.780840
vt 0.454057 0.780840
vt 0.450334 0.780840
vt 0.499177 0.564883
vt 0.502900 0.780840
vt 0.429855 0.784564
vt 0.429855 0.780840
vt 0.478698 0.564883
vt 0.499177 0.561159
vt 0.426132 0.564883
vt 0.474975 0.564883
vt 0.793432 0.527649
vt 0.797155 0.743606
vt 0.793432 0.743606
vt 0.808348 0.230140
vt 0.804625 0.014182
vt 0.808348 0.014182
vt 0.772953 0.747330
vt 0.772953 0.743606
vt 0.828827 0.230140
vt 0.808348 0.233863
vt 0.769229 0.527649
vt 0.772953 0.527649
vt 0.828827 0.014182
vt 0.832550 0.230140
vt 0.793432 0.523925
vt 0.828827 0.010459
vt 0.842274 0.283327
vt 0.845998 0.499284
vt 0.842274 0.499284
vt 0.821796 0.743606
vt 0.818072 0.527649
vt 0.821796 0.527649
vt 0.821796 0.503008
vt 0.821796 0.499284
vt 0.842274 0.743606
vt 0.821796 0.747330
vt 0.818072 0.283327
vt 0.821796 0.283327
vt 0.842274 0.527649
vt 0.845998 0.743606
vt 0.842274 0.279603
vt 0.842274 0.523925
vt 0.190370 0.630437
vt 0.014182 0.365015
vt 0.554953 0.014182
vt 0.554953 0.254962
vt 0.254962 0.010459
vt 0.014182 0.010459
vt 0.927325 0.539621
vt 0.589180 0.539621
vt 0.010459 0.658801
vt 0.010459 0.915095
vt 0.554953 0.283327
vt 0.554953 0.539621
vt 0.111532 0.915095
vt 0.644325 0.539621
vt 0.132450 0.658801
vt 0.132450 0.915095
vt 0.610098 0.283327
vt 0.610098 0.539621
vt 0.886661 0.539621
vt 0.699469 0.539621
vt 0.866915 0.567985
vt 0.866915 0.824280
vt 0.665242 0.283327
vt 0.665242 0.539621
vt 0.070869 0.915095
vt 0.245514 0.645951
vt 0.907579 0.567985
vt 0.907579 0.824280
vt 0.211287 0.389656
vt 0.211287 0.645951
vt 0.127891 0.963938
vt 0.724110 0.940699
vt 0.303805 0.805481
vt 0.283327 0.805481
vt 0.744589 0.768247
vt 0.724110 0.768247
vt 0.168554 0.963938
vt 0.772953 0.940699
vt 0.450334 0.805481
vt 0.429855 0.805481
vt 0.793432 0.768247
vt 0.772953 0.768247
vt 0.478698 0.963452
vt 0.215011 0.843043
vt 0.866915 0.950330
vt 0.866915 0.970809
vt 0.235489 0.670592
vt 0.215011 0.670592
vt 0.558677 0.966555
vt 0.951966 0.645424
vt 0.907579 0.950330
vt 0.907579 0.970809
vt 0.972445 0.472972
vt 0.951966 0.472972
vt 0.967989 0.975202
vt 0.821796 0.940698
vt 0.352648 0.805481
vt 0.332170 0.805481
vt 0.842274 0.768247
vt 0.821796 0.768247
vt 0.740133 0.985818
vt 0.857191 0.182910
vt 0.627998 0.808584
vt 0.607520 0.808584
vt 0.877670 0.010459
vt 0.857191 0.010459
vt 0.656363 0.966555
vt 0.906034 0.182910
vt 0.769229 0.965339
vt 0.769229 0.985818
vt 0.926513 0.010459
vt 0.906034 0.010459
vt 0.381012 0.963452
vt 0.951966 0.452055
vt 0.809893 0.965339
vt 0.809893 0.985818
vt 0.972445 0.279603
vt 0.951966 0.279603
vt 0.283327 0.010459
vt 0.530313 0.540242
vt 0.534036 0.014182
vt 0.534036 0.289532
vt 0.530313 0.264892
vt 0.283327 0.285809
vt 0.279603 0.261168
vt 0.279603 0.536518
vt 0.857191 0.203828
vt 0.235489 0.891886
vt 0.881393 0.207551
vt 0.239213 0.867684
vt 0.877670 0.231753
vt 0.215011 0.863960
vt 0.853468 0.228030
vt 0.211287 0.888163
vt 0.870639 0.848921
vt 0.891117 0.925689
vt 0.894841 0.852644
vt 0.894841 0.901487
vt 0.891117 0.876846
vt 0.870639 0.897764
vt 0.866915 0.873123
vt 0.866915 0.921966
vt 0.906034 0.203828
vt 0.235489 0.940729
vt 0.930236 0.207551
vt 0.239213 0.916527
vt 0.926513 0.231753
vt 0.215011 0.912803
vt 0.902311 0.228030
vt 0.211287 0.937005
vt 0.014182 0.939736
vt 0.083504 0.967662
vt 0.038384 0.943460
vt 0.087227 0.943460
vt 0.034661 0.967662
vt 0.063025 0.939736
vt 0.010459 0.963938
vt 0.059302 0.963938
vt 0.724110 0.279603
vt 0.744589 0.747330
vt 0.748312 0.283327
vt 0.748312 0.527648
vt 0.744589 0.503008
vt 0.724110 0.523925
vt 0.720386 0.499284
vt 0.720386 0.743606
vt 0.759505 0.010459
vt 0.303805 0.784564
vt 0.783708 0.014182
vt 0.307529 0.564883
vt 0.779984 0.233863
vt 0.283327 0.561159
vt 0.755782 0.230140
vt 0.279603 0.780840
vt 0.582879 0.567985
vt 0.603796 0.783943
vt 0.579156 0.787666
vt 0.627998 0.787666
vt 0.554953 0.783943
vt 0.631722 0.567985
vt 0.558677 0.564262
vt 0.607520 0.564262
vt 0.680565 0.567985
vt 0.769229 0.499284
vt 0.676841 0.787666
vt 0.793432 0.503008
vt 0.652639 0.783943
vt 0.797155 0.283327
vt 0.656363 0.564262
vt 0.772953 0.279603
vt 0.332170 0.561159
vt 0.401491 0.784564
vt 0.356372 0.564883
vt 0.405215 0.564883
vt 0.352648 0.784564
vt 0.381012 0.561159
vt 0.328446 0.780840
vt 0.377289 0.780840
vt 0.429855 0.561159
vt 0.499177 0.784564
vt 0.454057 0.564883
vt 0.502900 0.564883
vt 0.450334 0.784564
vt 0.478698 0.561159
vt 0.426132 0.780840
vt 0.474975 0.780840
vt 0.797155 0.527649
vt 0.804625 0.230140
vt 0.793432 0.747330
vt 0.828827 0.233863
vt 0.769229 0.743606
vt 0.832550 0.014182
vt 0.772953 0.523925
vt 0.808348 0.010459
vt 0.845998 0.283327
vt 0.818072 0.743606
vt 0.842274 0.503008
vt 0.842274 0.747330
vt 0.818072 0.499284
vt 0.845998 0.527649
vt 0.821796 0.279603
vt 0.821796 0.523925
vt 0.190370 0.389656
vt 0.254962 0.365015
vt 0.927325 0.283327
vt 0.589180 0.283327
vt 0.111532 0.658801
vt 0.644325 0.283327
vt 0.886661 0.283327
vt 0.699469 0.283327
vt 0.070869 0.658801
vt 0.245514 0.389656
vt 0.127891 0.943460
vt 0.744589 0.940699
vt 0.168554 0.943460
vt 0.793432 0.940699
vt 0.499177 0.963452
vt 0.235489 0.843043
vt 0.579156 0.966555
vt 0.972445 0.645424
vt 0.967989 0.954723
vt 0.842274 0.940698
vt 0.740133 0.965339
vt 0.877670 0.182910
vt 0.676841 0.966555
vt 0.926513 0.182910
vt 0.401491 0.963452
vt 0.972445 0.452055
s 0
f 1/1/1 2/2/1 3/3/1
f 4/4/2 5/5/2 6/6/2
f 7/7/3 8/8/3 9/9/3
f 10/10/4 11/11/4 12/12/4
f 13/13/5 14/14/5 15/15/5
f 16/16/6 17/17/6 18/18/6
f 19/19/7 20/20/7 21/21/7
f 22/22/8 23/23/8 24/24/8
f 25/25/9 26/26/9 27/27/9
f 28/28/10 29/29/10 30/30/10
f 31/31/11 32/32/11 33/33/11
f 34/34/12 35/35/12 36/36/12
f 37/37/13 38/38/13 39/39/13
f 40/40/14 41/41/14 42/42/14
f 43/43/7 44/44/7 45/45/7
f 46/46/15 47/47/15 48/48/15
f 49/49/9 50/50/9 51/51/9
f 52/52/10 53/53/10 54/54/10
f 55/55/11 56/56/11 57/57/11
f 58/58/12 59/59/12 60/60/12
f 61/61/13 62/62/13 63/63/13
f 64/64/14 65/65/14 66/66/14
f 67/67/7 68/68/7 69/69/7
f 70/70/15 71/71/15 72/72/15
f 73/73/1 74/74/1 75/75/1
f 76/76/10 77/77/10 78/78/10
f 79/79/16 80/80/16 81/81/16
f 82/82/12 83/83/12 84/84/12
f 85/85/17 86/86/17 87/87/17
f 88/88/14 89/89/14 90/90/14
f 91/91/18 92/92/18 93/93/18
f 94/94/15 95/95/15 96/96/15
f 97/97/1 98/98/1 99/99/1
f 100/100/10 101/101/10 102/102/10
f 103/103/16 104/104/16 105/105/16
f 106/106/12 107/107/12 108/108/12
f 109/109/17 110/110/17 111/111/17
f 112/112/14 113/113/14 114/114/14
f 115/115/18 116/116/18 117/117/18
f 118/118/15 119/119/15 120/120/15
f 121/121/19 122/122/19 123/123/19
f 124/124/10 125/125/10 126/126/10
f 127/127/3 128/128/3 129/129/3
f 130/130/12 131/131/12 132/132/12
f 133/133/5 134/134/5 135/135/5
f 136/136/14 137/137/14 138/138/14
f 139/139/20 140/140/20 141/141/20
f 142/142/15 143/143/15 144/144/15
f 145/145/19 146/146/19 147/147/19
f 148/148/10 149/149/10 150/150/10
f 151/151/3 152/152/3 153/153/3
f 154/154/12 155/155/12 156/156/12
f 157/157/5 158/158/5 159/159/5
f 160/160/14 161/161/14 162/162/14
f 163/163/20 164/164/20 165/165/20
f 166/166/15 167/167/15 168/168/15
f 169/169/9 170/170/9 171/171/9
f 172/172/10 173/173/10 174/174/10
f 175/175/11 176/176/11 177/177/11
f 178/178/12 179/179/12 180/180/12
f 181/181/13 182/182/13 183/183/13
f 184/184/14 185/185/14 186/186/14
f 187/187/7 188/188/7 189/189/7
f 190/190/15 191/191/15 192/192/15
f 193/193/1 194/194/1 195/195/1
f 196/196/10 197/197/10 198/198/10
f 199/199/16 200/200/16 201/201/16
f 202/202/12 203/203/12 204/204/12
f 205/205/17 206/206/17 207/207/17
f 208/208/14 209/209/14 210/210/14
f 211/211/18 212/212/18 213/213/18
f 214/214/15 215/215/15 216/216/15
f 217/217/9 218/218/9 219/219/9
f 220/220/10 221/221/10 222/222/10
f 223/223/11 224/224/11 225/225/11
f 226/226/12 227/227/12 228/228/12
f 229/229/17 230/230/17 231/231/17
f 232/232/14 233/233/14 234/234/14
f 235/235/18 236/236/18 237/237/18
f 238/238/15 239/239/15 240/240/15
f 241/241/9 242/242/9 243/243/9
f 244/244/10 245/245/10 246/246/10
f 247/247/11 248/248/11 249/249/11
f 250/250/12 251/251/12 252/252/12
f 253/253/17 254/254/17 255/255/17
f 256/256/14 257/257/14 258/258/14
f 259/259/18 260/260/18 261/261/18
f 262/262/15 263/263/15 264/264/15
f 265/265/9 266/266/9 267/267/9
f 268/268/10 269/269/10 270/270/10
f 271/271/11 272/272/11 273/273/11
f 274/274/12 275/275/12 276/276/12
f 277/277/17 278/278/17 279/279/17
f 280/280/14 281/281/14 282/282/14
f 283/283/18 284/284/18 285/285/18
f 286/286/15 287/287/15 288/288/15
f 289/289/9 290/290/9 291/291/9
f 292/292/10 293/293/10 294/294/10
f 295/295/11 296/296/11 297/297/11
f 298/298/12 299/299/12 300/300/12
f 301/301/17 302/302/17 303/303/17
f 304/304/14 305/305/14 306/306/14
f 307/307/18 308/308/18 309/309/18
f 310/310/15 311/311/15 312/312/15
f 1/313/21 8/314/21 7/315/21
f 4/4/22 3/3/22 2/2/22
f 10/316/23 6/317/23 5/318/23
f 9/9/24 12/12/24 11/11/24
f 7/315/25 20/319/25 19/320/25
f 22/321/26 11/322/26 10/316/26
f 21/21/27 24/24/27 23/23/27
f 19/320/28 14/323/28 13/324/28
f 16/325/29 23/326/29 22/321/29
f 15/15/30 18/18/30 17/17/30
f 13/324/31 2/327/31 1/313/31
f 5/318/32 17/328/32 16/325/32
f 25/329/21 32/330/21 31/331/21
f 28/28/22 27/27/22 26/26/22
f 34/332/23 30/333/23 29/334/23
f 33/33/24 36/36/24 35/35/24
f 31/331/25 44/335/25 43/336/25
f 46/337/26 35/338/26 34/332/26
f 45/45/27 48/48/27 47/47/27
f 43/336/28 38/339/28 37/340/28
f 40/341/29 47/342/29 46/337/29
f 39/39/30 42/42/30 41/41/30
f 37/340/31 26/343/31 25/329/31
f 29/334/32 41/344/32 40/341/32
f 49/345/21 56/346/21 55/347/21
f 52/52/22 51/51/22 50/50/22
f 58/348/23 54/349/23 53/350/23
f 57/57/24 60/60/24 59/59/24
f 55/347/25 68/351/25 67/352/25
f 70/353/26 59/354/26 58/348/26
f 69/69/27 72/72/27 71/71/27
f 67/352/28 62/355/28 61/356/28
f 64/357/29 71/358/29 70/353/29
f 63/63/30 66/66/30 65/65/30
f 61/356/31 50/359/31 49/345/31
f 53/350/32 65/360/32 64/357/32
f 73/361/21 80/362/21 79/363/21
f 76/76/22 75/75/22 74/74/22
f 82/364/23 78/365/23 77/366/23
f 81/81/24 84/84/24 83/83/24
f 79/363/25 92/367/25 91/368/25
f 94/369/26 83/370/26 82/364/26
f 93/93/27 96/96/27 95/95/27
f 91/368/28 86/371/28 85/372/28
f 88/373/29 95/374/29 94/369/29
f 87/87/30 90/90/30 89/89/30
f 85/372/31 74/375/31 73/361/31
f 77/366/32 89/376/32 88/373/32
f 97/377/21 104/378/21 103/379/21
f 100/100/22 99/99/22 98/98/22
f 106/380/23 102/381/23 101/382/23
f 105/105/24 108/108/24 107/107/24
f 103/379/25 116/383/25 115/384/25
f 118/385/26 107/386/26 106/380/26
f 117/117/27 120/120/27 119/119/27
f 115/384/28 110/387/28 109/388/28
f 112/389/29 119/390/29 118/385/29
f 111/111/30 114/114/30 113/113/30
f 109/388/31 98/391/31 97/377/31
f 101/382/32 113/392/32 112/389/32
f 121/393/21 128/394/21 127/395/21
f 124/124/22 123/123/22 122/122/22
f 130/396/23 126/397/23 125/398/23
f 129/129/24 132/132/24 131/131/24
f 127/395/25 140/399/25 139/400/25
f 142/401/26 131/402/26 130/396/26
f 141/141/27 144/144/27 143/143/27
f 139/400/28 134/403/28 133/404/28
f 136/405/29 143/406/29 142/401/29
f 135/135/30 138/138/30 137/137/30
f 133/404/31 122/407/31 121/393/31
f 125/398/32 137/408/32 136/405/32
f 145/409/21 152/410/21 151/411/21
f 148/148/22 147/147/22 146/146/22
f 154/412/23 150/413/23 149/414/23
f 153/153/24 156/156/24 155/155/24
f 151/411/25 164/415/25 163/416/25
f 166/417/26 155/418/26 154/412/26
f 165/165/27 168/168/27 167/167/27
f 163/416/28 158/419/28 157/420/28
f 160/421/29 167/422/29 166/417/29
f 159/159/30 162/162/30 161/161/30
f 157/420/31 146/423/31 145/409/31
f 149/414/32 161/424/32 160/421/32
f 169/425/21 176/426/21 175/427/21
f 172/172/22 171/171/22 170/170/22
f 178/428/23 174/429/23 173/430/23
f 177/177/24 180/180/24 179/179/24
f 175/427/25 188/431/25 187/432/25
f 190/433/26 179/434/26 178/428/26
f 189/189/27 192/192/27 191/191/27
f 187/432/28 182/435/28 181/436/28
f 184/437/29 191/438/29 190/433/29
f 183/183/30 186/186/30 185/185/30
f 181/436/31 170/439/31 169/425/31
f 173/430/32 185/440/32 184/437/32
f 193/441/21 200/442/21 199/443/21
f 196/196/22 195/195/22 194/194/22
f 202/444/23 198/445/23 197/446/23
f 201/201/24 204/204/24 203/203/24
f 199/443/25 212/447/25 211/448/25
f 214/449/26 203/450/26 202/444/26
f 213/213/27 216/216/27 215/215/27
f 211/448/28 206/451/28 205/452/28
f 208/453/29 215/454/29 214/449/29
f 207/207/30 210/210/30 209/209/30
f 205/452/31 194/455/31 193/441/31
f 197/446/32 209/456/32 208/453/32
f 217/457/21 224/458/21 223/459/21
f 220/220/22 219/219/22 218/218/22
f 226/460/23 222/461/23 221/462/23
f 225/225/24 228/228/24 227/227/24
f 223/459/25 236/463/25 235/464/25
f 238/465/26 227/466/26 226/460/26
f 237/237/27 240/240/27 239/239/27
f 235/464/28 230/467/28 229/468/28
f 232/469/29 239/470/29 238/465/29
f 231/231/30 234/234/30 233/233/30
f 229/468/31 218/471/31 217/457/31
f 221/462/32 233/472/32 232/469/32
f 241/473/21 248/474/21 247/475/21
f 244/244/22 243/243/22 242/242/22
f 250/476/23 246/477/23 245/478/23
f 249/249/24 252/252/24 251/251/24
f 247/475/25 260/479/25 259/480/25
f 262/481/26 251/482/26 250/476/26
f 261/261/27 264/264/27 263/263/27
f 259/480/28 254/483/28 253/484/28
f 256/485/29 263/486/29 262/481/29
f 255/255/30 258/258/30 257/257/30
f 253/484/31 242/487/31 241/473/31
f 245/478/32 257/488/32 256/485/32
f 265/489/21 272/490/21 271/491/21
f 268/268/22 267/267/22 266/266/22
f 274/492/23 270/493/23 269/494/23
f 273/273/24 276/276/24 275/275/24
f 271/491/25 284/495/25 283/496/25
f 286/497/26 275/498/26 274/492/26
f 285/285/27 288/288/27 287/287/27
f 283/496/28 278/499/28 277/500/28
f 280/501/29 287/502/29 286/497/29
f 279/279/30 282/282/30 281/281/30
f 277/500/31 266/503/31 265/489/31
f 269/494/32 281/504/32 280/501/32
f 289/505/21 296/506/21 295/507/21
f 292/292/22 291/291/22 290/290/22
f 298/508/23 294/509/23 293/510/23
f 297/297/24 300/300/24 299/299/24
f 295/507/25 308/511/25 307/512/25
f 310/513/26 299/514/26 298/508/26
f 309/309/27 312/312/27 311/311/27
f 307/512/28 302/515/28 301/516/28
f 304/517/29 311/518/29 310/513/29
f 303/303/30 306/306/30 305/305/30
f 301/516/31 290/519/31 289/505/31
f 293/510/32 305/520/32 304/517/32
f 19/320/33 1/313/33 7/315/33
f 6/6/34 8/521/34 3/3/34
f 17/17/35 2/522/35 15/15/35
f 10/316/36 16/325/36 22/321/36
f 11/523/37 20/20/37 9/524/37
f 23/525/38 14/14/38 21/526/38
f 43/336/33 25/329/33 31/331/33
f 30/30/34 32/527/34 27/27/34
f 41/41/35 26/528/35 39/39/35
f 34/332/36 40/341/36 46/337/36
f 35/529/37 44/44/37 33/530/37
f 47/531/38 38/38/38 45/532/38
f 67/352/33 49/345/33 55/347/33
f 54/54/34 56/533/34 51/51/34
f 65/65/35 50/534/35 63/63/35
f 58/348/36 64/357/36 70/353/36
f 59/535/37 68/68/37 57/536/37
f 71/537/38 62/62/38 69/538/38
f 91/368/33 73/361/33 79/363/33
f 78/78/34 80/539/34 75/75/34
f 89/89/35 74/540/35 87/87/35
f 82/364/36 88/373/36 94/369/36
f 83/541/37 92/92/37 81/542/37
f 95/543/38 86/86/38 93/544/38
f 115/384/33 97/377/33 103/379/33
f 102/102/34 104/545/34 99/99/34
f 113/113/35 98/546/35 111/111/35
f 106/380/36 112/389/36 118/385/36
f 107/547/37 116/116/37 105/548/37
f 119/549/38 110/110/38 117/550/38
f 139/400/33 121/393/33 127/395/33
f 126/126/34 128/551/34 123/123/34
f 137/137/35 122/552/35 135/135/35
f 130/396/36 136/405/36 142/401/36
f 131/553/37 140/140/37 129/554/37
f 143/555/38 134/134/38 141/556/38
f 163/416/33 145/409/33 151/411/33
f 150/150/34 152/557/34 147/147/34
f 161/161/35 146/558/35 159/159/35
f 154/412/36 160/421/36 166/417/36
f 155/559/37 164/164/37 153/560/37
f 167/561/38 158/158/38 165/562/38
f 187/432/33 169/425/33 175/427/33
f 174/174/34 176/563/34 171/171/34
f 185/185/35 170/564/35 183/183/35
f 178/428/36 184/437/36 190/433/36
f 179/565/37 188/188/37 177/566/37
f 191/567/38 182/182/38 189/568/38
f 211/448/33 193/441/33 199/443/33
f 198/198/34 200/569/34 195/195/34
f 209/209/35 194/570/35 207/207/35
f 202/444/36 208/453/36 214/449/36
f 203/571/37 212/212/37 201/572/37
f 215/573/38 206/206/38 213/574/38
f 235/464/33 217/457/33 223/459/33
f 222/222/34 224/575/34 219/219/34
f 233/233/35 218/576/35 231/231/35
f 226/460/36 232/469/36 238/465/36
f 227/577/37 236/236/37 225/578/37
f 239/579/38 230/230/38 237/580/38
f 259/480/33 241/473/33 247/475/33
f 246/246/34 248/581/34 243/243/34
f 257/257/35 242/582/35 255/255/35
f 250/476/36 256/485/36 262/481/36
f 251/583/37 260/260/37 249/584/37
f 263/585/38 254/254/38 261/586/38
f 283/496/33 265/489/33 271/491/33
f 270/270/34 272/587/34 267/267/34
f 281/281/35 266/588/35 279/279/35
f 274/492/36 280/501/36 286/497/36
f 275/589/37 284/284/37 273/590/37
f 287/591/38 278/278/38 285/592/38
f 307/512/33 289/505/33 295/507/33
f 294/294/34 296/593/34 291/291/34
f 305/305/35 290/594/35 303/303/35
f 298/508/36 304/517/36 310/513/36
f 299/595/37 308/308/37 297/596/37
f 311/597/38 302/302/38 309/598/38
f 1/313/21 3/599/21 8/314/21
f 4/4/22 6/6/22 3/3/22
f 10/316/23 12/600/23 6/317/23
f 9/9/24 8/8/24 12/12/24
f 7/315/25 9/601/25 20/319/25
f 22/321/26 24/602/26 11/322/26
f 21/21/27 20/20/27 24/24/27
f 19/320/28 21/603/28 14/323/28
f 16/325/29 18/604/29 23/326/29
f 15/15/30 14/14/30 18/18/30
f 13/324/31 15/605/31 2/327/31
f 5/318/32 4/606/32 17/328/32
f 25/329/21 27/607/21 32/330/21
f 28/28/22 30/30/22 27/27/22
f 34/332/23 36/608/23 30/333/23
f 33/33/24 32/32/24 36/36/24
f 31/331/25 33/609/25 44/335/25
f 46/337/26 48/610/26 35/338/26
f 45/45/27 44/44/27 48/48/27
f 43/336/28 45/611/28 38/339/28
f 40/341/29 42/612/29 47/342/29
f 39/39/30 38/38/30 42/42/30
f 37/340/31 39/613/31 26/343/31
f 29/334/32 28/614/32 41/344/32
f 49/345/21 51/615/21 56/346/21
f 52/52/22 54/54/22 51/51/22
f 58/348/23 60/616/23 54/349/23
f 57/57/24 56/56/24 60/60/24
f 55/347/25 57/617/25 68/351/25
f 70/353/26 72/618/26 59/354/26
f 69/69/27 68/68/27 72/72/27
f 67/352/28 69/619/28 62/355/28
f 64/357/29 66/620/29 71/358/29
f 63/63/30 62/62/30 66/66/30
f 61/356/31 63/621/31 50/359/31
f 53/350/32 52/622/32 65/360/32
f 73/361/21 75/623/21 80/362/21
f 76/76/22 78/78/22 75/75/22
f 82/364/23 84/624/23 78/365/23
f 81/81/24 80/80/24 84/84/24
f 79/363/25 81/625/25 92/367/25
f 94/369/26 96/626/26 83/370/26
f 93/93/27 92/92/27 96/96/27
f 91/368/28 93/627/28 86/371/28
f 88/373/29 90/628/29 95/374/29
f 87/87/30 86/86/30 90/90/30
f 85/372/31 87/629/31 74/375/31
f 77/366/32 76/630/32 89/376/32
f 97/377/21 99/631/21 104/378/21
f 100/100/22 102/102/22 99/99/22
f 106/380/23 108/632/23 102/381/23
f 105/105/24 104/104/24 108/108/24
f 103/379/25 105/633/25 116/383/25
f 118/385/26 120/634/26 107/386/26
f 117/117/27 116/116/27 120/120/27
f 115/384/28 117/635/28 110/387/28
f 112/389/29 114/636/29 119/390/29
f 111/111/30 110/110/30 114/114/30
f 109/388/31 111/637/31 98/391/31
f 101/382/32 100/638/32 113/392/32
f 121/393/21 123/639/21 128/394/21
f 124/124/22 126/126/22 123/123/22
f 130/396/23 132/640/23 126/397/23
f 129/129/24 128/128/24 132/132/24
f 127/395/25 129/641/25 140/399/25
f 142/401/26 144/642/26 131/402/26
f 141/141/27 140/140/27 144/144/27
f 139/400/28 141/643/28 134/403/28
f 136/405/29 138/644/29 143/406/29
f 135/135/30 134/134/30 138/138/30
f 133/404/31 135/645/31 122/407/31
f 125/398/32 124/646/32 137/408/32
f 145/409/21 147/647/21 152/410/21
f 148/148/22 150/150/22 147/147/22
f 154/412/23 156/648/23 150/413/23
f 153/153/24 152/152/24 156/156/24
f 151/411/25 153/649/25 164/415/25
f 166/417/26 168/650/26 155/418/26
f 165/165/27 164/164/27 168/168/27
f 163/416/28 165/651/28 158/419/28
f 160/421/29 162/652/29 167/422/29
f 159/159/30 158/158/30 162/162/30
f 157/420/31 159/653/31 146/423/31
f 149/414/32 148/654/32 161/424/32
f 169/425/21 171/655/21 176/426/21
f 172/172/22 174/174/22 171/171/22
f 178/428/23 180/656/23 174/429/23
f 177/177/24 176/176/24 180/180/24
f 175/427/25 177/657/25 188/431/25
f 190/433/26 192/658/26 179/434/26
f 189/189/27 188/188/27 192/192/27
f 187/432/28 189/659/28 182/435/28
f 184/437/29 186/660/29 191/438/29
f 183/183/30 182/182/30 186/186/30
f 181/436/31 183/661/31 170/439/31
f 173/430/32 172/662/32 185/440/32
f 193/441/21 195/663/21 200/442/21
f 196/196/22 198/198/22 195/195/22
f 202/444/23 204/664/23 198/445/23
f 201/201/24 200/200/24 204/204/24
f 199/443/25 201/665/25 212/447/25
f 214/449/26 216/666/26 203/450/26
f 213/213/27 212/212/27 216/216/27
f 211/448/28 213/667/28 206/451/28
f 208/453/29 210/668/29 215/454/29
f 207/207/30 206/206/30 210/210/30
f 205/452/31 207/669/31 194/455/31
f 197/446/32 196/670/32 209/456/32
f 217/457/21 219/671/21 224/458/21
f 220/220/22 222/222/22 219/219/22
f 226/460/23 228/672/23 222/461/23
f 225/225/24 224/224/24 228/228/24
f 223/459/25 225/673/25 236/463/25
f 238/465/26 240/674/26 227/466/26
f 237/237/27 236/236/27 240/240/27
f 235/464/28 237/675/28 230/467/28
f 232/469/29 234/676/29 239/470/29
f 231/231/30 230/230/30 234/234/30
f 229/468/31 231/677/31 218/471/31
f 221/462/32 220/678/32 233/472/32
f 241/473/21 243/679/21 248/474/21
f 244/244/22 246/246/22 243/243/22
f 250/476/23 252/680/23 246/477/23
f 249/249/24 248/248/24 252/252/24
f 247/475/25 249/681/25 260/479/25
f 262/481/26 264/682/26 251/482/26
f 261/261/27 260/260/27 264/264/27
f 259/480/28 261/683/28 254/483/28
f 256/485/29 258/684/29 263/486/29
f 255/255/30 254/254/30 258/258/30
f 253/484/31 255/685/31 242/487/31
f 245/478/32 244/686/32 257/488/32
f 265/489/21 267/687/21 272/490/21
f 268/268/22 270/270/22 267/267/22
f 274/492/23 276/688/23 270/493/23
f 273/273/24 272/272/24 276/276/24
f 271/491/25 273/689/25 284/495/25
f 286/497/26 288/690/26 275/498/26
f 285/285/27 284/284/27 288/288/27
f 283/496/28 285/691/28 278/499/28
f 280/501/29 282/692/29 287/502/29
f 279/279/30 278/278/30 282/282/30
f 277/500/31 279/693/31 266/503/31
f 269/494/32 268/694/32 281/504/32
f 289/505/21 291/695/21 296/506/21
f 292/292/22 294/294/22 291/291/22
f 298/508/23 300/696/23 294/509/23
f 297/297/24 296/296/24 300/300/24
f 295/507/25 297/697/25 308/511/25
f 310/513/26 312/698/26 299/514/26
f 309/309/27 308/308/27 312/312/27
f 307/512/28 309/699/28 302/515/28
f 304/517/29 306/700/29 311/518/29
f 303/303/30 302/302/30 306/306/30
f 301/516/31 303/701/31 290/519/31
f 293/510/32 292/702/32 305/520/32
f 19/320/33 13/324/33 1/313/33
f 6/6/34 12/703/34 8/521/34
f 17/17/35 4/704/35 2/522/35
f 10/316/36 5/318/36 16/325/36
f 11/523/37 24/24/37 20/20/37
f 23/525/38 18/18/38 14/14/38
f 43/336/33 37/340/33 25/329/33
f 30/30/34 36/705/34 32/527/34
f 41/41/35 28/706/35 26/528/35
f 34/332/36 29/334/36 40/341/36
f 35/529/37 48/48/37 44/44/37
f 47/531/38 42/42/38 38/38/38
f 67/352/33 61/356/33 49/345/33
f 54/54/34 60/707/34 56/533/34
f 65/65/35 52/708/35 50/534/35
f 58/348/36 53/350/36 64/357/36
f 59/535/37 72/72/37 68/68/37
f 71/537/38 66/66/38 62/62/38
f 91/368/33 85/372/33 73/361/33
f 78/78/34 84/709/34 80/539/34
f 89/89/35 76/710/35 74/540/35
f 82/364/36 77/366/36 88/373/36
f 83/541/37 96/96/37 92/92/37
f 95/543/38 90/90/38 86/86/38
f 115/384/33 109/388/33 97/377/33
f 102/102/34 108/711/34 104/545/34
f 113/113/35 100/712/35 98/546/35
f 106/380/36 101/382/36 112/389/36
f 107/547/37 120/120/37 116/116/37
f 119/549/38 114/114/38 110/110/38
f 139/400/33 133/404/33 121/393/33
f 126/126/34 132/713/34 128/551/34
f 137/137/35 124/714/35 122/552/35
f 130/396/36 125/398/36 136/405/36
f 131/553/37 144/144/37 140/140/37
f 143/555/38 138/138/38 134/134/38
f 163/416/33 157/420/33 145/409/33
f 150/150/34 156/715/34 152/557/34
f 161/161/35 148/716/35 146/558/35
f 154/412/36 149/414/36 160/421/36
f 155/559/37 168/168/37 164/164/37
f 167/561/38 162/162/38 158/158/38
f 187/432/33 181/436/33 169/425/33
f 174/174/34 180/717/34 176/563/34
f 185/185/35 172/718/35 170/564/35
f 178/428/36 173/430/36 184/437/36
f 179/565/37 192/192/37 188/188/37
f 191/567/38 186/186/38 182/182/38
f 211/448/33 205/452/33 193/441/33
f 198/198/34 204/719/34 200/569/34
f 209/209/35 196/720/35 194/570/35
f 202/444/36 197/446/36 208/453/36
f 203/571/37 216/216/37 212/212/37
f 215/573/38 210/210/38 206/206/38
f 235/464/33 229/468/33 217/457/33
f 222/222/34 228/721/34 224/575/34
f 233/233/35 220/722/35 218/576/35
f 226/460/36 221/462/36 232/469/36
f 227/577/37 240/240/37 236/236/37
f 239/579/38 234/234/38 230/230/38
f 259/480/33 253/484/33 241/473/33
f 246/246/34 252/723/34 248/581/34
f 257/257/35 244/724/35 242/582/35
f 250/476/36 245/478/36 256/485/36
f 251/583/37 264/264/37 260/260/37
f 263/585/38 258/258/38 254/254/38
f 283/496/33 277/500/33 265/489/33
f 270/270/34 276/725/34 272/587/34
f 281/281/35 268/726/35 266/588/35
f 274/492/36 269/494/36 280/501/36
f 275/589/37 288/288/37 284/284/37
f 287/591/38 282/282/38 278/278/38
f 307/512/33 301/516/33 289/505/33
f 294/294/34 300/727/34 296/593/34
f 305/305/35 292/728/35 290/594/35
f 298/508/36 293/510/36 304/517/36
f 299/595/37 312/312/37 308/308/37
f 311/597/38 306/306/38 302/302/38
