# Blender 5.2.0 LTS
# www.blender.org
o Urn
v 0.130000 0.000000 0.000000
v 0.120104 0.000000 -0.049749
v 0.091924 0.000000 -0.091924
v 0.049749 0.000000 -0.120104
v 0.000000 0.000000 -0.130000
v -0.049749 0.000000 -0.120104
v -0.091924 0.000000 -0.091924
v -0.120104 0.000000 -0.049749
v -0.130000 0.000000 -0.000000
v -0.120104 0.000000 0.049749
v -0.091924 0.000000 0.091924
v -0.049749 0.000000 0.120104
v -0.000000 0.000000 0.130000
v 0.049749 0.000000 0.120104
v 0.091924 0.000000 0.091924
v 0.120104 0.000000 0.049749
v 0.150000 0.040000 0.000000
v 0.138582 0.040000 -0.057403
v 0.106066 0.040000 -0.106066
v 0.057403 0.040000 -0.138582
v 0.000000 0.040000 -0.150000
v -0.057403 0.040000 -0.138582
v -0.106066 0.040000 -0.106066
v -0.138582 0.040000 -0.057403
v -0.150000 0.040000 -0.000000
v -0.138582 0.040000 0.057403
v -0.106066 0.040000 0.106066
v -0.057403 0.040000 0.138582
v -0.000000 0.040000 0.150000
v 0.057403 0.040000 0.138582
v 0.106066 0.040000 0.106066
v 0.138582 0.040000 0.057403
v 0.105000 0.100000 0.000000
v 0.097007 0.100000 -0.040182
v 0.074246 0.100000 -0.074246
v 0.040182 0.100000 -0.097007
v 0.000000 0.100000 -0.105000
v -0.040182 0.100000 -0.097007
v -0.074246 0.100000 -0.074246
v -0.097007 0.100000 -0.040182
v -0.105000 0.100000 -0.000000
v -0.097007 0.100000 0.040182
v -0.074246 0.100000 0.074246
v -0.040182 0.100000 0.097007
v -0.000000 0.100000 0.105000
v 0.040182 0.100000 0.097007
v 0.074246 0.100000 0.074246
v 0.097007 0.100000 0.040182
v 0.200000 0.170000 0.000000
v 0.184776 0.170000 -0.076537
v 0.141421 0.170000 -0.141421
v 0.076537 0.170000 -0.184776
v 0.000000 0.170000 -0.200000
v -0.076537 0.170000 -0.184776
v -0.141421 0.170000 -0.141421
v -0.184776 0.170000 -0.076537
v -0.200000 0.170000 -0.000000
v -0.184776 0.170000 0.076537
v -0.141421 0.170000 0.141421
v -0.076537 0.170000 0.184776
v -0.000000 0.170000 0.200000
v 0.076537 0.170000 0.184776
v 0.141421 0.170000 0.141421
v 0.184776 0.170000 0.076537
v 0.310000 0.300000 0.000000
v 0.286403 0.300000 -0.118632
v 0.219203 0.300000 -0.219203
v 0.118632 0.300000 -0.286403
v 0.000000 0.300000 -0.310000
v -0.118632 0.300000 -0.286403
v -0.219203 0.300000 -0.219203
v -0.286403 0.300000 -0.118632
v -0.310000 0.300000 -0.000000
v -0.286403 0.300000 0.118632
v -0.219203 0.300000 0.219203
v -0.118632 0.300000 0.286403
v -0.000000 0.300000 0.310000
v 0.118632 0.300000 0.286403
v 0.219203 0.300000 0.219203
v 0.286403 0.300000 0.118632
v 0.350000 0.440000 0.000000
v 0.323358 0.440000 -0.133939
v 0.247487 0.440000 -0.247487
v 0.133939 0.440000 -0.323358
v 0.000000 0.440000 -0.350000
v -0.133939 0.440000 -0.323358
v -0.247487 0.440000 -0.247487
v -0.323358 0.440000 -0.133939
v -0.350000 0.440000 -0.000000
v -0.323358 0.440000 0.133939
v -0.247487 0.440000 0.247487
v -0.133939 0.440000 0.323358
v -0.000000 0.440000 0.350000
v 0.133939 0.440000 0.323358
v 0.247487 0.440000 0.247487
v 0.323358 0.440000 0.133939
v 0.330000 0.560000 0.000000
v 0.304880 0.560000 -0.126286
v 0.233345 0.560000 -0.233345
v 0.126286 0.560000 -0.304880
v 0.000000 0.560000 -0.330000
v -0.126286 0.560000 -0.304880
v -0.233345 0.560000 -0.233345
v -0.304880 0.560000 -0.126286
v -0.330000 0.560000 -0.000000
v -0.304880 0.560000 0.126286
v -0.233345 0.560000 0.233345
v -0.126286 0.560000 0.304880
v -0.000000 0.560000 0.330000
v 0.126286 0.560000 0.304880
v 0.233345 0.560000 0.233345
v 0.304880 0.560000 0.126286
v 0.220000 0.680000 0.000000
v 0.203253 0.680000 -0.084190
v 0.155563 0.680000 -0.155563
v 0.084190 0.680000 -0.203253
v 0.000000 0.680000 -0.220000
v -0.084190 0.680000 -0.203253
v -0.155563 0.680000 -0.155563
v -0.203253 0.680000 -0.084190
v -0.220000 0.680000 -0.000000
v -0.203253 0.680000 0.084190
v -0.155563 0.680000 0.155563
v -0.084190 0.680000 0.203253
v -0.000000 0.680000 0.220000
v 0.084190 0.680000 0.203253
v 0.155563 0.680000 0.155563
v 0.203253 0.680000 0.084190
v 0.145000 0.770000 0.000000
v 0.133963 0.770000 -0.055489
v 0.102530 0.770000 -0.102530
v 0.055489 0.770000 -0.133963
v 0.000000 0.770000 -0.145000
v -0.055489 0.770000 -0.133963
v -0.102530 0.770000 -0.102530
v -0.133963 0.770000 -0.055489
v -0.145000 0.770000 -0.000000
v -0.133963 0.770000 0.055489
v -0.102530 0.770000 0.102530
v -0.055489 0.770000 0.133963
v -0.000000 0.770000 0.145000
v 0.055489 0.770000 0.133963
v 0.102530 0.770000 0.102530
v 0.133963 0.770000 0.055489
v 0.160000 0.830000 0.000000
v 0.147821 0.830000 -0.061229
v 0.113137 0.830000 -0.113137
v 0.061229 0.830000 -0.147821
v 0.000000 0.830000 -0.160000
v -0.061229 0.830000 -0.147821
v -0.113137 0.830000 -0.113137
v -0.147821 0.830000 -0.061229
v -0.160000 0.830000 -0.000000
v -0.147821 0.830000 0.061229
v -0.113137 0.830000 0.113137
v -0.061229 0.830000 0.147821
v -0.000000 0.830000 0.160000
v 0.061229 0.830000 0.147821
v 0.113137 0.830000 0.113137
v 0.147821 0.830000 0.061229
v 0.205000 0.890000 0.000000
v 0.189395 0.890000 -0.078450
v 0.144957 0.890000 -0.144957
v 0.078450 0.890000 -0.189395
v 0.000000 0.890000 -0.205000
v -0.078450 0.890000 -0.189395
v -0.144957 0.890000 -0.144957
v -0.189395 0.890000 -0.078450
v -0.205000 0.890000 -0.000000
v -0.189395 0.890000 0.078450
v -0.144957 0.890000 0.144957
v -0.078450 0.890000 0.189395
v -0.000000 0.890000 0.205000
v 0.078450 0.890000 0.189395
v 0.144957 0.890000 0.144957
v 0.189395 0.890000 0.078450
v 0.165000 0.905000 0.000000
v 0.152440 0.905000 -0.063143
v 0.116673 0.905000 -0.116673
v 0.063143 0.905000 -0.152440
v 0.000000 0.905000 -0.165000
v -0.063143 0.905000 -0.152440
v -0.116673 0.905000 -0.116673
v -0.152440 0.905000 -0.063143
v -0.165000 0.905000 -0.000000
v -0.152440 0.905000 0.063143
v -0.116673 0.905000 0.116673
v -0.063143 0.905000 0.152440
v -0.000000 0.905000 0.165000
v 0.063143 0.905000 0.152440
v 0.116673 0.905000 0.116673
v 0.152440 0.905000 0.063143
vn 0.8263 -0.4472 -0.3423
vn 0.8944 -0.4472 -0.0000
vn 0.6325 -0.4472 -0.6325
vn 0.3423 -0.4472 -0.8263
vn -0.0000 -0.4472 -0.8944
vn -0.3423 -0.4472 -0.8263
vn -0.6325 -0.4472 -0.6325
vn -0.8263 -0.4472 -0.3423
vn -0.8944 -0.4472 -0.0000
vn -0.8263 -0.4472 0.3423
vn -0.6325 -0.4472 0.6325
vn -0.3423 -0.4472 0.8263
vn -0.0000 -0.4472 0.8944
vn 0.3423 -0.4472 0.8263
vn 0.6325 -0.4472 0.6325
vn 0.8263 -0.4472 0.3423
vn 0.7391 0.6000 -0.3061
vn 0.8000 0.6000 -0.0000
vn 0.5657 0.6000 -0.5657
vn 0.7391 0.6000 -0.3062
vn 0.3061 0.6000 -0.7391
vn -0.0000 0.6000 -0.8000
vn -0.3061 0.6000 -0.7391
vn -0.5657 0.6000 -0.5657
vn -0.3062 0.6000 -0.7391
vn -0.7391 0.6000 -0.3061
vn -0.8000 0.6000 -0.0000
vn -0.7391 0.6000 0.3061
vn -0.5657 0.6000 0.5657
vn -0.7391 0.6000 0.3062
vn -0.3061 0.6000 0.7391
vn -0.0000 0.6000 0.8000
vn 0.3061 0.6000 0.7391
vn 0.5657 0.6000 0.5657
vn 0.3062 0.6000 0.7391
vn 0.7391 0.6000 0.3061
vn 0.5932 -0.8051 -0.0000
vn 0.6380 -0.7233 -0.2643
vn 0.6905 -0.7233 -0.0000
vn 0.4195 -0.8051 -0.4195
vn 0.5480 -0.8051 -0.2270
vn 0.2270 -0.8051 -0.5480
vn 0.4883 -0.7233 -0.4883
vn -0.0000 -0.8051 -0.5932
vn 0.2643 -0.7233 -0.6380
vn -0.2643 -0.7233 -0.6380
vn -0.0000 -0.7233 -0.6905
vn -0.4195 -0.8051 -0.4195
vn -0.2270 -0.8051 -0.5480
vn -0.5480 -0.8051 -0.2270
vn -0.4883 -0.7233 -0.4883
vn -0.5932 -0.8051 -0.0000
vn -0.6380 -0.7233 -0.2643
vn -0.6380 -0.7233 0.2643
vn -0.6905 -0.7233 -0.0000
vn -0.4195 -0.8051 0.4195
vn -0.5480 -0.8051 0.2270
vn -0.2270 -0.8051 0.5480
vn -0.4883 -0.7233 0.4883
vn -0.0000 -0.8051 0.5932
vn -0.2643 -0.7233 0.6380
vn 0.2643 -0.7233 0.6380
vn -0.0000 -0.7233 0.6905
vn 0.4195 -0.8051 0.4195
vn 0.2270 -0.8051 0.5480
vn 0.5480 -0.8051 0.2270
vn 0.4883 -0.7233 0.4883
vn 0.6380 -0.7233 0.2643
vn 0.8878 -0.4603 -0.0000
vn 0.8202 -0.4603 -0.3397
vn 0.6277 -0.4603 -0.6277
vn 0.3397 -0.4603 -0.8202
vn -0.0000 -0.4603 -0.8878
vn -0.3397 -0.4603 -0.8202
vn -0.6277 -0.4603 -0.6277
vn -0.8202 -0.4603 -0.3397
vn -0.8878 -0.4603 -0.0000
vn -0.8202 -0.4603 0.3397
vn -0.6277 -0.4603 0.6277
vn -0.3397 -0.4603 0.8202
vn -0.0000 -0.4603 0.8878
vn 0.3397 -0.4603 0.8202
vn 0.6277 -0.4603 0.6277
vn 0.8202 -0.4603 0.3397
vn 0.9985 -0.0551 -0.0000
vn 0.7060 -0.0551 -0.7060
vn 0.9225 -0.0551 -0.3821
vn 0.3821 -0.0551 -0.9225
vn -0.0000 -0.0551 -0.9985
vn -0.7060 -0.0551 -0.7060
vn -0.3821 -0.0551 -0.9225
vn -0.9225 -0.0551 -0.3821
vn -0.9985 -0.0551 -0.0000
vn -0.7060 -0.0551 0.7060
vn -0.9225 -0.0551 0.3821
vn -0.3821 -0.0551 0.9225
vn -0.0000 -0.0551 0.9985
vn 0.7060 -0.0551 0.7060
vn 0.3821 -0.0551 0.9225
vn 0.9225 -0.0551 0.3821
vn 0.9053 0.4248 -0.0000
vn 0.8364 0.4248 -0.3464
vn 0.6401 0.4248 -0.6401
vn 0.3464 0.4248 -0.8364
vn -0.0000 0.4248 -0.9053
vn -0.3464 0.4248 -0.8364
vn -0.6401 0.4248 -0.6401
vn -0.8364 0.4248 -0.3464
vn -0.9053 0.4248 -0.0000
vn -0.8364 0.4248 0.3464
vn -0.6401 0.4248 0.6401
vn -0.3464 0.4248 0.8364
vn -0.0000 0.4248 0.9053
vn 0.3464 0.4248 0.8364
vn 0.6401 0.4248 0.6401
vn 0.8364 0.4248 0.3464
vn 0.7516 0.6596 -0.0000
vn 0.6944 0.6596 -0.2876
vn 0.5315 0.6596 -0.5315
vn 0.2876 0.6596 -0.6944
vn -0.0000 0.6596 -0.7516
vn -0.2876 0.6596 -0.6944
vn -0.5315 0.6596 -0.5315
vn -0.6944 0.6596 -0.2876
vn -0.7516 0.6596 -0.0000
vn -0.6944 0.6596 0.2876
vn -0.5315 0.6596 0.5315
vn -0.2876 0.6596 0.6944
vn -0.0000 0.6596 0.7516
vn 0.2876 0.6596 0.6944
vn 0.5315 0.6596 0.5315
vn 0.6944 0.6596 0.2876
vn 0.7682 0.6402 -0.0000
vn 0.5432 0.6402 -0.5432
vn 0.7097 0.6402 -0.2940
vn 0.2940 0.6402 -0.7097
vn -0.0000 0.6402 -0.7682
vn -0.5432 0.6402 -0.5432
vn -0.2940 0.6402 -0.7097
vn -0.7097 0.6402 -0.2940
vn -0.7682 0.6402 -0.0000
vn -0.5432 0.6402 0.5432
vn -0.7097 0.6402 0.2940
vn -0.2940 0.6402 0.7097
vn -0.0000 0.6402 0.7682
vn 0.5432 0.6402 0.5432
vn 0.2940 0.6402 0.7097
vn 0.7097 0.6402 0.2940
vn 0.8963 -0.2425 -0.3713
vn 0.8982 -0.4396 -0.0000
vn 0.9701 -0.2425 -0.0000
vn 0.6860 -0.2425 -0.6860
vn 0.8298 -0.4396 -0.3437
vn 0.3713 -0.2425 -0.8963
vn 0.6351 -0.4396 -0.6351
vn -0.0000 -0.2425 -0.9701
vn 0.3437 -0.4396 -0.8298
vn -0.3712 -0.2425 -0.8963
vn -0.0000 -0.4396 -0.8982
vn -0.6860 -0.2425 -0.6860
vn -0.3437 -0.4396 -0.8298
vn -0.8963 -0.2425 -0.3713
vn -0.6351 -0.4396 -0.6351
vn -0.9701 -0.2425 -0.0000
vn -0.8298 -0.4396 -0.3437
vn -0.8963 -0.2425 0.3713
vn -0.8982 -0.4396 -0.0000
vn -0.6860 -0.2425 0.6860
vn -0.8298 -0.4396 0.3437
vn -0.3713 -0.2425 0.8963
vn -0.6351 -0.4396 0.6351
vn -0.0000 -0.2425 0.9701
vn -0.3437 -0.4396 0.8298
vn 0.3712 -0.2425 0.8963
vn -0.0000 -0.4396 0.8982
vn 0.6860 -0.2425 0.6860
vn 0.3437 -0.4396 0.8298
vn 0.8963 -0.2425 0.3713
vn 0.6351 -0.4396 0.6351
vn 0.8298 -0.4396 0.3437
vn 0.8000 -0.6000 -0.0000
vn 0.7391 -0.6000 -0.3061
vn 0.5657 -0.6000 -0.5657
vn -0.0000 -0.6000 -0.8000
vn 0.3061 -0.6000 -0.7391
vn -0.3061 -0.6000 -0.7391
vn -0.5657 -0.6000 -0.5657
vn -0.8000 -0.6000 -0.0000
vn -0.7391 -0.6000 -0.3061
vn -0.7391 -0.6000 0.3061
vn -0.5657 -0.6000 0.5657
vn -0.0000 -0.6000 0.8000
vn -0.3061 -0.6000 0.7391
vn 0.3061 -0.6000 0.7391
vn 0.5657 -0.6000 0.5657
vn 0.7391 -0.6000 0.3061
vn 0.3244 0.9363 -0.1344
vn 0.1998 0.9798 -0.0000
vn 0.3511 0.9363 -0.0000
vn 0.1413 0.9798 -0.1413
vn 0.1846 0.9798 -0.0765
vn 0.1344 0.9363 -0.3244
vn 0.2483 0.9363 -0.2483
vn -0.0000 0.9798 -0.1998
vn 0.0765 0.9798 -0.1846
vn -0.1344 0.9363 -0.3244
vn -0.0000 0.9363 -0.3511
vn -0.1413 0.9798 -0.1413
vn -0.0765 0.9798 -0.1846
vn -0.3244 0.9363 -0.1344
vn -0.2483 0.9363 -0.2483
vn -0.1998 0.9798 -0.0000
vn -0.1846 0.9798 -0.0765
vn -0.3244 0.9363 0.1344
vn -0.3511 0.9363 -0.0000
vn -0.1413 0.9798 0.1413
vn -0.1846 0.9798 0.0765
vn -0.1344 0.9363 0.3244
vn -0.2483 0.9363 0.2483
vn -0.0000 0.9798 0.1998
vn -0.0765 0.9798 0.1846
vn 0.1344 0.9363 0.3244
vn -0.0000 0.9363 0.3511
vn 0.1413 0.9798 0.1413
vn 0.0765 0.9798 0.1846
vn 0.3244 0.9363 0.1344
vn 0.2483 0.9363 0.2483
vn 0.1846 0.9798 0.0765
vn -0.0000 -1.0000 -0.0000
vt 0.611096 0.849108
vt 0.630697 0.863621
vt 0.608373 0.871097
vt 0.827201 0.873639
vt 0.802816 0.838249
vt 0.825360 0.845032
vt 0.804940 0.906984
vt 0.804940 0.871257
vt 0.825360 0.933209
vt 0.827201 0.904602
vt 0.821959 0.955103
vt 0.802816 0.939992
vt 0.595244 0.898902
vt 0.570859 0.863512
vt 0.593403 0.870295
vt 0.572983 0.932247
vt 0.572983 0.896520
vt 0.593403 0.958472
vt 0.595244 0.929865
vt 0.590002 0.980366
vt 0.570859 0.965255
vt 0.686208 0.930696
vt 0.711674 0.965315
vt 0.688931 0.959232
vt 0.707428 0.896679
vt 0.708532 0.932389
vt 0.686208 0.871097
vt 0.685252 0.899747
vt 0.688931 0.849108
vt 0.708532 0.863621
vt 0.608373 0.930696
vt 0.633839 0.965315
vt 0.611096 0.959232
vt 0.629594 0.896679
vt 0.630697 0.932389
vt 0.607417 0.899747
vt 0.633839 0.838249
vt 0.670879 0.877648
vt 0.763087 0.853511
vt 0.764573 0.876616
vt 0.764573 0.901625
vt 0.528382 0.861090
vt 0.566935 0.838249
vt 0.531129 0.878774
vt 0.532616 0.901879
vt 0.532616 0.926888
vt 0.566935 0.990517
vt 0.531129 0.949993
vt 0.750914 0.948834
vt 0.748714 0.925786
vt 0.747942 0.900789
vt 0.711674 0.838249
vt 0.748714 0.877648
vt 0.673079 0.948834
vt 0.670879 0.925786
vt 0.670107 0.900789
vt 0.510535 0.138392
vt 0.444633 0.123858
vt 0.478316 0.090174
vt 0.483280 0.179182
vt 0.492851 0.156076
vt 0.483280 0.204191
vt 0.426403 0.167868
vt 0.492851 0.227296
vt 0.426403 0.215504
vt 0.478316 0.293198
vt 0.444633 0.259514
vt 0.533640 0.254551
vt 0.510535 0.244980
vt 0.558649 0.254551
vt 0.522327 0.311428
vt 0.581755 0.244980
vt 0.569963 0.311428
vt 0.647657 0.259514
vt 0.613973 0.293198
vt 0.609009 0.204191
vt 0.599439 0.227296
vt 0.609009 0.179182
vt 0.665886 0.215504
vt 0.599439 0.156076
vt 0.665886 0.167868
vt 0.613973 0.090174
vt 0.647657 0.123858
vt 0.558649 0.128822
vt 0.581755 0.138392
vt 0.533640 0.128822
vt 0.569963 0.071944
vt 0.522327 0.071944
vt 0.441011 0.034342
vt 0.388801 0.086552
vt 0.514373 0.826076
vt 0.575109 0.757913
vt 0.562009 0.826076
vt 0.360545 0.228604
vt 0.388801 0.296820
vt 0.441011 0.349030
vt 0.239043 0.439297
vt 0.263639 0.351376
vt 0.281831 0.418360
vt 0.583063 0.377286
vt 0.651278 0.349030
vt 0.703489 0.296820
vt 0.159915 0.888087
vt 0.220651 0.819924
vt 0.207551 0.888087
vt 0.731744 0.154768
vt 0.703489 0.086552
vt 0.651278 0.034342
vt 0.822892 0.826076
vt 0.883628 0.757913
vt 0.870528 0.826076
vt 0.509227 0.006086
vt 0.689366 0.745413
vt 0.728011 0.672254
vt 0.741576 0.753524
vt 0.643325 0.753524
vt 0.579873 0.677210
vt 0.656891 0.672254
vt 0.496510 0.677210
vt 0.433057 0.753524
vt 0.501273 0.757913
vt 0.380847 0.745413
vt 0.419492 0.672254
vt 0.322983 0.317451
vt 0.232447 0.276791
vt 0.299449 0.238489
vt 0.157567 0.313431
vt 0.134114 0.409867
vt 0.197317 0.383828
vt 0.083652 0.425530
vt 0.086209 0.342830
vt 0.288867 0.815535
vt 0.225414 0.739220
vt 0.302432 0.734265
vt 0.142051 0.739220
vt 0.078599 0.815535
vt 0.146815 0.819924
vt 0.026389 0.807424
vt 0.065033 0.734265
vt 0.951844 0.753524
vt 0.888392 0.677210
vt 0.965409 0.672254
vt 0.805028 0.677210
vt 0.809792 0.757913
vt 0.669064 0.663097
vt 0.734793 0.598314
vt 0.650108 0.598314
vt 0.577491 0.602986
vt 0.498891 0.602986
vt 0.306986 0.142872
vt 0.348372 0.204356
vt 0.260858 0.175055
vt 0.197685 0.211168
vt 0.127084 0.245714
vt 0.029236 0.360513
vt 0.059804 0.273433
vt 0.295649 0.660324
vt 0.223033 0.664997
vt 0.144433 0.664997
vt 0.006086 0.725108
vt 0.071816 0.660324
vt 0.958627 0.598314
vt 0.886010 0.602986
vt 0.807410 0.602986
vt 0.809775 0.342330
vt 0.743917 0.276830
vt 0.809775 0.263730
vt 0.612802 0.517277
vt 0.564391 0.520392
vt 0.426275 0.598314
vt 0.511991 0.520392
vt 0.821948 0.263730
vt 0.887806 0.329230
vt 0.821948 0.342330
vt 0.191732 0.118661
vt 0.149617 0.142737
vt 0.102549 0.165768
vt 0.839374 0.838249
vt 0.905232 0.903749
vt 0.839374 0.916849
vt 0.258344 0.579288
vt 0.209933 0.582403
vt 0.157533 0.582403
vt 0.965837 0.342330
vt 0.899979 0.276830
vt 0.965837 0.263730
vt 0.921321 0.517277
vt 0.872910 0.520392
vt 0.820510 0.520392
vt 0.735047 0.511521
vt 0.797534 0.457091
vt 0.772099 0.517277
vt 0.555459 0.459144
vt 0.587367 0.457091
vt 0.463580 0.517277
vt 0.520923 0.459144
vt 0.162700 0.061639
vt 0.222484 0.097206
vt 0.114674 0.091648
vt 0.142432 0.075780
vt 0.057696 0.184247
vt 0.083653 0.106827
vt 0.021884 0.195362
vt 0.054090 0.119007
vt 0.201001 0.521155
vt 0.232908 0.519102
vt 0.109122 0.579288
vt 0.166465 0.521155
vt 0.072069 0.573532
vt 0.134557 0.519102
vt 0.863978 0.459144
vt 0.895885 0.457091
vt 0.829442 0.459144
vt 0.773114 0.453298
vt 0.792447 0.422092
vt 0.592454 0.422092
vt 0.557246 0.424358
vt 0.489016 0.457091
vt 0.519137 0.424358
vt 0.464595 0.453298
vt 0.483929 0.422092
vt 0.131619 0.042107
vt 0.100989 0.059616
vt 0.066759 0.076366
vt 0.030487 0.126333
vt 0.034138 0.089805
vt 0.237995 0.484103
vt 0.202787 0.486369
vt 0.164678 0.486369
vt 0.110136 0.515308
vt 0.129470 0.484103
vt 0.900973 0.422092
vt 0.865764 0.424358
vt 0.827655 0.424358
vt 0.341547 0.494938
vt 0.314605 0.451470
vt 0.341547 0.456829
vt 0.607715 0.389459
vt 0.562605 0.392361
vt 0.468667 0.389459
vt 0.513778 0.392361
vt 0.314605 0.517829
vt 0.341547 0.561297
vt 0.314605 0.555938
vt 0.130984 0.006086
vt 0.091740 0.028521
vt 0.006086 0.067201
vt 0.047882 0.049981
vt 0.314605 0.578829
vt 0.341547 0.622297
vt 0.314605 0.616938
vt 0.253257 0.451469
vt 0.208146 0.454372
vt 0.114209 0.451469
vt 0.159319 0.454372
vt 0.341547 0.677938
vt 0.314605 0.634470
vt 0.341547 0.639829
vt 0.916234 0.389459
vt 0.871124 0.392361
vt 0.777186 0.389459
vt 0.822296 0.392361
vt 0.842239 0.251557
vt 0.886302 0.227609
vt 0.891066 0.251557
vt 0.810694 0.212569
vt 0.847003 0.227609
vt 0.762603 0.198346
vt 0.797129 0.232872
vt 0.767866 0.148472
vt 0.782905 0.184780
vt 0.743917 0.104408
vt 0.743917 0.153235
vt 0.782905 0.072863
vt 0.767866 0.109172
vt 0.797129 0.024772
vt 0.762603 0.059298
vt 0.847003 0.030035
vt 0.810694 0.045074
vt 0.891066 0.006086
vt 0.842239 0.006086
vt 0.922611 0.045074
vt 0.886302 0.030035
vt 0.970702 0.059298
vt 0.936176 0.024772
vt 0.965439 0.109172
vt 0.950400 0.072863
vt 0.989388 0.153235
vt 0.989388 0.104408
vt 0.950400 0.184780
vt 0.965439 0.148472
vt 0.936176 0.232872
vt 0.970702 0.198346
vt 0.922611 0.212569
vt 0.453859 0.993914
vt 0.360545 0.931563
vt 0.422895 0.838249
vt 0.798892 0.965255
vt 0.673079 0.859888
vt 0.763087 0.924730
vt 0.528382 0.967677
vt 0.750914 0.859888
vt 0.360545 0.154768
vt 0.509227 0.377286
vt 0.731744 0.228604
vt 0.583063 0.006086
vt 0.360545 0.663097
vt 0.679215 0.589680
vt 0.006086 0.290106
vt 0.016238 0.651691
vt 0.743917 0.329230
vt 0.887806 0.276830
vt 0.905232 0.851349
vt 0.899979 0.329230
vt 0.765500 0.417906
vt 0.456982 0.417906
vt 0.008093 0.097889
vt 0.102523 0.479917
vt 0.314605 0.500297
vt 0.341547 0.512469
vt 0.341547 0.573470
vt 0.314605 0.683297
vt 0.453859 0.838249
vt 0.482465 0.850099
vt 0.504360 0.871993
vt 0.516209 0.900600
vt 0.516209 0.931563
vt 0.504360 0.960170
vt 0.482465 0.982064
vt 0.422895 0.993914
vt 0.394289 0.982064
vt 0.372394 0.960170
vt 0.360545 0.900600
vt 0.372394 0.871993
vt 0.394289 0.850099
s 1
f 2/1/1 17/2/2 1/3/2
f 3/4/3 18/5/1 2/6/1
f 3/4/3 20/7/4 19/8/3
f 5/9/5 20/7/4 4/10/4
f 6/11/6 21/12/5 5/9/5
f 7/13/7 22/14/6 6/15/6
f 7/13/7 24/16/8 23/17/7
f 9/18/9 24/16/8 8/19/8
f 10/20/10 25/21/9 9/18/9
f 11/22/11 26/23/10 10/24/10
f 11/22/11 28/25/12 27/26/11
f 13/27/13 28/25/12 12/28/12
f 14/29/14 29/30/13 13/27/13
f 15/31/15 30/32/14 14/33/14
f 15/31/15 32/34/16 31/35/15
f 1/3/2 32/34/16 16/36/16
f 18/37/17 33/38/18 17/2/18
f 19/8/19 34/39/20 18/5/17
f 20/7/21 35/40/19 19/8/19
f 21/12/22 36/41/21 20/7/21
f 22/14/23 37/42/22 21/43/22
f 23/17/24 38/44/25 22/14/23
f 24/16/26 39/45/24 23/17/24
f 25/21/27 40/46/26 24/16/26
f 26/47/28 41/48/27 25/21/27
f 27/26/29 42/49/30 26/23/28
f 28/25/31 43/50/29 27/26/29
f 29/30/32 44/51/31 28/25/31
f 30/52/33 45/53/32 29/30/32
f 31/35/34 46/54/35 30/32/33
f 32/34/36 47/55/34 31/35/34
f 17/2/18 48/56/36 32/34/36
f 33/57/37 50/58/38 49/59/39
f 35/60/40 50/58/38 34/61/41
f 36/62/42 51/63/43 35/60/40
f 37/64/44 52/65/45 36/62/42
f 37/64/44 54/66/46 53/67/47
f 39/68/48 54/66/46 38/69/49
f 40/70/50 55/71/51 39/68/48
f 41/72/52 56/73/53 40/70/50
f 41/72/52 58/74/54 57/75/55
f 43/76/56 58/74/54 42/77/57
f 44/78/58 59/79/59 43/76/56
f 45/80/60 60/81/61 44/78/58
f 45/80/60 62/82/62 61/83/63
f 47/84/64 62/82/62 46/85/65
f 48/86/66 63/87/67 47/84/64
f 33/57/37 64/88/68 48/86/66
f 50/58/38 65/89/69 49/59/39
f 51/63/43 66/90/70 50/58/38
f 52/91/45 67/92/71 51/93/43
f 53/67/47 68/94/72 52/65/45
f 54/66/46 69/95/73 53/67/47
f 55/71/51 70/96/74 54/66/46
f 56/97/53 71/98/75 55/99/51
f 57/75/55 72/100/76 56/73/53
f 58/74/54 73/101/77 57/75/55
f 59/79/59 74/102/78 58/74/54
f 60/103/61 75/104/79 59/105/59
f 61/83/63 76/106/80 60/81/61
f 62/82/62 77/107/81 61/83/63
f 63/87/67 78/108/82 62/82/62
f 64/109/68 79/110/83 63/111/67
f 49/59/39 80/112/84 64/88/68
f 66/113/70 81/114/85 65/115/69
f 66/116/70 83/117/86 82/118/87
f 67/92/71 84/119/88 83/117/86
f 69/120/73 84/119/88 68/121/72
f 70/122/74 85/123/89 69/120/73
f 70/124/74 87/125/90 86/126/91
f 71/98/75 88/127/92 87/125/90
f 73/128/77 88/127/92 72/129/76
f 74/130/78 89/131/93 73/128/77
f 74/132/78 91/133/94 90/134/95
f 75/104/79 92/135/96 91/133/94
f 77/136/81 92/135/96 76/137/80
f 78/138/82 93/139/97 77/136/81
f 78/140/82 95/141/98 94/142/99
f 79/110/83 96/143/100 95/141/98
f 65/115/69 96/143/100 80/144/84
f 82/145/87 97/146/101 81/114/85
f 83/117/86 98/147/102 82/118/87
f 84/119/88 99/148/103 83/117/86
f 85/123/89 100/149/104 84/119/88
f 86/126/91 101/150/105 85/151/89
f 87/125/90 102/152/106 86/126/91
f 88/127/92 103/153/107 87/125/90
f 89/131/93 104/154/108 88/127/92
f 90/155/95 105/156/109 89/131/93
f 91/133/94 106/157/110 90/134/95
f 92/135/96 107/158/111 91/133/94
f 93/139/97 108/159/112 92/135/96
f 94/160/99 109/161/113 93/139/97
f 95/141/98 110/162/114 94/142/99
f 96/143/100 111/163/115 95/141/98
f 81/114/85 112/164/116 96/143/100
f 98/165/102 113/166/117 97/167/101
f 99/148/103 114/168/118 98/147/102
f 100/149/104 115/169/119 99/148/103
f 101/170/105 116/171/120 100/149/104
f 102/172/106 117/173/121 101/174/105
f 103/153/107 118/175/122 102/152/106
f 104/154/108 119/176/123 103/153/107
f 105/156/109 120/177/124 104/154/108
f 106/178/110 121/179/125 105/180/109
f 107/158/111 122/181/126 106/157/110
f 108/159/112 123/182/127 107/158/111
f 109/161/113 124/183/128 108/159/112
f 110/184/114 125/185/129 109/186/113
f 111/163/115 126/187/130 110/162/114
f 112/164/116 127/188/131 111/163/115
f 97/146/101 128/189/132 112/164/116
f 114/190/118 129/191/133 113/192/117
f 114/168/118 131/193/134 130/194/135
f 116/171/120 131/193/134 115/169/119
f 117/195/121 132/196/136 116/171/120
f 118/175/122 133/197/137 117/198/121
f 118/175/122 135/199/138 134/200/139
f 120/177/124 135/199/138 119/176/123
f 121/201/125 136/202/140 120/177/124
f 122/203/126 137/204/141 121/201/125
f 122/181/126 139/205/142 138/206/143
f 124/183/128 139/205/142 123/182/127
f 125/207/129 140/208/144 124/183/128
f 126/209/130 141/210/145 125/207/129
f 126/187/130 143/211/146 142/212/147
f 128/189/132 143/211/146 127/188/131
f 113/192/117 144/213/148 128/189/132
f 130/214/149 145/215/150 129/191/151
f 131/193/152 146/216/153 130/194/149
f 132/196/154 147/217/155 131/193/152
f 133/218/156 148/219/157 132/196/154
f 134/220/158 149/221/159 133/218/156
f 135/199/160 150/222/161 134/200/158
f 136/202/162 151/223/163 135/199/160
f 137/204/164 152/224/165 136/202/162
f 138/225/166 153/226/167 137/204/164
f 139/205/168 154/227/169 138/206/166
f 140/208/170 155/228/171 139/205/168
f 141/210/172 156/229/173 140/208/170
f 142/230/174 157/231/175 141/210/172
f 143/211/176 158/232/177 142/212/174
f 144/213/178 159/233/179 143/211/176
f 129/191/151 160/234/180 144/213/178
f 146/235/153 161/236/181 145/237/150
f 147/217/155 162/238/182 146/216/153
f 148/219/157 163/239/183 147/217/155
f 148/219/157 165/240/184 164/241/185
f 150/242/161 165/243/184 149/244/159
f 151/223/163 166/245/186 150/222/161
f 152/224/165 167/246/187 151/223/163
f 152/224/165 169/247/188 168/248/189
f 154/249/169 169/250/188 153/251/167
f 155/228/171 170/252/190 154/227/169
f 156/229/173 171/253/191 155/228/171
f 156/229/173 173/254/192 172/255/193
f 158/256/177 173/257/192 157/258/175
f 159/233/179 174/259/194 158/232/177
f 160/234/180 175/260/195 159/233/179
f 160/234/180 161/261/181 176/262/196
f 162/263/197 177/264/198 161/265/199
f 162/263/197 179/266/200 178/267/201
f 164/268/202 179/266/200 163/269/203
f 164/268/202 181/270/204 180/271/205
f 166/272/206 181/270/204 165/273/207
f 166/272/206 183/274/208 182/275/209
f 168/276/210 183/274/208 167/277/211
f 168/276/210 185/278/212 184/279/213
f 170/280/214 185/278/212 169/281/215
f 170/280/214 187/282/216 186/283/217
f 172/284/218 187/282/216 171/285/219
f 172/284/218 189/286/220 188/287/221
f 174/288/222 189/286/220 173/289/223
f 174/288/222 191/290/224 190/291/225
f 176/292/226 191/290/224 175/293/227
f 176/292/226 177/264/198 192/294/228
f 9/295/229 5/296/229 1/297/229
f 184/279/213 188/287/221 192/294/228
f 2/1/1 18/37/1 17/2/2
f 3/4/3 19/8/3 18/5/1
f 3/4/3 4/10/4 20/7/4
f 5/9/5 21/12/5 20/7/4
f 6/11/6 22/298/6 21/12/5
f 7/13/7 23/17/7 22/14/6
f 7/13/7 8/19/8 24/16/8
f 9/18/9 25/21/9 24/16/8
f 10/20/10 26/47/10 25/21/9
f 11/22/11 27/26/11 26/23/10
f 11/22/11 12/28/12 28/25/12
f 13/27/13 29/30/13 28/25/12
f 14/29/14 30/52/14 29/30/13
f 15/31/15 31/35/15 30/32/14
f 15/31/15 16/36/16 32/34/16
f 1/3/2 17/2/2 32/34/16
f 18/37/17 34/299/20 33/38/18
f 19/8/19 35/40/19 34/39/20
f 20/7/21 36/41/21 35/40/19
f 21/12/22 37/300/22 36/41/21
f 22/14/23 38/44/25 37/42/22
f 23/17/24 39/45/24 38/44/25
f 24/16/26 40/46/26 39/45/24
f 25/21/27 41/48/27 40/46/26
f 26/47/28 42/301/30 41/48/27
f 27/26/29 43/50/29 42/49/30
f 28/25/31 44/51/31 43/50/29
f 29/30/32 45/53/32 44/51/31
f 30/52/33 46/302/35 45/53/32
f 31/35/34 47/55/34 46/54/35
f 32/34/36 48/56/36 47/55/34
f 17/2/18 33/38/18 48/56/36
f 33/57/37 34/61/41 50/58/38
f 35/60/40 51/63/43 50/58/38
f 36/62/42 52/65/45 51/63/43
f 37/64/44 53/67/47 52/65/45
f 37/64/44 38/69/49 54/66/46
f 39/68/48 55/71/51 54/66/46
f 40/70/50 56/73/53 55/71/51
f 41/72/52 57/75/55 56/73/53
f 41/72/52 42/77/57 58/74/54
f 43/76/56 59/79/59 58/74/54
f 44/78/58 60/81/61 59/79/59
f 45/80/60 61/83/63 60/81/61
f 45/80/60 46/85/65 62/82/62
f 47/84/64 63/87/67 62/82/62
f 48/86/66 64/88/68 63/87/67
f 33/57/37 49/59/39 64/88/68
f 50/58/38 66/90/70 65/89/69
f 51/63/43 67/303/71 66/90/70
f 52/91/45 68/121/72 67/92/71
f 53/67/47 69/95/73 68/94/72
f 54/66/46 70/96/74 69/95/73
f 55/71/51 71/304/75 70/96/74
f 56/97/53 72/129/76 71/98/75
f 57/75/55 73/101/77 72/100/76
f 58/74/54 74/102/78 73/101/77
f 59/79/59 75/305/79 74/102/78
f 60/103/61 76/137/80 75/104/79
f 61/83/63 77/107/81 76/106/80
f 62/82/62 78/108/82 77/107/81
f 63/87/67 79/306/83 78/108/82
f 64/109/68 80/144/84 79/110/83
f 49/59/39 65/89/69 80/112/84
f 66/113/70 82/145/87 81/114/85
f 66/116/70 67/92/71 83/117/86
f 67/92/71 68/121/72 84/119/88
f 69/120/73 85/123/89 84/119/88
f 70/122/74 86/307/91 85/123/89
f 70/124/74 71/98/75 87/125/90
f 71/98/75 72/129/76 88/127/92
f 73/128/77 89/131/93 88/127/92
f 74/130/78 90/155/95 89/131/93
f 74/132/78 75/104/79 91/133/94
f 75/104/79 76/137/80 92/135/96
f 77/136/81 93/139/97 92/135/96
f 78/138/82 94/160/99 93/139/97
f 78/140/82 79/110/83 95/141/98
f 79/110/83 80/144/84 96/143/100
f 65/115/69 81/114/85 96/143/100
f 82/145/87 98/308/102 97/146/101
f 83/117/86 99/148/103 98/147/102
f 84/119/88 100/149/104 99/148/103
f 85/123/89 101/170/105 100/149/104
f 86/126/91 102/152/106 101/150/105
f 87/125/90 103/153/107 102/152/106
f 88/127/92 104/154/108 103/153/107
f 89/131/93 105/156/109 104/154/108
f 90/155/95 106/309/110 105/156/109
f 91/133/94 107/158/111 106/157/110
f 92/135/96 108/159/112 107/158/111
f 93/139/97 109/161/113 108/159/112
f 94/160/99 110/310/114 109/161/113
f 95/141/98 111/163/115 110/162/114
f 96/143/100 112/164/116 111/163/115
f 81/114/85 97/146/101 112/164/116
f 98/165/102 114/311/118 113/166/117
f 99/148/103 115/169/119 114/168/118
f 100/149/104 116/171/120 115/169/119
f 101/170/105 117/195/121 116/171/120
f 102/172/106 118/312/122 117/173/121
f 103/153/107 119/176/123 118/175/122
f 104/154/108 120/177/124 119/176/123
f 105/156/109 121/201/125 120/177/124
f 106/178/110 122/313/126 121/179/125
f 107/158/111 123/182/127 122/181/126
f 108/159/112 124/183/128 123/182/127
f 109/161/113 125/207/129 124/183/128
f 110/184/114 126/314/130 125/185/129
f 111/163/115 127/188/131 126/187/130
f 112/164/116 128/189/132 127/188/131
f 97/146/101 113/192/117 128/189/132
f 114/190/118 130/214/135 129/191/133
f 114/168/118 115/169/119 131/193/134
f 116/171/120 132/196/136 131/193/134
f 117/195/121 133/218/137 132/196/136
f 118/175/122 134/200/139 133/197/137
f 118/175/122 119/176/123 135/199/138
f 120/177/124 136/202/140 135/199/138
f 121/201/125 137/204/141 136/202/140
f 122/203/126 138/225/143 137/204/141
f 122/181/126 123/182/127 139/205/142
f 124/183/128 140/208/144 139/205/142
f 125/207/129 141/210/145 140/208/144
f 126/209/130 142/230/147 141/210/145
f 126/187/130 127/188/131 143/211/146
f 128/189/132 144/213/148 143/211/146
f 113/192/117 129/191/133 144/213/148
f 130/214/149 146/315/153 145/215/150
f 131/193/152 147/217/155 146/216/153
f 132/196/154 148/219/157 147/217/155
f 133/218/156 149/221/159 148/219/157
f 134/220/158 150/316/161 149/221/159
f 135/199/160 151/223/163 150/222/161
f 136/202/162 152/224/165 151/223/163
f 137/204/164 153/226/167 152/224/165
f 138/225/166 154/317/169 153/226/167
f 139/205/168 155/228/171 154/227/169
f 140/208/170 156/229/173 155/228/171
f 141/210/172 157/231/175 156/229/173
f 142/230/174 158/318/177 157/231/175
f 143/211/176 159/233/179 158/232/177
f 144/213/178 160/234/180 159/233/179
f 129/191/151 145/215/150 160/234/180
f 146/235/153 162/319/182 161/236/181
f 147/217/155 163/239/183 162/238/182
f 148/219/157 164/241/185 163/239/183
f 148/219/157 149/221/159 165/240/184
f 150/242/161 166/320/186 165/243/184
f 151/223/163 167/246/187 166/245/186
f 152/224/165 168/248/189 167/246/187
f 152/224/165 153/226/167 169/247/188
f 154/249/169 170/321/190 169/250/188
f 155/228/171 171/253/191 170/252/190
f 156/229/173 172/255/193 171/253/191
f 156/229/173 157/231/175 173/254/192
f 158/256/177 174/322/194 173/257/192
f 159/233/179 175/260/195 174/259/194
f 160/234/180 176/262/196 175/260/195
f 160/234/180 145/215/150 161/261/181
f 162/263/197 178/267/201 177/264/198
f 162/263/197 163/269/203 179/266/200
f 164/268/202 180/271/205 179/266/200
f 164/268/202 165/273/207 181/270/204
f 166/272/206 182/275/209 181/270/204
f 166/272/206 167/277/211 183/274/208
f 168/276/210 184/279/213 183/274/208
f 168/276/210 169/281/215 185/278/212
f 170/280/214 186/283/217 185/278/212
f 170/280/214 171/285/219 187/282/216
f 172/284/218 188/287/221 187/282/216
f 172/284/218 173/289/223 189/286/220
f 174/288/222 190/291/225 189/286/220
f 174/288/222 175/293/227 191/290/224
f 176/292/226 192/294/228 191/290/224
f 176/292/226 161/265/199 177/264/198
f 1/297/229 16/323/229 15/324/229
f 15/324/229 14/325/229 13/326/229
f 13/326/229 12/327/229 11/328/229
f 11/328/229 10/329/229 9/295/229
f 9/295/229 8/330/229 7/331/229
f 7/331/229 6/332/229 5/296/229
f 5/296/229 4/333/229 3/334/229
f 3/334/229 2/335/229 1/297/229
f 1/297/229 15/324/229 13/326/229
f 13/326/229 11/328/229 9/295/229
f 9/295/229 7/331/229 5/296/229
f 5/296/229 3/334/229 1/297/229
f 1/297/229 13/326/229 9/295/229
f 192/294/228 177/264/198 178/267/201
f 178/267/201 179/266/200 180/271/205
f 180/271/205 181/270/204 182/275/209
f 182/275/209 183/274/208 184/279/213
f 184/279/213 185/278/212 186/283/217
f 186/283/217 187/282/216 188/287/221
f 188/287/221 189/286/220 190/291/225
f 190/291/225 191/290/224 192/294/228
f 192/294/228 178/267/201 180/271/205
f 180/271/205 182/275/209 184/279/213
f 184/279/213 186/283/217 188/287/221
f 188/287/221 190/291/225 192/294/228
f 192/294/228 180/271/205 184/279/213
